%TF.GenerationSoftware,KiCad,Pcbnew,(6.0.7)*%
%TF.CreationDate,2022-11-12T15:58:39-06:00*%
%TF.ProjectId,chrimbus2022,63687269-6d62-4757-9332-3032322e6b69,rev?*%
%TF.SameCoordinates,Original*%
%TF.FileFunction,Soldermask,Top*%
%TF.FilePolarity,Negative*%
%FSLAX46Y46*%
G04 Gerber Fmt 4.6, Leading zero omitted, Abs format (unit mm)*
G04 Created by KiCad (PCBNEW (6.0.7)) date 2022-11-12 15:58:39*
%MOMM*%
%LPD*%
G01*
G04 APERTURE LIST*
%ADD10C,0.230414*%
%ADD11C,0.100558*%
%ADD12C,0.119217*%
%ADD13C,3.200000*%
G04 APERTURE END LIST*
D10*
%TO.C,REF\u002A\u002A*%
X180224810Y-68695211D02*
X180224810Y-68695211D01*
X99175204Y-157364798D02*
X99175204Y-157364798D01*
X180224810Y-157364798D02*
X180224810Y-157364798D01*
G36*
X144089673Y-97744308D02*
G01*
X144404632Y-97779372D01*
X144715645Y-97834579D01*
X145022513Y-97908648D01*
X145325037Y-98000295D01*
X145623018Y-98108240D01*
X145916257Y-98231198D01*
X146204556Y-98367888D01*
X146487715Y-98517028D01*
X146765535Y-98677334D01*
X147037817Y-98847526D01*
X147304362Y-99026319D01*
X147564972Y-99212432D01*
X147819446Y-99404582D01*
X148067587Y-99601487D01*
X148309195Y-99801865D01*
X148575174Y-100048042D01*
X148835560Y-100301961D01*
X149089498Y-100563544D01*
X149336130Y-100832714D01*
X149574602Y-101109393D01*
X149804057Y-101393504D01*
X150023641Y-101684970D01*
X150232496Y-101983713D01*
X150429767Y-102289657D01*
X150614599Y-102602723D01*
X150786135Y-102922835D01*
X150943520Y-103249915D01*
X151085898Y-103583886D01*
X151212413Y-103924671D01*
X151322209Y-104272192D01*
X151414431Y-104626371D01*
X151450442Y-104773996D01*
X151480627Y-104922782D01*
X151505020Y-105072520D01*
X151523657Y-105222997D01*
X151536570Y-105374000D01*
X151543796Y-105525319D01*
X151545368Y-105676742D01*
X151541322Y-105828056D01*
X151531690Y-105979049D01*
X151516508Y-106129511D01*
X151495811Y-106279228D01*
X151469633Y-106427990D01*
X151438008Y-106575584D01*
X151400970Y-106721798D01*
X151358555Y-106866421D01*
X151310797Y-107009241D01*
X151257730Y-107150045D01*
X151199388Y-107288623D01*
X151135807Y-107424762D01*
X151067021Y-107558250D01*
X150993063Y-107688876D01*
X150913969Y-107816427D01*
X150829774Y-107940692D01*
X150740511Y-108061459D01*
X150646215Y-108178516D01*
X150546920Y-108291651D01*
X150442662Y-108400653D01*
X150333474Y-108505309D01*
X150219391Y-108605408D01*
X150100447Y-108700737D01*
X149976678Y-108791086D01*
X149848116Y-108876242D01*
X149442953Y-109117268D01*
X149022854Y-109327795D01*
X148589669Y-109508270D01*
X148145247Y-109659138D01*
X147691437Y-109780847D01*
X147230088Y-109873842D01*
X146763049Y-109938570D01*
X146292170Y-109975476D01*
X145819299Y-109985008D01*
X145346285Y-109967612D01*
X144874979Y-109923733D01*
X144407228Y-109853819D01*
X143944882Y-109758315D01*
X143489791Y-109637668D01*
X143043803Y-109492324D01*
X142608767Y-109322729D01*
X142291911Y-109166369D01*
X141987152Y-108988465D01*
X141695398Y-108790239D01*
X141417554Y-108572910D01*
X141154527Y-108337699D01*
X140907224Y-108085829D01*
X140676549Y-107818518D01*
X140463411Y-107536989D01*
X140268716Y-107242462D01*
X140093368Y-106936158D01*
X139938276Y-106619297D01*
X139804345Y-106293101D01*
X139692482Y-105958790D01*
X139603593Y-105617586D01*
X139538584Y-105270708D01*
X139498362Y-104919378D01*
X139477024Y-104548047D01*
X139476129Y-104177922D01*
X139494769Y-103809369D01*
X139532031Y-103442756D01*
X139587005Y-103078447D01*
X139658782Y-102716811D01*
X139746449Y-102358212D01*
X139849098Y-102003018D01*
X139965817Y-101651594D01*
X140095695Y-101304308D01*
X140237823Y-100961525D01*
X140391289Y-100623612D01*
X140555183Y-100290936D01*
X140728595Y-99963863D01*
X140910614Y-99642758D01*
X141100329Y-99327990D01*
X141193920Y-99170167D01*
X141296088Y-99017593D01*
X141406476Y-98870820D01*
X141524729Y-98730399D01*
X141650489Y-98596882D01*
X141783399Y-98470820D01*
X141923104Y-98352763D01*
X142069245Y-98243265D01*
X142221468Y-98142876D01*
X142379414Y-98052147D01*
X142542728Y-97971630D01*
X142711052Y-97901877D01*
X142884030Y-97843438D01*
X143061305Y-97796865D01*
X143242521Y-97762710D01*
X143427321Y-97741524D01*
X143513618Y-97736346D01*
X143599634Y-97732806D01*
X143685405Y-97730912D01*
X143770968Y-97730675D01*
X143770968Y-97730671D01*
X144089673Y-97744308D01*
G37*
D11*
X144089673Y-97744308D02*
X144404632Y-97779372D01*
X144715645Y-97834579D01*
X145022513Y-97908648D01*
X145325037Y-98000295D01*
X145623018Y-98108240D01*
X145916257Y-98231198D01*
X146204556Y-98367888D01*
X146487715Y-98517028D01*
X146765535Y-98677334D01*
X147037817Y-98847526D01*
X147304362Y-99026319D01*
X147564972Y-99212432D01*
X147819446Y-99404582D01*
X148067587Y-99601487D01*
X148309195Y-99801865D01*
X148575174Y-100048042D01*
X148835560Y-100301961D01*
X149089498Y-100563544D01*
X149336130Y-100832714D01*
X149574602Y-101109393D01*
X149804057Y-101393504D01*
X150023641Y-101684970D01*
X150232496Y-101983713D01*
X150429767Y-102289657D01*
X150614599Y-102602723D01*
X150786135Y-102922835D01*
X150943520Y-103249915D01*
X151085898Y-103583886D01*
X151212413Y-103924671D01*
X151322209Y-104272192D01*
X151414431Y-104626371D01*
X151450442Y-104773996D01*
X151480627Y-104922782D01*
X151505020Y-105072520D01*
X151523657Y-105222997D01*
X151536570Y-105374000D01*
X151543796Y-105525319D01*
X151545368Y-105676742D01*
X151541322Y-105828056D01*
X151531690Y-105979049D01*
X151516508Y-106129511D01*
X151495811Y-106279228D01*
X151469633Y-106427990D01*
X151438008Y-106575584D01*
X151400970Y-106721798D01*
X151358555Y-106866421D01*
X151310797Y-107009241D01*
X151257730Y-107150045D01*
X151199388Y-107288623D01*
X151135807Y-107424762D01*
X151067021Y-107558250D01*
X150993063Y-107688876D01*
X150913969Y-107816427D01*
X150829774Y-107940692D01*
X150740511Y-108061459D01*
X150646215Y-108178516D01*
X150546920Y-108291651D01*
X150442662Y-108400653D01*
X150333474Y-108505309D01*
X150219391Y-108605408D01*
X150100447Y-108700737D01*
X149976678Y-108791086D01*
X149848116Y-108876242D01*
X149442953Y-109117268D01*
X149022854Y-109327795D01*
X148589669Y-109508270D01*
X148145247Y-109659138D01*
X147691437Y-109780847D01*
X147230088Y-109873842D01*
X146763049Y-109938570D01*
X146292170Y-109975476D01*
X145819299Y-109985008D01*
X145346285Y-109967612D01*
X144874979Y-109923733D01*
X144407228Y-109853819D01*
X143944882Y-109758315D01*
X143489791Y-109637668D01*
X143043803Y-109492324D01*
X142608767Y-109322729D01*
X142291911Y-109166369D01*
X141987152Y-108988465D01*
X141695398Y-108790239D01*
X141417554Y-108572910D01*
X141154527Y-108337699D01*
X140907224Y-108085829D01*
X140676549Y-107818518D01*
X140463411Y-107536989D01*
X140268716Y-107242462D01*
X140093368Y-106936158D01*
X139938276Y-106619297D01*
X139804345Y-106293101D01*
X139692482Y-105958790D01*
X139603593Y-105617586D01*
X139538584Y-105270708D01*
X139498362Y-104919378D01*
X139477024Y-104548047D01*
X139476129Y-104177922D01*
X139494769Y-103809369D01*
X139532031Y-103442756D01*
X139587005Y-103078447D01*
X139658782Y-102716811D01*
X139746449Y-102358212D01*
X139849098Y-102003018D01*
X139965817Y-101651594D01*
X140095695Y-101304308D01*
X140237823Y-100961525D01*
X140391289Y-100623612D01*
X140555183Y-100290936D01*
X140728595Y-99963863D01*
X140910614Y-99642758D01*
X141100329Y-99327990D01*
X141193920Y-99170167D01*
X141296088Y-99017593D01*
X141406476Y-98870820D01*
X141524729Y-98730399D01*
X141650489Y-98596882D01*
X141783399Y-98470820D01*
X141923104Y-98352763D01*
X142069245Y-98243265D01*
X142221468Y-98142876D01*
X142379414Y-98052147D01*
X142542728Y-97971630D01*
X142711052Y-97901877D01*
X142884030Y-97843438D01*
X143061305Y-97796865D01*
X143242521Y-97762710D01*
X143427321Y-97741524D01*
X143513618Y-97736346D01*
X143599634Y-97732806D01*
X143685405Y-97730912D01*
X143770968Y-97730675D01*
X143770968Y-97730671D01*
X144089673Y-97744308D01*
G36*
X132309416Y-96370941D02*
G01*
X132426568Y-96377994D01*
X132543286Y-96388917D01*
X132659396Y-96403831D01*
X132774721Y-96422856D01*
X132889084Y-96446112D01*
X133002310Y-96473718D01*
X133114221Y-96505795D01*
X133224642Y-96542464D01*
X133333396Y-96583844D01*
X133440307Y-96630055D01*
X133545198Y-96681217D01*
X133647894Y-96737450D01*
X133748217Y-96798876D01*
X133845992Y-96865612D01*
X133971038Y-96954825D01*
X134087553Y-97051584D01*
X134196193Y-97155234D01*
X134297616Y-97265123D01*
X134392476Y-97380596D01*
X134481431Y-97501000D01*
X134565137Y-97625681D01*
X134644251Y-97753985D01*
X134719429Y-97885259D01*
X134791328Y-98018849D01*
X134927913Y-98290362D01*
X135190615Y-98832417D01*
X135450393Y-99407825D01*
X135571076Y-99701301D01*
X135684501Y-99998248D01*
X135789831Y-100298385D01*
X135886225Y-100601430D01*
X135972844Y-100907101D01*
X136048848Y-101215115D01*
X136113398Y-101525192D01*
X136165654Y-101837050D01*
X136204777Y-102150405D01*
X136229928Y-102464977D01*
X136240267Y-102780484D01*
X136234955Y-103096643D01*
X136213151Y-103413173D01*
X136174017Y-103729792D01*
X136144375Y-103902923D01*
X136107607Y-104073984D01*
X136063895Y-104242845D01*
X136013418Y-104409374D01*
X135956358Y-104573440D01*
X135892896Y-104734913D01*
X135823211Y-104893662D01*
X135747484Y-105049555D01*
X135578628Y-105352253D01*
X135387774Y-105641960D01*
X135176364Y-105917628D01*
X134945846Y-106178211D01*
X134697663Y-106422662D01*
X134433261Y-106649933D01*
X134154084Y-106858978D01*
X133861578Y-107048749D01*
X133557187Y-107218199D01*
X133242355Y-107366282D01*
X132918529Y-107491950D01*
X132587153Y-107594156D01*
X132143156Y-107692683D01*
X131691190Y-107766995D01*
X131233352Y-107816654D01*
X130771742Y-107841223D01*
X130308456Y-107840263D01*
X129845592Y-107813337D01*
X129385250Y-107760007D01*
X128929527Y-107679834D01*
X128480521Y-107572381D01*
X128040329Y-107437210D01*
X127611051Y-107273883D01*
X127194784Y-107081961D01*
X126793626Y-106861008D01*
X126409675Y-106610584D01*
X126045029Y-106330253D01*
X125870601Y-106178735D01*
X125701787Y-106019575D01*
X125584370Y-105895180D01*
X125475077Y-105766333D01*
X125373790Y-105633291D01*
X125280388Y-105496313D01*
X125194753Y-105355654D01*
X125116766Y-105211572D01*
X125046308Y-105064325D01*
X124983261Y-104914168D01*
X124927505Y-104761360D01*
X124878921Y-104606157D01*
X124802795Y-104289595D01*
X124753931Y-103966539D01*
X124731378Y-103639046D01*
X124734185Y-103309173D01*
X124761399Y-102978977D01*
X124812071Y-102650513D01*
X124885247Y-102325839D01*
X124979977Y-102007012D01*
X125095310Y-101696088D01*
X125230293Y-101395124D01*
X125383977Y-101106176D01*
X125632331Y-100683718D01*
X125902076Y-100272131D01*
X126192371Y-99872800D01*
X126502374Y-99487106D01*
X126831247Y-99116432D01*
X127178149Y-98762162D01*
X127542239Y-98425678D01*
X127922678Y-98108363D01*
X128318624Y-97811599D01*
X128729238Y-97536770D01*
X129153680Y-97285257D01*
X129591108Y-97058444D01*
X130040683Y-96857714D01*
X130501565Y-96684449D01*
X130972913Y-96540032D01*
X131453887Y-96425846D01*
X131530383Y-96413770D01*
X131607297Y-96403012D01*
X131684576Y-96393605D01*
X131762163Y-96385581D01*
X131840006Y-96378973D01*
X131918050Y-96373813D01*
X131996240Y-96370134D01*
X132074523Y-96367968D01*
X132192009Y-96367639D01*
X132309416Y-96370941D01*
G37*
X132309416Y-96370941D02*
X132426568Y-96377994D01*
X132543286Y-96388917D01*
X132659396Y-96403831D01*
X132774721Y-96422856D01*
X132889084Y-96446112D01*
X133002310Y-96473718D01*
X133114221Y-96505795D01*
X133224642Y-96542464D01*
X133333396Y-96583844D01*
X133440307Y-96630055D01*
X133545198Y-96681217D01*
X133647894Y-96737450D01*
X133748217Y-96798876D01*
X133845992Y-96865612D01*
X133971038Y-96954825D01*
X134087553Y-97051584D01*
X134196193Y-97155234D01*
X134297616Y-97265123D01*
X134392476Y-97380596D01*
X134481431Y-97501000D01*
X134565137Y-97625681D01*
X134644251Y-97753985D01*
X134719429Y-97885259D01*
X134791328Y-98018849D01*
X134927913Y-98290362D01*
X135190615Y-98832417D01*
X135450393Y-99407825D01*
X135571076Y-99701301D01*
X135684501Y-99998248D01*
X135789831Y-100298385D01*
X135886225Y-100601430D01*
X135972844Y-100907101D01*
X136048848Y-101215115D01*
X136113398Y-101525192D01*
X136165654Y-101837050D01*
X136204777Y-102150405D01*
X136229928Y-102464977D01*
X136240267Y-102780484D01*
X136234955Y-103096643D01*
X136213151Y-103413173D01*
X136174017Y-103729792D01*
X136144375Y-103902923D01*
X136107607Y-104073984D01*
X136063895Y-104242845D01*
X136013418Y-104409374D01*
X135956358Y-104573440D01*
X135892896Y-104734913D01*
X135823211Y-104893662D01*
X135747484Y-105049555D01*
X135578628Y-105352253D01*
X135387774Y-105641960D01*
X135176364Y-105917628D01*
X134945846Y-106178211D01*
X134697663Y-106422662D01*
X134433261Y-106649933D01*
X134154084Y-106858978D01*
X133861578Y-107048749D01*
X133557187Y-107218199D01*
X133242355Y-107366282D01*
X132918529Y-107491950D01*
X132587153Y-107594156D01*
X132143156Y-107692683D01*
X131691190Y-107766995D01*
X131233352Y-107816654D01*
X130771742Y-107841223D01*
X130308456Y-107840263D01*
X129845592Y-107813337D01*
X129385250Y-107760007D01*
X128929527Y-107679834D01*
X128480521Y-107572381D01*
X128040329Y-107437210D01*
X127611051Y-107273883D01*
X127194784Y-107081961D01*
X126793626Y-106861008D01*
X126409675Y-106610584D01*
X126045029Y-106330253D01*
X125870601Y-106178735D01*
X125701787Y-106019575D01*
X125584370Y-105895180D01*
X125475077Y-105766333D01*
X125373790Y-105633291D01*
X125280388Y-105496313D01*
X125194753Y-105355654D01*
X125116766Y-105211572D01*
X125046308Y-105064325D01*
X124983261Y-104914168D01*
X124927505Y-104761360D01*
X124878921Y-104606157D01*
X124802795Y-104289595D01*
X124753931Y-103966539D01*
X124731378Y-103639046D01*
X124734185Y-103309173D01*
X124761399Y-102978977D01*
X124812071Y-102650513D01*
X124885247Y-102325839D01*
X124979977Y-102007012D01*
X125095310Y-101696088D01*
X125230293Y-101395124D01*
X125383977Y-101106176D01*
X125632331Y-100683718D01*
X125902076Y-100272131D01*
X126192371Y-99872800D01*
X126502374Y-99487106D01*
X126831247Y-99116432D01*
X127178149Y-98762162D01*
X127542239Y-98425678D01*
X127922678Y-98108363D01*
X128318624Y-97811599D01*
X128729238Y-97536770D01*
X129153680Y-97285257D01*
X129591108Y-97058444D01*
X130040683Y-96857714D01*
X130501565Y-96684449D01*
X130972913Y-96540032D01*
X131453887Y-96425846D01*
X131530383Y-96413770D01*
X131607297Y-96403012D01*
X131684576Y-96393605D01*
X131762163Y-96385581D01*
X131840006Y-96378973D01*
X131918050Y-96373813D01*
X131996240Y-96370134D01*
X132074523Y-96367968D01*
X132192009Y-96367639D01*
X132309416Y-96370941D01*
G36*
X133031880Y-101546717D02*
G01*
X133187030Y-101566014D01*
X133339918Y-101596332D01*
X133490099Y-101637216D01*
X133637131Y-101688215D01*
X133780571Y-101748873D01*
X133919975Y-101818739D01*
X134054901Y-101897359D01*
X134184906Y-101984279D01*
X134309546Y-102079046D01*
X134428379Y-102181207D01*
X134540961Y-102290309D01*
X134646850Y-102405898D01*
X134745603Y-102527520D01*
X134836776Y-102654723D01*
X134919927Y-102787054D01*
X134994612Y-102924058D01*
X135060389Y-103065282D01*
X135116815Y-103210274D01*
X135163446Y-103358580D01*
X135199839Y-103509747D01*
X135225552Y-103663321D01*
X135240142Y-103818848D01*
X135243165Y-103975877D01*
X135234178Y-104133952D01*
X135212739Y-104292622D01*
X135178405Y-104451432D01*
X135130732Y-104609930D01*
X135086286Y-104764250D01*
X135031011Y-104912237D01*
X134965478Y-105053737D01*
X134890259Y-105188597D01*
X134805925Y-105316664D01*
X134713049Y-105437786D01*
X134612203Y-105551808D01*
X134503957Y-105658579D01*
X134388883Y-105757945D01*
X134267554Y-105849752D01*
X134140541Y-105933849D01*
X134008415Y-106010083D01*
X133871749Y-106078299D01*
X133731114Y-106138345D01*
X133587082Y-106190068D01*
X133440225Y-106233316D01*
X133291113Y-106267934D01*
X133140320Y-106293771D01*
X132988417Y-106310672D01*
X132835974Y-106318486D01*
X132683566Y-106317059D01*
X132531762Y-106306237D01*
X132381134Y-106285869D01*
X132232255Y-106255800D01*
X132085696Y-106215879D01*
X131942028Y-106165952D01*
X131801824Y-106105865D01*
X131665655Y-106035467D01*
X131534093Y-105954603D01*
X131407710Y-105863121D01*
X131287077Y-105760869D01*
X131172766Y-105647692D01*
X131053896Y-105532734D01*
X130946439Y-105410943D01*
X130850234Y-105282936D01*
X130765123Y-105149326D01*
X130690945Y-105010729D01*
X130627541Y-104867761D01*
X130574751Y-104721036D01*
X130532415Y-104571170D01*
X130500375Y-104418777D01*
X130478470Y-104264474D01*
X130466540Y-104108875D01*
X130464427Y-103952594D01*
X130471970Y-103796249D01*
X130489009Y-103640453D01*
X130515386Y-103485821D01*
X130550940Y-103332970D01*
X130595512Y-103182514D01*
X130648942Y-103035068D01*
X130711071Y-102891248D01*
X130781738Y-102751668D01*
X130860785Y-102616944D01*
X130948051Y-102487691D01*
X131043378Y-102364524D01*
X131146604Y-102248059D01*
X131257572Y-102138910D01*
X131376120Y-102037692D01*
X131502090Y-101945022D01*
X131635322Y-101861513D01*
X131775655Y-101787782D01*
X131922932Y-101724443D01*
X132076991Y-101672112D01*
X132237673Y-101631403D01*
X132237681Y-101631403D01*
X132397503Y-101588798D01*
X132557277Y-101559481D01*
X132716560Y-101542997D01*
X132874908Y-101538893D01*
X133031880Y-101546717D01*
G37*
X133031880Y-101546717D02*
X133187030Y-101566014D01*
X133339918Y-101596332D01*
X133490099Y-101637216D01*
X133637131Y-101688215D01*
X133780571Y-101748873D01*
X133919975Y-101818739D01*
X134054901Y-101897359D01*
X134184906Y-101984279D01*
X134309546Y-102079046D01*
X134428379Y-102181207D01*
X134540961Y-102290309D01*
X134646850Y-102405898D01*
X134745603Y-102527520D01*
X134836776Y-102654723D01*
X134919927Y-102787054D01*
X134994612Y-102924058D01*
X135060389Y-103065282D01*
X135116815Y-103210274D01*
X135163446Y-103358580D01*
X135199839Y-103509747D01*
X135225552Y-103663321D01*
X135240142Y-103818848D01*
X135243165Y-103975877D01*
X135234178Y-104133952D01*
X135212739Y-104292622D01*
X135178405Y-104451432D01*
X135130732Y-104609930D01*
X135086286Y-104764250D01*
X135031011Y-104912237D01*
X134965478Y-105053737D01*
X134890259Y-105188597D01*
X134805925Y-105316664D01*
X134713049Y-105437786D01*
X134612203Y-105551808D01*
X134503957Y-105658579D01*
X134388883Y-105757945D01*
X134267554Y-105849752D01*
X134140541Y-105933849D01*
X134008415Y-106010083D01*
X133871749Y-106078299D01*
X133731114Y-106138345D01*
X133587082Y-106190068D01*
X133440225Y-106233316D01*
X133291113Y-106267934D01*
X133140320Y-106293771D01*
X132988417Y-106310672D01*
X132835974Y-106318486D01*
X132683566Y-106317059D01*
X132531762Y-106306237D01*
X132381134Y-106285869D01*
X132232255Y-106255800D01*
X132085696Y-106215879D01*
X131942028Y-106165952D01*
X131801824Y-106105865D01*
X131665655Y-106035467D01*
X131534093Y-105954603D01*
X131407710Y-105863121D01*
X131287077Y-105760869D01*
X131172766Y-105647692D01*
X131053896Y-105532734D01*
X130946439Y-105410943D01*
X130850234Y-105282936D01*
X130765123Y-105149326D01*
X130690945Y-105010729D01*
X130627541Y-104867761D01*
X130574751Y-104721036D01*
X130532415Y-104571170D01*
X130500375Y-104418777D01*
X130478470Y-104264474D01*
X130466540Y-104108875D01*
X130464427Y-103952594D01*
X130471970Y-103796249D01*
X130489009Y-103640453D01*
X130515386Y-103485821D01*
X130550940Y-103332970D01*
X130595512Y-103182514D01*
X130648942Y-103035068D01*
X130711071Y-102891248D01*
X130781738Y-102751668D01*
X130860785Y-102616944D01*
X130948051Y-102487691D01*
X131043378Y-102364524D01*
X131146604Y-102248059D01*
X131257572Y-102138910D01*
X131376120Y-102037692D01*
X131502090Y-101945022D01*
X131635322Y-101861513D01*
X131775655Y-101787782D01*
X131922932Y-101724443D01*
X132076991Y-101672112D01*
X132237673Y-101631403D01*
X132237681Y-101631403D01*
X132397503Y-101588798D01*
X132557277Y-101559481D01*
X132716560Y-101542997D01*
X132874908Y-101538893D01*
X133031880Y-101546717D01*
G36*
X142416639Y-102424768D02*
G01*
X142522458Y-102430290D01*
X142627703Y-102440896D01*
X142732210Y-102456470D01*
X142835813Y-102476893D01*
X142938348Y-102502047D01*
X143039648Y-102531815D01*
X143139548Y-102566078D01*
X143237883Y-102604719D01*
X143334488Y-102647620D01*
X143521845Y-102745731D01*
X143700295Y-102859468D01*
X143868518Y-102987888D01*
X144025188Y-103130048D01*
X144098779Y-103205986D01*
X144168985Y-103285005D01*
X144235642Y-103366989D01*
X144298585Y-103451818D01*
X144357647Y-103539375D01*
X144412664Y-103629543D01*
X144463471Y-103722203D01*
X144509902Y-103817237D01*
X144551791Y-103914528D01*
X144588974Y-104013958D01*
X144621285Y-104115409D01*
X144648558Y-104218763D01*
X144681280Y-104344828D01*
X144705855Y-104471505D01*
X144722479Y-104598518D01*
X144731349Y-104725589D01*
X144732661Y-104852441D01*
X144726611Y-104978797D01*
X144713396Y-105104381D01*
X144693212Y-105228915D01*
X144666254Y-105352121D01*
X144632720Y-105473723D01*
X144592806Y-105593444D01*
X144546707Y-105711006D01*
X144494621Y-105826133D01*
X144436743Y-105938546D01*
X144373270Y-106047970D01*
X144304397Y-106154128D01*
X144230323Y-106256740D01*
X144151241Y-106355532D01*
X144067350Y-106450226D01*
X143978845Y-106540544D01*
X143885922Y-106626209D01*
X143788778Y-106706945D01*
X143687609Y-106782474D01*
X143582611Y-106852519D01*
X143473981Y-106916803D01*
X143361914Y-106975050D01*
X143246608Y-107026980D01*
X143128258Y-107072319D01*
X143007061Y-107110788D01*
X142883213Y-107142110D01*
X142756909Y-107166009D01*
X142628348Y-107182207D01*
X142496501Y-107198328D01*
X142365104Y-107205940D01*
X142234423Y-107205292D01*
X142104725Y-107196629D01*
X141976277Y-107180200D01*
X141849345Y-107156252D01*
X141724197Y-107125032D01*
X141601099Y-107086788D01*
X141480319Y-107041766D01*
X141362122Y-106990213D01*
X141246776Y-106932378D01*
X141134547Y-106868508D01*
X141025703Y-106798849D01*
X140920509Y-106723650D01*
X140819234Y-106643156D01*
X140722143Y-106557617D01*
X140629504Y-106467278D01*
X140541583Y-106372387D01*
X140458647Y-106273192D01*
X140380963Y-106169940D01*
X140308797Y-106062877D01*
X140242417Y-105952252D01*
X140182090Y-105838311D01*
X140128081Y-105721303D01*
X140080658Y-105601473D01*
X140040088Y-105479070D01*
X140006638Y-105354341D01*
X139980574Y-105227532D01*
X139962162Y-105098892D01*
X139951671Y-104968668D01*
X139949366Y-104837106D01*
X139955515Y-104704454D01*
X139960972Y-104597096D01*
X139971781Y-104490627D01*
X139987804Y-104385195D01*
X140008903Y-104280947D01*
X140034938Y-104178029D01*
X140065772Y-104076589D01*
X140101265Y-103976775D01*
X140141279Y-103878732D01*
X140185675Y-103782609D01*
X140234315Y-103688553D01*
X140287060Y-103596710D01*
X140343771Y-103507227D01*
X140404310Y-103420253D01*
X140468538Y-103335933D01*
X140536316Y-103254416D01*
X140607506Y-103175847D01*
X140681969Y-103100375D01*
X140759566Y-103028147D01*
X140840160Y-102959309D01*
X140923610Y-102894008D01*
X141009778Y-102832392D01*
X141098527Y-102774608D01*
X141189717Y-102720804D01*
X141283209Y-102671125D01*
X141378865Y-102625719D01*
X141476546Y-102584734D01*
X141576114Y-102548317D01*
X141677430Y-102516614D01*
X141780355Y-102489772D01*
X141884750Y-102467940D01*
X141990478Y-102451263D01*
X142097399Y-102439890D01*
X142203945Y-102429450D01*
X142310413Y-102424449D01*
X142416639Y-102424768D01*
G37*
X142416639Y-102424768D02*
X142522458Y-102430290D01*
X142627703Y-102440896D01*
X142732210Y-102456470D01*
X142835813Y-102476893D01*
X142938348Y-102502047D01*
X143039648Y-102531815D01*
X143139548Y-102566078D01*
X143237883Y-102604719D01*
X143334488Y-102647620D01*
X143521845Y-102745731D01*
X143700295Y-102859468D01*
X143868518Y-102987888D01*
X144025188Y-103130048D01*
X144098779Y-103205986D01*
X144168985Y-103285005D01*
X144235642Y-103366989D01*
X144298585Y-103451818D01*
X144357647Y-103539375D01*
X144412664Y-103629543D01*
X144463471Y-103722203D01*
X144509902Y-103817237D01*
X144551791Y-103914528D01*
X144588974Y-104013958D01*
X144621285Y-104115409D01*
X144648558Y-104218763D01*
X144681280Y-104344828D01*
X144705855Y-104471505D01*
X144722479Y-104598518D01*
X144731349Y-104725589D01*
X144732661Y-104852441D01*
X144726611Y-104978797D01*
X144713396Y-105104381D01*
X144693212Y-105228915D01*
X144666254Y-105352121D01*
X144632720Y-105473723D01*
X144592806Y-105593444D01*
X144546707Y-105711006D01*
X144494621Y-105826133D01*
X144436743Y-105938546D01*
X144373270Y-106047970D01*
X144304397Y-106154128D01*
X144230323Y-106256740D01*
X144151241Y-106355532D01*
X144067350Y-106450226D01*
X143978845Y-106540544D01*
X143885922Y-106626209D01*
X143788778Y-106706945D01*
X143687609Y-106782474D01*
X143582611Y-106852519D01*
X143473981Y-106916803D01*
X143361914Y-106975050D01*
X143246608Y-107026980D01*
X143128258Y-107072319D01*
X143007061Y-107110788D01*
X142883213Y-107142110D01*
X142756909Y-107166009D01*
X142628348Y-107182207D01*
X142496501Y-107198328D01*
X142365104Y-107205940D01*
X142234423Y-107205292D01*
X142104725Y-107196629D01*
X141976277Y-107180200D01*
X141849345Y-107156252D01*
X141724197Y-107125032D01*
X141601099Y-107086788D01*
X141480319Y-107041766D01*
X141362122Y-106990213D01*
X141246776Y-106932378D01*
X141134547Y-106868508D01*
X141025703Y-106798849D01*
X140920509Y-106723650D01*
X140819234Y-106643156D01*
X140722143Y-106557617D01*
X140629504Y-106467278D01*
X140541583Y-106372387D01*
X140458647Y-106273192D01*
X140380963Y-106169940D01*
X140308797Y-106062877D01*
X140242417Y-105952252D01*
X140182090Y-105838311D01*
X140128081Y-105721303D01*
X140080658Y-105601473D01*
X140040088Y-105479070D01*
X140006638Y-105354341D01*
X139980574Y-105227532D01*
X139962162Y-105098892D01*
X139951671Y-104968668D01*
X139949366Y-104837106D01*
X139955515Y-104704454D01*
X139960972Y-104597096D01*
X139971781Y-104490627D01*
X139987804Y-104385195D01*
X140008903Y-104280947D01*
X140034938Y-104178029D01*
X140065772Y-104076589D01*
X140101265Y-103976775D01*
X140141279Y-103878732D01*
X140185675Y-103782609D01*
X140234315Y-103688553D01*
X140287060Y-103596710D01*
X140343771Y-103507227D01*
X140404310Y-103420253D01*
X140468538Y-103335933D01*
X140536316Y-103254416D01*
X140607506Y-103175847D01*
X140681969Y-103100375D01*
X140759566Y-103028147D01*
X140840160Y-102959309D01*
X140923610Y-102894008D01*
X141009778Y-102832392D01*
X141098527Y-102774608D01*
X141189717Y-102720804D01*
X141283209Y-102671125D01*
X141378865Y-102625719D01*
X141476546Y-102584734D01*
X141576114Y-102548317D01*
X141677430Y-102516614D01*
X141780355Y-102489772D01*
X141884750Y-102467940D01*
X141990478Y-102451263D01*
X142097399Y-102439890D01*
X142203945Y-102429450D01*
X142310413Y-102424449D01*
X142416639Y-102424768D01*
G36*
X120504902Y-120563975D02*
G01*
X120659396Y-120606302D01*
X120713014Y-120847767D01*
X120770767Y-121090208D01*
X120836199Y-121332337D01*
X120872904Y-121452881D01*
X120912859Y-121572863D01*
X120956508Y-121692121D01*
X121004294Y-121810496D01*
X121056660Y-121927825D01*
X121114049Y-122043947D01*
X121176906Y-122158701D01*
X121245673Y-122271926D01*
X121320794Y-122383460D01*
X121402712Y-122493143D01*
X121421208Y-122496990D01*
X121439286Y-122499718D01*
X121456966Y-122501381D01*
X121474266Y-122502034D01*
X121491205Y-122501731D01*
X121507802Y-122500527D01*
X121524076Y-122498476D01*
X121540046Y-122495634D01*
X121555732Y-122492054D01*
X121571151Y-122487791D01*
X121601268Y-122477437D01*
X121630549Y-122465007D01*
X121659146Y-122450938D01*
X121687210Y-122435668D01*
X121714892Y-122419632D01*
X121769722Y-122387012D01*
X121797173Y-122371302D01*
X121824849Y-122356574D01*
X121852903Y-122343265D01*
X121881487Y-122331812D01*
X121979082Y-122331055D01*
X122075579Y-122330812D01*
X122251782Y-122581522D01*
X122427859Y-122833765D01*
X122660277Y-122713087D01*
X122892626Y-122593187D01*
X123269090Y-122665896D01*
X123645058Y-122741192D01*
X124397204Y-122892137D01*
X124546364Y-122718177D01*
X124689892Y-122541677D01*
X124828447Y-122362959D01*
X124962687Y-122182348D01*
X125093271Y-122000166D01*
X125220857Y-121816737D01*
X125469668Y-121447428D01*
X125605606Y-121631884D01*
X125734691Y-121818613D01*
X125858555Y-122007072D01*
X125978833Y-122196719D01*
X126215161Y-122577407D01*
X126334479Y-122767363D01*
X126456744Y-122956339D01*
X126526288Y-122958222D01*
X126610430Y-122961652D01*
X126764117Y-122968836D01*
X126836173Y-122876514D01*
X126905762Y-122783118D01*
X127039262Y-122593861D01*
X127295620Y-122210794D01*
X127425376Y-122020018D01*
X127560782Y-121831768D01*
X127631681Y-121739064D01*
X127705286Y-121647561D01*
X127782028Y-121557447D01*
X127862338Y-121468912D01*
X127859569Y-121640616D01*
X127852357Y-121812405D01*
X127830037Y-122156106D01*
X127806244Y-122499752D01*
X127797190Y-122671472D01*
X127791844Y-122843079D01*
X127791562Y-123014539D01*
X127797704Y-123185820D01*
X127811627Y-123356890D01*
X127834689Y-123527713D01*
X127868250Y-123698259D01*
X127913667Y-123868493D01*
X127972299Y-124038383D01*
X128045504Y-124207895D01*
X128056054Y-124451343D01*
X128075242Y-124696272D01*
X128103953Y-124941969D01*
X128143070Y-125187720D01*
X128193477Y-125432812D01*
X128256060Y-125676532D01*
X128331701Y-125918165D01*
X128421286Y-126156998D01*
X128525699Y-126392317D01*
X128645823Y-126623410D01*
X128782543Y-126849561D01*
X128936744Y-127070059D01*
X129109309Y-127284189D01*
X129301124Y-127491237D01*
X129513071Y-127690490D01*
X129746035Y-127881235D01*
X130102145Y-127718386D01*
X130136971Y-127526931D01*
X130176368Y-127336323D01*
X130265150Y-126957002D01*
X130456561Y-126201373D01*
X130544274Y-125822463D01*
X130582870Y-125632165D01*
X130616717Y-125441088D01*
X130644881Y-125249069D01*
X130666432Y-125055946D01*
X130680436Y-124861556D01*
X130685961Y-124665735D01*
X130785001Y-124428650D01*
X130878400Y-124190355D01*
X131050629Y-123710657D01*
X131207347Y-123227678D01*
X131353257Y-122742454D01*
X131631448Y-121769419D01*
X131773132Y-121283681D01*
X131922808Y-120799845D01*
X131961305Y-120945403D01*
X131990658Y-121091167D01*
X132012240Y-121237108D01*
X132027426Y-121383197D01*
X132037589Y-121529406D01*
X132044104Y-121675707D01*
X132051684Y-121968468D01*
X132061158Y-122261251D01*
X132070040Y-122407579D01*
X132083517Y-122553827D01*
X132102965Y-122699966D01*
X132129755Y-122845968D01*
X132165264Y-122991804D01*
X132210864Y-123137445D01*
X132426140Y-123156895D01*
X132641360Y-123177248D01*
X132741344Y-123061409D01*
X132837724Y-122944025D01*
X132930838Y-122825242D01*
X133021021Y-122705208D01*
X133193944Y-122461971D01*
X133359187Y-122215487D01*
X133997225Y-121220568D01*
X134150866Y-121233140D01*
X134303362Y-121246164D01*
X134289494Y-121452009D01*
X134278971Y-121658087D01*
X134272286Y-121864382D01*
X134269936Y-122070875D01*
X134272414Y-122277550D01*
X134280216Y-122484390D01*
X134293836Y-122691377D01*
X134313769Y-122898493D01*
X134497141Y-122923766D01*
X134680605Y-122947992D01*
X134789511Y-122848112D01*
X134894506Y-122746229D01*
X134995841Y-122642483D01*
X135093769Y-122537015D01*
X135188540Y-122429965D01*
X135280407Y-122321475D01*
X135369619Y-122211686D01*
X135456429Y-122100738D01*
X135623847Y-121875927D01*
X135784673Y-121648171D01*
X135940918Y-121418595D01*
X136094592Y-121188326D01*
X136121738Y-121314396D01*
X136143751Y-121440949D01*
X136161696Y-121567880D01*
X136176639Y-121695084D01*
X136227709Y-122204522D01*
X136243632Y-122331511D01*
X136262949Y-122458142D01*
X136286727Y-122584309D01*
X136316030Y-122709908D01*
X136351926Y-122834832D01*
X136395481Y-122958977D01*
X136447760Y-123082237D01*
X136509829Y-123204508D01*
X136930804Y-123241304D01*
X137133933Y-122631828D01*
X137235428Y-122326678D01*
X137342125Y-122022804D01*
X137457963Y-121721367D01*
X137520540Y-121571925D01*
X137586878Y-121423528D01*
X137657471Y-121276322D01*
X137732809Y-121130450D01*
X137813385Y-120986059D01*
X137899691Y-120843294D01*
X138181742Y-121427051D01*
X138318560Y-121720207D01*
X138448674Y-122014677D01*
X138569158Y-122310806D01*
X138624875Y-122459601D01*
X138677087Y-122608941D01*
X138725430Y-122758868D01*
X138769538Y-122909427D01*
X138809045Y-123060660D01*
X138843584Y-123212610D01*
X139045542Y-123232524D01*
X139247500Y-123253107D01*
X139247317Y-123251764D01*
X139342634Y-123113151D01*
X139429812Y-122972165D01*
X139509671Y-122829048D01*
X139583033Y-122684039D01*
X139650718Y-122537380D01*
X139713547Y-122389309D01*
X139772343Y-122240068D01*
X139827925Y-122089897D01*
X140034543Y-121484714D01*
X140139920Y-121182788D01*
X140196000Y-121032832D01*
X140255434Y-120883867D01*
X140444015Y-121187304D01*
X140622732Y-121494328D01*
X140707288Y-121649186D01*
X140788053Y-121804943D01*
X140864586Y-121961599D01*
X140936446Y-122119153D01*
X141003190Y-122277607D01*
X141064378Y-122436960D01*
X141119567Y-122597214D01*
X141168317Y-122758368D01*
X141210185Y-122920423D01*
X141244731Y-123083379D01*
X141271512Y-123247237D01*
X141290087Y-123411997D01*
X141493088Y-123438373D01*
X141594831Y-123452358D01*
X141696902Y-123466997D01*
X141797717Y-123343747D01*
X141892056Y-123218055D01*
X141980755Y-123090237D01*
X142064652Y-122960608D01*
X142144583Y-122829482D01*
X142221385Y-122697176D01*
X142368954Y-122430283D01*
X142514054Y-122162452D01*
X142663383Y-121896204D01*
X142741726Y-121764463D01*
X142823637Y-121634063D01*
X142909954Y-121505320D01*
X143001513Y-121378550D01*
X143050644Y-121865030D01*
X143073970Y-122108481D01*
X143093514Y-122351911D01*
X143107057Y-122595201D01*
X143112383Y-122838227D01*
X143111271Y-122959604D01*
X143107273Y-123080870D01*
X143100112Y-123202009D01*
X143089510Y-123323008D01*
X143422793Y-123532816D01*
X143543239Y-123435428D01*
X143660161Y-123335932D01*
X143773634Y-123234412D01*
X143883735Y-123130950D01*
X143990540Y-123025631D01*
X144094126Y-122918538D01*
X144194570Y-122809754D01*
X144291947Y-122699362D01*
X144386334Y-122587446D01*
X144477807Y-122474089D01*
X144566444Y-122359374D01*
X144652320Y-122243386D01*
X144735511Y-122126206D01*
X144816095Y-122007920D01*
X144894147Y-121888609D01*
X144969744Y-121768358D01*
X145032221Y-121986198D01*
X145087790Y-122204686D01*
X145137457Y-122423717D01*
X145182228Y-122643187D01*
X145223111Y-122862991D01*
X145261111Y-123083024D01*
X145332491Y-123523355D01*
X145420927Y-123505770D01*
X145504703Y-123484395D01*
X145584059Y-123459424D01*
X145659237Y-123431052D01*
X145730476Y-123399470D01*
X145798018Y-123364873D01*
X145862103Y-123327455D01*
X145922971Y-123287409D01*
X145980864Y-123244928D01*
X146036021Y-123200207D01*
X146088685Y-123153438D01*
X146139094Y-123104816D01*
X146187490Y-123054533D01*
X146234113Y-123002784D01*
X146323004Y-122895661D01*
X146655786Y-122447224D01*
X146742910Y-122337872D01*
X146835456Y-122232719D01*
X146884364Y-122182202D01*
X146935349Y-122133315D01*
X146988651Y-122086253D01*
X147044512Y-122041208D01*
X147074027Y-122048419D01*
X147101747Y-122056978D01*
X147127743Y-122066820D01*
X147152085Y-122077881D01*
X147174844Y-122090097D01*
X147196091Y-122103404D01*
X147215895Y-122117736D01*
X147234328Y-122133031D01*
X147251460Y-122149223D01*
X147267362Y-122166249D01*
X147282104Y-122184044D01*
X147295756Y-122202543D01*
X147308389Y-122221684D01*
X147320075Y-122241400D01*
X147330882Y-122261628D01*
X147340882Y-122282305D01*
X147358742Y-122324743D01*
X147374219Y-122368202D01*
X147387878Y-122412165D01*
X147400283Y-122456120D01*
X147423585Y-122541947D01*
X147435612Y-122582791D01*
X147448641Y-122621569D01*
X147487192Y-122933835D01*
X147516587Y-123246383D01*
X147537375Y-123559091D01*
X147550103Y-123871840D01*
X147555316Y-124184510D01*
X147553563Y-124496979D01*
X147545390Y-124809128D01*
X147531344Y-125120836D01*
X147573009Y-125368138D01*
X147608047Y-125615634D01*
X147636785Y-125863287D01*
X147659548Y-126111056D01*
X147676665Y-126358903D01*
X147688460Y-126606789D01*
X147697392Y-127102519D01*
X147688955Y-127597933D01*
X147665761Y-128092718D01*
X147630420Y-128586561D01*
X147585543Y-129079149D01*
X148225298Y-129278818D01*
X148398858Y-129146167D01*
X148564071Y-129009347D01*
X148721187Y-128868534D01*
X148870456Y-128723902D01*
X149012129Y-128575624D01*
X149146456Y-128423875D01*
X149273686Y-128268830D01*
X149394071Y-128110662D01*
X149615304Y-127785657D01*
X149812156Y-127450255D01*
X149986629Y-127105850D01*
X150140725Y-126753837D01*
X150276444Y-126395609D01*
X150395790Y-126032562D01*
X150500763Y-125666089D01*
X150593365Y-125297586D01*
X150675598Y-124928447D01*
X150749463Y-124560066D01*
X150880099Y-123831156D01*
X150949129Y-123915151D01*
X151014537Y-124000318D01*
X151076605Y-124086558D01*
X151135615Y-124173771D01*
X151191850Y-124261860D01*
X151245593Y-124350726D01*
X151297126Y-124440270D01*
X151346732Y-124530394D01*
X151441291Y-124711989D01*
X151531532Y-124894721D01*
X151708102Y-125260446D01*
X151808984Y-125270314D01*
X151910181Y-125281121D01*
X152011573Y-125292791D01*
X152113039Y-125305246D01*
X152207359Y-125190148D01*
X152294543Y-125072630D01*
X152375299Y-124952931D01*
X152450336Y-124831292D01*
X152520363Y-124707951D01*
X152586089Y-124583148D01*
X152648222Y-124457123D01*
X152707472Y-124330114D01*
X152820157Y-124074107D01*
X152929813Y-123817041D01*
X153042111Y-123560833D01*
X153101023Y-123433649D01*
X153162722Y-123307398D01*
X153218930Y-123433764D01*
X153270834Y-123560842D01*
X153319076Y-123688523D01*
X153364296Y-123816699D01*
X153448234Y-124074107D01*
X153527779Y-124332203D01*
X153608058Y-124590125D01*
X153694201Y-124847011D01*
X153741073Y-124974797D01*
X153791335Y-125102000D01*
X153845626Y-125228512D01*
X153904589Y-125354227D01*
X153911852Y-125370564D01*
X153920292Y-125386106D01*
X153929853Y-125400890D01*
X153940478Y-125414953D01*
X153952114Y-125428330D01*
X153964703Y-125441057D01*
X153978190Y-125453170D01*
X153992519Y-125464706D01*
X154007635Y-125475701D01*
X154023481Y-125486190D01*
X154057143Y-125505796D01*
X154093060Y-125523813D01*
X154130785Y-125540531D01*
X154169873Y-125556238D01*
X154209878Y-125571222D01*
X154290853Y-125600177D01*
X154330932Y-125614726D01*
X154370145Y-125629706D01*
X154408044Y-125645408D01*
X154444186Y-125662119D01*
X154544463Y-125557701D01*
X154641030Y-125451419D01*
X154734054Y-125343385D01*
X154823706Y-125233708D01*
X154910155Y-125122501D01*
X154993571Y-125009873D01*
X155074122Y-124895937D01*
X155151980Y-124780802D01*
X155250298Y-124913912D01*
X155350179Y-125046545D01*
X155452120Y-125178420D01*
X155556622Y-125309256D01*
X155664183Y-125438773D01*
X155775302Y-125566688D01*
X155890478Y-125692721D01*
X156010210Y-125816591D01*
X156123845Y-125696865D01*
X156236866Y-125576610D01*
X156462527Y-125335794D01*
X156500801Y-125345305D01*
X156546925Y-125357270D01*
X156630373Y-125379198D01*
X156657181Y-125396281D01*
X156683580Y-125414164D01*
X156735701Y-125451497D01*
X156787831Y-125489526D01*
X156814241Y-125508278D01*
X156841063Y-125526578D01*
X156868434Y-125544215D01*
X156896491Y-125560982D01*
X156925370Y-125576668D01*
X156955208Y-125591066D01*
X156986142Y-125603965D01*
X157002063Y-125609788D01*
X157018309Y-125615158D01*
X157034897Y-125620049D01*
X157051844Y-125624434D01*
X157069168Y-125628289D01*
X157086886Y-125631586D01*
X157242801Y-125474029D01*
X157385888Y-125311142D01*
X157517169Y-125143400D01*
X157637665Y-124971279D01*
X157748397Y-124795255D01*
X157850386Y-124615802D01*
X157944654Y-124433398D01*
X158032221Y-124248517D01*
X158114109Y-124061636D01*
X158191340Y-123873229D01*
X158335911Y-123493744D01*
X158614092Y-122737406D01*
X158745949Y-122890815D01*
X158865425Y-123048667D01*
X158973190Y-123210533D01*
X159069912Y-123375986D01*
X159156260Y-123544595D01*
X159232904Y-123715934D01*
X159300513Y-123889573D01*
X159359755Y-124065083D01*
X159411300Y-124242037D01*
X159455817Y-124420006D01*
X159493975Y-124598561D01*
X159526442Y-124777274D01*
X159553889Y-124955716D01*
X159576984Y-125133459D01*
X159612795Y-125485132D01*
X159168895Y-125795258D01*
X158721558Y-126104317D01*
X158269526Y-126410271D01*
X157811541Y-126711084D01*
X157766204Y-126646823D01*
X157718325Y-126583750D01*
X157667984Y-126521866D01*
X157615261Y-126461171D01*
X157560234Y-126401663D01*
X157502985Y-126343342D01*
X157443592Y-126286208D01*
X157382136Y-126230260D01*
X157318695Y-126175497D01*
X157253350Y-126121919D01*
X157186180Y-126069526D01*
X157117265Y-126018316D01*
X157046685Y-125968289D01*
X156974518Y-125919446D01*
X156900846Y-125871784D01*
X156825747Y-125825304D01*
X156780403Y-125908503D01*
X156741051Y-125992921D01*
X156707033Y-126078428D01*
X156677690Y-126164893D01*
X156652363Y-126252184D01*
X156630392Y-126340170D01*
X156611119Y-126428720D01*
X156593886Y-126517702D01*
X156532163Y-126875329D01*
X156515241Y-126964504D01*
X156496404Y-127053323D01*
X156474993Y-127141657D01*
X156450350Y-127229372D01*
X156202456Y-127194856D01*
X155955271Y-127158307D01*
X155462801Y-127081469D01*
X155409071Y-127183801D01*
X155363424Y-127287624D01*
X155324961Y-127392777D01*
X155292785Y-127499097D01*
X155266000Y-127606425D01*
X155243706Y-127714598D01*
X155225008Y-127823456D01*
X155209008Y-127932836D01*
X155154032Y-128372366D01*
X155138057Y-128481944D01*
X155119396Y-128591078D01*
X155097150Y-128699606D01*
X155070422Y-128807367D01*
X154945208Y-128784531D01*
X154827497Y-128770662D01*
X154716969Y-128765340D01*
X154613306Y-128768145D01*
X154516187Y-128778657D01*
X154425295Y-128796457D01*
X154340311Y-128821125D01*
X154260915Y-128852242D01*
X154186789Y-128889387D01*
X154117613Y-128932140D01*
X154053069Y-128980083D01*
X153992838Y-129032795D01*
X153936600Y-129089856D01*
X153884037Y-129150847D01*
X153834830Y-129215348D01*
X153788660Y-129282939D01*
X153745208Y-129353200D01*
X153704155Y-129425713D01*
X153627971Y-129575810D01*
X153557555Y-129729873D01*
X153490356Y-129884543D01*
X153423823Y-130036464D01*
X153355403Y-130182275D01*
X153282546Y-130318620D01*
X153243656Y-130382193D01*
X153202700Y-130442141D01*
X152498949Y-129937189D01*
X152012453Y-129899790D01*
X151943859Y-129954186D01*
X151878208Y-130009906D01*
X151755242Y-130125082D01*
X151642564Y-130244854D01*
X151539183Y-130368757D01*
X151444106Y-130496328D01*
X151356342Y-130627103D01*
X151274900Y-130760616D01*
X151198788Y-130896405D01*
X151127014Y-131034005D01*
X151058586Y-131172951D01*
X150927805Y-131453028D01*
X150798509Y-131732922D01*
X150731940Y-131871640D01*
X150662768Y-132008921D01*
X150535204Y-131952847D01*
X150412511Y-131892912D01*
X150294664Y-131829252D01*
X150181641Y-131762003D01*
X150073417Y-131691301D01*
X149969967Y-131617282D01*
X149871268Y-131540083D01*
X149777295Y-131459839D01*
X149688024Y-131376686D01*
X149603431Y-131290762D01*
X149523493Y-131202201D01*
X149448184Y-131111140D01*
X149377481Y-131017715D01*
X149311360Y-130922063D01*
X149249797Y-130824319D01*
X149192767Y-130724619D01*
X149169932Y-130678949D01*
X149144346Y-130635312D01*
X149116121Y-130593636D01*
X149085373Y-130553846D01*
X149052216Y-130515872D01*
X149016764Y-130479638D01*
X148979131Y-130445072D01*
X148939431Y-130412101D01*
X148897779Y-130380653D01*
X148854289Y-130350653D01*
X148809074Y-130322029D01*
X148762250Y-130294708D01*
X148664229Y-130243681D01*
X148561140Y-130196989D01*
X148453897Y-130154047D01*
X148343413Y-130114269D01*
X148230601Y-130077073D01*
X148116377Y-130041872D01*
X147663622Y-129909342D01*
X147533062Y-130010502D01*
X147407767Y-130114719D01*
X147287562Y-130221835D01*
X147172271Y-130331689D01*
X147061717Y-130444122D01*
X146955725Y-130558974D01*
X146854118Y-130676086D01*
X146756720Y-130795298D01*
X146663355Y-130916450D01*
X146573847Y-131039383D01*
X146488019Y-131163938D01*
X146405696Y-131289954D01*
X146326702Y-131417273D01*
X146250860Y-131545734D01*
X146177994Y-131675177D01*
X146107928Y-131805445D01*
X146100197Y-131839326D01*
X146094575Y-131873418D01*
X146090889Y-131907702D01*
X146088970Y-131942160D01*
X146089755Y-132011526D01*
X146095566Y-132081366D01*
X146105046Y-132151532D01*
X146116831Y-132221879D01*
X146141880Y-132362519D01*
X146152423Y-132432518D01*
X146159829Y-132502106D01*
X146162740Y-132571135D01*
X146162083Y-132605393D01*
X146159793Y-132639457D01*
X146155698Y-132673307D01*
X146149629Y-132706926D01*
X146141416Y-132740294D01*
X146130887Y-132773393D01*
X146117875Y-132806204D01*
X146102207Y-132838710D01*
X146083715Y-132870892D01*
X146062228Y-132902731D01*
X145998593Y-132999878D01*
X145940472Y-133098509D01*
X145887501Y-133198511D01*
X145839315Y-133299770D01*
X145795550Y-133402173D01*
X145755842Y-133505608D01*
X145719828Y-133609961D01*
X145687142Y-133715120D01*
X145657420Y-133820971D01*
X145630299Y-133927402D01*
X145582402Y-134141549D01*
X145540536Y-134356657D01*
X145501788Y-134571821D01*
X145320235Y-134395925D01*
X145145227Y-134216614D01*
X144975671Y-134034447D01*
X144810469Y-133849985D01*
X144488747Y-133476412D01*
X144171297Y-133100374D01*
X143849356Y-132726348D01*
X143683963Y-132541489D01*
X143514159Y-132358813D01*
X143338851Y-132178878D01*
X143156941Y-132002246D01*
X142967336Y-131829476D01*
X142768938Y-131661127D01*
X142705572Y-131744671D01*
X142649236Y-131829735D01*
X142599493Y-131916228D01*
X142555912Y-132004060D01*
X142518057Y-132093141D01*
X142485495Y-132183381D01*
X142457791Y-132274690D01*
X142434510Y-132366979D01*
X142399486Y-132554132D01*
X142376948Y-132744120D01*
X142363423Y-132936223D01*
X142355439Y-133129721D01*
X142342197Y-133518019D01*
X142329994Y-133711378D01*
X142309437Y-133903250D01*
X142277055Y-134092915D01*
X142255344Y-134186695D01*
X142229374Y-134279653D01*
X142198711Y-134371698D01*
X142162920Y-134462742D01*
X142121568Y-134552693D01*
X142074221Y-134641462D01*
X141929815Y-134486845D01*
X141789381Y-134329989D01*
X141516636Y-134011672D01*
X140977105Y-133371437D01*
X140837935Y-133213714D01*
X140695156Y-133057982D01*
X140547818Y-132904771D01*
X140394976Y-132754609D01*
X140235680Y-132608026D01*
X140068983Y-132465551D01*
X139893938Y-132327713D01*
X139709597Y-132195040D01*
X139662023Y-132355570D01*
X139619633Y-132516832D01*
X139581799Y-132678736D01*
X139547891Y-132841192D01*
X139489330Y-133167401D01*
X139438912Y-133494742D01*
X139342347Y-134149952D01*
X139286122Y-134476387D01*
X139253819Y-134638998D01*
X139217883Y-134801084D01*
X139170020Y-134631022D01*
X139135105Y-134460714D01*
X139111179Y-134290201D01*
X139096286Y-134119523D01*
X139088469Y-133948717D01*
X139085768Y-133777824D01*
X139087891Y-133435933D01*
X139086994Y-133094162D01*
X139080520Y-132923420D01*
X139067419Y-132752827D01*
X139045733Y-132582420D01*
X139013506Y-132412241D01*
X138968778Y-132242327D01*
X138941116Y-132157482D01*
X138909594Y-132072718D01*
X138580051Y-132307990D01*
X138257549Y-132548366D01*
X137941509Y-132793375D01*
X137631352Y-133042543D01*
X137326497Y-133295399D01*
X137026364Y-133551470D01*
X136730373Y-133810285D01*
X136437945Y-134071371D01*
X136289975Y-134072101D01*
X136142062Y-134072081D01*
X136138442Y-133886109D01*
X136145869Y-133699510D01*
X136162013Y-133512411D01*
X136184546Y-133324939D01*
X136291989Y-132573863D01*
X136311533Y-132386431D01*
X136323492Y-132199389D01*
X136325539Y-132012863D01*
X136315343Y-131826979D01*
X136290576Y-131641866D01*
X136272001Y-131549638D01*
X136248910Y-131457650D01*
X136221012Y-131365918D01*
X136188015Y-131274458D01*
X136149629Y-131183285D01*
X136105563Y-131092417D01*
X135881308Y-131195473D01*
X135669133Y-131307670D01*
X135467774Y-131428057D01*
X135275967Y-131555683D01*
X135092448Y-131689596D01*
X134915954Y-131828846D01*
X134745220Y-131972483D01*
X134578984Y-132119553D01*
X133933731Y-132723165D01*
X133605227Y-133020854D01*
X133435083Y-133165341D01*
X133259325Y-133305654D01*
X133067149Y-133277330D01*
X132874834Y-133250357D01*
X132861253Y-132693839D01*
X132835120Y-132136249D01*
X132793154Y-131578286D01*
X132732073Y-131020648D01*
X132693340Y-130742170D01*
X132648597Y-130464034D01*
X132597434Y-130186329D01*
X132539442Y-129909141D01*
X132474211Y-129632559D01*
X132401329Y-129356668D01*
X132320387Y-129081558D01*
X132230975Y-128807314D01*
X132209965Y-128750243D01*
X132183377Y-128690755D01*
X132151372Y-128630010D01*
X132114109Y-128569173D01*
X132071748Y-128509405D01*
X132024449Y-128451869D01*
X131998998Y-128424301D01*
X131972373Y-128397728D01*
X131944593Y-128372294D01*
X131915678Y-128348144D01*
X131885650Y-128325425D01*
X131854526Y-128304281D01*
X131822328Y-128284858D01*
X131789076Y-128267300D01*
X131754789Y-128251754D01*
X131719488Y-128238365D01*
X131683193Y-128227278D01*
X131645923Y-128218638D01*
X131607698Y-128212590D01*
X131568539Y-128209281D01*
X131528465Y-128208855D01*
X131487498Y-128211457D01*
X131445655Y-128217234D01*
X131402958Y-128226329D01*
X131359427Y-128238890D01*
X131315081Y-128255060D01*
X131123405Y-128331080D01*
X130937178Y-128413144D01*
X130756139Y-128500830D01*
X130580022Y-128593717D01*
X130408564Y-128691384D01*
X130241503Y-128793408D01*
X130078573Y-128899370D01*
X129919512Y-129008846D01*
X129764056Y-129121416D01*
X129611941Y-129236659D01*
X129316681Y-129473474D01*
X129031622Y-129715921D01*
X128754656Y-129960627D01*
X128461277Y-129857007D01*
X128315458Y-129804167D01*
X128170245Y-129750406D01*
X128179210Y-129612180D01*
X128177841Y-129473902D01*
X128166268Y-129335907D01*
X128144620Y-129198529D01*
X128113029Y-129062104D01*
X128071623Y-128926965D01*
X128020535Y-128793448D01*
X127959893Y-128661886D01*
X127889828Y-128532615D01*
X127810470Y-128405970D01*
X127721950Y-128282284D01*
X127624398Y-128161893D01*
X127517944Y-128045130D01*
X127402718Y-127932332D01*
X127278850Y-127823832D01*
X127146471Y-127719965D01*
X127071289Y-127717803D01*
X126996409Y-127717445D01*
X126847483Y-127721562D01*
X126699551Y-127731148D01*
X126552468Y-127745041D01*
X126406091Y-127762074D01*
X126260276Y-127781083D01*
X125969759Y-127820368D01*
X125905523Y-127545371D01*
X125869842Y-127403852D01*
X125829796Y-127261540D01*
X125783889Y-127119852D01*
X125730630Y-126980203D01*
X125668525Y-126844012D01*
X125596079Y-126712693D01*
X125555512Y-126649304D01*
X125511801Y-126587664D01*
X125464757Y-126527950D01*
X125414196Y-126470339D01*
X125359929Y-126415010D01*
X125301770Y-126362137D01*
X125239534Y-126311899D01*
X125173032Y-126264473D01*
X125102078Y-126220035D01*
X125026486Y-126178763D01*
X124946069Y-126140834D01*
X124860641Y-126106424D01*
X124770014Y-126075712D01*
X124674001Y-126048873D01*
X124572417Y-126026085D01*
X124465075Y-126007524D01*
X124331637Y-125778261D01*
X124361811Y-125695645D01*
X124389211Y-125612434D01*
X124413752Y-125528674D01*
X124435350Y-125444416D01*
X124453921Y-125359706D01*
X124469381Y-125274593D01*
X124481648Y-125189127D01*
X124490635Y-125103353D01*
X124496261Y-125017322D01*
X124498440Y-124931082D01*
X124497090Y-124844680D01*
X124492125Y-124758166D01*
X124483463Y-124671586D01*
X124471019Y-124584991D01*
X124454709Y-124498427D01*
X124434451Y-124411943D01*
X123916354Y-124370824D01*
X123787018Y-124358837D01*
X123657962Y-124344969D01*
X123529287Y-124328620D01*
X123401095Y-124309191D01*
X123389822Y-124265168D01*
X123380638Y-124221100D01*
X123367889Y-124132844D01*
X123361546Y-124044459D01*
X123360304Y-123955975D01*
X123362862Y-123867428D01*
X123367916Y-123778849D01*
X123380303Y-123601733D01*
X123385029Y-123513262D01*
X123387041Y-123424894D01*
X123385035Y-123336661D01*
X123377708Y-123248597D01*
X123363758Y-123160736D01*
X123353892Y-123116891D01*
X123341881Y-123073110D01*
X123327563Y-123029396D01*
X123310775Y-122985753D01*
X123291354Y-122942186D01*
X123269137Y-122898699D01*
X123162988Y-122942271D01*
X123059638Y-122988587D01*
X122959062Y-123037545D01*
X122861234Y-123089043D01*
X122766127Y-123142980D01*
X122673717Y-123199254D01*
X122583976Y-123257764D01*
X122496880Y-123318408D01*
X122412402Y-123381085D01*
X122330517Y-123445693D01*
X122251198Y-123512132D01*
X122174420Y-123580298D01*
X122100157Y-123650092D01*
X122028383Y-123721411D01*
X121959072Y-123794154D01*
X121892199Y-123868219D01*
X121357590Y-123458353D01*
X121092528Y-123250098D01*
X120833723Y-123037785D01*
X120707784Y-122929673D01*
X120584748Y-122820029D01*
X120465062Y-122708677D01*
X120349173Y-122595447D01*
X120237528Y-122480164D01*
X120130571Y-122362656D01*
X120028751Y-122242749D01*
X119932513Y-122120272D01*
X119919514Y-122068109D01*
X119909727Y-122016172D01*
X119902998Y-121964453D01*
X119899175Y-121912942D01*
X119898106Y-121861631D01*
X119899637Y-121810511D01*
X119903615Y-121759575D01*
X119909888Y-121708814D01*
X119928707Y-121607781D01*
X119954870Y-121507345D01*
X119987156Y-121407439D01*
X120024342Y-121307994D01*
X120065205Y-121208942D01*
X120108523Y-121110216D01*
X120197633Y-120913470D01*
X120240980Y-120815313D01*
X120281892Y-120717211D01*
X120319146Y-120619096D01*
X120351519Y-120520899D01*
X120504902Y-120563975D01*
G37*
D12*
X120504902Y-120563975D02*
X120659396Y-120606302D01*
X120713014Y-120847767D01*
X120770767Y-121090208D01*
X120836199Y-121332337D01*
X120872904Y-121452881D01*
X120912859Y-121572863D01*
X120956508Y-121692121D01*
X121004294Y-121810496D01*
X121056660Y-121927825D01*
X121114049Y-122043947D01*
X121176906Y-122158701D01*
X121245673Y-122271926D01*
X121320794Y-122383460D01*
X121402712Y-122493143D01*
X121421208Y-122496990D01*
X121439286Y-122499718D01*
X121456966Y-122501381D01*
X121474266Y-122502034D01*
X121491205Y-122501731D01*
X121507802Y-122500527D01*
X121524076Y-122498476D01*
X121540046Y-122495634D01*
X121555732Y-122492054D01*
X121571151Y-122487791D01*
X121601268Y-122477437D01*
X121630549Y-122465007D01*
X121659146Y-122450938D01*
X121687210Y-122435668D01*
X121714892Y-122419632D01*
X121769722Y-122387012D01*
X121797173Y-122371302D01*
X121824849Y-122356574D01*
X121852903Y-122343265D01*
X121881487Y-122331812D01*
X121979082Y-122331055D01*
X122075579Y-122330812D01*
X122251782Y-122581522D01*
X122427859Y-122833765D01*
X122660277Y-122713087D01*
X122892626Y-122593187D01*
X123269090Y-122665896D01*
X123645058Y-122741192D01*
X124397204Y-122892137D01*
X124546364Y-122718177D01*
X124689892Y-122541677D01*
X124828447Y-122362959D01*
X124962687Y-122182348D01*
X125093271Y-122000166D01*
X125220857Y-121816737D01*
X125469668Y-121447428D01*
X125605606Y-121631884D01*
X125734691Y-121818613D01*
X125858555Y-122007072D01*
X125978833Y-122196719D01*
X126215161Y-122577407D01*
X126334479Y-122767363D01*
X126456744Y-122956339D01*
X126526288Y-122958222D01*
X126610430Y-122961652D01*
X126764117Y-122968836D01*
X126836173Y-122876514D01*
X126905762Y-122783118D01*
X127039262Y-122593861D01*
X127295620Y-122210794D01*
X127425376Y-122020018D01*
X127560782Y-121831768D01*
X127631681Y-121739064D01*
X127705286Y-121647561D01*
X127782028Y-121557447D01*
X127862338Y-121468912D01*
X127859569Y-121640616D01*
X127852357Y-121812405D01*
X127830037Y-122156106D01*
X127806244Y-122499752D01*
X127797190Y-122671472D01*
X127791844Y-122843079D01*
X127791562Y-123014539D01*
X127797704Y-123185820D01*
X127811627Y-123356890D01*
X127834689Y-123527713D01*
X127868250Y-123698259D01*
X127913667Y-123868493D01*
X127972299Y-124038383D01*
X128045504Y-124207895D01*
X128056054Y-124451343D01*
X128075242Y-124696272D01*
X128103953Y-124941969D01*
X128143070Y-125187720D01*
X128193477Y-125432812D01*
X128256060Y-125676532D01*
X128331701Y-125918165D01*
X128421286Y-126156998D01*
X128525699Y-126392317D01*
X128645823Y-126623410D01*
X128782543Y-126849561D01*
X128936744Y-127070059D01*
X129109309Y-127284189D01*
X129301124Y-127491237D01*
X129513071Y-127690490D01*
X129746035Y-127881235D01*
X130102145Y-127718386D01*
X130136971Y-127526931D01*
X130176368Y-127336323D01*
X130265150Y-126957002D01*
X130456561Y-126201373D01*
X130544274Y-125822463D01*
X130582870Y-125632165D01*
X130616717Y-125441088D01*
X130644881Y-125249069D01*
X130666432Y-125055946D01*
X130680436Y-124861556D01*
X130685961Y-124665735D01*
X130785001Y-124428650D01*
X130878400Y-124190355D01*
X131050629Y-123710657D01*
X131207347Y-123227678D01*
X131353257Y-122742454D01*
X131631448Y-121769419D01*
X131773132Y-121283681D01*
X131922808Y-120799845D01*
X131961305Y-120945403D01*
X131990658Y-121091167D01*
X132012240Y-121237108D01*
X132027426Y-121383197D01*
X132037589Y-121529406D01*
X132044104Y-121675707D01*
X132051684Y-121968468D01*
X132061158Y-122261251D01*
X132070040Y-122407579D01*
X132083517Y-122553827D01*
X132102965Y-122699966D01*
X132129755Y-122845968D01*
X132165264Y-122991804D01*
X132210864Y-123137445D01*
X132426140Y-123156895D01*
X132641360Y-123177248D01*
X132741344Y-123061409D01*
X132837724Y-122944025D01*
X132930838Y-122825242D01*
X133021021Y-122705208D01*
X133193944Y-122461971D01*
X133359187Y-122215487D01*
X133997225Y-121220568D01*
X134150866Y-121233140D01*
X134303362Y-121246164D01*
X134289494Y-121452009D01*
X134278971Y-121658087D01*
X134272286Y-121864382D01*
X134269936Y-122070875D01*
X134272414Y-122277550D01*
X134280216Y-122484390D01*
X134293836Y-122691377D01*
X134313769Y-122898493D01*
X134497141Y-122923766D01*
X134680605Y-122947992D01*
X134789511Y-122848112D01*
X134894506Y-122746229D01*
X134995841Y-122642483D01*
X135093769Y-122537015D01*
X135188540Y-122429965D01*
X135280407Y-122321475D01*
X135369619Y-122211686D01*
X135456429Y-122100738D01*
X135623847Y-121875927D01*
X135784673Y-121648171D01*
X135940918Y-121418595D01*
X136094592Y-121188326D01*
X136121738Y-121314396D01*
X136143751Y-121440949D01*
X136161696Y-121567880D01*
X136176639Y-121695084D01*
X136227709Y-122204522D01*
X136243632Y-122331511D01*
X136262949Y-122458142D01*
X136286727Y-122584309D01*
X136316030Y-122709908D01*
X136351926Y-122834832D01*
X136395481Y-122958977D01*
X136447760Y-123082237D01*
X136509829Y-123204508D01*
X136930804Y-123241304D01*
X137133933Y-122631828D01*
X137235428Y-122326678D01*
X137342125Y-122022804D01*
X137457963Y-121721367D01*
X137520540Y-121571925D01*
X137586878Y-121423528D01*
X137657471Y-121276322D01*
X137732809Y-121130450D01*
X137813385Y-120986059D01*
X137899691Y-120843294D01*
X138181742Y-121427051D01*
X138318560Y-121720207D01*
X138448674Y-122014677D01*
X138569158Y-122310806D01*
X138624875Y-122459601D01*
X138677087Y-122608941D01*
X138725430Y-122758868D01*
X138769538Y-122909427D01*
X138809045Y-123060660D01*
X138843584Y-123212610D01*
X139045542Y-123232524D01*
X139247500Y-123253107D01*
X139247317Y-123251764D01*
X139342634Y-123113151D01*
X139429812Y-122972165D01*
X139509671Y-122829048D01*
X139583033Y-122684039D01*
X139650718Y-122537380D01*
X139713547Y-122389309D01*
X139772343Y-122240068D01*
X139827925Y-122089897D01*
X140034543Y-121484714D01*
X140139920Y-121182788D01*
X140196000Y-121032832D01*
X140255434Y-120883867D01*
X140444015Y-121187304D01*
X140622732Y-121494328D01*
X140707288Y-121649186D01*
X140788053Y-121804943D01*
X140864586Y-121961599D01*
X140936446Y-122119153D01*
X141003190Y-122277607D01*
X141064378Y-122436960D01*
X141119567Y-122597214D01*
X141168317Y-122758368D01*
X141210185Y-122920423D01*
X141244731Y-123083379D01*
X141271512Y-123247237D01*
X141290087Y-123411997D01*
X141493088Y-123438373D01*
X141594831Y-123452358D01*
X141696902Y-123466997D01*
X141797717Y-123343747D01*
X141892056Y-123218055D01*
X141980755Y-123090237D01*
X142064652Y-122960608D01*
X142144583Y-122829482D01*
X142221385Y-122697176D01*
X142368954Y-122430283D01*
X142514054Y-122162452D01*
X142663383Y-121896204D01*
X142741726Y-121764463D01*
X142823637Y-121634063D01*
X142909954Y-121505320D01*
X143001513Y-121378550D01*
X143050644Y-121865030D01*
X143073970Y-122108481D01*
X143093514Y-122351911D01*
X143107057Y-122595201D01*
X143112383Y-122838227D01*
X143111271Y-122959604D01*
X143107273Y-123080870D01*
X143100112Y-123202009D01*
X143089510Y-123323008D01*
X143422793Y-123532816D01*
X143543239Y-123435428D01*
X143660161Y-123335932D01*
X143773634Y-123234412D01*
X143883735Y-123130950D01*
X143990540Y-123025631D01*
X144094126Y-122918538D01*
X144194570Y-122809754D01*
X144291947Y-122699362D01*
X144386334Y-122587446D01*
X144477807Y-122474089D01*
X144566444Y-122359374D01*
X144652320Y-122243386D01*
X144735511Y-122126206D01*
X144816095Y-122007920D01*
X144894147Y-121888609D01*
X144969744Y-121768358D01*
X145032221Y-121986198D01*
X145087790Y-122204686D01*
X145137457Y-122423717D01*
X145182228Y-122643187D01*
X145223111Y-122862991D01*
X145261111Y-123083024D01*
X145332491Y-123523355D01*
X145420927Y-123505770D01*
X145504703Y-123484395D01*
X145584059Y-123459424D01*
X145659237Y-123431052D01*
X145730476Y-123399470D01*
X145798018Y-123364873D01*
X145862103Y-123327455D01*
X145922971Y-123287409D01*
X145980864Y-123244928D01*
X146036021Y-123200207D01*
X146088685Y-123153438D01*
X146139094Y-123104816D01*
X146187490Y-123054533D01*
X146234113Y-123002784D01*
X146323004Y-122895661D01*
X146655786Y-122447224D01*
X146742910Y-122337872D01*
X146835456Y-122232719D01*
X146884364Y-122182202D01*
X146935349Y-122133315D01*
X146988651Y-122086253D01*
X147044512Y-122041208D01*
X147074027Y-122048419D01*
X147101747Y-122056978D01*
X147127743Y-122066820D01*
X147152085Y-122077881D01*
X147174844Y-122090097D01*
X147196091Y-122103404D01*
X147215895Y-122117736D01*
X147234328Y-122133031D01*
X147251460Y-122149223D01*
X147267362Y-122166249D01*
X147282104Y-122184044D01*
X147295756Y-122202543D01*
X147308389Y-122221684D01*
X147320075Y-122241400D01*
X147330882Y-122261628D01*
X147340882Y-122282305D01*
X147358742Y-122324743D01*
X147374219Y-122368202D01*
X147387878Y-122412165D01*
X147400283Y-122456120D01*
X147423585Y-122541947D01*
X147435612Y-122582791D01*
X147448641Y-122621569D01*
X147487192Y-122933835D01*
X147516587Y-123246383D01*
X147537375Y-123559091D01*
X147550103Y-123871840D01*
X147555316Y-124184510D01*
X147553563Y-124496979D01*
X147545390Y-124809128D01*
X147531344Y-125120836D01*
X147573009Y-125368138D01*
X147608047Y-125615634D01*
X147636785Y-125863287D01*
X147659548Y-126111056D01*
X147676665Y-126358903D01*
X147688460Y-126606789D01*
X147697392Y-127102519D01*
X147688955Y-127597933D01*
X147665761Y-128092718D01*
X147630420Y-128586561D01*
X147585543Y-129079149D01*
X148225298Y-129278818D01*
X148398858Y-129146167D01*
X148564071Y-129009347D01*
X148721187Y-128868534D01*
X148870456Y-128723902D01*
X149012129Y-128575624D01*
X149146456Y-128423875D01*
X149273686Y-128268830D01*
X149394071Y-128110662D01*
X149615304Y-127785657D01*
X149812156Y-127450255D01*
X149986629Y-127105850D01*
X150140725Y-126753837D01*
X150276444Y-126395609D01*
X150395790Y-126032562D01*
X150500763Y-125666089D01*
X150593365Y-125297586D01*
X150675598Y-124928447D01*
X150749463Y-124560066D01*
X150880099Y-123831156D01*
X150949129Y-123915151D01*
X151014537Y-124000318D01*
X151076605Y-124086558D01*
X151135615Y-124173771D01*
X151191850Y-124261860D01*
X151245593Y-124350726D01*
X151297126Y-124440270D01*
X151346732Y-124530394D01*
X151441291Y-124711989D01*
X151531532Y-124894721D01*
X151708102Y-125260446D01*
X151808984Y-125270314D01*
X151910181Y-125281121D01*
X152011573Y-125292791D01*
X152113039Y-125305246D01*
X152207359Y-125190148D01*
X152294543Y-125072630D01*
X152375299Y-124952931D01*
X152450336Y-124831292D01*
X152520363Y-124707951D01*
X152586089Y-124583148D01*
X152648222Y-124457123D01*
X152707472Y-124330114D01*
X152820157Y-124074107D01*
X152929813Y-123817041D01*
X153042111Y-123560833D01*
X153101023Y-123433649D01*
X153162722Y-123307398D01*
X153218930Y-123433764D01*
X153270834Y-123560842D01*
X153319076Y-123688523D01*
X153364296Y-123816699D01*
X153448234Y-124074107D01*
X153527779Y-124332203D01*
X153608058Y-124590125D01*
X153694201Y-124847011D01*
X153741073Y-124974797D01*
X153791335Y-125102000D01*
X153845626Y-125228512D01*
X153904589Y-125354227D01*
X153911852Y-125370564D01*
X153920292Y-125386106D01*
X153929853Y-125400890D01*
X153940478Y-125414953D01*
X153952114Y-125428330D01*
X153964703Y-125441057D01*
X153978190Y-125453170D01*
X153992519Y-125464706D01*
X154007635Y-125475701D01*
X154023481Y-125486190D01*
X154057143Y-125505796D01*
X154093060Y-125523813D01*
X154130785Y-125540531D01*
X154169873Y-125556238D01*
X154209878Y-125571222D01*
X154290853Y-125600177D01*
X154330932Y-125614726D01*
X154370145Y-125629706D01*
X154408044Y-125645408D01*
X154444186Y-125662119D01*
X154544463Y-125557701D01*
X154641030Y-125451419D01*
X154734054Y-125343385D01*
X154823706Y-125233708D01*
X154910155Y-125122501D01*
X154993571Y-125009873D01*
X155074122Y-124895937D01*
X155151980Y-124780802D01*
X155250298Y-124913912D01*
X155350179Y-125046545D01*
X155452120Y-125178420D01*
X155556622Y-125309256D01*
X155664183Y-125438773D01*
X155775302Y-125566688D01*
X155890478Y-125692721D01*
X156010210Y-125816591D01*
X156123845Y-125696865D01*
X156236866Y-125576610D01*
X156462527Y-125335794D01*
X156500801Y-125345305D01*
X156546925Y-125357270D01*
X156630373Y-125379198D01*
X156657181Y-125396281D01*
X156683580Y-125414164D01*
X156735701Y-125451497D01*
X156787831Y-125489526D01*
X156814241Y-125508278D01*
X156841063Y-125526578D01*
X156868434Y-125544215D01*
X156896491Y-125560982D01*
X156925370Y-125576668D01*
X156955208Y-125591066D01*
X156986142Y-125603965D01*
X157002063Y-125609788D01*
X157018309Y-125615158D01*
X157034897Y-125620049D01*
X157051844Y-125624434D01*
X157069168Y-125628289D01*
X157086886Y-125631586D01*
X157242801Y-125474029D01*
X157385888Y-125311142D01*
X157517169Y-125143400D01*
X157637665Y-124971279D01*
X157748397Y-124795255D01*
X157850386Y-124615802D01*
X157944654Y-124433398D01*
X158032221Y-124248517D01*
X158114109Y-124061636D01*
X158191340Y-123873229D01*
X158335911Y-123493744D01*
X158614092Y-122737406D01*
X158745949Y-122890815D01*
X158865425Y-123048667D01*
X158973190Y-123210533D01*
X159069912Y-123375986D01*
X159156260Y-123544595D01*
X159232904Y-123715934D01*
X159300513Y-123889573D01*
X159359755Y-124065083D01*
X159411300Y-124242037D01*
X159455817Y-124420006D01*
X159493975Y-124598561D01*
X159526442Y-124777274D01*
X159553889Y-124955716D01*
X159576984Y-125133459D01*
X159612795Y-125485132D01*
X159168895Y-125795258D01*
X158721558Y-126104317D01*
X158269526Y-126410271D01*
X157811541Y-126711084D01*
X157766204Y-126646823D01*
X157718325Y-126583750D01*
X157667984Y-126521866D01*
X157615261Y-126461171D01*
X157560234Y-126401663D01*
X157502985Y-126343342D01*
X157443592Y-126286208D01*
X157382136Y-126230260D01*
X157318695Y-126175497D01*
X157253350Y-126121919D01*
X157186180Y-126069526D01*
X157117265Y-126018316D01*
X157046685Y-125968289D01*
X156974518Y-125919446D01*
X156900846Y-125871784D01*
X156825747Y-125825304D01*
X156780403Y-125908503D01*
X156741051Y-125992921D01*
X156707033Y-126078428D01*
X156677690Y-126164893D01*
X156652363Y-126252184D01*
X156630392Y-126340170D01*
X156611119Y-126428720D01*
X156593886Y-126517702D01*
X156532163Y-126875329D01*
X156515241Y-126964504D01*
X156496404Y-127053323D01*
X156474993Y-127141657D01*
X156450350Y-127229372D01*
X156202456Y-127194856D01*
X155955271Y-127158307D01*
X155462801Y-127081469D01*
X155409071Y-127183801D01*
X155363424Y-127287624D01*
X155324961Y-127392777D01*
X155292785Y-127499097D01*
X155266000Y-127606425D01*
X155243706Y-127714598D01*
X155225008Y-127823456D01*
X155209008Y-127932836D01*
X155154032Y-128372366D01*
X155138057Y-128481944D01*
X155119396Y-128591078D01*
X155097150Y-128699606D01*
X155070422Y-128807367D01*
X154945208Y-128784531D01*
X154827497Y-128770662D01*
X154716969Y-128765340D01*
X154613306Y-128768145D01*
X154516187Y-128778657D01*
X154425295Y-128796457D01*
X154340311Y-128821125D01*
X154260915Y-128852242D01*
X154186789Y-128889387D01*
X154117613Y-128932140D01*
X154053069Y-128980083D01*
X153992838Y-129032795D01*
X153936600Y-129089856D01*
X153884037Y-129150847D01*
X153834830Y-129215348D01*
X153788660Y-129282939D01*
X153745208Y-129353200D01*
X153704155Y-129425713D01*
X153627971Y-129575810D01*
X153557555Y-129729873D01*
X153490356Y-129884543D01*
X153423823Y-130036464D01*
X153355403Y-130182275D01*
X153282546Y-130318620D01*
X153243656Y-130382193D01*
X153202700Y-130442141D01*
X152498949Y-129937189D01*
X152012453Y-129899790D01*
X151943859Y-129954186D01*
X151878208Y-130009906D01*
X151755242Y-130125082D01*
X151642564Y-130244854D01*
X151539183Y-130368757D01*
X151444106Y-130496328D01*
X151356342Y-130627103D01*
X151274900Y-130760616D01*
X151198788Y-130896405D01*
X151127014Y-131034005D01*
X151058586Y-131172951D01*
X150927805Y-131453028D01*
X150798509Y-131732922D01*
X150731940Y-131871640D01*
X150662768Y-132008921D01*
X150535204Y-131952847D01*
X150412511Y-131892912D01*
X150294664Y-131829252D01*
X150181641Y-131762003D01*
X150073417Y-131691301D01*
X149969967Y-131617282D01*
X149871268Y-131540083D01*
X149777295Y-131459839D01*
X149688024Y-131376686D01*
X149603431Y-131290762D01*
X149523493Y-131202201D01*
X149448184Y-131111140D01*
X149377481Y-131017715D01*
X149311360Y-130922063D01*
X149249797Y-130824319D01*
X149192767Y-130724619D01*
X149169932Y-130678949D01*
X149144346Y-130635312D01*
X149116121Y-130593636D01*
X149085373Y-130553846D01*
X149052216Y-130515872D01*
X149016764Y-130479638D01*
X148979131Y-130445072D01*
X148939431Y-130412101D01*
X148897779Y-130380653D01*
X148854289Y-130350653D01*
X148809074Y-130322029D01*
X148762250Y-130294708D01*
X148664229Y-130243681D01*
X148561140Y-130196989D01*
X148453897Y-130154047D01*
X148343413Y-130114269D01*
X148230601Y-130077073D01*
X148116377Y-130041872D01*
X147663622Y-129909342D01*
X147533062Y-130010502D01*
X147407767Y-130114719D01*
X147287562Y-130221835D01*
X147172271Y-130331689D01*
X147061717Y-130444122D01*
X146955725Y-130558974D01*
X146854118Y-130676086D01*
X146756720Y-130795298D01*
X146663355Y-130916450D01*
X146573847Y-131039383D01*
X146488019Y-131163938D01*
X146405696Y-131289954D01*
X146326702Y-131417273D01*
X146250860Y-131545734D01*
X146177994Y-131675177D01*
X146107928Y-131805445D01*
X146100197Y-131839326D01*
X146094575Y-131873418D01*
X146090889Y-131907702D01*
X146088970Y-131942160D01*
X146089755Y-132011526D01*
X146095566Y-132081366D01*
X146105046Y-132151532D01*
X146116831Y-132221879D01*
X146141880Y-132362519D01*
X146152423Y-132432518D01*
X146159829Y-132502106D01*
X146162740Y-132571135D01*
X146162083Y-132605393D01*
X146159793Y-132639457D01*
X146155698Y-132673307D01*
X146149629Y-132706926D01*
X146141416Y-132740294D01*
X146130887Y-132773393D01*
X146117875Y-132806204D01*
X146102207Y-132838710D01*
X146083715Y-132870892D01*
X146062228Y-132902731D01*
X145998593Y-132999878D01*
X145940472Y-133098509D01*
X145887501Y-133198511D01*
X145839315Y-133299770D01*
X145795550Y-133402173D01*
X145755842Y-133505608D01*
X145719828Y-133609961D01*
X145687142Y-133715120D01*
X145657420Y-133820971D01*
X145630299Y-133927402D01*
X145582402Y-134141549D01*
X145540536Y-134356657D01*
X145501788Y-134571821D01*
X145320235Y-134395925D01*
X145145227Y-134216614D01*
X144975671Y-134034447D01*
X144810469Y-133849985D01*
X144488747Y-133476412D01*
X144171297Y-133100374D01*
X143849356Y-132726348D01*
X143683963Y-132541489D01*
X143514159Y-132358813D01*
X143338851Y-132178878D01*
X143156941Y-132002246D01*
X142967336Y-131829476D01*
X142768938Y-131661127D01*
X142705572Y-131744671D01*
X142649236Y-131829735D01*
X142599493Y-131916228D01*
X142555912Y-132004060D01*
X142518057Y-132093141D01*
X142485495Y-132183381D01*
X142457791Y-132274690D01*
X142434510Y-132366979D01*
X142399486Y-132554132D01*
X142376948Y-132744120D01*
X142363423Y-132936223D01*
X142355439Y-133129721D01*
X142342197Y-133518019D01*
X142329994Y-133711378D01*
X142309437Y-133903250D01*
X142277055Y-134092915D01*
X142255344Y-134186695D01*
X142229374Y-134279653D01*
X142198711Y-134371698D01*
X142162920Y-134462742D01*
X142121568Y-134552693D01*
X142074221Y-134641462D01*
X141929815Y-134486845D01*
X141789381Y-134329989D01*
X141516636Y-134011672D01*
X140977105Y-133371437D01*
X140837935Y-133213714D01*
X140695156Y-133057982D01*
X140547818Y-132904771D01*
X140394976Y-132754609D01*
X140235680Y-132608026D01*
X140068983Y-132465551D01*
X139893938Y-132327713D01*
X139709597Y-132195040D01*
X139662023Y-132355570D01*
X139619633Y-132516832D01*
X139581799Y-132678736D01*
X139547891Y-132841192D01*
X139489330Y-133167401D01*
X139438912Y-133494742D01*
X139342347Y-134149952D01*
X139286122Y-134476387D01*
X139253819Y-134638998D01*
X139217883Y-134801084D01*
X139170020Y-134631022D01*
X139135105Y-134460714D01*
X139111179Y-134290201D01*
X139096286Y-134119523D01*
X139088469Y-133948717D01*
X139085768Y-133777824D01*
X139087891Y-133435933D01*
X139086994Y-133094162D01*
X139080520Y-132923420D01*
X139067419Y-132752827D01*
X139045733Y-132582420D01*
X139013506Y-132412241D01*
X138968778Y-132242327D01*
X138941116Y-132157482D01*
X138909594Y-132072718D01*
X138580051Y-132307990D01*
X138257549Y-132548366D01*
X137941509Y-132793375D01*
X137631352Y-133042543D01*
X137326497Y-133295399D01*
X137026364Y-133551470D01*
X136730373Y-133810285D01*
X136437945Y-134071371D01*
X136289975Y-134072101D01*
X136142062Y-134072081D01*
X136138442Y-133886109D01*
X136145869Y-133699510D01*
X136162013Y-133512411D01*
X136184546Y-133324939D01*
X136291989Y-132573863D01*
X136311533Y-132386431D01*
X136323492Y-132199389D01*
X136325539Y-132012863D01*
X136315343Y-131826979D01*
X136290576Y-131641866D01*
X136272001Y-131549638D01*
X136248910Y-131457650D01*
X136221012Y-131365918D01*
X136188015Y-131274458D01*
X136149629Y-131183285D01*
X136105563Y-131092417D01*
X135881308Y-131195473D01*
X135669133Y-131307670D01*
X135467774Y-131428057D01*
X135275967Y-131555683D01*
X135092448Y-131689596D01*
X134915954Y-131828846D01*
X134745220Y-131972483D01*
X134578984Y-132119553D01*
X133933731Y-132723165D01*
X133605227Y-133020854D01*
X133435083Y-133165341D01*
X133259325Y-133305654D01*
X133067149Y-133277330D01*
X132874834Y-133250357D01*
X132861253Y-132693839D01*
X132835120Y-132136249D01*
X132793154Y-131578286D01*
X132732073Y-131020648D01*
X132693340Y-130742170D01*
X132648597Y-130464034D01*
X132597434Y-130186329D01*
X132539442Y-129909141D01*
X132474211Y-129632559D01*
X132401329Y-129356668D01*
X132320387Y-129081558D01*
X132230975Y-128807314D01*
X132209965Y-128750243D01*
X132183377Y-128690755D01*
X132151372Y-128630010D01*
X132114109Y-128569173D01*
X132071748Y-128509405D01*
X132024449Y-128451869D01*
X131998998Y-128424301D01*
X131972373Y-128397728D01*
X131944593Y-128372294D01*
X131915678Y-128348144D01*
X131885650Y-128325425D01*
X131854526Y-128304281D01*
X131822328Y-128284858D01*
X131789076Y-128267300D01*
X131754789Y-128251754D01*
X131719488Y-128238365D01*
X131683193Y-128227278D01*
X131645923Y-128218638D01*
X131607698Y-128212590D01*
X131568539Y-128209281D01*
X131528465Y-128208855D01*
X131487498Y-128211457D01*
X131445655Y-128217234D01*
X131402958Y-128226329D01*
X131359427Y-128238890D01*
X131315081Y-128255060D01*
X131123405Y-128331080D01*
X130937178Y-128413144D01*
X130756139Y-128500830D01*
X130580022Y-128593717D01*
X130408564Y-128691384D01*
X130241503Y-128793408D01*
X130078573Y-128899370D01*
X129919512Y-129008846D01*
X129764056Y-129121416D01*
X129611941Y-129236659D01*
X129316681Y-129473474D01*
X129031622Y-129715921D01*
X128754656Y-129960627D01*
X128461277Y-129857007D01*
X128315458Y-129804167D01*
X128170245Y-129750406D01*
X128179210Y-129612180D01*
X128177841Y-129473902D01*
X128166268Y-129335907D01*
X128144620Y-129198529D01*
X128113029Y-129062104D01*
X128071623Y-128926965D01*
X128020535Y-128793448D01*
X127959893Y-128661886D01*
X127889828Y-128532615D01*
X127810470Y-128405970D01*
X127721950Y-128282284D01*
X127624398Y-128161893D01*
X127517944Y-128045130D01*
X127402718Y-127932332D01*
X127278850Y-127823832D01*
X127146471Y-127719965D01*
X127071289Y-127717803D01*
X126996409Y-127717445D01*
X126847483Y-127721562D01*
X126699551Y-127731148D01*
X126552468Y-127745041D01*
X126406091Y-127762074D01*
X126260276Y-127781083D01*
X125969759Y-127820368D01*
X125905523Y-127545371D01*
X125869842Y-127403852D01*
X125829796Y-127261540D01*
X125783889Y-127119852D01*
X125730630Y-126980203D01*
X125668525Y-126844012D01*
X125596079Y-126712693D01*
X125555512Y-126649304D01*
X125511801Y-126587664D01*
X125464757Y-126527950D01*
X125414196Y-126470339D01*
X125359929Y-126415010D01*
X125301770Y-126362137D01*
X125239534Y-126311899D01*
X125173032Y-126264473D01*
X125102078Y-126220035D01*
X125026486Y-126178763D01*
X124946069Y-126140834D01*
X124860641Y-126106424D01*
X124770014Y-126075712D01*
X124674001Y-126048873D01*
X124572417Y-126026085D01*
X124465075Y-126007524D01*
X124331637Y-125778261D01*
X124361811Y-125695645D01*
X124389211Y-125612434D01*
X124413752Y-125528674D01*
X124435350Y-125444416D01*
X124453921Y-125359706D01*
X124469381Y-125274593D01*
X124481648Y-125189127D01*
X124490635Y-125103353D01*
X124496261Y-125017322D01*
X124498440Y-124931082D01*
X124497090Y-124844680D01*
X124492125Y-124758166D01*
X124483463Y-124671586D01*
X124471019Y-124584991D01*
X124454709Y-124498427D01*
X124434451Y-124411943D01*
X123916354Y-124370824D01*
X123787018Y-124358837D01*
X123657962Y-124344969D01*
X123529287Y-124328620D01*
X123401095Y-124309191D01*
X123389822Y-124265168D01*
X123380638Y-124221100D01*
X123367889Y-124132844D01*
X123361546Y-124044459D01*
X123360304Y-123955975D01*
X123362862Y-123867428D01*
X123367916Y-123778849D01*
X123380303Y-123601733D01*
X123385029Y-123513262D01*
X123387041Y-123424894D01*
X123385035Y-123336661D01*
X123377708Y-123248597D01*
X123363758Y-123160736D01*
X123353892Y-123116891D01*
X123341881Y-123073110D01*
X123327563Y-123029396D01*
X123310775Y-122985753D01*
X123291354Y-122942186D01*
X123269137Y-122898699D01*
X123162988Y-122942271D01*
X123059638Y-122988587D01*
X122959062Y-123037545D01*
X122861234Y-123089043D01*
X122766127Y-123142980D01*
X122673717Y-123199254D01*
X122583976Y-123257764D01*
X122496880Y-123318408D01*
X122412402Y-123381085D01*
X122330517Y-123445693D01*
X122251198Y-123512132D01*
X122174420Y-123580298D01*
X122100157Y-123650092D01*
X122028383Y-123721411D01*
X121959072Y-123794154D01*
X121892199Y-123868219D01*
X121357590Y-123458353D01*
X121092528Y-123250098D01*
X120833723Y-123037785D01*
X120707784Y-122929673D01*
X120584748Y-122820029D01*
X120465062Y-122708677D01*
X120349173Y-122595447D01*
X120237528Y-122480164D01*
X120130571Y-122362656D01*
X120028751Y-122242749D01*
X119932513Y-122120272D01*
X119919514Y-122068109D01*
X119909727Y-122016172D01*
X119902998Y-121964453D01*
X119899175Y-121912942D01*
X119898106Y-121861631D01*
X119899637Y-121810511D01*
X119903615Y-121759575D01*
X119909888Y-121708814D01*
X119928707Y-121607781D01*
X119954870Y-121507345D01*
X119987156Y-121407439D01*
X120024342Y-121307994D01*
X120065205Y-121208942D01*
X120108523Y-121110216D01*
X120197633Y-120913470D01*
X120240980Y-120815313D01*
X120281892Y-120717211D01*
X120319146Y-120619096D01*
X120351519Y-120520899D01*
X120504902Y-120563975D01*
%TD*%
D13*
%TO.C,H1*%
X162560000Y-116840000D03*
%TD*%
M02*
