%TF.GenerationSoftware,KiCad,Pcbnew,(6.0.7)*%
%TF.CreationDate,2022-11-12T15:58:38-06:00*%
%TF.ProjectId,chrimbus2022,63687269-6d62-4757-9332-3032322e6b69,rev?*%
%TF.SameCoordinates,Original*%
%TF.FileFunction,Legend,Top*%
%TF.FilePolarity,Positive*%
%FSLAX46Y46*%
G04 Gerber Fmt 4.6, Leading zero omitted, Abs format (unit mm)*
G04 Created by KiCad (PCBNEW (6.0.7)) date 2022-11-12 15:58:38*
%MOMM*%
%LPD*%
G01*
G04 APERTURE LIST*
%ADD10C,0.230414*%
%ADD11C,0.119217*%
%ADD12C,0.100558*%
%ADD13C,3.200000*%
G04 APERTURE END LIST*
D10*
%TO.C,REF\u002A\u002A*%
X180224810Y-157364782D02*
X180224810Y-157364782D01*
X99175204Y-157364782D02*
X99175204Y-157364782D01*
X180224810Y-68695207D02*
X180224810Y-68695207D01*
G36*
X123384265Y-123014017D02*
G01*
X123406483Y-123057505D01*
X123425904Y-123101073D01*
X123442691Y-123144716D01*
X123457008Y-123188432D01*
X123469016Y-123232215D01*
X123478880Y-123276062D01*
X123492823Y-123363929D01*
X123500141Y-123451999D01*
X123502137Y-123540239D01*
X123500114Y-123628615D01*
X123495375Y-123717094D01*
X123482964Y-123894227D01*
X123477899Y-123982813D01*
X123475331Y-124071368D01*
X123476564Y-124159857D01*
X123482901Y-124248248D01*
X123495645Y-124336507D01*
X123504828Y-124380577D01*
X123516100Y-124424601D01*
X123644298Y-124444079D01*
X123772989Y-124460441D01*
X123902067Y-124474295D01*
X124031428Y-124486248D01*
X124549594Y-124527239D01*
X124569851Y-124613728D01*
X124586155Y-124700301D01*
X124598590Y-124786907D01*
X124607242Y-124873499D01*
X124612194Y-124960028D01*
X124613531Y-125046446D01*
X124611337Y-125132702D01*
X124605696Y-125218749D01*
X124596694Y-125304538D01*
X124584413Y-125390020D01*
X124568940Y-125475147D01*
X124550357Y-125559869D01*
X124528751Y-125644138D01*
X124504204Y-125727905D01*
X124476801Y-125811122D01*
X124446627Y-125893740D01*
X124580111Y-126122873D01*
X124687455Y-126141430D01*
X124789040Y-126164214D01*
X124885054Y-126191050D01*
X124975683Y-126221760D01*
X125061114Y-126256167D01*
X125141532Y-126294094D01*
X125217126Y-126335365D01*
X125288081Y-126379801D01*
X125354585Y-126427226D01*
X125416824Y-126477464D01*
X125474984Y-126530335D01*
X125529253Y-126585665D01*
X125579816Y-126643275D01*
X125626862Y-126702989D01*
X125670575Y-126764629D01*
X125711144Y-126828019D01*
X125783593Y-126959339D01*
X125845702Y-127095531D01*
X125898964Y-127235180D01*
X125944873Y-127376869D01*
X125984921Y-127519182D01*
X126020604Y-127660701D01*
X126084841Y-127935694D01*
X126375358Y-127896346D01*
X126521172Y-127877352D01*
X126667548Y-127860353D01*
X126814629Y-127846502D01*
X126962559Y-127836957D01*
X127111481Y-127832873D01*
X127186359Y-127833240D01*
X127261538Y-127835405D01*
X127393917Y-127939269D01*
X127517786Y-128047766D01*
X127633013Y-128160562D01*
X127739469Y-128277324D01*
X127837024Y-128397714D01*
X127925547Y-128521400D01*
X128004907Y-128648047D01*
X128074975Y-128777319D01*
X128135619Y-128908882D01*
X128186711Y-129042401D01*
X128228119Y-129177542D01*
X128259713Y-129313970D01*
X128281362Y-129451350D01*
X128292937Y-129589347D01*
X128294307Y-129727627D01*
X128285342Y-129865854D01*
X128430556Y-129919581D01*
X128576375Y-129972445D01*
X128869753Y-130076128D01*
X129146721Y-129831414D01*
X129431775Y-129588952D01*
X129727026Y-129352117D01*
X129879135Y-129236863D01*
X130034585Y-129124282D01*
X130193639Y-129014795D01*
X130356562Y-128908823D01*
X130523618Y-128806789D01*
X130695070Y-128709115D01*
X130871182Y-128616221D01*
X131052218Y-128528531D01*
X131238442Y-128446466D01*
X131430117Y-128370447D01*
X131474463Y-128354276D01*
X131517995Y-128341715D01*
X131560692Y-128332618D01*
X131602535Y-128326841D01*
X131643504Y-128324237D01*
X131683578Y-128324662D01*
X131722738Y-128327971D01*
X131760963Y-128334017D01*
X131798235Y-128342656D01*
X131834532Y-128353742D01*
X131869834Y-128367130D01*
X131904122Y-128382675D01*
X131937376Y-128400231D01*
X131969575Y-128419653D01*
X132000700Y-128440796D01*
X132030730Y-128463514D01*
X132059646Y-128487663D01*
X132087427Y-128513096D01*
X132114054Y-128539668D01*
X132139506Y-128567235D01*
X132186808Y-128624769D01*
X132229171Y-128684536D01*
X132266436Y-128745373D01*
X132298443Y-128806117D01*
X132325031Y-128865606D01*
X132346041Y-128922678D01*
X132435451Y-129196916D01*
X132516391Y-129472023D01*
X132589270Y-129747911D01*
X132654500Y-130024493D01*
X132712491Y-130301682D01*
X132763652Y-130579389D01*
X132808394Y-130857527D01*
X132847127Y-131136008D01*
X132908206Y-131693650D01*
X132950171Y-132251614D01*
X132976304Y-132809200D01*
X132989886Y-133365706D01*
X133182231Y-133392679D01*
X133374438Y-133421003D01*
X133550197Y-133280687D01*
X133720341Y-133136197D01*
X134048838Y-132838501D01*
X134694064Y-132234872D01*
X134860292Y-132087797D01*
X135031018Y-131944156D01*
X135207505Y-131804902D01*
X135391017Y-131670984D01*
X135582818Y-131543355D01*
X135784173Y-131422964D01*
X135996345Y-131310764D01*
X136220599Y-131207705D01*
X136264672Y-131298575D01*
X136303065Y-131389749D01*
X136336068Y-131481211D01*
X136363973Y-131572944D01*
X136387070Y-131664933D01*
X136405651Y-131757162D01*
X136430428Y-131942277D01*
X136440633Y-132128160D01*
X136438596Y-132314686D01*
X136426644Y-132501728D01*
X136407107Y-132689158D01*
X136299683Y-133440224D01*
X136277153Y-133627693D01*
X136261010Y-133814789D01*
X136253585Y-134001384D01*
X136257205Y-134187353D01*
X136405102Y-134187373D01*
X136553057Y-134186644D01*
X136845486Y-133925554D01*
X137141479Y-133666725D01*
X137441615Y-133410631D01*
X137746474Y-133157749D01*
X138056636Y-132908553D01*
X138372681Y-132663521D01*
X138695188Y-132423126D01*
X139024737Y-132187845D01*
X139056260Y-132272609D01*
X139083924Y-132357455D01*
X139128653Y-132527370D01*
X139160882Y-132697551D01*
X139182569Y-132867959D01*
X139195671Y-133038555D01*
X139202145Y-133209299D01*
X139203042Y-133551076D01*
X139200919Y-133892973D01*
X139203620Y-134063868D01*
X139211438Y-134234676D01*
X139226332Y-134405357D01*
X139250258Y-134575871D01*
X139285176Y-134746179D01*
X139333041Y-134916243D01*
X139368977Y-134754157D01*
X139401279Y-134591546D01*
X139457503Y-134265109D01*
X139554062Y-133609888D01*
X139604478Y-133282540D01*
X139663036Y-132956325D01*
X139696944Y-132793867D01*
X139734777Y-132631962D01*
X139777166Y-132470698D01*
X139824740Y-132310167D01*
X140009082Y-132442841D01*
X140184130Y-132580680D01*
X140350830Y-132723156D01*
X140510130Y-132869741D01*
X140662979Y-133019904D01*
X140810322Y-133173117D01*
X140953108Y-133328851D01*
X141092284Y-133486578D01*
X141631836Y-134126823D01*
X141904586Y-134445144D01*
X142045021Y-134602002D01*
X142189425Y-134756620D01*
X142236772Y-134667849D01*
X142278124Y-134577896D01*
X142313914Y-134486850D01*
X142344577Y-134394803D01*
X142370546Y-134301843D01*
X142392256Y-134208062D01*
X142424637Y-134018393D01*
X142445191Y-133826517D01*
X142457391Y-133633155D01*
X142470627Y-133244852D01*
X142478609Y-133051351D01*
X142492131Y-132859246D01*
X142514666Y-132669256D01*
X142549689Y-132482101D01*
X142572968Y-132389813D01*
X142600671Y-132298503D01*
X142633233Y-132208262D01*
X142671087Y-132119181D01*
X142714668Y-132031348D01*
X142764409Y-131944855D01*
X142820746Y-131859792D01*
X142884112Y-131776247D01*
X143082506Y-131944599D01*
X143272108Y-132117376D01*
X143454013Y-132294017D01*
X143629316Y-132473963D01*
X143799115Y-132656652D01*
X143964503Y-132841526D01*
X144286433Y-133215585D01*
X144603871Y-133591658D01*
X144925582Y-133965264D01*
X145090779Y-134149741D01*
X145260332Y-134331921D01*
X145435335Y-134511243D01*
X145616885Y-134687147D01*
X145655638Y-134471975D01*
X145697508Y-134256861D01*
X145745409Y-134042710D01*
X145772531Y-133936277D01*
X145802254Y-133830424D01*
X145834942Y-133725264D01*
X145870958Y-133620909D01*
X145910667Y-133517472D01*
X145954433Y-133415067D01*
X146002621Y-133313806D01*
X146055595Y-133213802D01*
X146113718Y-133115169D01*
X146177355Y-133018019D01*
X146198845Y-132986180D01*
X146217339Y-132953998D01*
X146233007Y-132921492D01*
X146246019Y-132888680D01*
X146256547Y-132855580D01*
X146264759Y-132822212D01*
X146270826Y-132788593D01*
X146274919Y-132754742D01*
X146277206Y-132720678D01*
X146277859Y-132686419D01*
X146274942Y-132617388D01*
X146267529Y-132547798D01*
X146256980Y-132477798D01*
X146231920Y-132337153D01*
X146220132Y-132266804D01*
X146210653Y-132196634D01*
X146204845Y-132126792D01*
X146204069Y-132057424D01*
X146205993Y-132022964D01*
X146209685Y-131988678D01*
X146215316Y-131954584D01*
X146223055Y-131920702D01*
X146293122Y-131790436D01*
X146365990Y-131660990D01*
X146441835Y-131532524D01*
X146520833Y-131405198D01*
X146603160Y-131279172D01*
X146688992Y-131154606D01*
X146778505Y-131031661D01*
X146871874Y-130910496D01*
X146969276Y-130791271D01*
X147070887Y-130674147D01*
X147176882Y-130559283D01*
X147287437Y-130446839D01*
X147402729Y-130336976D01*
X147522933Y-130229853D01*
X147648225Y-130125631D01*
X147778781Y-130024469D01*
X148231554Y-130157009D01*
X148345784Y-130192214D01*
X148458602Y-130229416D01*
X148569094Y-130269199D01*
X148676344Y-130312148D01*
X148779441Y-130358847D01*
X148877468Y-130409881D01*
X148924296Y-130437206D01*
X148969513Y-130465834D01*
X149013007Y-130495838D01*
X149054662Y-130527290D01*
X149094365Y-130560265D01*
X149132001Y-130594834D01*
X149167456Y-130631072D01*
X149200615Y-130669051D01*
X149231366Y-130708844D01*
X149259592Y-130750524D01*
X149285180Y-130794164D01*
X149308016Y-130839838D01*
X149365049Y-130939536D01*
X149426614Y-131037281D01*
X149492735Y-131132936D01*
X149563438Y-131226365D01*
X149638746Y-131317431D01*
X149718683Y-131405998D01*
X149803274Y-131491930D01*
X149892542Y-131575090D01*
X149986513Y-131655341D01*
X150085210Y-131732548D01*
X150188658Y-131806573D01*
X150296880Y-131877281D01*
X150409902Y-131944535D01*
X150527746Y-132008199D01*
X150650439Y-132068135D01*
X150778002Y-132124209D01*
X150847172Y-131986927D01*
X150913740Y-131848206D01*
X151043032Y-131568300D01*
X151173813Y-131288207D01*
X151242241Y-131149250D01*
X151314015Y-131011641D01*
X151390127Y-130875841D01*
X151471569Y-130742317D01*
X151559333Y-130611533D01*
X151654409Y-130483952D01*
X151757789Y-130360039D01*
X151870466Y-130240260D01*
X151993430Y-130125077D01*
X152059079Y-130069355D01*
X152127673Y-130014956D01*
X152614062Y-130052454D01*
X153317889Y-130557314D01*
X153358844Y-130497367D01*
X153397732Y-130433794D01*
X153470587Y-130297451D01*
X153539004Y-130151643D01*
X153605535Y-129999726D01*
X153672732Y-129845060D01*
X153743146Y-129691002D01*
X153819329Y-129540910D01*
X153860381Y-129468401D01*
X153903832Y-129398142D01*
X153950001Y-129330554D01*
X153999207Y-129266055D01*
X154051768Y-129205067D01*
X154108005Y-129148008D01*
X154168235Y-129095299D01*
X154232777Y-129047358D01*
X154301951Y-129004607D01*
X154376076Y-128967464D01*
X154455470Y-128936349D01*
X154540453Y-128911682D01*
X154631343Y-128893883D01*
X154728459Y-128883371D01*
X154832120Y-128880567D01*
X154942645Y-128885889D01*
X155060354Y-128899759D01*
X155185565Y-128922594D01*
X155212298Y-128814834D01*
X155234549Y-128706309D01*
X155253214Y-128597180D01*
X155269192Y-128487608D01*
X155324175Y-128048109D01*
X155340176Y-127938737D01*
X155358875Y-127829888D01*
X155381167Y-127721722D01*
X155407952Y-127614401D01*
X155440126Y-127508087D01*
X155478587Y-127402939D01*
X155524232Y-127299118D01*
X155577960Y-127196787D01*
X156070475Y-127273625D01*
X156317691Y-127310175D01*
X156565600Y-127344690D01*
X156590246Y-127256974D01*
X156611658Y-127168638D01*
X156630497Y-127079814D01*
X156647421Y-126990634D01*
X156709147Y-126632979D01*
X156726380Y-126543989D01*
X156745652Y-126455431D01*
X156767622Y-126367438D01*
X156792948Y-126280141D01*
X156822290Y-126193671D01*
X156856306Y-126108159D01*
X156895655Y-126023738D01*
X156940997Y-125940538D01*
X157016088Y-125987016D01*
X157089755Y-126034680D01*
X157161917Y-126083530D01*
X157232495Y-126133565D01*
X157301409Y-126184786D01*
X157368579Y-126237192D01*
X157433925Y-126290785D01*
X157497366Y-126345563D01*
X157558825Y-126401527D01*
X157618219Y-126458677D01*
X157675470Y-126517013D01*
X157730497Y-126576534D01*
X157783222Y-126637242D01*
X157833563Y-126699135D01*
X157881441Y-126762214D01*
X157926776Y-126826479D01*
X158176145Y-127202650D01*
X158296117Y-127392968D01*
X158409781Y-127585139D01*
X158463505Y-127682005D01*
X158514760Y-127779436D01*
X158563251Y-127877468D01*
X158608679Y-127976133D01*
X158650748Y-128075466D01*
X158689162Y-128175502D01*
X158723622Y-128276274D01*
X158753832Y-128377817D01*
X158763412Y-128433094D01*
X158769976Y-128488041D01*
X158773589Y-128542636D01*
X158774315Y-128596853D01*
X158772221Y-128650670D01*
X158767370Y-128704063D01*
X158759829Y-128757009D01*
X158749661Y-128809483D01*
X158736932Y-128861462D01*
X158721707Y-128912923D01*
X158704051Y-128963842D01*
X158684028Y-129014196D01*
X158661705Y-129063960D01*
X158637145Y-129113111D01*
X158610414Y-129161625D01*
X158581576Y-129209479D01*
X158550697Y-129256650D01*
X158517842Y-129303113D01*
X158446462Y-129393823D01*
X158367956Y-129481420D01*
X158282845Y-129565715D01*
X158191648Y-129646519D01*
X158094884Y-129723644D01*
X157993073Y-129796900D01*
X157886736Y-129866098D01*
X157880038Y-129923591D01*
X157871132Y-129980422D01*
X157860060Y-130036592D01*
X157846863Y-130092099D01*
X157831581Y-130146942D01*
X157814255Y-130201120D01*
X157773633Y-130307478D01*
X157725322Y-130411166D01*
X157669649Y-130512177D01*
X157606939Y-130610503D01*
X157537516Y-130706137D01*
X157461707Y-130799071D01*
X157379837Y-130889297D01*
X157292231Y-130976810D01*
X157199215Y-131061600D01*
X157101115Y-131143661D01*
X156998255Y-131222985D01*
X156890961Y-131299564D01*
X156779559Y-131373392D01*
X156748742Y-131427697D01*
X156715241Y-131480163D01*
X156679185Y-131530883D01*
X156640706Y-131579948D01*
X156556996Y-131673477D01*
X156465152Y-131761481D01*
X156366216Y-131844693D01*
X156261229Y-131923843D01*
X156151232Y-131999663D01*
X156037268Y-132072884D01*
X155801602Y-132214454D01*
X155562561Y-132354404D01*
X155444379Y-132425600D01*
X155328478Y-132498584D01*
X155215899Y-132574089D01*
X155107684Y-132652845D01*
X155072011Y-132681660D01*
X155034250Y-132707518D01*
X154994552Y-132730630D01*
X154953070Y-132751207D01*
X154909956Y-132769459D01*
X154865363Y-132785597D01*
X154772350Y-132812375D01*
X154675252Y-132833225D01*
X154575288Y-132849835D01*
X154371646Y-132877071D01*
X154270407Y-132891070D01*
X154171184Y-132907571D01*
X154075197Y-132928258D01*
X153983666Y-132954817D01*
X153939953Y-132970826D01*
X153897812Y-132988935D01*
X153857395Y-133009355D01*
X153818855Y-133032297D01*
X153782343Y-133057971D01*
X153748014Y-133086588D01*
X153716019Y-133118359D01*
X153686511Y-133153494D01*
X153572166Y-133266533D01*
X153449989Y-133374201D01*
X153320302Y-133476217D01*
X153183429Y-133572302D01*
X153039693Y-133662175D01*
X152889416Y-133745556D01*
X152732922Y-133822165D01*
X152570534Y-133891722D01*
X152402575Y-133953946D01*
X152229367Y-134008558D01*
X152051234Y-134055277D01*
X151868499Y-134093823D01*
X151681484Y-134123916D01*
X151490513Y-134145275D01*
X151295909Y-134157621D01*
X151097994Y-134160673D01*
X150778607Y-134405352D01*
X150612260Y-134523929D01*
X150441419Y-134639390D01*
X150266040Y-134751281D01*
X150086081Y-134859145D01*
X149901497Y-134962528D01*
X149712245Y-135060974D01*
X149518280Y-135154029D01*
X149319560Y-135241236D01*
X149116040Y-135322142D01*
X148907677Y-135396290D01*
X148694427Y-135463225D01*
X148476247Y-135522492D01*
X148253092Y-135573636D01*
X148024920Y-135616201D01*
X147909163Y-135634613D01*
X147791232Y-135644766D01*
X147671568Y-135648150D01*
X147550611Y-135646249D01*
X147306579Y-135632546D01*
X147062657Y-135615550D01*
X146941838Y-135609535D01*
X146822366Y-135607158D01*
X146704683Y-135609906D01*
X146589228Y-135619265D01*
X146476442Y-135636722D01*
X146421187Y-135648952D01*
X146366764Y-135663765D01*
X146313228Y-135681345D01*
X146260635Y-135701880D01*
X146209039Y-135725554D01*
X146158495Y-135752554D01*
X145970363Y-135838153D01*
X145775415Y-135919615D01*
X145574294Y-135996103D01*
X145367644Y-136066781D01*
X145156108Y-136130812D01*
X144940328Y-136187360D01*
X144720948Y-136235588D01*
X144498610Y-136274660D01*
X144273958Y-136303739D01*
X144047635Y-136321989D01*
X143820284Y-136328573D01*
X143592548Y-136322654D01*
X143365070Y-136303397D01*
X143138494Y-136269964D01*
X142913461Y-136221518D01*
X142690615Y-136157225D01*
X142594660Y-136219524D01*
X142496022Y-136275494D01*
X142394862Y-136325325D01*
X142291346Y-136369210D01*
X142185638Y-136407340D01*
X142077899Y-136439906D01*
X141968295Y-136467100D01*
X141856989Y-136489113D01*
X141629926Y-136518363D01*
X141398019Y-136529190D01*
X141162577Y-136523124D01*
X140924910Y-136501699D01*
X140686327Y-136466445D01*
X140448138Y-136418896D01*
X140211651Y-136360584D01*
X139978177Y-136293040D01*
X139749024Y-136217797D01*
X139525502Y-136136387D01*
X139308920Y-136050342D01*
X139100588Y-135961195D01*
X138891664Y-136028266D01*
X138674588Y-136085517D01*
X138450894Y-136132419D01*
X138222118Y-136168441D01*
X137989793Y-136193052D01*
X137755455Y-136205722D01*
X137520639Y-136205919D01*
X137286877Y-136193114D01*
X137055706Y-136166776D01*
X136828659Y-136126374D01*
X136607272Y-136071377D01*
X136393079Y-136001255D01*
X136187613Y-135915478D01*
X136088634Y-135866552D01*
X135992411Y-135813514D01*
X135899138Y-135756296D01*
X135809006Y-135694833D01*
X135722208Y-135629058D01*
X135638934Y-135558905D01*
X135510342Y-135569156D01*
X135382162Y-135574811D01*
X135127257Y-135572897D01*
X134874653Y-135554294D01*
X134624785Y-135520131D01*
X134378086Y-135471542D01*
X134134990Y-135409656D01*
X133895932Y-135335605D01*
X133661345Y-135250520D01*
X133431664Y-135155532D01*
X133207322Y-135051773D01*
X132988754Y-134940373D01*
X132776394Y-134822463D01*
X132570676Y-134699176D01*
X132372034Y-134571641D01*
X132180902Y-134440991D01*
X131997714Y-134308355D01*
X131822900Y-134304776D01*
X131651059Y-134294844D01*
X131482154Y-134278783D01*
X131316147Y-134256814D01*
X131152999Y-134229157D01*
X130992673Y-134196034D01*
X130835130Y-134157667D01*
X130680333Y-134114276D01*
X130528243Y-134066084D01*
X130378822Y-134013311D01*
X130087837Y-133894911D01*
X129807073Y-133760845D01*
X129536227Y-133612884D01*
X129274993Y-133452800D01*
X129023069Y-133282364D01*
X128780149Y-133103346D01*
X128545929Y-132917517D01*
X128320107Y-132726648D01*
X128102376Y-132532511D01*
X127892433Y-132336875D01*
X127689974Y-132141512D01*
X127474613Y-132088077D01*
X127266313Y-132025639D01*
X127065032Y-131954631D01*
X126870728Y-131875484D01*
X126683361Y-131788632D01*
X126502887Y-131694508D01*
X126329267Y-131593544D01*
X126162457Y-131486172D01*
X126002417Y-131372825D01*
X125849104Y-131253937D01*
X125702478Y-131129939D01*
X125562496Y-131001264D01*
X125429116Y-130868345D01*
X125302298Y-130731615D01*
X125181999Y-130591506D01*
X125068179Y-130448450D01*
X124917173Y-130391275D01*
X124769846Y-130329618D01*
X124626638Y-130263500D01*
X124487988Y-130192940D01*
X124354336Y-130117959D01*
X124226122Y-130038578D01*
X124103786Y-129954815D01*
X123987767Y-129866692D01*
X123878505Y-129774228D01*
X123776440Y-129677444D01*
X123682012Y-129576361D01*
X123595661Y-129470997D01*
X123555651Y-129416717D01*
X123517826Y-129361375D01*
X123482239Y-129304972D01*
X123448947Y-129247512D01*
X123418003Y-129188998D01*
X123389463Y-129129431D01*
X123363383Y-129068814D01*
X123339816Y-129007151D01*
X123323140Y-128953455D01*
X123302152Y-128901990D01*
X123277118Y-128852616D01*
X123248309Y-128805191D01*
X123215991Y-128759575D01*
X123180433Y-128715628D01*
X123141904Y-128673208D01*
X123100671Y-128632176D01*
X123011170Y-128553712D01*
X122914074Y-128479110D01*
X122811531Y-128407246D01*
X122705687Y-128336994D01*
X122492681Y-128196832D01*
X122389812Y-128124672D01*
X122292226Y-128049626D01*
X122202072Y-127970569D01*
X122160451Y-127929186D01*
X122121493Y-127886378D01*
X122085466Y-127842005D01*
X122052638Y-127795927D01*
X122023278Y-127748003D01*
X121997653Y-127698092D01*
X121975825Y-127659391D01*
X121956336Y-127620285D01*
X121938999Y-127580807D01*
X121923629Y-127540991D01*
X121898051Y-127460487D01*
X121878116Y-127379049D01*
X121862342Y-127296953D01*
X121849246Y-127214474D01*
X121825154Y-127049476D01*
X121811191Y-126967508D01*
X121793973Y-126886263D01*
X121772015Y-126806017D01*
X121758796Y-126766354D01*
X121743836Y-126727045D01*
X121726950Y-126688124D01*
X121707952Y-126649624D01*
X121686656Y-126611582D01*
X121662878Y-126574031D01*
X121636432Y-126537006D01*
X121607133Y-126500541D01*
X121574795Y-126464671D01*
X121539233Y-126429430D01*
X121475897Y-126354013D01*
X121419204Y-126277486D01*
X121368991Y-126199952D01*
X121325098Y-126121518D01*
X121287363Y-126042286D01*
X121255626Y-125962363D01*
X121229725Y-125881851D01*
X121209498Y-125800856D01*
X121194786Y-125719482D01*
X121185425Y-125637833D01*
X121181256Y-125556014D01*
X121182117Y-125474130D01*
X121187846Y-125392285D01*
X121198283Y-125310583D01*
X121213266Y-125229128D01*
X121232634Y-125148027D01*
X121256226Y-125067381D01*
X121283881Y-124987297D01*
X121315437Y-124907879D01*
X121350733Y-124829231D01*
X121389609Y-124751458D01*
X121431902Y-124674663D01*
X121526096Y-124524430D01*
X121632027Y-124379366D01*
X121748405Y-124240308D01*
X121873940Y-124108092D01*
X122007342Y-123983553D01*
X121529723Y-123617406D01*
X122007342Y-123983355D01*
X122074215Y-123909284D01*
X122143525Y-123836538D01*
X122215297Y-123765217D01*
X122289558Y-123695422D01*
X122366334Y-123627255D01*
X122445650Y-123560818D01*
X122527533Y-123496211D01*
X122612008Y-123433536D01*
X122699101Y-123372894D01*
X122788839Y-123314386D01*
X122881247Y-123258115D01*
X122976351Y-123204180D01*
X123074177Y-123152685D01*
X123174752Y-123103729D01*
X123278101Y-123057414D01*
X123384249Y-123013842D01*
X123384265Y-123014017D01*
G37*
D11*
X123384265Y-123014017D02*
X123406483Y-123057505D01*
X123425904Y-123101073D01*
X123442691Y-123144716D01*
X123457008Y-123188432D01*
X123469016Y-123232215D01*
X123478880Y-123276062D01*
X123492823Y-123363929D01*
X123500141Y-123451999D01*
X123502137Y-123540239D01*
X123500114Y-123628615D01*
X123495375Y-123717094D01*
X123482964Y-123894227D01*
X123477899Y-123982813D01*
X123475331Y-124071368D01*
X123476564Y-124159857D01*
X123482901Y-124248248D01*
X123495645Y-124336507D01*
X123504828Y-124380577D01*
X123516100Y-124424601D01*
X123644298Y-124444079D01*
X123772989Y-124460441D01*
X123902067Y-124474295D01*
X124031428Y-124486248D01*
X124549594Y-124527239D01*
X124569851Y-124613728D01*
X124586155Y-124700301D01*
X124598590Y-124786907D01*
X124607242Y-124873499D01*
X124612194Y-124960028D01*
X124613531Y-125046446D01*
X124611337Y-125132702D01*
X124605696Y-125218749D01*
X124596694Y-125304538D01*
X124584413Y-125390020D01*
X124568940Y-125475147D01*
X124550357Y-125559869D01*
X124528751Y-125644138D01*
X124504204Y-125727905D01*
X124476801Y-125811122D01*
X124446627Y-125893740D01*
X124580111Y-126122873D01*
X124687455Y-126141430D01*
X124789040Y-126164214D01*
X124885054Y-126191050D01*
X124975683Y-126221760D01*
X125061114Y-126256167D01*
X125141532Y-126294094D01*
X125217126Y-126335365D01*
X125288081Y-126379801D01*
X125354585Y-126427226D01*
X125416824Y-126477464D01*
X125474984Y-126530335D01*
X125529253Y-126585665D01*
X125579816Y-126643275D01*
X125626862Y-126702989D01*
X125670575Y-126764629D01*
X125711144Y-126828019D01*
X125783593Y-126959339D01*
X125845702Y-127095531D01*
X125898964Y-127235180D01*
X125944873Y-127376869D01*
X125984921Y-127519182D01*
X126020604Y-127660701D01*
X126084841Y-127935694D01*
X126375358Y-127896346D01*
X126521172Y-127877352D01*
X126667548Y-127860353D01*
X126814629Y-127846502D01*
X126962559Y-127836957D01*
X127111481Y-127832873D01*
X127186359Y-127833240D01*
X127261538Y-127835405D01*
X127393917Y-127939269D01*
X127517786Y-128047766D01*
X127633013Y-128160562D01*
X127739469Y-128277324D01*
X127837024Y-128397714D01*
X127925547Y-128521400D01*
X128004907Y-128648047D01*
X128074975Y-128777319D01*
X128135619Y-128908882D01*
X128186711Y-129042401D01*
X128228119Y-129177542D01*
X128259713Y-129313970D01*
X128281362Y-129451350D01*
X128292937Y-129589347D01*
X128294307Y-129727627D01*
X128285342Y-129865854D01*
X128430556Y-129919581D01*
X128576375Y-129972445D01*
X128869753Y-130076128D01*
X129146721Y-129831414D01*
X129431775Y-129588952D01*
X129727026Y-129352117D01*
X129879135Y-129236863D01*
X130034585Y-129124282D01*
X130193639Y-129014795D01*
X130356562Y-128908823D01*
X130523618Y-128806789D01*
X130695070Y-128709115D01*
X130871182Y-128616221D01*
X131052218Y-128528531D01*
X131238442Y-128446466D01*
X131430117Y-128370447D01*
X131474463Y-128354276D01*
X131517995Y-128341715D01*
X131560692Y-128332618D01*
X131602535Y-128326841D01*
X131643504Y-128324237D01*
X131683578Y-128324662D01*
X131722738Y-128327971D01*
X131760963Y-128334017D01*
X131798235Y-128342656D01*
X131834532Y-128353742D01*
X131869834Y-128367130D01*
X131904122Y-128382675D01*
X131937376Y-128400231D01*
X131969575Y-128419653D01*
X132000700Y-128440796D01*
X132030730Y-128463514D01*
X132059646Y-128487663D01*
X132087427Y-128513096D01*
X132114054Y-128539668D01*
X132139506Y-128567235D01*
X132186808Y-128624769D01*
X132229171Y-128684536D01*
X132266436Y-128745373D01*
X132298443Y-128806117D01*
X132325031Y-128865606D01*
X132346041Y-128922678D01*
X132435451Y-129196916D01*
X132516391Y-129472023D01*
X132589270Y-129747911D01*
X132654500Y-130024493D01*
X132712491Y-130301682D01*
X132763652Y-130579389D01*
X132808394Y-130857527D01*
X132847127Y-131136008D01*
X132908206Y-131693650D01*
X132950171Y-132251614D01*
X132976304Y-132809200D01*
X132989886Y-133365706D01*
X133182231Y-133392679D01*
X133374438Y-133421003D01*
X133550197Y-133280687D01*
X133720341Y-133136197D01*
X134048838Y-132838501D01*
X134694064Y-132234872D01*
X134860292Y-132087797D01*
X135031018Y-131944156D01*
X135207505Y-131804902D01*
X135391017Y-131670984D01*
X135582818Y-131543355D01*
X135784173Y-131422964D01*
X135996345Y-131310764D01*
X136220599Y-131207705D01*
X136264672Y-131298575D01*
X136303065Y-131389749D01*
X136336068Y-131481211D01*
X136363973Y-131572944D01*
X136387070Y-131664933D01*
X136405651Y-131757162D01*
X136430428Y-131942277D01*
X136440633Y-132128160D01*
X136438596Y-132314686D01*
X136426644Y-132501728D01*
X136407107Y-132689158D01*
X136299683Y-133440224D01*
X136277153Y-133627693D01*
X136261010Y-133814789D01*
X136253585Y-134001384D01*
X136257205Y-134187353D01*
X136405102Y-134187373D01*
X136553057Y-134186644D01*
X136845486Y-133925554D01*
X137141479Y-133666725D01*
X137441615Y-133410631D01*
X137746474Y-133157749D01*
X138056636Y-132908553D01*
X138372681Y-132663521D01*
X138695188Y-132423126D01*
X139024737Y-132187845D01*
X139056260Y-132272609D01*
X139083924Y-132357455D01*
X139128653Y-132527370D01*
X139160882Y-132697551D01*
X139182569Y-132867959D01*
X139195671Y-133038555D01*
X139202145Y-133209299D01*
X139203042Y-133551076D01*
X139200919Y-133892973D01*
X139203620Y-134063868D01*
X139211438Y-134234676D01*
X139226332Y-134405357D01*
X139250258Y-134575871D01*
X139285176Y-134746179D01*
X139333041Y-134916243D01*
X139368977Y-134754157D01*
X139401279Y-134591546D01*
X139457503Y-134265109D01*
X139554062Y-133609888D01*
X139604478Y-133282540D01*
X139663036Y-132956325D01*
X139696944Y-132793867D01*
X139734777Y-132631962D01*
X139777166Y-132470698D01*
X139824740Y-132310167D01*
X140009082Y-132442841D01*
X140184130Y-132580680D01*
X140350830Y-132723156D01*
X140510130Y-132869741D01*
X140662979Y-133019904D01*
X140810322Y-133173117D01*
X140953108Y-133328851D01*
X141092284Y-133486578D01*
X141631836Y-134126823D01*
X141904586Y-134445144D01*
X142045021Y-134602002D01*
X142189425Y-134756620D01*
X142236772Y-134667849D01*
X142278124Y-134577896D01*
X142313914Y-134486850D01*
X142344577Y-134394803D01*
X142370546Y-134301843D01*
X142392256Y-134208062D01*
X142424637Y-134018393D01*
X142445191Y-133826517D01*
X142457391Y-133633155D01*
X142470627Y-133244852D01*
X142478609Y-133051351D01*
X142492131Y-132859246D01*
X142514666Y-132669256D01*
X142549689Y-132482101D01*
X142572968Y-132389813D01*
X142600671Y-132298503D01*
X142633233Y-132208262D01*
X142671087Y-132119181D01*
X142714668Y-132031348D01*
X142764409Y-131944855D01*
X142820746Y-131859792D01*
X142884112Y-131776247D01*
X143082506Y-131944599D01*
X143272108Y-132117376D01*
X143454013Y-132294017D01*
X143629316Y-132473963D01*
X143799115Y-132656652D01*
X143964503Y-132841526D01*
X144286433Y-133215585D01*
X144603871Y-133591658D01*
X144925582Y-133965264D01*
X145090779Y-134149741D01*
X145260332Y-134331921D01*
X145435335Y-134511243D01*
X145616885Y-134687147D01*
X145655638Y-134471975D01*
X145697508Y-134256861D01*
X145745409Y-134042710D01*
X145772531Y-133936277D01*
X145802254Y-133830424D01*
X145834942Y-133725264D01*
X145870958Y-133620909D01*
X145910667Y-133517472D01*
X145954433Y-133415067D01*
X146002621Y-133313806D01*
X146055595Y-133213802D01*
X146113718Y-133115169D01*
X146177355Y-133018019D01*
X146198845Y-132986180D01*
X146217339Y-132953998D01*
X146233007Y-132921492D01*
X146246019Y-132888680D01*
X146256547Y-132855580D01*
X146264759Y-132822212D01*
X146270826Y-132788593D01*
X146274919Y-132754742D01*
X146277206Y-132720678D01*
X146277859Y-132686419D01*
X146274942Y-132617388D01*
X146267529Y-132547798D01*
X146256980Y-132477798D01*
X146231920Y-132337153D01*
X146220132Y-132266804D01*
X146210653Y-132196634D01*
X146204845Y-132126792D01*
X146204069Y-132057424D01*
X146205993Y-132022964D01*
X146209685Y-131988678D01*
X146215316Y-131954584D01*
X146223055Y-131920702D01*
X146293122Y-131790436D01*
X146365990Y-131660990D01*
X146441835Y-131532524D01*
X146520833Y-131405198D01*
X146603160Y-131279172D01*
X146688992Y-131154606D01*
X146778505Y-131031661D01*
X146871874Y-130910496D01*
X146969276Y-130791271D01*
X147070887Y-130674147D01*
X147176882Y-130559283D01*
X147287437Y-130446839D01*
X147402729Y-130336976D01*
X147522933Y-130229853D01*
X147648225Y-130125631D01*
X147778781Y-130024469D01*
X148231554Y-130157009D01*
X148345784Y-130192214D01*
X148458602Y-130229416D01*
X148569094Y-130269199D01*
X148676344Y-130312148D01*
X148779441Y-130358847D01*
X148877468Y-130409881D01*
X148924296Y-130437206D01*
X148969513Y-130465834D01*
X149013007Y-130495838D01*
X149054662Y-130527290D01*
X149094365Y-130560265D01*
X149132001Y-130594834D01*
X149167456Y-130631072D01*
X149200615Y-130669051D01*
X149231366Y-130708844D01*
X149259592Y-130750524D01*
X149285180Y-130794164D01*
X149308016Y-130839838D01*
X149365049Y-130939536D01*
X149426614Y-131037281D01*
X149492735Y-131132936D01*
X149563438Y-131226365D01*
X149638746Y-131317431D01*
X149718683Y-131405998D01*
X149803274Y-131491930D01*
X149892542Y-131575090D01*
X149986513Y-131655341D01*
X150085210Y-131732548D01*
X150188658Y-131806573D01*
X150296880Y-131877281D01*
X150409902Y-131944535D01*
X150527746Y-132008199D01*
X150650439Y-132068135D01*
X150778002Y-132124209D01*
X150847172Y-131986927D01*
X150913740Y-131848206D01*
X151043032Y-131568300D01*
X151173813Y-131288207D01*
X151242241Y-131149250D01*
X151314015Y-131011641D01*
X151390127Y-130875841D01*
X151471569Y-130742317D01*
X151559333Y-130611533D01*
X151654409Y-130483952D01*
X151757789Y-130360039D01*
X151870466Y-130240260D01*
X151993430Y-130125077D01*
X152059079Y-130069355D01*
X152127673Y-130014956D01*
X152614062Y-130052454D01*
X153317889Y-130557314D01*
X153358844Y-130497367D01*
X153397732Y-130433794D01*
X153470587Y-130297451D01*
X153539004Y-130151643D01*
X153605535Y-129999726D01*
X153672732Y-129845060D01*
X153743146Y-129691002D01*
X153819329Y-129540910D01*
X153860381Y-129468401D01*
X153903832Y-129398142D01*
X153950001Y-129330554D01*
X153999207Y-129266055D01*
X154051768Y-129205067D01*
X154108005Y-129148008D01*
X154168235Y-129095299D01*
X154232777Y-129047358D01*
X154301951Y-129004607D01*
X154376076Y-128967464D01*
X154455470Y-128936349D01*
X154540453Y-128911682D01*
X154631343Y-128893883D01*
X154728459Y-128883371D01*
X154832120Y-128880567D01*
X154942645Y-128885889D01*
X155060354Y-128899759D01*
X155185565Y-128922594D01*
X155212298Y-128814834D01*
X155234549Y-128706309D01*
X155253214Y-128597180D01*
X155269192Y-128487608D01*
X155324175Y-128048109D01*
X155340176Y-127938737D01*
X155358875Y-127829888D01*
X155381167Y-127721722D01*
X155407952Y-127614401D01*
X155440126Y-127508087D01*
X155478587Y-127402939D01*
X155524232Y-127299118D01*
X155577960Y-127196787D01*
X156070475Y-127273625D01*
X156317691Y-127310175D01*
X156565600Y-127344690D01*
X156590246Y-127256974D01*
X156611658Y-127168638D01*
X156630497Y-127079814D01*
X156647421Y-126990634D01*
X156709147Y-126632979D01*
X156726380Y-126543989D01*
X156745652Y-126455431D01*
X156767622Y-126367438D01*
X156792948Y-126280141D01*
X156822290Y-126193671D01*
X156856306Y-126108159D01*
X156895655Y-126023738D01*
X156940997Y-125940538D01*
X157016088Y-125987016D01*
X157089755Y-126034680D01*
X157161917Y-126083530D01*
X157232495Y-126133565D01*
X157301409Y-126184786D01*
X157368579Y-126237192D01*
X157433925Y-126290785D01*
X157497366Y-126345563D01*
X157558825Y-126401527D01*
X157618219Y-126458677D01*
X157675470Y-126517013D01*
X157730497Y-126576534D01*
X157783222Y-126637242D01*
X157833563Y-126699135D01*
X157881441Y-126762214D01*
X157926776Y-126826479D01*
X158176145Y-127202650D01*
X158296117Y-127392968D01*
X158409781Y-127585139D01*
X158463505Y-127682005D01*
X158514760Y-127779436D01*
X158563251Y-127877468D01*
X158608679Y-127976133D01*
X158650748Y-128075466D01*
X158689162Y-128175502D01*
X158723622Y-128276274D01*
X158753832Y-128377817D01*
X158763412Y-128433094D01*
X158769976Y-128488041D01*
X158773589Y-128542636D01*
X158774315Y-128596853D01*
X158772221Y-128650670D01*
X158767370Y-128704063D01*
X158759829Y-128757009D01*
X158749661Y-128809483D01*
X158736932Y-128861462D01*
X158721707Y-128912923D01*
X158704051Y-128963842D01*
X158684028Y-129014196D01*
X158661705Y-129063960D01*
X158637145Y-129113111D01*
X158610414Y-129161625D01*
X158581576Y-129209479D01*
X158550697Y-129256650D01*
X158517842Y-129303113D01*
X158446462Y-129393823D01*
X158367956Y-129481420D01*
X158282845Y-129565715D01*
X158191648Y-129646519D01*
X158094884Y-129723644D01*
X157993073Y-129796900D01*
X157886736Y-129866098D01*
X157880038Y-129923591D01*
X157871132Y-129980422D01*
X157860060Y-130036592D01*
X157846863Y-130092099D01*
X157831581Y-130146942D01*
X157814255Y-130201120D01*
X157773633Y-130307478D01*
X157725322Y-130411166D01*
X157669649Y-130512177D01*
X157606939Y-130610503D01*
X157537516Y-130706137D01*
X157461707Y-130799071D01*
X157379837Y-130889297D01*
X157292231Y-130976810D01*
X157199215Y-131061600D01*
X157101115Y-131143661D01*
X156998255Y-131222985D01*
X156890961Y-131299564D01*
X156779559Y-131373392D01*
X156748742Y-131427697D01*
X156715241Y-131480163D01*
X156679185Y-131530883D01*
X156640706Y-131579948D01*
X156556996Y-131673477D01*
X156465152Y-131761481D01*
X156366216Y-131844693D01*
X156261229Y-131923843D01*
X156151232Y-131999663D01*
X156037268Y-132072884D01*
X155801602Y-132214454D01*
X155562561Y-132354404D01*
X155444379Y-132425600D01*
X155328478Y-132498584D01*
X155215899Y-132574089D01*
X155107684Y-132652845D01*
X155072011Y-132681660D01*
X155034250Y-132707518D01*
X154994552Y-132730630D01*
X154953070Y-132751207D01*
X154909956Y-132769459D01*
X154865363Y-132785597D01*
X154772350Y-132812375D01*
X154675252Y-132833225D01*
X154575288Y-132849835D01*
X154371646Y-132877071D01*
X154270407Y-132891070D01*
X154171184Y-132907571D01*
X154075197Y-132928258D01*
X153983666Y-132954817D01*
X153939953Y-132970826D01*
X153897812Y-132988935D01*
X153857395Y-133009355D01*
X153818855Y-133032297D01*
X153782343Y-133057971D01*
X153748014Y-133086588D01*
X153716019Y-133118359D01*
X153686511Y-133153494D01*
X153572166Y-133266533D01*
X153449989Y-133374201D01*
X153320302Y-133476217D01*
X153183429Y-133572302D01*
X153039693Y-133662175D01*
X152889416Y-133745556D01*
X152732922Y-133822165D01*
X152570534Y-133891722D01*
X152402575Y-133953946D01*
X152229367Y-134008558D01*
X152051234Y-134055277D01*
X151868499Y-134093823D01*
X151681484Y-134123916D01*
X151490513Y-134145275D01*
X151295909Y-134157621D01*
X151097994Y-134160673D01*
X150778607Y-134405352D01*
X150612260Y-134523929D01*
X150441419Y-134639390D01*
X150266040Y-134751281D01*
X150086081Y-134859145D01*
X149901497Y-134962528D01*
X149712245Y-135060974D01*
X149518280Y-135154029D01*
X149319560Y-135241236D01*
X149116040Y-135322142D01*
X148907677Y-135396290D01*
X148694427Y-135463225D01*
X148476247Y-135522492D01*
X148253092Y-135573636D01*
X148024920Y-135616201D01*
X147909163Y-135634613D01*
X147791232Y-135644766D01*
X147671568Y-135648150D01*
X147550611Y-135646249D01*
X147306579Y-135632546D01*
X147062657Y-135615550D01*
X146941838Y-135609535D01*
X146822366Y-135607158D01*
X146704683Y-135609906D01*
X146589228Y-135619265D01*
X146476442Y-135636722D01*
X146421187Y-135648952D01*
X146366764Y-135663765D01*
X146313228Y-135681345D01*
X146260635Y-135701880D01*
X146209039Y-135725554D01*
X146158495Y-135752554D01*
X145970363Y-135838153D01*
X145775415Y-135919615D01*
X145574294Y-135996103D01*
X145367644Y-136066781D01*
X145156108Y-136130812D01*
X144940328Y-136187360D01*
X144720948Y-136235588D01*
X144498610Y-136274660D01*
X144273958Y-136303739D01*
X144047635Y-136321989D01*
X143820284Y-136328573D01*
X143592548Y-136322654D01*
X143365070Y-136303397D01*
X143138494Y-136269964D01*
X142913461Y-136221518D01*
X142690615Y-136157225D01*
X142594660Y-136219524D01*
X142496022Y-136275494D01*
X142394862Y-136325325D01*
X142291346Y-136369210D01*
X142185638Y-136407340D01*
X142077899Y-136439906D01*
X141968295Y-136467100D01*
X141856989Y-136489113D01*
X141629926Y-136518363D01*
X141398019Y-136529190D01*
X141162577Y-136523124D01*
X140924910Y-136501699D01*
X140686327Y-136466445D01*
X140448138Y-136418896D01*
X140211651Y-136360584D01*
X139978177Y-136293040D01*
X139749024Y-136217797D01*
X139525502Y-136136387D01*
X139308920Y-136050342D01*
X139100588Y-135961195D01*
X138891664Y-136028266D01*
X138674588Y-136085517D01*
X138450894Y-136132419D01*
X138222118Y-136168441D01*
X137989793Y-136193052D01*
X137755455Y-136205722D01*
X137520639Y-136205919D01*
X137286877Y-136193114D01*
X137055706Y-136166776D01*
X136828659Y-136126374D01*
X136607272Y-136071377D01*
X136393079Y-136001255D01*
X136187613Y-135915478D01*
X136088634Y-135866552D01*
X135992411Y-135813514D01*
X135899138Y-135756296D01*
X135809006Y-135694833D01*
X135722208Y-135629058D01*
X135638934Y-135558905D01*
X135510342Y-135569156D01*
X135382162Y-135574811D01*
X135127257Y-135572897D01*
X134874653Y-135554294D01*
X134624785Y-135520131D01*
X134378086Y-135471542D01*
X134134990Y-135409656D01*
X133895932Y-135335605D01*
X133661345Y-135250520D01*
X133431664Y-135155532D01*
X133207322Y-135051773D01*
X132988754Y-134940373D01*
X132776394Y-134822463D01*
X132570676Y-134699176D01*
X132372034Y-134571641D01*
X132180902Y-134440991D01*
X131997714Y-134308355D01*
X131822900Y-134304776D01*
X131651059Y-134294844D01*
X131482154Y-134278783D01*
X131316147Y-134256814D01*
X131152999Y-134229157D01*
X130992673Y-134196034D01*
X130835130Y-134157667D01*
X130680333Y-134114276D01*
X130528243Y-134066084D01*
X130378822Y-134013311D01*
X130087837Y-133894911D01*
X129807073Y-133760845D01*
X129536227Y-133612884D01*
X129274993Y-133452800D01*
X129023069Y-133282364D01*
X128780149Y-133103346D01*
X128545929Y-132917517D01*
X128320107Y-132726648D01*
X128102376Y-132532511D01*
X127892433Y-132336875D01*
X127689974Y-132141512D01*
X127474613Y-132088077D01*
X127266313Y-132025639D01*
X127065032Y-131954631D01*
X126870728Y-131875484D01*
X126683361Y-131788632D01*
X126502887Y-131694508D01*
X126329267Y-131593544D01*
X126162457Y-131486172D01*
X126002417Y-131372825D01*
X125849104Y-131253937D01*
X125702478Y-131129939D01*
X125562496Y-131001264D01*
X125429116Y-130868345D01*
X125302298Y-130731615D01*
X125181999Y-130591506D01*
X125068179Y-130448450D01*
X124917173Y-130391275D01*
X124769846Y-130329618D01*
X124626638Y-130263500D01*
X124487988Y-130192940D01*
X124354336Y-130117959D01*
X124226122Y-130038578D01*
X124103786Y-129954815D01*
X123987767Y-129866692D01*
X123878505Y-129774228D01*
X123776440Y-129677444D01*
X123682012Y-129576361D01*
X123595661Y-129470997D01*
X123555651Y-129416717D01*
X123517826Y-129361375D01*
X123482239Y-129304972D01*
X123448947Y-129247512D01*
X123418003Y-129188998D01*
X123389463Y-129129431D01*
X123363383Y-129068814D01*
X123339816Y-129007151D01*
X123323140Y-128953455D01*
X123302152Y-128901990D01*
X123277118Y-128852616D01*
X123248309Y-128805191D01*
X123215991Y-128759575D01*
X123180433Y-128715628D01*
X123141904Y-128673208D01*
X123100671Y-128632176D01*
X123011170Y-128553712D01*
X122914074Y-128479110D01*
X122811531Y-128407246D01*
X122705687Y-128336994D01*
X122492681Y-128196832D01*
X122389812Y-128124672D01*
X122292226Y-128049626D01*
X122202072Y-127970569D01*
X122160451Y-127929186D01*
X122121493Y-127886378D01*
X122085466Y-127842005D01*
X122052638Y-127795927D01*
X122023278Y-127748003D01*
X121997653Y-127698092D01*
X121975825Y-127659391D01*
X121956336Y-127620285D01*
X121938999Y-127580807D01*
X121923629Y-127540991D01*
X121898051Y-127460487D01*
X121878116Y-127379049D01*
X121862342Y-127296953D01*
X121849246Y-127214474D01*
X121825154Y-127049476D01*
X121811191Y-126967508D01*
X121793973Y-126886263D01*
X121772015Y-126806017D01*
X121758796Y-126766354D01*
X121743836Y-126727045D01*
X121726950Y-126688124D01*
X121707952Y-126649624D01*
X121686656Y-126611582D01*
X121662878Y-126574031D01*
X121636432Y-126537006D01*
X121607133Y-126500541D01*
X121574795Y-126464671D01*
X121539233Y-126429430D01*
X121475897Y-126354013D01*
X121419204Y-126277486D01*
X121368991Y-126199952D01*
X121325098Y-126121518D01*
X121287363Y-126042286D01*
X121255626Y-125962363D01*
X121229725Y-125881851D01*
X121209498Y-125800856D01*
X121194786Y-125719482D01*
X121185425Y-125637833D01*
X121181256Y-125556014D01*
X121182117Y-125474130D01*
X121187846Y-125392285D01*
X121198283Y-125310583D01*
X121213266Y-125229128D01*
X121232634Y-125148027D01*
X121256226Y-125067381D01*
X121283881Y-124987297D01*
X121315437Y-124907879D01*
X121350733Y-124829231D01*
X121389609Y-124751458D01*
X121431902Y-124674663D01*
X121526096Y-124524430D01*
X121632027Y-124379366D01*
X121748405Y-124240308D01*
X121873940Y-124108092D01*
X122007342Y-123983553D01*
X121529723Y-123617406D01*
X122007342Y-123983355D01*
X122074215Y-123909284D01*
X122143525Y-123836538D01*
X122215297Y-123765217D01*
X122289558Y-123695422D01*
X122366334Y-123627255D01*
X122445650Y-123560818D01*
X122527533Y-123496211D01*
X122612008Y-123433536D01*
X122699101Y-123372894D01*
X122788839Y-123314386D01*
X122881247Y-123258115D01*
X122976351Y-123204180D01*
X123074177Y-123152685D01*
X123174752Y-123103729D01*
X123278101Y-123057414D01*
X123384249Y-123013842D01*
X123384265Y-123014017D01*
G36*
X122551165Y-117940302D02*
G01*
X122551119Y-117941050D01*
X122930020Y-117948764D01*
X123308948Y-117966040D01*
X123687489Y-117992949D01*
X124065226Y-118029559D01*
X124441745Y-118075939D01*
X124816629Y-118132158D01*
X125189463Y-118198285D01*
X125559832Y-118274389D01*
X125789909Y-118322889D01*
X126018876Y-118354405D01*
X126246893Y-118371121D01*
X126474118Y-118375217D01*
X126700710Y-118368877D01*
X126926827Y-118354282D01*
X127378275Y-118309057D01*
X127829732Y-118256999D01*
X128055860Y-118233862D01*
X128282467Y-118215563D01*
X128509712Y-118204284D01*
X128737752Y-118202207D01*
X128966747Y-118211515D01*
X129196856Y-118234388D01*
X131621188Y-118451445D01*
X134046389Y-118658617D01*
X137279849Y-119276117D01*
X137758213Y-119419976D01*
X138246678Y-119549746D01*
X138493976Y-119607671D01*
X138742931Y-119660063D01*
X138993256Y-119706252D01*
X139244660Y-119745566D01*
X139496855Y-119777335D01*
X139749552Y-119800890D01*
X140002462Y-119815559D01*
X140255296Y-119820672D01*
X140507765Y-119815559D01*
X140759579Y-119799549D01*
X141010450Y-119771971D01*
X141260089Y-119732157D01*
X141831068Y-119761496D01*
X142402300Y-119784674D01*
X142973376Y-119800216D01*
X143543889Y-119806647D01*
X144113429Y-119802492D01*
X144681589Y-119786275D01*
X145247961Y-119756521D01*
X145812136Y-119711756D01*
X146362946Y-119800722D01*
X146912465Y-119901370D01*
X148011363Y-120112109D01*
X148562607Y-120209401D01*
X149116292Y-120292776D01*
X149394341Y-120327245D01*
X149673349Y-120355834D01*
X149953435Y-120377745D01*
X150234713Y-120392176D01*
X150600939Y-120408553D01*
X150965386Y-120435673D01*
X151328280Y-120472234D01*
X151689845Y-120516934D01*
X152409883Y-120625544D01*
X153127295Y-120751088D01*
X154561421Y-121011316D01*
X155281724Y-121125170D01*
X156006579Y-121214296D01*
X156379786Y-121258688D01*
X156754098Y-121296073D01*
X157503554Y-121364726D01*
X157877457Y-121403442D01*
X158249983Y-121450049D01*
X158620511Y-121508272D01*
X158804832Y-121542903D01*
X158988421Y-121581835D01*
X158927625Y-121900425D01*
X158862956Y-122218383D01*
X158729296Y-122853426D01*
X158451122Y-123609769D01*
X158306551Y-123989265D01*
X158229321Y-124177678D01*
X158147433Y-124364567D01*
X158059866Y-124549455D01*
X157965598Y-124731867D01*
X157863609Y-124911327D01*
X157752878Y-125087359D01*
X157632383Y-125259486D01*
X157501103Y-125427233D01*
X157358018Y-125590124D01*
X157202105Y-125747683D01*
X157184386Y-125744383D01*
X157167060Y-125740526D01*
X157150110Y-125736139D01*
X157133519Y-125731248D01*
X157117270Y-125725877D01*
X157101346Y-125720055D01*
X157070405Y-125707157D01*
X157040558Y-125692762D01*
X157011670Y-125677080D01*
X156983605Y-125660318D01*
X156956225Y-125642686D01*
X156929394Y-125624392D01*
X156902977Y-125605646D01*
X156850834Y-125567628D01*
X156798706Y-125530303D01*
X156772307Y-125512422D01*
X156745501Y-125495340D01*
X156662020Y-125473363D01*
X156615897Y-125461363D01*
X156577624Y-125451838D01*
X156352027Y-125692720D01*
X156239052Y-125813012D01*
X156125445Y-125932749D01*
X156005708Y-125808876D01*
X155890522Y-125682832D01*
X155779387Y-125554901D01*
X155671809Y-125425366D01*
X155567289Y-125294511D01*
X155465330Y-125162620D01*
X155365435Y-125029978D01*
X155267108Y-124896868D01*
X155189239Y-125011998D01*
X155108679Y-125125937D01*
X155025256Y-125238572D01*
X154938801Y-125349790D01*
X154849146Y-125459478D01*
X154756121Y-125567524D01*
X154659556Y-125673815D01*
X154559283Y-125778238D01*
X154523141Y-125761526D01*
X154485241Y-125745823D01*
X154446027Y-125730840D01*
X154405945Y-125716289D01*
X154324965Y-125687329D01*
X154284958Y-125672343D01*
X154245867Y-125656633D01*
X154208139Y-125639913D01*
X154172220Y-125621892D01*
X154138555Y-125602282D01*
X154122707Y-125591792D01*
X154107590Y-125580796D01*
X154093260Y-125569258D01*
X154079772Y-125557143D01*
X154067182Y-125544414D01*
X154055546Y-125531035D01*
X154044920Y-125516970D01*
X154035359Y-125502184D01*
X154026919Y-125486639D01*
X154019656Y-125470301D01*
X153960693Y-125344591D01*
X153906402Y-125218080D01*
X153856141Y-125090878D01*
X153809270Y-124963092D01*
X153723131Y-124706199D01*
X153642855Y-124448265D01*
X153563315Y-124190155D01*
X153479382Y-123932732D01*
X153434165Y-123804548D01*
X153385926Y-123676860D01*
X153334024Y-123549776D01*
X153277819Y-123423403D01*
X153216124Y-123549656D01*
X153157216Y-123676842D01*
X153044928Y-123933058D01*
X152935284Y-124190132D01*
X152822611Y-124446149D01*
X152763367Y-124573162D01*
X152701238Y-124699191D01*
X152635517Y-124823998D01*
X152565493Y-124947343D01*
X152490458Y-125068985D01*
X152409704Y-125188686D01*
X152322520Y-125306206D01*
X152228198Y-125421305D01*
X152126732Y-125409021D01*
X152025313Y-125397440D01*
X151924082Y-125386666D01*
X151823184Y-125376803D01*
X151646623Y-125011063D01*
X151556385Y-124828313D01*
X151461829Y-124646697D01*
X151412225Y-124556562D01*
X151360693Y-124467007D01*
X151306952Y-124378132D01*
X151250719Y-124290035D01*
X151191710Y-124202814D01*
X151129645Y-124116570D01*
X151064239Y-124031401D01*
X150995211Y-123947405D01*
X150864575Y-124676320D01*
X150790712Y-125044703D01*
X150708483Y-125413844D01*
X150615887Y-125782349D01*
X150510920Y-126148822D01*
X150391583Y-126511871D01*
X150255871Y-126870099D01*
X150101785Y-127222113D01*
X149927321Y-127566519D01*
X149730477Y-127901921D01*
X149509252Y-128226926D01*
X149388871Y-128385094D01*
X149261644Y-128540139D01*
X149127321Y-128691888D01*
X148985651Y-128840166D01*
X148836385Y-128984799D01*
X148679271Y-129125612D01*
X148514061Y-129262431D01*
X148340502Y-129395083D01*
X147700686Y-129195406D01*
X147745586Y-128702814D01*
X147780949Y-128208970D01*
X147804163Y-127714185D01*
X147812617Y-127218773D01*
X147803699Y-126723045D01*
X147791909Y-126475161D01*
X147774797Y-126227314D01*
X147752035Y-125979545D01*
X147723299Y-125731893D01*
X147688260Y-125484396D01*
X147646594Y-125237093D01*
X147660631Y-124925391D01*
X147668792Y-124613261D01*
X147670530Y-124300817D01*
X147665301Y-123988177D01*
X147652559Y-123675458D01*
X147631758Y-123362775D01*
X147602353Y-123050245D01*
X147563799Y-122737986D01*
X147550768Y-122699210D01*
X147538738Y-122658367D01*
X147515432Y-122572539D01*
X147503027Y-122528582D01*
X147489368Y-122484616D01*
X147473890Y-122441154D01*
X147456030Y-122398712D01*
X147446031Y-122378034D01*
X147435224Y-122357804D01*
X147423540Y-122338086D01*
X147410907Y-122318944D01*
X147397256Y-122300442D01*
X147382515Y-122282646D01*
X147366615Y-122265618D01*
X147349485Y-122249425D01*
X147331053Y-122234128D01*
X147311250Y-122219795D01*
X147290006Y-122206487D01*
X147267249Y-122194270D01*
X147242909Y-122183208D01*
X147216915Y-122173365D01*
X147189198Y-122164806D01*
X147159686Y-122157595D01*
X147103824Y-122202640D01*
X147050521Y-122249703D01*
X146999536Y-122298589D01*
X146950630Y-122349106D01*
X146858088Y-122454255D01*
X146770970Y-122563602D01*
X146438225Y-123012007D01*
X146349345Y-123119121D01*
X146302727Y-123170866D01*
X146254336Y-123221144D01*
X146203932Y-123269762D01*
X146151274Y-123316527D01*
X146096121Y-123361246D01*
X146038233Y-123403723D01*
X145977368Y-123443767D01*
X145913287Y-123481183D01*
X145845749Y-123515778D01*
X145774512Y-123547359D01*
X145699337Y-123575732D01*
X145619982Y-123600703D01*
X145536207Y-123622079D01*
X145447772Y-123639666D01*
X145376385Y-123199312D01*
X145338377Y-122979270D01*
X145297486Y-122759457D01*
X145252706Y-122539978D01*
X145203032Y-122320937D01*
X145147458Y-122102440D01*
X145084979Y-121884592D01*
X145009379Y-122004849D01*
X144931324Y-122124166D01*
X144850739Y-122242461D01*
X144767545Y-122359649D01*
X144681668Y-122475648D01*
X144593030Y-122590373D01*
X144501556Y-122703741D01*
X144407168Y-122815667D01*
X144309790Y-122926069D01*
X144209346Y-123034863D01*
X144105760Y-123141965D01*
X143998954Y-123247291D01*
X143888853Y-123350757D01*
X143775380Y-123452281D01*
X143658459Y-123551778D01*
X143538012Y-123649164D01*
X143204669Y-123439425D01*
X143215261Y-123318424D01*
X143222418Y-123197282D01*
X143226415Y-123076012D01*
X143227530Y-122954630D01*
X143222217Y-122711593D01*
X143208689Y-122468293D01*
X143189159Y-122224853D01*
X143165839Y-121981394D01*
X143116671Y-121494913D01*
X143025113Y-121621685D01*
X142938796Y-121750428D01*
X142856881Y-121880827D01*
X142778534Y-122012567D01*
X142629191Y-122278808D01*
X142484074Y-122546631D01*
X142336489Y-122813517D01*
X142259679Y-122945820D01*
X142179741Y-123076944D01*
X142095840Y-123206574D01*
X142007137Y-123334394D01*
X141912798Y-123460090D01*
X141811984Y-123583345D01*
X141709926Y-123568720D01*
X141608227Y-123554758D01*
X141405306Y-123528345D01*
X141386730Y-123363581D01*
X141359945Y-123199718D01*
X141325393Y-123036758D01*
X141283517Y-122874698D01*
X141234758Y-122713539D01*
X141179558Y-122553281D01*
X141118360Y-122393924D01*
X141051604Y-122235466D01*
X140979733Y-122077908D01*
X140903189Y-121921249D01*
X140822413Y-121765489D01*
X140737848Y-121610628D01*
X140559118Y-121303600D01*
X140370532Y-121000162D01*
X140311097Y-121149130D01*
X140255019Y-121299086D01*
X140149647Y-121601008D01*
X139943043Y-122206165D01*
X139887465Y-122356329D01*
X139828672Y-122505562D01*
X139765845Y-122653624D01*
X139698162Y-122800276D01*
X139624801Y-122945278D01*
X139544943Y-123088390D01*
X139457764Y-123229372D01*
X139362444Y-123367983D01*
X138958514Y-123327585D01*
X138923971Y-123175637D01*
X138884463Y-123024406D01*
X138840354Y-122873850D01*
X138792010Y-122723926D01*
X138739797Y-122574590D01*
X138684080Y-122425799D01*
X138563595Y-122129677D01*
X138433482Y-121835214D01*
X138296663Y-121542062D01*
X138014605Y-120958307D01*
X137928303Y-121101073D01*
X137847732Y-121245464D01*
X137772402Y-121391335D01*
X137701818Y-121538542D01*
X137635489Y-121686939D01*
X137572923Y-121836381D01*
X137457106Y-122137817D01*
X137350429Y-122441687D01*
X137248952Y-122746831D01*
X137045840Y-123356287D01*
X136834916Y-123336702D01*
X136729861Y-123327673D01*
X136624896Y-123319590D01*
X136562841Y-123197319D01*
X136510573Y-123074054D01*
X136467026Y-122949902D01*
X136431133Y-122824969D01*
X136401830Y-122699359D01*
X136378051Y-122573178D01*
X136358731Y-122446533D01*
X136342803Y-122319529D01*
X136291705Y-121810032D01*
X136276757Y-121682816D01*
X136258807Y-121555875D01*
X136236791Y-121429314D01*
X136209643Y-121303240D01*
X136055966Y-121533518D01*
X135899715Y-121763111D01*
X135738880Y-121990891D01*
X135571450Y-122215727D01*
X135484634Y-122326688D01*
X135395416Y-122436490D01*
X135303545Y-122544992D01*
X135208769Y-122652052D01*
X135110838Y-122757529D01*
X135009499Y-122861282D01*
X134904502Y-122963170D01*
X134795596Y-123063051D01*
X134612147Y-123038825D01*
X134428790Y-123013552D01*
X134408887Y-122806433D01*
X134395282Y-122599449D01*
X134387482Y-122392615D01*
X134384997Y-122185947D01*
X134387336Y-121979463D01*
X134394007Y-121773176D01*
X134404520Y-121567104D01*
X134418383Y-121361261D01*
X134112277Y-121335558D01*
X133474225Y-122330434D01*
X133308981Y-122576897D01*
X133136058Y-122820117D01*
X133045874Y-122940144D01*
X132952761Y-123058921D01*
X132856380Y-123176301D01*
X132756396Y-123292139D01*
X132541213Y-123271966D01*
X132325961Y-123252543D01*
X132280354Y-123106903D01*
X132244842Y-122961068D01*
X132218050Y-122815066D01*
X132198605Y-122668925D01*
X132185131Y-122522674D01*
X132176254Y-122376342D01*
X132166794Y-122083551D01*
X132159231Y-121790780D01*
X132152724Y-121644475D01*
X132142568Y-121498261D01*
X132127389Y-121352167D01*
X132105812Y-121206223D01*
X132076462Y-121060456D01*
X132037966Y-120914896D01*
X131888290Y-121398736D01*
X131746607Y-121884482D01*
X131468415Y-122857542D01*
X131322506Y-123342778D01*
X131165787Y-123825767D01*
X130993558Y-124305469D01*
X130900159Y-124543764D01*
X130801119Y-124780848D01*
X130795586Y-124976671D01*
X130781574Y-125171063D01*
X130760017Y-125364187D01*
X130731846Y-125556205D01*
X130697995Y-125747280D01*
X130659394Y-125937575D01*
X130571673Y-126316477D01*
X130380257Y-127072091D01*
X130291477Y-127451410D01*
X130252081Y-127642018D01*
X130217257Y-127833475D01*
X129861056Y-127996393D01*
X129628091Y-127805649D01*
X129416146Y-127606395D01*
X129224337Y-127399345D01*
X129051780Y-127185213D01*
X128897589Y-126964711D01*
X128760881Y-126738554D01*
X128640769Y-126507456D01*
X128536370Y-126272130D01*
X128446799Y-126033290D01*
X128371170Y-125791649D01*
X128308600Y-125547922D01*
X128258204Y-125302821D01*
X128219097Y-125057061D01*
X128190394Y-124811356D01*
X128171211Y-124566418D01*
X128160662Y-124322962D01*
X128087458Y-124153451D01*
X128028829Y-123983562D01*
X127983416Y-123813329D01*
X127949859Y-123642784D01*
X127926801Y-123471961D01*
X127912883Y-123300892D01*
X127906745Y-123129610D01*
X127907029Y-122958149D01*
X127912376Y-122786542D01*
X127921427Y-122614821D01*
X127945208Y-122271171D01*
X127967500Y-121927464D01*
X127974692Y-121755671D01*
X127977435Y-121583963D01*
X127897127Y-121672497D01*
X127820387Y-121762612D01*
X127746783Y-121854117D01*
X127675883Y-121946823D01*
X127540475Y-122135081D01*
X127410716Y-122325867D01*
X127154348Y-122708953D01*
X127020845Y-122898218D01*
X126951255Y-122991617D01*
X126879199Y-123083941D01*
X126725512Y-123076757D01*
X126641370Y-123073327D01*
X126571826Y-123071444D01*
X126449561Y-122882467D01*
X126330245Y-122692506D01*
X126093922Y-122311808D01*
X125973648Y-122122157D01*
X125849786Y-121933696D01*
X125720703Y-121746968D01*
X125584765Y-121562517D01*
X125335954Y-121931841D01*
X125208368Y-122115276D01*
X125077784Y-122297463D01*
X124943544Y-122478078D01*
X124804989Y-122656798D01*
X124661461Y-122833302D01*
X124512301Y-123007265D01*
X123760165Y-122856302D01*
X123384211Y-122781003D01*
X123007754Y-122708292D01*
X122775387Y-122828213D01*
X122542941Y-122948923D01*
X122366824Y-122696652D01*
X122190569Y-122445887D01*
X122094111Y-122446120D01*
X121996554Y-122446886D01*
X121967971Y-122458350D01*
X121939919Y-122471666D01*
X121912246Y-122486397D01*
X121884800Y-122502107D01*
X121829982Y-122534719D01*
X121802306Y-122550749D01*
X121774249Y-122566012D01*
X121745659Y-122580072D01*
X121716384Y-122592493D01*
X121686272Y-122602839D01*
X121670854Y-122607097D01*
X121655171Y-122610673D01*
X121639202Y-122613511D01*
X121622929Y-122615558D01*
X121606333Y-122616759D01*
X121589395Y-122617060D01*
X121572096Y-122616405D01*
X121554416Y-122614740D01*
X121536337Y-122612012D01*
X121517840Y-122608164D01*
X121435922Y-122498483D01*
X121360801Y-122386953D01*
X121292034Y-122273736D01*
X121229177Y-122158991D01*
X121171787Y-122042880D01*
X121119421Y-121925564D01*
X121071636Y-121807202D01*
X121027987Y-121687957D01*
X120988032Y-121567988D01*
X120951327Y-121447456D01*
X120885894Y-121205348D01*
X120828142Y-120962918D01*
X120774523Y-120721453D01*
X120706194Y-120425195D01*
X120648518Y-120128431D01*
X120598753Y-119831304D01*
X120554156Y-119533958D01*
X120469498Y-118939176D01*
X120423953Y-118642028D01*
X120372607Y-118345232D01*
X120368355Y-118329863D01*
X120365678Y-118314673D01*
X120364520Y-118299680D01*
X120364826Y-118284904D01*
X120366542Y-118270362D01*
X120369614Y-118256074D01*
X120373986Y-118242057D01*
X120379603Y-118228331D01*
X120386412Y-118214913D01*
X120394357Y-118201822D01*
X120403383Y-118189076D01*
X120413436Y-118176695D01*
X120424461Y-118164696D01*
X120436403Y-118153099D01*
X120462821Y-118131181D01*
X120492250Y-118111089D01*
X120524254Y-118092971D01*
X120558395Y-118076975D01*
X120594235Y-118063249D01*
X120631335Y-118051941D01*
X120669258Y-118043199D01*
X120707566Y-118037170D01*
X120745822Y-118034002D01*
X120969383Y-118010592D01*
X121193723Y-117990478D01*
X121418753Y-117973681D01*
X121644385Y-117960227D01*
X121870530Y-117950139D01*
X122097101Y-117943439D01*
X122324009Y-117940152D01*
X122551165Y-117940302D01*
G37*
X122551165Y-117940302D02*
X122551119Y-117941050D01*
X122930020Y-117948764D01*
X123308948Y-117966040D01*
X123687489Y-117992949D01*
X124065226Y-118029559D01*
X124441745Y-118075939D01*
X124816629Y-118132158D01*
X125189463Y-118198285D01*
X125559832Y-118274389D01*
X125789909Y-118322889D01*
X126018876Y-118354405D01*
X126246893Y-118371121D01*
X126474118Y-118375217D01*
X126700710Y-118368877D01*
X126926827Y-118354282D01*
X127378275Y-118309057D01*
X127829732Y-118256999D01*
X128055860Y-118233862D01*
X128282467Y-118215563D01*
X128509712Y-118204284D01*
X128737752Y-118202207D01*
X128966747Y-118211515D01*
X129196856Y-118234388D01*
X131621188Y-118451445D01*
X134046389Y-118658617D01*
X137279849Y-119276117D01*
X137758213Y-119419976D01*
X138246678Y-119549746D01*
X138493976Y-119607671D01*
X138742931Y-119660063D01*
X138993256Y-119706252D01*
X139244660Y-119745566D01*
X139496855Y-119777335D01*
X139749552Y-119800890D01*
X140002462Y-119815559D01*
X140255296Y-119820672D01*
X140507765Y-119815559D01*
X140759579Y-119799549D01*
X141010450Y-119771971D01*
X141260089Y-119732157D01*
X141831068Y-119761496D01*
X142402300Y-119784674D01*
X142973376Y-119800216D01*
X143543889Y-119806647D01*
X144113429Y-119802492D01*
X144681589Y-119786275D01*
X145247961Y-119756521D01*
X145812136Y-119711756D01*
X146362946Y-119800722D01*
X146912465Y-119901370D01*
X148011363Y-120112109D01*
X148562607Y-120209401D01*
X149116292Y-120292776D01*
X149394341Y-120327245D01*
X149673349Y-120355834D01*
X149953435Y-120377745D01*
X150234713Y-120392176D01*
X150600939Y-120408553D01*
X150965386Y-120435673D01*
X151328280Y-120472234D01*
X151689845Y-120516934D01*
X152409883Y-120625544D01*
X153127295Y-120751088D01*
X154561421Y-121011316D01*
X155281724Y-121125170D01*
X156006579Y-121214296D01*
X156379786Y-121258688D01*
X156754098Y-121296073D01*
X157503554Y-121364726D01*
X157877457Y-121403442D01*
X158249983Y-121450049D01*
X158620511Y-121508272D01*
X158804832Y-121542903D01*
X158988421Y-121581835D01*
X158927625Y-121900425D01*
X158862956Y-122218383D01*
X158729296Y-122853426D01*
X158451122Y-123609769D01*
X158306551Y-123989265D01*
X158229321Y-124177678D01*
X158147433Y-124364567D01*
X158059866Y-124549455D01*
X157965598Y-124731867D01*
X157863609Y-124911327D01*
X157752878Y-125087359D01*
X157632383Y-125259486D01*
X157501103Y-125427233D01*
X157358018Y-125590124D01*
X157202105Y-125747683D01*
X157184386Y-125744383D01*
X157167060Y-125740526D01*
X157150110Y-125736139D01*
X157133519Y-125731248D01*
X157117270Y-125725877D01*
X157101346Y-125720055D01*
X157070405Y-125707157D01*
X157040558Y-125692762D01*
X157011670Y-125677080D01*
X156983605Y-125660318D01*
X156956225Y-125642686D01*
X156929394Y-125624392D01*
X156902977Y-125605646D01*
X156850834Y-125567628D01*
X156798706Y-125530303D01*
X156772307Y-125512422D01*
X156745501Y-125495340D01*
X156662020Y-125473363D01*
X156615897Y-125461363D01*
X156577624Y-125451838D01*
X156352027Y-125692720D01*
X156239052Y-125813012D01*
X156125445Y-125932749D01*
X156005708Y-125808876D01*
X155890522Y-125682832D01*
X155779387Y-125554901D01*
X155671809Y-125425366D01*
X155567289Y-125294511D01*
X155465330Y-125162620D01*
X155365435Y-125029978D01*
X155267108Y-124896868D01*
X155189239Y-125011998D01*
X155108679Y-125125937D01*
X155025256Y-125238572D01*
X154938801Y-125349790D01*
X154849146Y-125459478D01*
X154756121Y-125567524D01*
X154659556Y-125673815D01*
X154559283Y-125778238D01*
X154523141Y-125761526D01*
X154485241Y-125745823D01*
X154446027Y-125730840D01*
X154405945Y-125716289D01*
X154324965Y-125687329D01*
X154284958Y-125672343D01*
X154245867Y-125656633D01*
X154208139Y-125639913D01*
X154172220Y-125621892D01*
X154138555Y-125602282D01*
X154122707Y-125591792D01*
X154107590Y-125580796D01*
X154093260Y-125569258D01*
X154079772Y-125557143D01*
X154067182Y-125544414D01*
X154055546Y-125531035D01*
X154044920Y-125516970D01*
X154035359Y-125502184D01*
X154026919Y-125486639D01*
X154019656Y-125470301D01*
X153960693Y-125344591D01*
X153906402Y-125218080D01*
X153856141Y-125090878D01*
X153809270Y-124963092D01*
X153723131Y-124706199D01*
X153642855Y-124448265D01*
X153563315Y-124190155D01*
X153479382Y-123932732D01*
X153434165Y-123804548D01*
X153385926Y-123676860D01*
X153334024Y-123549776D01*
X153277819Y-123423403D01*
X153216124Y-123549656D01*
X153157216Y-123676842D01*
X153044928Y-123933058D01*
X152935284Y-124190132D01*
X152822611Y-124446149D01*
X152763367Y-124573162D01*
X152701238Y-124699191D01*
X152635517Y-124823998D01*
X152565493Y-124947343D01*
X152490458Y-125068985D01*
X152409704Y-125188686D01*
X152322520Y-125306206D01*
X152228198Y-125421305D01*
X152126732Y-125409021D01*
X152025313Y-125397440D01*
X151924082Y-125386666D01*
X151823184Y-125376803D01*
X151646623Y-125011063D01*
X151556385Y-124828313D01*
X151461829Y-124646697D01*
X151412225Y-124556562D01*
X151360693Y-124467007D01*
X151306952Y-124378132D01*
X151250719Y-124290035D01*
X151191710Y-124202814D01*
X151129645Y-124116570D01*
X151064239Y-124031401D01*
X150995211Y-123947405D01*
X150864575Y-124676320D01*
X150790712Y-125044703D01*
X150708483Y-125413844D01*
X150615887Y-125782349D01*
X150510920Y-126148822D01*
X150391583Y-126511871D01*
X150255871Y-126870099D01*
X150101785Y-127222113D01*
X149927321Y-127566519D01*
X149730477Y-127901921D01*
X149509252Y-128226926D01*
X149388871Y-128385094D01*
X149261644Y-128540139D01*
X149127321Y-128691888D01*
X148985651Y-128840166D01*
X148836385Y-128984799D01*
X148679271Y-129125612D01*
X148514061Y-129262431D01*
X148340502Y-129395083D01*
X147700686Y-129195406D01*
X147745586Y-128702814D01*
X147780949Y-128208970D01*
X147804163Y-127714185D01*
X147812617Y-127218773D01*
X147803699Y-126723045D01*
X147791909Y-126475161D01*
X147774797Y-126227314D01*
X147752035Y-125979545D01*
X147723299Y-125731893D01*
X147688260Y-125484396D01*
X147646594Y-125237093D01*
X147660631Y-124925391D01*
X147668792Y-124613261D01*
X147670530Y-124300817D01*
X147665301Y-123988177D01*
X147652559Y-123675458D01*
X147631758Y-123362775D01*
X147602353Y-123050245D01*
X147563799Y-122737986D01*
X147550768Y-122699210D01*
X147538738Y-122658367D01*
X147515432Y-122572539D01*
X147503027Y-122528582D01*
X147489368Y-122484616D01*
X147473890Y-122441154D01*
X147456030Y-122398712D01*
X147446031Y-122378034D01*
X147435224Y-122357804D01*
X147423540Y-122338086D01*
X147410907Y-122318944D01*
X147397256Y-122300442D01*
X147382515Y-122282646D01*
X147366615Y-122265618D01*
X147349485Y-122249425D01*
X147331053Y-122234128D01*
X147311250Y-122219795D01*
X147290006Y-122206487D01*
X147267249Y-122194270D01*
X147242909Y-122183208D01*
X147216915Y-122173365D01*
X147189198Y-122164806D01*
X147159686Y-122157595D01*
X147103824Y-122202640D01*
X147050521Y-122249703D01*
X146999536Y-122298589D01*
X146950630Y-122349106D01*
X146858088Y-122454255D01*
X146770970Y-122563602D01*
X146438225Y-123012007D01*
X146349345Y-123119121D01*
X146302727Y-123170866D01*
X146254336Y-123221144D01*
X146203932Y-123269762D01*
X146151274Y-123316527D01*
X146096121Y-123361246D01*
X146038233Y-123403723D01*
X145977368Y-123443767D01*
X145913287Y-123481183D01*
X145845749Y-123515778D01*
X145774512Y-123547359D01*
X145699337Y-123575732D01*
X145619982Y-123600703D01*
X145536207Y-123622079D01*
X145447772Y-123639666D01*
X145376385Y-123199312D01*
X145338377Y-122979270D01*
X145297486Y-122759457D01*
X145252706Y-122539978D01*
X145203032Y-122320937D01*
X145147458Y-122102440D01*
X145084979Y-121884592D01*
X145009379Y-122004849D01*
X144931324Y-122124166D01*
X144850739Y-122242461D01*
X144767545Y-122359649D01*
X144681668Y-122475648D01*
X144593030Y-122590373D01*
X144501556Y-122703741D01*
X144407168Y-122815667D01*
X144309790Y-122926069D01*
X144209346Y-123034863D01*
X144105760Y-123141965D01*
X143998954Y-123247291D01*
X143888853Y-123350757D01*
X143775380Y-123452281D01*
X143658459Y-123551778D01*
X143538012Y-123649164D01*
X143204669Y-123439425D01*
X143215261Y-123318424D01*
X143222418Y-123197282D01*
X143226415Y-123076012D01*
X143227530Y-122954630D01*
X143222217Y-122711593D01*
X143208689Y-122468293D01*
X143189159Y-122224853D01*
X143165839Y-121981394D01*
X143116671Y-121494913D01*
X143025113Y-121621685D01*
X142938796Y-121750428D01*
X142856881Y-121880827D01*
X142778534Y-122012567D01*
X142629191Y-122278808D01*
X142484074Y-122546631D01*
X142336489Y-122813517D01*
X142259679Y-122945820D01*
X142179741Y-123076944D01*
X142095840Y-123206574D01*
X142007137Y-123334394D01*
X141912798Y-123460090D01*
X141811984Y-123583345D01*
X141709926Y-123568720D01*
X141608227Y-123554758D01*
X141405306Y-123528345D01*
X141386730Y-123363581D01*
X141359945Y-123199718D01*
X141325393Y-123036758D01*
X141283517Y-122874698D01*
X141234758Y-122713539D01*
X141179558Y-122553281D01*
X141118360Y-122393924D01*
X141051604Y-122235466D01*
X140979733Y-122077908D01*
X140903189Y-121921249D01*
X140822413Y-121765489D01*
X140737848Y-121610628D01*
X140559118Y-121303600D01*
X140370532Y-121000162D01*
X140311097Y-121149130D01*
X140255019Y-121299086D01*
X140149647Y-121601008D01*
X139943043Y-122206165D01*
X139887465Y-122356329D01*
X139828672Y-122505562D01*
X139765845Y-122653624D01*
X139698162Y-122800276D01*
X139624801Y-122945278D01*
X139544943Y-123088390D01*
X139457764Y-123229372D01*
X139362444Y-123367983D01*
X138958514Y-123327585D01*
X138923971Y-123175637D01*
X138884463Y-123024406D01*
X138840354Y-122873850D01*
X138792010Y-122723926D01*
X138739797Y-122574590D01*
X138684080Y-122425799D01*
X138563595Y-122129677D01*
X138433482Y-121835214D01*
X138296663Y-121542062D01*
X138014605Y-120958307D01*
X137928303Y-121101073D01*
X137847732Y-121245464D01*
X137772402Y-121391335D01*
X137701818Y-121538542D01*
X137635489Y-121686939D01*
X137572923Y-121836381D01*
X137457106Y-122137817D01*
X137350429Y-122441687D01*
X137248952Y-122746831D01*
X137045840Y-123356287D01*
X136834916Y-123336702D01*
X136729861Y-123327673D01*
X136624896Y-123319590D01*
X136562841Y-123197319D01*
X136510573Y-123074054D01*
X136467026Y-122949902D01*
X136431133Y-122824969D01*
X136401830Y-122699359D01*
X136378051Y-122573178D01*
X136358731Y-122446533D01*
X136342803Y-122319529D01*
X136291705Y-121810032D01*
X136276757Y-121682816D01*
X136258807Y-121555875D01*
X136236791Y-121429314D01*
X136209643Y-121303240D01*
X136055966Y-121533518D01*
X135899715Y-121763111D01*
X135738880Y-121990891D01*
X135571450Y-122215727D01*
X135484634Y-122326688D01*
X135395416Y-122436490D01*
X135303545Y-122544992D01*
X135208769Y-122652052D01*
X135110838Y-122757529D01*
X135009499Y-122861282D01*
X134904502Y-122963170D01*
X134795596Y-123063051D01*
X134612147Y-123038825D01*
X134428790Y-123013552D01*
X134408887Y-122806433D01*
X134395282Y-122599449D01*
X134387482Y-122392615D01*
X134384997Y-122185947D01*
X134387336Y-121979463D01*
X134394007Y-121773176D01*
X134404520Y-121567104D01*
X134418383Y-121361261D01*
X134112277Y-121335558D01*
X133474225Y-122330434D01*
X133308981Y-122576897D01*
X133136058Y-122820117D01*
X133045874Y-122940144D01*
X132952761Y-123058921D01*
X132856380Y-123176301D01*
X132756396Y-123292139D01*
X132541213Y-123271966D01*
X132325961Y-123252543D01*
X132280354Y-123106903D01*
X132244842Y-122961068D01*
X132218050Y-122815066D01*
X132198605Y-122668925D01*
X132185131Y-122522674D01*
X132176254Y-122376342D01*
X132166794Y-122083551D01*
X132159231Y-121790780D01*
X132152724Y-121644475D01*
X132142568Y-121498261D01*
X132127389Y-121352167D01*
X132105812Y-121206223D01*
X132076462Y-121060456D01*
X132037966Y-120914896D01*
X131888290Y-121398736D01*
X131746607Y-121884482D01*
X131468415Y-122857542D01*
X131322506Y-123342778D01*
X131165787Y-123825767D01*
X130993558Y-124305469D01*
X130900159Y-124543764D01*
X130801119Y-124780848D01*
X130795586Y-124976671D01*
X130781574Y-125171063D01*
X130760017Y-125364187D01*
X130731846Y-125556205D01*
X130697995Y-125747280D01*
X130659394Y-125937575D01*
X130571673Y-126316477D01*
X130380257Y-127072091D01*
X130291477Y-127451410D01*
X130252081Y-127642018D01*
X130217257Y-127833475D01*
X129861056Y-127996393D01*
X129628091Y-127805649D01*
X129416146Y-127606395D01*
X129224337Y-127399345D01*
X129051780Y-127185213D01*
X128897589Y-126964711D01*
X128760881Y-126738554D01*
X128640769Y-126507456D01*
X128536370Y-126272130D01*
X128446799Y-126033290D01*
X128371170Y-125791649D01*
X128308600Y-125547922D01*
X128258204Y-125302821D01*
X128219097Y-125057061D01*
X128190394Y-124811356D01*
X128171211Y-124566418D01*
X128160662Y-124322962D01*
X128087458Y-124153451D01*
X128028829Y-123983562D01*
X127983416Y-123813329D01*
X127949859Y-123642784D01*
X127926801Y-123471961D01*
X127912883Y-123300892D01*
X127906745Y-123129610D01*
X127907029Y-122958149D01*
X127912376Y-122786542D01*
X127921427Y-122614821D01*
X127945208Y-122271171D01*
X127967500Y-121927464D01*
X127974692Y-121755671D01*
X127977435Y-121583963D01*
X127897127Y-121672497D01*
X127820387Y-121762612D01*
X127746783Y-121854117D01*
X127675883Y-121946823D01*
X127540475Y-122135081D01*
X127410716Y-122325867D01*
X127154348Y-122708953D01*
X127020845Y-122898218D01*
X126951255Y-122991617D01*
X126879199Y-123083941D01*
X126725512Y-123076757D01*
X126641370Y-123073327D01*
X126571826Y-123071444D01*
X126449561Y-122882467D01*
X126330245Y-122692506D01*
X126093922Y-122311808D01*
X125973648Y-122122157D01*
X125849786Y-121933696D01*
X125720703Y-121746968D01*
X125584765Y-121562517D01*
X125335954Y-121931841D01*
X125208368Y-122115276D01*
X125077784Y-122297463D01*
X124943544Y-122478078D01*
X124804989Y-122656798D01*
X124661461Y-122833302D01*
X124512301Y-123007265D01*
X123760165Y-122856302D01*
X123384211Y-122781003D01*
X123007754Y-122708292D01*
X122775387Y-122828213D01*
X122542941Y-122948923D01*
X122366824Y-122696652D01*
X122190569Y-122445887D01*
X122094111Y-122446120D01*
X121996554Y-122446886D01*
X121967971Y-122458350D01*
X121939919Y-122471666D01*
X121912246Y-122486397D01*
X121884800Y-122502107D01*
X121829982Y-122534719D01*
X121802306Y-122550749D01*
X121774249Y-122566012D01*
X121745659Y-122580072D01*
X121716384Y-122592493D01*
X121686272Y-122602839D01*
X121670854Y-122607097D01*
X121655171Y-122610673D01*
X121639202Y-122613511D01*
X121622929Y-122615558D01*
X121606333Y-122616759D01*
X121589395Y-122617060D01*
X121572096Y-122616405D01*
X121554416Y-122614740D01*
X121536337Y-122612012D01*
X121517840Y-122608164D01*
X121435922Y-122498483D01*
X121360801Y-122386953D01*
X121292034Y-122273736D01*
X121229177Y-122158991D01*
X121171787Y-122042880D01*
X121119421Y-121925564D01*
X121071636Y-121807202D01*
X121027987Y-121687957D01*
X120988032Y-121567988D01*
X120951327Y-121447456D01*
X120885894Y-121205348D01*
X120828142Y-120962918D01*
X120774523Y-120721453D01*
X120706194Y-120425195D01*
X120648518Y-120128431D01*
X120598753Y-119831304D01*
X120554156Y-119533958D01*
X120469498Y-118939176D01*
X120423953Y-118642028D01*
X120372607Y-118345232D01*
X120368355Y-118329863D01*
X120365678Y-118314673D01*
X120364520Y-118299680D01*
X120364826Y-118284904D01*
X120366542Y-118270362D01*
X120369614Y-118256074D01*
X120373986Y-118242057D01*
X120379603Y-118228331D01*
X120386412Y-118214913D01*
X120394357Y-118201822D01*
X120403383Y-118189076D01*
X120413436Y-118176695D01*
X120424461Y-118164696D01*
X120436403Y-118153099D01*
X120462821Y-118131181D01*
X120492250Y-118111089D01*
X120524254Y-118092971D01*
X120558395Y-118076975D01*
X120594235Y-118063249D01*
X120631335Y-118051941D01*
X120669258Y-118043199D01*
X120707566Y-118037170D01*
X120745822Y-118034002D01*
X120969383Y-118010592D01*
X121193723Y-117990478D01*
X121418753Y-117973681D01*
X121644385Y-117960227D01*
X121870530Y-117950139D01*
X122097101Y-117943439D01*
X122324009Y-117940152D01*
X122551165Y-117940302D01*
%TD*%
%LPC*%
D10*
%TO.C,REF\u002A\u002A*%
X180224810Y-68695211D02*
X180224810Y-68695211D01*
X99175204Y-157364798D02*
X99175204Y-157364798D01*
X180224810Y-157364798D02*
X180224810Y-157364798D01*
G36*
X144089673Y-97744308D02*
G01*
X144404632Y-97779372D01*
X144715645Y-97834579D01*
X145022513Y-97908648D01*
X145325037Y-98000295D01*
X145623018Y-98108240D01*
X145916257Y-98231198D01*
X146204556Y-98367888D01*
X146487715Y-98517028D01*
X146765535Y-98677334D01*
X147037817Y-98847526D01*
X147304362Y-99026319D01*
X147564972Y-99212432D01*
X147819446Y-99404582D01*
X148067587Y-99601487D01*
X148309195Y-99801865D01*
X148575174Y-100048042D01*
X148835560Y-100301961D01*
X149089498Y-100563544D01*
X149336130Y-100832714D01*
X149574602Y-101109393D01*
X149804057Y-101393504D01*
X150023641Y-101684970D01*
X150232496Y-101983713D01*
X150429767Y-102289657D01*
X150614599Y-102602723D01*
X150786135Y-102922835D01*
X150943520Y-103249915D01*
X151085898Y-103583886D01*
X151212413Y-103924671D01*
X151322209Y-104272192D01*
X151414431Y-104626371D01*
X151450442Y-104773996D01*
X151480627Y-104922782D01*
X151505020Y-105072520D01*
X151523657Y-105222997D01*
X151536570Y-105374000D01*
X151543796Y-105525319D01*
X151545368Y-105676742D01*
X151541322Y-105828056D01*
X151531690Y-105979049D01*
X151516508Y-106129511D01*
X151495811Y-106279228D01*
X151469633Y-106427990D01*
X151438008Y-106575584D01*
X151400970Y-106721798D01*
X151358555Y-106866421D01*
X151310797Y-107009241D01*
X151257730Y-107150045D01*
X151199388Y-107288623D01*
X151135807Y-107424762D01*
X151067021Y-107558250D01*
X150993063Y-107688876D01*
X150913969Y-107816427D01*
X150829774Y-107940692D01*
X150740511Y-108061459D01*
X150646215Y-108178516D01*
X150546920Y-108291651D01*
X150442662Y-108400653D01*
X150333474Y-108505309D01*
X150219391Y-108605408D01*
X150100447Y-108700737D01*
X149976678Y-108791086D01*
X149848116Y-108876242D01*
X149442953Y-109117268D01*
X149022854Y-109327795D01*
X148589669Y-109508270D01*
X148145247Y-109659138D01*
X147691437Y-109780847D01*
X147230088Y-109873842D01*
X146763049Y-109938570D01*
X146292170Y-109975476D01*
X145819299Y-109985008D01*
X145346285Y-109967612D01*
X144874979Y-109923733D01*
X144407228Y-109853819D01*
X143944882Y-109758315D01*
X143489791Y-109637668D01*
X143043803Y-109492324D01*
X142608767Y-109322729D01*
X142291911Y-109166369D01*
X141987152Y-108988465D01*
X141695398Y-108790239D01*
X141417554Y-108572910D01*
X141154527Y-108337699D01*
X140907224Y-108085829D01*
X140676549Y-107818518D01*
X140463411Y-107536989D01*
X140268716Y-107242462D01*
X140093368Y-106936158D01*
X139938276Y-106619297D01*
X139804345Y-106293101D01*
X139692482Y-105958790D01*
X139603593Y-105617586D01*
X139538584Y-105270708D01*
X139498362Y-104919378D01*
X139477024Y-104548047D01*
X139476129Y-104177922D01*
X139494769Y-103809369D01*
X139532031Y-103442756D01*
X139587005Y-103078447D01*
X139658782Y-102716811D01*
X139746449Y-102358212D01*
X139849098Y-102003018D01*
X139965817Y-101651594D01*
X140095695Y-101304308D01*
X140237823Y-100961525D01*
X140391289Y-100623612D01*
X140555183Y-100290936D01*
X140728595Y-99963863D01*
X140910614Y-99642758D01*
X141100329Y-99327990D01*
X141193920Y-99170167D01*
X141296088Y-99017593D01*
X141406476Y-98870820D01*
X141524729Y-98730399D01*
X141650489Y-98596882D01*
X141783399Y-98470820D01*
X141923104Y-98352763D01*
X142069245Y-98243265D01*
X142221468Y-98142876D01*
X142379414Y-98052147D01*
X142542728Y-97971630D01*
X142711052Y-97901877D01*
X142884030Y-97843438D01*
X143061305Y-97796865D01*
X143242521Y-97762710D01*
X143427321Y-97741524D01*
X143513618Y-97736346D01*
X143599634Y-97732806D01*
X143685405Y-97730912D01*
X143770968Y-97730675D01*
X143770968Y-97730671D01*
X144089673Y-97744308D01*
G37*
D12*
X144089673Y-97744308D02*
X144404632Y-97779372D01*
X144715645Y-97834579D01*
X145022513Y-97908648D01*
X145325037Y-98000295D01*
X145623018Y-98108240D01*
X145916257Y-98231198D01*
X146204556Y-98367888D01*
X146487715Y-98517028D01*
X146765535Y-98677334D01*
X147037817Y-98847526D01*
X147304362Y-99026319D01*
X147564972Y-99212432D01*
X147819446Y-99404582D01*
X148067587Y-99601487D01*
X148309195Y-99801865D01*
X148575174Y-100048042D01*
X148835560Y-100301961D01*
X149089498Y-100563544D01*
X149336130Y-100832714D01*
X149574602Y-101109393D01*
X149804057Y-101393504D01*
X150023641Y-101684970D01*
X150232496Y-101983713D01*
X150429767Y-102289657D01*
X150614599Y-102602723D01*
X150786135Y-102922835D01*
X150943520Y-103249915D01*
X151085898Y-103583886D01*
X151212413Y-103924671D01*
X151322209Y-104272192D01*
X151414431Y-104626371D01*
X151450442Y-104773996D01*
X151480627Y-104922782D01*
X151505020Y-105072520D01*
X151523657Y-105222997D01*
X151536570Y-105374000D01*
X151543796Y-105525319D01*
X151545368Y-105676742D01*
X151541322Y-105828056D01*
X151531690Y-105979049D01*
X151516508Y-106129511D01*
X151495811Y-106279228D01*
X151469633Y-106427990D01*
X151438008Y-106575584D01*
X151400970Y-106721798D01*
X151358555Y-106866421D01*
X151310797Y-107009241D01*
X151257730Y-107150045D01*
X151199388Y-107288623D01*
X151135807Y-107424762D01*
X151067021Y-107558250D01*
X150993063Y-107688876D01*
X150913969Y-107816427D01*
X150829774Y-107940692D01*
X150740511Y-108061459D01*
X150646215Y-108178516D01*
X150546920Y-108291651D01*
X150442662Y-108400653D01*
X150333474Y-108505309D01*
X150219391Y-108605408D01*
X150100447Y-108700737D01*
X149976678Y-108791086D01*
X149848116Y-108876242D01*
X149442953Y-109117268D01*
X149022854Y-109327795D01*
X148589669Y-109508270D01*
X148145247Y-109659138D01*
X147691437Y-109780847D01*
X147230088Y-109873842D01*
X146763049Y-109938570D01*
X146292170Y-109975476D01*
X145819299Y-109985008D01*
X145346285Y-109967612D01*
X144874979Y-109923733D01*
X144407228Y-109853819D01*
X143944882Y-109758315D01*
X143489791Y-109637668D01*
X143043803Y-109492324D01*
X142608767Y-109322729D01*
X142291911Y-109166369D01*
X141987152Y-108988465D01*
X141695398Y-108790239D01*
X141417554Y-108572910D01*
X141154527Y-108337699D01*
X140907224Y-108085829D01*
X140676549Y-107818518D01*
X140463411Y-107536989D01*
X140268716Y-107242462D01*
X140093368Y-106936158D01*
X139938276Y-106619297D01*
X139804345Y-106293101D01*
X139692482Y-105958790D01*
X139603593Y-105617586D01*
X139538584Y-105270708D01*
X139498362Y-104919378D01*
X139477024Y-104548047D01*
X139476129Y-104177922D01*
X139494769Y-103809369D01*
X139532031Y-103442756D01*
X139587005Y-103078447D01*
X139658782Y-102716811D01*
X139746449Y-102358212D01*
X139849098Y-102003018D01*
X139965817Y-101651594D01*
X140095695Y-101304308D01*
X140237823Y-100961525D01*
X140391289Y-100623612D01*
X140555183Y-100290936D01*
X140728595Y-99963863D01*
X140910614Y-99642758D01*
X141100329Y-99327990D01*
X141193920Y-99170167D01*
X141296088Y-99017593D01*
X141406476Y-98870820D01*
X141524729Y-98730399D01*
X141650489Y-98596882D01*
X141783399Y-98470820D01*
X141923104Y-98352763D01*
X142069245Y-98243265D01*
X142221468Y-98142876D01*
X142379414Y-98052147D01*
X142542728Y-97971630D01*
X142711052Y-97901877D01*
X142884030Y-97843438D01*
X143061305Y-97796865D01*
X143242521Y-97762710D01*
X143427321Y-97741524D01*
X143513618Y-97736346D01*
X143599634Y-97732806D01*
X143685405Y-97730912D01*
X143770968Y-97730675D01*
X143770968Y-97730671D01*
X144089673Y-97744308D01*
G36*
X132309416Y-96370941D02*
G01*
X132426568Y-96377994D01*
X132543286Y-96388917D01*
X132659396Y-96403831D01*
X132774721Y-96422856D01*
X132889084Y-96446112D01*
X133002310Y-96473718D01*
X133114221Y-96505795D01*
X133224642Y-96542464D01*
X133333396Y-96583844D01*
X133440307Y-96630055D01*
X133545198Y-96681217D01*
X133647894Y-96737450D01*
X133748217Y-96798876D01*
X133845992Y-96865612D01*
X133971038Y-96954825D01*
X134087553Y-97051584D01*
X134196193Y-97155234D01*
X134297616Y-97265123D01*
X134392476Y-97380596D01*
X134481431Y-97501000D01*
X134565137Y-97625681D01*
X134644251Y-97753985D01*
X134719429Y-97885259D01*
X134791328Y-98018849D01*
X134927913Y-98290362D01*
X135190615Y-98832417D01*
X135450393Y-99407825D01*
X135571076Y-99701301D01*
X135684501Y-99998248D01*
X135789831Y-100298385D01*
X135886225Y-100601430D01*
X135972844Y-100907101D01*
X136048848Y-101215115D01*
X136113398Y-101525192D01*
X136165654Y-101837050D01*
X136204777Y-102150405D01*
X136229928Y-102464977D01*
X136240267Y-102780484D01*
X136234955Y-103096643D01*
X136213151Y-103413173D01*
X136174017Y-103729792D01*
X136144375Y-103902923D01*
X136107607Y-104073984D01*
X136063895Y-104242845D01*
X136013418Y-104409374D01*
X135956358Y-104573440D01*
X135892896Y-104734913D01*
X135823211Y-104893662D01*
X135747484Y-105049555D01*
X135578628Y-105352253D01*
X135387774Y-105641960D01*
X135176364Y-105917628D01*
X134945846Y-106178211D01*
X134697663Y-106422662D01*
X134433261Y-106649933D01*
X134154084Y-106858978D01*
X133861578Y-107048749D01*
X133557187Y-107218199D01*
X133242355Y-107366282D01*
X132918529Y-107491950D01*
X132587153Y-107594156D01*
X132143156Y-107692683D01*
X131691190Y-107766995D01*
X131233352Y-107816654D01*
X130771742Y-107841223D01*
X130308456Y-107840263D01*
X129845592Y-107813337D01*
X129385250Y-107760007D01*
X128929527Y-107679834D01*
X128480521Y-107572381D01*
X128040329Y-107437210D01*
X127611051Y-107273883D01*
X127194784Y-107081961D01*
X126793626Y-106861008D01*
X126409675Y-106610584D01*
X126045029Y-106330253D01*
X125870601Y-106178735D01*
X125701787Y-106019575D01*
X125584370Y-105895180D01*
X125475077Y-105766333D01*
X125373790Y-105633291D01*
X125280388Y-105496313D01*
X125194753Y-105355654D01*
X125116766Y-105211572D01*
X125046308Y-105064325D01*
X124983261Y-104914168D01*
X124927505Y-104761360D01*
X124878921Y-104606157D01*
X124802795Y-104289595D01*
X124753931Y-103966539D01*
X124731378Y-103639046D01*
X124734185Y-103309173D01*
X124761399Y-102978977D01*
X124812071Y-102650513D01*
X124885247Y-102325839D01*
X124979977Y-102007012D01*
X125095310Y-101696088D01*
X125230293Y-101395124D01*
X125383977Y-101106176D01*
X125632331Y-100683718D01*
X125902076Y-100272131D01*
X126192371Y-99872800D01*
X126502374Y-99487106D01*
X126831247Y-99116432D01*
X127178149Y-98762162D01*
X127542239Y-98425678D01*
X127922678Y-98108363D01*
X128318624Y-97811599D01*
X128729238Y-97536770D01*
X129153680Y-97285257D01*
X129591108Y-97058444D01*
X130040683Y-96857714D01*
X130501565Y-96684449D01*
X130972913Y-96540032D01*
X131453887Y-96425846D01*
X131530383Y-96413770D01*
X131607297Y-96403012D01*
X131684576Y-96393605D01*
X131762163Y-96385581D01*
X131840006Y-96378973D01*
X131918050Y-96373813D01*
X131996240Y-96370134D01*
X132074523Y-96367968D01*
X132192009Y-96367639D01*
X132309416Y-96370941D01*
G37*
X132309416Y-96370941D02*
X132426568Y-96377994D01*
X132543286Y-96388917D01*
X132659396Y-96403831D01*
X132774721Y-96422856D01*
X132889084Y-96446112D01*
X133002310Y-96473718D01*
X133114221Y-96505795D01*
X133224642Y-96542464D01*
X133333396Y-96583844D01*
X133440307Y-96630055D01*
X133545198Y-96681217D01*
X133647894Y-96737450D01*
X133748217Y-96798876D01*
X133845992Y-96865612D01*
X133971038Y-96954825D01*
X134087553Y-97051584D01*
X134196193Y-97155234D01*
X134297616Y-97265123D01*
X134392476Y-97380596D01*
X134481431Y-97501000D01*
X134565137Y-97625681D01*
X134644251Y-97753985D01*
X134719429Y-97885259D01*
X134791328Y-98018849D01*
X134927913Y-98290362D01*
X135190615Y-98832417D01*
X135450393Y-99407825D01*
X135571076Y-99701301D01*
X135684501Y-99998248D01*
X135789831Y-100298385D01*
X135886225Y-100601430D01*
X135972844Y-100907101D01*
X136048848Y-101215115D01*
X136113398Y-101525192D01*
X136165654Y-101837050D01*
X136204777Y-102150405D01*
X136229928Y-102464977D01*
X136240267Y-102780484D01*
X136234955Y-103096643D01*
X136213151Y-103413173D01*
X136174017Y-103729792D01*
X136144375Y-103902923D01*
X136107607Y-104073984D01*
X136063895Y-104242845D01*
X136013418Y-104409374D01*
X135956358Y-104573440D01*
X135892896Y-104734913D01*
X135823211Y-104893662D01*
X135747484Y-105049555D01*
X135578628Y-105352253D01*
X135387774Y-105641960D01*
X135176364Y-105917628D01*
X134945846Y-106178211D01*
X134697663Y-106422662D01*
X134433261Y-106649933D01*
X134154084Y-106858978D01*
X133861578Y-107048749D01*
X133557187Y-107218199D01*
X133242355Y-107366282D01*
X132918529Y-107491950D01*
X132587153Y-107594156D01*
X132143156Y-107692683D01*
X131691190Y-107766995D01*
X131233352Y-107816654D01*
X130771742Y-107841223D01*
X130308456Y-107840263D01*
X129845592Y-107813337D01*
X129385250Y-107760007D01*
X128929527Y-107679834D01*
X128480521Y-107572381D01*
X128040329Y-107437210D01*
X127611051Y-107273883D01*
X127194784Y-107081961D01*
X126793626Y-106861008D01*
X126409675Y-106610584D01*
X126045029Y-106330253D01*
X125870601Y-106178735D01*
X125701787Y-106019575D01*
X125584370Y-105895180D01*
X125475077Y-105766333D01*
X125373790Y-105633291D01*
X125280388Y-105496313D01*
X125194753Y-105355654D01*
X125116766Y-105211572D01*
X125046308Y-105064325D01*
X124983261Y-104914168D01*
X124927505Y-104761360D01*
X124878921Y-104606157D01*
X124802795Y-104289595D01*
X124753931Y-103966539D01*
X124731378Y-103639046D01*
X124734185Y-103309173D01*
X124761399Y-102978977D01*
X124812071Y-102650513D01*
X124885247Y-102325839D01*
X124979977Y-102007012D01*
X125095310Y-101696088D01*
X125230293Y-101395124D01*
X125383977Y-101106176D01*
X125632331Y-100683718D01*
X125902076Y-100272131D01*
X126192371Y-99872800D01*
X126502374Y-99487106D01*
X126831247Y-99116432D01*
X127178149Y-98762162D01*
X127542239Y-98425678D01*
X127922678Y-98108363D01*
X128318624Y-97811599D01*
X128729238Y-97536770D01*
X129153680Y-97285257D01*
X129591108Y-97058444D01*
X130040683Y-96857714D01*
X130501565Y-96684449D01*
X130972913Y-96540032D01*
X131453887Y-96425846D01*
X131530383Y-96413770D01*
X131607297Y-96403012D01*
X131684576Y-96393605D01*
X131762163Y-96385581D01*
X131840006Y-96378973D01*
X131918050Y-96373813D01*
X131996240Y-96370134D01*
X132074523Y-96367968D01*
X132192009Y-96367639D01*
X132309416Y-96370941D01*
G36*
X133031880Y-101546717D02*
G01*
X133187030Y-101566014D01*
X133339918Y-101596332D01*
X133490099Y-101637216D01*
X133637131Y-101688215D01*
X133780571Y-101748873D01*
X133919975Y-101818739D01*
X134054901Y-101897359D01*
X134184906Y-101984279D01*
X134309546Y-102079046D01*
X134428379Y-102181207D01*
X134540961Y-102290309D01*
X134646850Y-102405898D01*
X134745603Y-102527520D01*
X134836776Y-102654723D01*
X134919927Y-102787054D01*
X134994612Y-102924058D01*
X135060389Y-103065282D01*
X135116815Y-103210274D01*
X135163446Y-103358580D01*
X135199839Y-103509747D01*
X135225552Y-103663321D01*
X135240142Y-103818848D01*
X135243165Y-103975877D01*
X135234178Y-104133952D01*
X135212739Y-104292622D01*
X135178405Y-104451432D01*
X135130732Y-104609930D01*
X135086286Y-104764250D01*
X135031011Y-104912237D01*
X134965478Y-105053737D01*
X134890259Y-105188597D01*
X134805925Y-105316664D01*
X134713049Y-105437786D01*
X134612203Y-105551808D01*
X134503957Y-105658579D01*
X134388883Y-105757945D01*
X134267554Y-105849752D01*
X134140541Y-105933849D01*
X134008415Y-106010083D01*
X133871749Y-106078299D01*
X133731114Y-106138345D01*
X133587082Y-106190068D01*
X133440225Y-106233316D01*
X133291113Y-106267934D01*
X133140320Y-106293771D01*
X132988417Y-106310672D01*
X132835974Y-106318486D01*
X132683566Y-106317059D01*
X132531762Y-106306237D01*
X132381134Y-106285869D01*
X132232255Y-106255800D01*
X132085696Y-106215879D01*
X131942028Y-106165952D01*
X131801824Y-106105865D01*
X131665655Y-106035467D01*
X131534093Y-105954603D01*
X131407710Y-105863121D01*
X131287077Y-105760869D01*
X131172766Y-105647692D01*
X131053896Y-105532734D01*
X130946439Y-105410943D01*
X130850234Y-105282936D01*
X130765123Y-105149326D01*
X130690945Y-105010729D01*
X130627541Y-104867761D01*
X130574751Y-104721036D01*
X130532415Y-104571170D01*
X130500375Y-104418777D01*
X130478470Y-104264474D01*
X130466540Y-104108875D01*
X130464427Y-103952594D01*
X130471970Y-103796249D01*
X130489009Y-103640453D01*
X130515386Y-103485821D01*
X130550940Y-103332970D01*
X130595512Y-103182514D01*
X130648942Y-103035068D01*
X130711071Y-102891248D01*
X130781738Y-102751668D01*
X130860785Y-102616944D01*
X130948051Y-102487691D01*
X131043378Y-102364524D01*
X131146604Y-102248059D01*
X131257572Y-102138910D01*
X131376120Y-102037692D01*
X131502090Y-101945022D01*
X131635322Y-101861513D01*
X131775655Y-101787782D01*
X131922932Y-101724443D01*
X132076991Y-101672112D01*
X132237673Y-101631403D01*
X132237681Y-101631403D01*
X132397503Y-101588798D01*
X132557277Y-101559481D01*
X132716560Y-101542997D01*
X132874908Y-101538893D01*
X133031880Y-101546717D01*
G37*
X133031880Y-101546717D02*
X133187030Y-101566014D01*
X133339918Y-101596332D01*
X133490099Y-101637216D01*
X133637131Y-101688215D01*
X133780571Y-101748873D01*
X133919975Y-101818739D01*
X134054901Y-101897359D01*
X134184906Y-101984279D01*
X134309546Y-102079046D01*
X134428379Y-102181207D01*
X134540961Y-102290309D01*
X134646850Y-102405898D01*
X134745603Y-102527520D01*
X134836776Y-102654723D01*
X134919927Y-102787054D01*
X134994612Y-102924058D01*
X135060389Y-103065282D01*
X135116815Y-103210274D01*
X135163446Y-103358580D01*
X135199839Y-103509747D01*
X135225552Y-103663321D01*
X135240142Y-103818848D01*
X135243165Y-103975877D01*
X135234178Y-104133952D01*
X135212739Y-104292622D01*
X135178405Y-104451432D01*
X135130732Y-104609930D01*
X135086286Y-104764250D01*
X135031011Y-104912237D01*
X134965478Y-105053737D01*
X134890259Y-105188597D01*
X134805925Y-105316664D01*
X134713049Y-105437786D01*
X134612203Y-105551808D01*
X134503957Y-105658579D01*
X134388883Y-105757945D01*
X134267554Y-105849752D01*
X134140541Y-105933849D01*
X134008415Y-106010083D01*
X133871749Y-106078299D01*
X133731114Y-106138345D01*
X133587082Y-106190068D01*
X133440225Y-106233316D01*
X133291113Y-106267934D01*
X133140320Y-106293771D01*
X132988417Y-106310672D01*
X132835974Y-106318486D01*
X132683566Y-106317059D01*
X132531762Y-106306237D01*
X132381134Y-106285869D01*
X132232255Y-106255800D01*
X132085696Y-106215879D01*
X131942028Y-106165952D01*
X131801824Y-106105865D01*
X131665655Y-106035467D01*
X131534093Y-105954603D01*
X131407710Y-105863121D01*
X131287077Y-105760869D01*
X131172766Y-105647692D01*
X131053896Y-105532734D01*
X130946439Y-105410943D01*
X130850234Y-105282936D01*
X130765123Y-105149326D01*
X130690945Y-105010729D01*
X130627541Y-104867761D01*
X130574751Y-104721036D01*
X130532415Y-104571170D01*
X130500375Y-104418777D01*
X130478470Y-104264474D01*
X130466540Y-104108875D01*
X130464427Y-103952594D01*
X130471970Y-103796249D01*
X130489009Y-103640453D01*
X130515386Y-103485821D01*
X130550940Y-103332970D01*
X130595512Y-103182514D01*
X130648942Y-103035068D01*
X130711071Y-102891248D01*
X130781738Y-102751668D01*
X130860785Y-102616944D01*
X130948051Y-102487691D01*
X131043378Y-102364524D01*
X131146604Y-102248059D01*
X131257572Y-102138910D01*
X131376120Y-102037692D01*
X131502090Y-101945022D01*
X131635322Y-101861513D01*
X131775655Y-101787782D01*
X131922932Y-101724443D01*
X132076991Y-101672112D01*
X132237673Y-101631403D01*
X132237681Y-101631403D01*
X132397503Y-101588798D01*
X132557277Y-101559481D01*
X132716560Y-101542997D01*
X132874908Y-101538893D01*
X133031880Y-101546717D01*
G36*
X142416639Y-102424768D02*
G01*
X142522458Y-102430290D01*
X142627703Y-102440896D01*
X142732210Y-102456470D01*
X142835813Y-102476893D01*
X142938348Y-102502047D01*
X143039648Y-102531815D01*
X143139548Y-102566078D01*
X143237883Y-102604719D01*
X143334488Y-102647620D01*
X143521845Y-102745731D01*
X143700295Y-102859468D01*
X143868518Y-102987888D01*
X144025188Y-103130048D01*
X144098779Y-103205986D01*
X144168985Y-103285005D01*
X144235642Y-103366989D01*
X144298585Y-103451818D01*
X144357647Y-103539375D01*
X144412664Y-103629543D01*
X144463471Y-103722203D01*
X144509902Y-103817237D01*
X144551791Y-103914528D01*
X144588974Y-104013958D01*
X144621285Y-104115409D01*
X144648558Y-104218763D01*
X144681280Y-104344828D01*
X144705855Y-104471505D01*
X144722479Y-104598518D01*
X144731349Y-104725589D01*
X144732661Y-104852441D01*
X144726611Y-104978797D01*
X144713396Y-105104381D01*
X144693212Y-105228915D01*
X144666254Y-105352121D01*
X144632720Y-105473723D01*
X144592806Y-105593444D01*
X144546707Y-105711006D01*
X144494621Y-105826133D01*
X144436743Y-105938546D01*
X144373270Y-106047970D01*
X144304397Y-106154128D01*
X144230323Y-106256740D01*
X144151241Y-106355532D01*
X144067350Y-106450226D01*
X143978845Y-106540544D01*
X143885922Y-106626209D01*
X143788778Y-106706945D01*
X143687609Y-106782474D01*
X143582611Y-106852519D01*
X143473981Y-106916803D01*
X143361914Y-106975050D01*
X143246608Y-107026980D01*
X143128258Y-107072319D01*
X143007061Y-107110788D01*
X142883213Y-107142110D01*
X142756909Y-107166009D01*
X142628348Y-107182207D01*
X142496501Y-107198328D01*
X142365104Y-107205940D01*
X142234423Y-107205292D01*
X142104725Y-107196629D01*
X141976277Y-107180200D01*
X141849345Y-107156252D01*
X141724197Y-107125032D01*
X141601099Y-107086788D01*
X141480319Y-107041766D01*
X141362122Y-106990213D01*
X141246776Y-106932378D01*
X141134547Y-106868508D01*
X141025703Y-106798849D01*
X140920509Y-106723650D01*
X140819234Y-106643156D01*
X140722143Y-106557617D01*
X140629504Y-106467278D01*
X140541583Y-106372387D01*
X140458647Y-106273192D01*
X140380963Y-106169940D01*
X140308797Y-106062877D01*
X140242417Y-105952252D01*
X140182090Y-105838311D01*
X140128081Y-105721303D01*
X140080658Y-105601473D01*
X140040088Y-105479070D01*
X140006638Y-105354341D01*
X139980574Y-105227532D01*
X139962162Y-105098892D01*
X139951671Y-104968668D01*
X139949366Y-104837106D01*
X139955515Y-104704454D01*
X139960972Y-104597096D01*
X139971781Y-104490627D01*
X139987804Y-104385195D01*
X140008903Y-104280947D01*
X140034938Y-104178029D01*
X140065772Y-104076589D01*
X140101265Y-103976775D01*
X140141279Y-103878732D01*
X140185675Y-103782609D01*
X140234315Y-103688553D01*
X140287060Y-103596710D01*
X140343771Y-103507227D01*
X140404310Y-103420253D01*
X140468538Y-103335933D01*
X140536316Y-103254416D01*
X140607506Y-103175847D01*
X140681969Y-103100375D01*
X140759566Y-103028147D01*
X140840160Y-102959309D01*
X140923610Y-102894008D01*
X141009778Y-102832392D01*
X141098527Y-102774608D01*
X141189717Y-102720804D01*
X141283209Y-102671125D01*
X141378865Y-102625719D01*
X141476546Y-102584734D01*
X141576114Y-102548317D01*
X141677430Y-102516614D01*
X141780355Y-102489772D01*
X141884750Y-102467940D01*
X141990478Y-102451263D01*
X142097399Y-102439890D01*
X142203945Y-102429450D01*
X142310413Y-102424449D01*
X142416639Y-102424768D01*
G37*
X142416639Y-102424768D02*
X142522458Y-102430290D01*
X142627703Y-102440896D01*
X142732210Y-102456470D01*
X142835813Y-102476893D01*
X142938348Y-102502047D01*
X143039648Y-102531815D01*
X143139548Y-102566078D01*
X143237883Y-102604719D01*
X143334488Y-102647620D01*
X143521845Y-102745731D01*
X143700295Y-102859468D01*
X143868518Y-102987888D01*
X144025188Y-103130048D01*
X144098779Y-103205986D01*
X144168985Y-103285005D01*
X144235642Y-103366989D01*
X144298585Y-103451818D01*
X144357647Y-103539375D01*
X144412664Y-103629543D01*
X144463471Y-103722203D01*
X144509902Y-103817237D01*
X144551791Y-103914528D01*
X144588974Y-104013958D01*
X144621285Y-104115409D01*
X144648558Y-104218763D01*
X144681280Y-104344828D01*
X144705855Y-104471505D01*
X144722479Y-104598518D01*
X144731349Y-104725589D01*
X144732661Y-104852441D01*
X144726611Y-104978797D01*
X144713396Y-105104381D01*
X144693212Y-105228915D01*
X144666254Y-105352121D01*
X144632720Y-105473723D01*
X144592806Y-105593444D01*
X144546707Y-105711006D01*
X144494621Y-105826133D01*
X144436743Y-105938546D01*
X144373270Y-106047970D01*
X144304397Y-106154128D01*
X144230323Y-106256740D01*
X144151241Y-106355532D01*
X144067350Y-106450226D01*
X143978845Y-106540544D01*
X143885922Y-106626209D01*
X143788778Y-106706945D01*
X143687609Y-106782474D01*
X143582611Y-106852519D01*
X143473981Y-106916803D01*
X143361914Y-106975050D01*
X143246608Y-107026980D01*
X143128258Y-107072319D01*
X143007061Y-107110788D01*
X142883213Y-107142110D01*
X142756909Y-107166009D01*
X142628348Y-107182207D01*
X142496501Y-107198328D01*
X142365104Y-107205940D01*
X142234423Y-107205292D01*
X142104725Y-107196629D01*
X141976277Y-107180200D01*
X141849345Y-107156252D01*
X141724197Y-107125032D01*
X141601099Y-107086788D01*
X141480319Y-107041766D01*
X141362122Y-106990213D01*
X141246776Y-106932378D01*
X141134547Y-106868508D01*
X141025703Y-106798849D01*
X140920509Y-106723650D01*
X140819234Y-106643156D01*
X140722143Y-106557617D01*
X140629504Y-106467278D01*
X140541583Y-106372387D01*
X140458647Y-106273192D01*
X140380963Y-106169940D01*
X140308797Y-106062877D01*
X140242417Y-105952252D01*
X140182090Y-105838311D01*
X140128081Y-105721303D01*
X140080658Y-105601473D01*
X140040088Y-105479070D01*
X140006638Y-105354341D01*
X139980574Y-105227532D01*
X139962162Y-105098892D01*
X139951671Y-104968668D01*
X139949366Y-104837106D01*
X139955515Y-104704454D01*
X139960972Y-104597096D01*
X139971781Y-104490627D01*
X139987804Y-104385195D01*
X140008903Y-104280947D01*
X140034938Y-104178029D01*
X140065772Y-104076589D01*
X140101265Y-103976775D01*
X140141279Y-103878732D01*
X140185675Y-103782609D01*
X140234315Y-103688553D01*
X140287060Y-103596710D01*
X140343771Y-103507227D01*
X140404310Y-103420253D01*
X140468538Y-103335933D01*
X140536316Y-103254416D01*
X140607506Y-103175847D01*
X140681969Y-103100375D01*
X140759566Y-103028147D01*
X140840160Y-102959309D01*
X140923610Y-102894008D01*
X141009778Y-102832392D01*
X141098527Y-102774608D01*
X141189717Y-102720804D01*
X141283209Y-102671125D01*
X141378865Y-102625719D01*
X141476546Y-102584734D01*
X141576114Y-102548317D01*
X141677430Y-102516614D01*
X141780355Y-102489772D01*
X141884750Y-102467940D01*
X141990478Y-102451263D01*
X142097399Y-102439890D01*
X142203945Y-102429450D01*
X142310413Y-102424449D01*
X142416639Y-102424768D01*
G36*
X120504902Y-120563975D02*
G01*
X120659396Y-120606302D01*
X120713014Y-120847767D01*
X120770767Y-121090208D01*
X120836199Y-121332337D01*
X120872904Y-121452881D01*
X120912859Y-121572863D01*
X120956508Y-121692121D01*
X121004294Y-121810496D01*
X121056660Y-121927825D01*
X121114049Y-122043947D01*
X121176906Y-122158701D01*
X121245673Y-122271926D01*
X121320794Y-122383460D01*
X121402712Y-122493143D01*
X121421208Y-122496990D01*
X121439286Y-122499718D01*
X121456966Y-122501381D01*
X121474266Y-122502034D01*
X121491205Y-122501731D01*
X121507802Y-122500527D01*
X121524076Y-122498476D01*
X121540046Y-122495634D01*
X121555732Y-122492054D01*
X121571151Y-122487791D01*
X121601268Y-122477437D01*
X121630549Y-122465007D01*
X121659146Y-122450938D01*
X121687210Y-122435668D01*
X121714892Y-122419632D01*
X121769722Y-122387012D01*
X121797173Y-122371302D01*
X121824849Y-122356574D01*
X121852903Y-122343265D01*
X121881487Y-122331812D01*
X121979082Y-122331055D01*
X122075579Y-122330812D01*
X122251782Y-122581522D01*
X122427859Y-122833765D01*
X122660277Y-122713087D01*
X122892626Y-122593187D01*
X123269090Y-122665896D01*
X123645058Y-122741192D01*
X124397204Y-122892137D01*
X124546364Y-122718177D01*
X124689892Y-122541677D01*
X124828447Y-122362959D01*
X124962687Y-122182348D01*
X125093271Y-122000166D01*
X125220857Y-121816737D01*
X125469668Y-121447428D01*
X125605606Y-121631884D01*
X125734691Y-121818613D01*
X125858555Y-122007072D01*
X125978833Y-122196719D01*
X126215161Y-122577407D01*
X126334479Y-122767363D01*
X126456744Y-122956339D01*
X126526288Y-122958222D01*
X126610430Y-122961652D01*
X126764117Y-122968836D01*
X126836173Y-122876514D01*
X126905762Y-122783118D01*
X127039262Y-122593861D01*
X127295620Y-122210794D01*
X127425376Y-122020018D01*
X127560782Y-121831768D01*
X127631681Y-121739064D01*
X127705286Y-121647561D01*
X127782028Y-121557447D01*
X127862338Y-121468912D01*
X127859569Y-121640616D01*
X127852357Y-121812405D01*
X127830037Y-122156106D01*
X127806244Y-122499752D01*
X127797190Y-122671472D01*
X127791844Y-122843079D01*
X127791562Y-123014539D01*
X127797704Y-123185820D01*
X127811627Y-123356890D01*
X127834689Y-123527713D01*
X127868250Y-123698259D01*
X127913667Y-123868493D01*
X127972299Y-124038383D01*
X128045504Y-124207895D01*
X128056054Y-124451343D01*
X128075242Y-124696272D01*
X128103953Y-124941969D01*
X128143070Y-125187720D01*
X128193477Y-125432812D01*
X128256060Y-125676532D01*
X128331701Y-125918165D01*
X128421286Y-126156998D01*
X128525699Y-126392317D01*
X128645823Y-126623410D01*
X128782543Y-126849561D01*
X128936744Y-127070059D01*
X129109309Y-127284189D01*
X129301124Y-127491237D01*
X129513071Y-127690490D01*
X129746035Y-127881235D01*
X130102145Y-127718386D01*
X130136971Y-127526931D01*
X130176368Y-127336323D01*
X130265150Y-126957002D01*
X130456561Y-126201373D01*
X130544274Y-125822463D01*
X130582870Y-125632165D01*
X130616717Y-125441088D01*
X130644881Y-125249069D01*
X130666432Y-125055946D01*
X130680436Y-124861556D01*
X130685961Y-124665735D01*
X130785001Y-124428650D01*
X130878400Y-124190355D01*
X131050629Y-123710657D01*
X131207347Y-123227678D01*
X131353257Y-122742454D01*
X131631448Y-121769419D01*
X131773132Y-121283681D01*
X131922808Y-120799845D01*
X131961305Y-120945403D01*
X131990658Y-121091167D01*
X132012240Y-121237108D01*
X132027426Y-121383197D01*
X132037589Y-121529406D01*
X132044104Y-121675707D01*
X132051684Y-121968468D01*
X132061158Y-122261251D01*
X132070040Y-122407579D01*
X132083517Y-122553827D01*
X132102965Y-122699966D01*
X132129755Y-122845968D01*
X132165264Y-122991804D01*
X132210864Y-123137445D01*
X132426140Y-123156895D01*
X132641360Y-123177248D01*
X132741344Y-123061409D01*
X132837724Y-122944025D01*
X132930838Y-122825242D01*
X133021021Y-122705208D01*
X133193944Y-122461971D01*
X133359187Y-122215487D01*
X133997225Y-121220568D01*
X134150866Y-121233140D01*
X134303362Y-121246164D01*
X134289494Y-121452009D01*
X134278971Y-121658087D01*
X134272286Y-121864382D01*
X134269936Y-122070875D01*
X134272414Y-122277550D01*
X134280216Y-122484390D01*
X134293836Y-122691377D01*
X134313769Y-122898493D01*
X134497141Y-122923766D01*
X134680605Y-122947992D01*
X134789511Y-122848112D01*
X134894506Y-122746229D01*
X134995841Y-122642483D01*
X135093769Y-122537015D01*
X135188540Y-122429965D01*
X135280407Y-122321475D01*
X135369619Y-122211686D01*
X135456429Y-122100738D01*
X135623847Y-121875927D01*
X135784673Y-121648171D01*
X135940918Y-121418595D01*
X136094592Y-121188326D01*
X136121738Y-121314396D01*
X136143751Y-121440949D01*
X136161696Y-121567880D01*
X136176639Y-121695084D01*
X136227709Y-122204522D01*
X136243632Y-122331511D01*
X136262949Y-122458142D01*
X136286727Y-122584309D01*
X136316030Y-122709908D01*
X136351926Y-122834832D01*
X136395481Y-122958977D01*
X136447760Y-123082237D01*
X136509829Y-123204508D01*
X136930804Y-123241304D01*
X137133933Y-122631828D01*
X137235428Y-122326678D01*
X137342125Y-122022804D01*
X137457963Y-121721367D01*
X137520540Y-121571925D01*
X137586878Y-121423528D01*
X137657471Y-121276322D01*
X137732809Y-121130450D01*
X137813385Y-120986059D01*
X137899691Y-120843294D01*
X138181742Y-121427051D01*
X138318560Y-121720207D01*
X138448674Y-122014677D01*
X138569158Y-122310806D01*
X138624875Y-122459601D01*
X138677087Y-122608941D01*
X138725430Y-122758868D01*
X138769538Y-122909427D01*
X138809045Y-123060660D01*
X138843584Y-123212610D01*
X139045542Y-123232524D01*
X139247500Y-123253107D01*
X139247317Y-123251764D01*
X139342634Y-123113151D01*
X139429812Y-122972165D01*
X139509671Y-122829048D01*
X139583033Y-122684039D01*
X139650718Y-122537380D01*
X139713547Y-122389309D01*
X139772343Y-122240068D01*
X139827925Y-122089897D01*
X140034543Y-121484714D01*
X140139920Y-121182788D01*
X140196000Y-121032832D01*
X140255434Y-120883867D01*
X140444015Y-121187304D01*
X140622732Y-121494328D01*
X140707288Y-121649186D01*
X140788053Y-121804943D01*
X140864586Y-121961599D01*
X140936446Y-122119153D01*
X141003190Y-122277607D01*
X141064378Y-122436960D01*
X141119567Y-122597214D01*
X141168317Y-122758368D01*
X141210185Y-122920423D01*
X141244731Y-123083379D01*
X141271512Y-123247237D01*
X141290087Y-123411997D01*
X141493088Y-123438373D01*
X141594831Y-123452358D01*
X141696902Y-123466997D01*
X141797717Y-123343747D01*
X141892056Y-123218055D01*
X141980755Y-123090237D01*
X142064652Y-122960608D01*
X142144583Y-122829482D01*
X142221385Y-122697176D01*
X142368954Y-122430283D01*
X142514054Y-122162452D01*
X142663383Y-121896204D01*
X142741726Y-121764463D01*
X142823637Y-121634063D01*
X142909954Y-121505320D01*
X143001513Y-121378550D01*
X143050644Y-121865030D01*
X143073970Y-122108481D01*
X143093514Y-122351911D01*
X143107057Y-122595201D01*
X143112383Y-122838227D01*
X143111271Y-122959604D01*
X143107273Y-123080870D01*
X143100112Y-123202009D01*
X143089510Y-123323008D01*
X143422793Y-123532816D01*
X143543239Y-123435428D01*
X143660161Y-123335932D01*
X143773634Y-123234412D01*
X143883735Y-123130950D01*
X143990540Y-123025631D01*
X144094126Y-122918538D01*
X144194570Y-122809754D01*
X144291947Y-122699362D01*
X144386334Y-122587446D01*
X144477807Y-122474089D01*
X144566444Y-122359374D01*
X144652320Y-122243386D01*
X144735511Y-122126206D01*
X144816095Y-122007920D01*
X144894147Y-121888609D01*
X144969744Y-121768358D01*
X145032221Y-121986198D01*
X145087790Y-122204686D01*
X145137457Y-122423717D01*
X145182228Y-122643187D01*
X145223111Y-122862991D01*
X145261111Y-123083024D01*
X145332491Y-123523355D01*
X145420927Y-123505770D01*
X145504703Y-123484395D01*
X145584059Y-123459424D01*
X145659237Y-123431052D01*
X145730476Y-123399470D01*
X145798018Y-123364873D01*
X145862103Y-123327455D01*
X145922971Y-123287409D01*
X145980864Y-123244928D01*
X146036021Y-123200207D01*
X146088685Y-123153438D01*
X146139094Y-123104816D01*
X146187490Y-123054533D01*
X146234113Y-123002784D01*
X146323004Y-122895661D01*
X146655786Y-122447224D01*
X146742910Y-122337872D01*
X146835456Y-122232719D01*
X146884364Y-122182202D01*
X146935349Y-122133315D01*
X146988651Y-122086253D01*
X147044512Y-122041208D01*
X147074027Y-122048419D01*
X147101747Y-122056978D01*
X147127743Y-122066820D01*
X147152085Y-122077881D01*
X147174844Y-122090097D01*
X147196091Y-122103404D01*
X147215895Y-122117736D01*
X147234328Y-122133031D01*
X147251460Y-122149223D01*
X147267362Y-122166249D01*
X147282104Y-122184044D01*
X147295756Y-122202543D01*
X147308389Y-122221684D01*
X147320075Y-122241400D01*
X147330882Y-122261628D01*
X147340882Y-122282305D01*
X147358742Y-122324743D01*
X147374219Y-122368202D01*
X147387878Y-122412165D01*
X147400283Y-122456120D01*
X147423585Y-122541947D01*
X147435612Y-122582791D01*
X147448641Y-122621569D01*
X147487192Y-122933835D01*
X147516587Y-123246383D01*
X147537375Y-123559091D01*
X147550103Y-123871840D01*
X147555316Y-124184510D01*
X147553563Y-124496979D01*
X147545390Y-124809128D01*
X147531344Y-125120836D01*
X147573009Y-125368138D01*
X147608047Y-125615634D01*
X147636785Y-125863287D01*
X147659548Y-126111056D01*
X147676665Y-126358903D01*
X147688460Y-126606789D01*
X147697392Y-127102519D01*
X147688955Y-127597933D01*
X147665761Y-128092718D01*
X147630420Y-128586561D01*
X147585543Y-129079149D01*
X148225298Y-129278818D01*
X148398858Y-129146167D01*
X148564071Y-129009347D01*
X148721187Y-128868534D01*
X148870456Y-128723902D01*
X149012129Y-128575624D01*
X149146456Y-128423875D01*
X149273686Y-128268830D01*
X149394071Y-128110662D01*
X149615304Y-127785657D01*
X149812156Y-127450255D01*
X149986629Y-127105850D01*
X150140725Y-126753837D01*
X150276444Y-126395609D01*
X150395790Y-126032562D01*
X150500763Y-125666089D01*
X150593365Y-125297586D01*
X150675598Y-124928447D01*
X150749463Y-124560066D01*
X150880099Y-123831156D01*
X150949129Y-123915151D01*
X151014537Y-124000318D01*
X151076605Y-124086558D01*
X151135615Y-124173771D01*
X151191850Y-124261860D01*
X151245593Y-124350726D01*
X151297126Y-124440270D01*
X151346732Y-124530394D01*
X151441291Y-124711989D01*
X151531532Y-124894721D01*
X151708102Y-125260446D01*
X151808984Y-125270314D01*
X151910181Y-125281121D01*
X152011573Y-125292791D01*
X152113039Y-125305246D01*
X152207359Y-125190148D01*
X152294543Y-125072630D01*
X152375299Y-124952931D01*
X152450336Y-124831292D01*
X152520363Y-124707951D01*
X152586089Y-124583148D01*
X152648222Y-124457123D01*
X152707472Y-124330114D01*
X152820157Y-124074107D01*
X152929813Y-123817041D01*
X153042111Y-123560833D01*
X153101023Y-123433649D01*
X153162722Y-123307398D01*
X153218930Y-123433764D01*
X153270834Y-123560842D01*
X153319076Y-123688523D01*
X153364296Y-123816699D01*
X153448234Y-124074107D01*
X153527779Y-124332203D01*
X153608058Y-124590125D01*
X153694201Y-124847011D01*
X153741073Y-124974797D01*
X153791335Y-125102000D01*
X153845626Y-125228512D01*
X153904589Y-125354227D01*
X153911852Y-125370564D01*
X153920292Y-125386106D01*
X153929853Y-125400890D01*
X153940478Y-125414953D01*
X153952114Y-125428330D01*
X153964703Y-125441057D01*
X153978190Y-125453170D01*
X153992519Y-125464706D01*
X154007635Y-125475701D01*
X154023481Y-125486190D01*
X154057143Y-125505796D01*
X154093060Y-125523813D01*
X154130785Y-125540531D01*
X154169873Y-125556238D01*
X154209878Y-125571222D01*
X154290853Y-125600177D01*
X154330932Y-125614726D01*
X154370145Y-125629706D01*
X154408044Y-125645408D01*
X154444186Y-125662119D01*
X154544463Y-125557701D01*
X154641030Y-125451419D01*
X154734054Y-125343385D01*
X154823706Y-125233708D01*
X154910155Y-125122501D01*
X154993571Y-125009873D01*
X155074122Y-124895937D01*
X155151980Y-124780802D01*
X155250298Y-124913912D01*
X155350179Y-125046545D01*
X155452120Y-125178420D01*
X155556622Y-125309256D01*
X155664183Y-125438773D01*
X155775302Y-125566688D01*
X155890478Y-125692721D01*
X156010210Y-125816591D01*
X156123845Y-125696865D01*
X156236866Y-125576610D01*
X156462527Y-125335794D01*
X156500801Y-125345305D01*
X156546925Y-125357270D01*
X156630373Y-125379198D01*
X156657181Y-125396281D01*
X156683580Y-125414164D01*
X156735701Y-125451497D01*
X156787831Y-125489526D01*
X156814241Y-125508278D01*
X156841063Y-125526578D01*
X156868434Y-125544215D01*
X156896491Y-125560982D01*
X156925370Y-125576668D01*
X156955208Y-125591066D01*
X156986142Y-125603965D01*
X157002063Y-125609788D01*
X157018309Y-125615158D01*
X157034897Y-125620049D01*
X157051844Y-125624434D01*
X157069168Y-125628289D01*
X157086886Y-125631586D01*
X157242801Y-125474029D01*
X157385888Y-125311142D01*
X157517169Y-125143400D01*
X157637665Y-124971279D01*
X157748397Y-124795255D01*
X157850386Y-124615802D01*
X157944654Y-124433398D01*
X158032221Y-124248517D01*
X158114109Y-124061636D01*
X158191340Y-123873229D01*
X158335911Y-123493744D01*
X158614092Y-122737406D01*
X158745949Y-122890815D01*
X158865425Y-123048667D01*
X158973190Y-123210533D01*
X159069912Y-123375986D01*
X159156260Y-123544595D01*
X159232904Y-123715934D01*
X159300513Y-123889573D01*
X159359755Y-124065083D01*
X159411300Y-124242037D01*
X159455817Y-124420006D01*
X159493975Y-124598561D01*
X159526442Y-124777274D01*
X159553889Y-124955716D01*
X159576984Y-125133459D01*
X159612795Y-125485132D01*
X159168895Y-125795258D01*
X158721558Y-126104317D01*
X158269526Y-126410271D01*
X157811541Y-126711084D01*
X157766204Y-126646823D01*
X157718325Y-126583750D01*
X157667984Y-126521866D01*
X157615261Y-126461171D01*
X157560234Y-126401663D01*
X157502985Y-126343342D01*
X157443592Y-126286208D01*
X157382136Y-126230260D01*
X157318695Y-126175497D01*
X157253350Y-126121919D01*
X157186180Y-126069526D01*
X157117265Y-126018316D01*
X157046685Y-125968289D01*
X156974518Y-125919446D01*
X156900846Y-125871784D01*
X156825747Y-125825304D01*
X156780403Y-125908503D01*
X156741051Y-125992921D01*
X156707033Y-126078428D01*
X156677690Y-126164893D01*
X156652363Y-126252184D01*
X156630392Y-126340170D01*
X156611119Y-126428720D01*
X156593886Y-126517702D01*
X156532163Y-126875329D01*
X156515241Y-126964504D01*
X156496404Y-127053323D01*
X156474993Y-127141657D01*
X156450350Y-127229372D01*
X156202456Y-127194856D01*
X155955271Y-127158307D01*
X155462801Y-127081469D01*
X155409071Y-127183801D01*
X155363424Y-127287624D01*
X155324961Y-127392777D01*
X155292785Y-127499097D01*
X155266000Y-127606425D01*
X155243706Y-127714598D01*
X155225008Y-127823456D01*
X155209008Y-127932836D01*
X155154032Y-128372366D01*
X155138057Y-128481944D01*
X155119396Y-128591078D01*
X155097150Y-128699606D01*
X155070422Y-128807367D01*
X154945208Y-128784531D01*
X154827497Y-128770662D01*
X154716969Y-128765340D01*
X154613306Y-128768145D01*
X154516187Y-128778657D01*
X154425295Y-128796457D01*
X154340311Y-128821125D01*
X154260915Y-128852242D01*
X154186789Y-128889387D01*
X154117613Y-128932140D01*
X154053069Y-128980083D01*
X153992838Y-129032795D01*
X153936600Y-129089856D01*
X153884037Y-129150847D01*
X153834830Y-129215348D01*
X153788660Y-129282939D01*
X153745208Y-129353200D01*
X153704155Y-129425713D01*
X153627971Y-129575810D01*
X153557555Y-129729873D01*
X153490356Y-129884543D01*
X153423823Y-130036464D01*
X153355403Y-130182275D01*
X153282546Y-130318620D01*
X153243656Y-130382193D01*
X153202700Y-130442141D01*
X152498949Y-129937189D01*
X152012453Y-129899790D01*
X151943859Y-129954186D01*
X151878208Y-130009906D01*
X151755242Y-130125082D01*
X151642564Y-130244854D01*
X151539183Y-130368757D01*
X151444106Y-130496328D01*
X151356342Y-130627103D01*
X151274900Y-130760616D01*
X151198788Y-130896405D01*
X151127014Y-131034005D01*
X151058586Y-131172951D01*
X150927805Y-131453028D01*
X150798509Y-131732922D01*
X150731940Y-131871640D01*
X150662768Y-132008921D01*
X150535204Y-131952847D01*
X150412511Y-131892912D01*
X150294664Y-131829252D01*
X150181641Y-131762003D01*
X150073417Y-131691301D01*
X149969967Y-131617282D01*
X149871268Y-131540083D01*
X149777295Y-131459839D01*
X149688024Y-131376686D01*
X149603431Y-131290762D01*
X149523493Y-131202201D01*
X149448184Y-131111140D01*
X149377481Y-131017715D01*
X149311360Y-130922063D01*
X149249797Y-130824319D01*
X149192767Y-130724619D01*
X149169932Y-130678949D01*
X149144346Y-130635312D01*
X149116121Y-130593636D01*
X149085373Y-130553846D01*
X149052216Y-130515872D01*
X149016764Y-130479638D01*
X148979131Y-130445072D01*
X148939431Y-130412101D01*
X148897779Y-130380653D01*
X148854289Y-130350653D01*
X148809074Y-130322029D01*
X148762250Y-130294708D01*
X148664229Y-130243681D01*
X148561140Y-130196989D01*
X148453897Y-130154047D01*
X148343413Y-130114269D01*
X148230601Y-130077073D01*
X148116377Y-130041872D01*
X147663622Y-129909342D01*
X147533062Y-130010502D01*
X147407767Y-130114719D01*
X147287562Y-130221835D01*
X147172271Y-130331689D01*
X147061717Y-130444122D01*
X146955725Y-130558974D01*
X146854118Y-130676086D01*
X146756720Y-130795298D01*
X146663355Y-130916450D01*
X146573847Y-131039383D01*
X146488019Y-131163938D01*
X146405696Y-131289954D01*
X146326702Y-131417273D01*
X146250860Y-131545734D01*
X146177994Y-131675177D01*
X146107928Y-131805445D01*
X146100197Y-131839326D01*
X146094575Y-131873418D01*
X146090889Y-131907702D01*
X146088970Y-131942160D01*
X146089755Y-132011526D01*
X146095566Y-132081366D01*
X146105046Y-132151532D01*
X146116831Y-132221879D01*
X146141880Y-132362519D01*
X146152423Y-132432518D01*
X146159829Y-132502106D01*
X146162740Y-132571135D01*
X146162083Y-132605393D01*
X146159793Y-132639457D01*
X146155698Y-132673307D01*
X146149629Y-132706926D01*
X146141416Y-132740294D01*
X146130887Y-132773393D01*
X146117875Y-132806204D01*
X146102207Y-132838710D01*
X146083715Y-132870892D01*
X146062228Y-132902731D01*
X145998593Y-132999878D01*
X145940472Y-133098509D01*
X145887501Y-133198511D01*
X145839315Y-133299770D01*
X145795550Y-133402173D01*
X145755842Y-133505608D01*
X145719828Y-133609961D01*
X145687142Y-133715120D01*
X145657420Y-133820971D01*
X145630299Y-133927402D01*
X145582402Y-134141549D01*
X145540536Y-134356657D01*
X145501788Y-134571821D01*
X145320235Y-134395925D01*
X145145227Y-134216614D01*
X144975671Y-134034447D01*
X144810469Y-133849985D01*
X144488747Y-133476412D01*
X144171297Y-133100374D01*
X143849356Y-132726348D01*
X143683963Y-132541489D01*
X143514159Y-132358813D01*
X143338851Y-132178878D01*
X143156941Y-132002246D01*
X142967336Y-131829476D01*
X142768938Y-131661127D01*
X142705572Y-131744671D01*
X142649236Y-131829735D01*
X142599493Y-131916228D01*
X142555912Y-132004060D01*
X142518057Y-132093141D01*
X142485495Y-132183381D01*
X142457791Y-132274690D01*
X142434510Y-132366979D01*
X142399486Y-132554132D01*
X142376948Y-132744120D01*
X142363423Y-132936223D01*
X142355439Y-133129721D01*
X142342197Y-133518019D01*
X142329994Y-133711378D01*
X142309437Y-133903250D01*
X142277055Y-134092915D01*
X142255344Y-134186695D01*
X142229374Y-134279653D01*
X142198711Y-134371698D01*
X142162920Y-134462742D01*
X142121568Y-134552693D01*
X142074221Y-134641462D01*
X141929815Y-134486845D01*
X141789381Y-134329989D01*
X141516636Y-134011672D01*
X140977105Y-133371437D01*
X140837935Y-133213714D01*
X140695156Y-133057982D01*
X140547818Y-132904771D01*
X140394976Y-132754609D01*
X140235680Y-132608026D01*
X140068983Y-132465551D01*
X139893938Y-132327713D01*
X139709597Y-132195040D01*
X139662023Y-132355570D01*
X139619633Y-132516832D01*
X139581799Y-132678736D01*
X139547891Y-132841192D01*
X139489330Y-133167401D01*
X139438912Y-133494742D01*
X139342347Y-134149952D01*
X139286122Y-134476387D01*
X139253819Y-134638998D01*
X139217883Y-134801084D01*
X139170020Y-134631022D01*
X139135105Y-134460714D01*
X139111179Y-134290201D01*
X139096286Y-134119523D01*
X139088469Y-133948717D01*
X139085768Y-133777824D01*
X139087891Y-133435933D01*
X139086994Y-133094162D01*
X139080520Y-132923420D01*
X139067419Y-132752827D01*
X139045733Y-132582420D01*
X139013506Y-132412241D01*
X138968778Y-132242327D01*
X138941116Y-132157482D01*
X138909594Y-132072718D01*
X138580051Y-132307990D01*
X138257549Y-132548366D01*
X137941509Y-132793375D01*
X137631352Y-133042543D01*
X137326497Y-133295399D01*
X137026364Y-133551470D01*
X136730373Y-133810285D01*
X136437945Y-134071371D01*
X136289975Y-134072101D01*
X136142062Y-134072081D01*
X136138442Y-133886109D01*
X136145869Y-133699510D01*
X136162013Y-133512411D01*
X136184546Y-133324939D01*
X136291989Y-132573863D01*
X136311533Y-132386431D01*
X136323492Y-132199389D01*
X136325539Y-132012863D01*
X136315343Y-131826979D01*
X136290576Y-131641866D01*
X136272001Y-131549638D01*
X136248910Y-131457650D01*
X136221012Y-131365918D01*
X136188015Y-131274458D01*
X136149629Y-131183285D01*
X136105563Y-131092417D01*
X135881308Y-131195473D01*
X135669133Y-131307670D01*
X135467774Y-131428057D01*
X135275967Y-131555683D01*
X135092448Y-131689596D01*
X134915954Y-131828846D01*
X134745220Y-131972483D01*
X134578984Y-132119553D01*
X133933731Y-132723165D01*
X133605227Y-133020854D01*
X133435083Y-133165341D01*
X133259325Y-133305654D01*
X133067149Y-133277330D01*
X132874834Y-133250357D01*
X132861253Y-132693839D01*
X132835120Y-132136249D01*
X132793154Y-131578286D01*
X132732073Y-131020648D01*
X132693340Y-130742170D01*
X132648597Y-130464034D01*
X132597434Y-130186329D01*
X132539442Y-129909141D01*
X132474211Y-129632559D01*
X132401329Y-129356668D01*
X132320387Y-129081558D01*
X132230975Y-128807314D01*
X132209965Y-128750243D01*
X132183377Y-128690755D01*
X132151372Y-128630010D01*
X132114109Y-128569173D01*
X132071748Y-128509405D01*
X132024449Y-128451869D01*
X131998998Y-128424301D01*
X131972373Y-128397728D01*
X131944593Y-128372294D01*
X131915678Y-128348144D01*
X131885650Y-128325425D01*
X131854526Y-128304281D01*
X131822328Y-128284858D01*
X131789076Y-128267300D01*
X131754789Y-128251754D01*
X131719488Y-128238365D01*
X131683193Y-128227278D01*
X131645923Y-128218638D01*
X131607698Y-128212590D01*
X131568539Y-128209281D01*
X131528465Y-128208855D01*
X131487498Y-128211457D01*
X131445655Y-128217234D01*
X131402958Y-128226329D01*
X131359427Y-128238890D01*
X131315081Y-128255060D01*
X131123405Y-128331080D01*
X130937178Y-128413144D01*
X130756139Y-128500830D01*
X130580022Y-128593717D01*
X130408564Y-128691384D01*
X130241503Y-128793408D01*
X130078573Y-128899370D01*
X129919512Y-129008846D01*
X129764056Y-129121416D01*
X129611941Y-129236659D01*
X129316681Y-129473474D01*
X129031622Y-129715921D01*
X128754656Y-129960627D01*
X128461277Y-129857007D01*
X128315458Y-129804167D01*
X128170245Y-129750406D01*
X128179210Y-129612180D01*
X128177841Y-129473902D01*
X128166268Y-129335907D01*
X128144620Y-129198529D01*
X128113029Y-129062104D01*
X128071623Y-128926965D01*
X128020535Y-128793448D01*
X127959893Y-128661886D01*
X127889828Y-128532615D01*
X127810470Y-128405970D01*
X127721950Y-128282284D01*
X127624398Y-128161893D01*
X127517944Y-128045130D01*
X127402718Y-127932332D01*
X127278850Y-127823832D01*
X127146471Y-127719965D01*
X127071289Y-127717803D01*
X126996409Y-127717445D01*
X126847483Y-127721562D01*
X126699551Y-127731148D01*
X126552468Y-127745041D01*
X126406091Y-127762074D01*
X126260276Y-127781083D01*
X125969759Y-127820368D01*
X125905523Y-127545371D01*
X125869842Y-127403852D01*
X125829796Y-127261540D01*
X125783889Y-127119852D01*
X125730630Y-126980203D01*
X125668525Y-126844012D01*
X125596079Y-126712693D01*
X125555512Y-126649304D01*
X125511801Y-126587664D01*
X125464757Y-126527950D01*
X125414196Y-126470339D01*
X125359929Y-126415010D01*
X125301770Y-126362137D01*
X125239534Y-126311899D01*
X125173032Y-126264473D01*
X125102078Y-126220035D01*
X125026486Y-126178763D01*
X124946069Y-126140834D01*
X124860641Y-126106424D01*
X124770014Y-126075712D01*
X124674001Y-126048873D01*
X124572417Y-126026085D01*
X124465075Y-126007524D01*
X124331637Y-125778261D01*
X124361811Y-125695645D01*
X124389211Y-125612434D01*
X124413752Y-125528674D01*
X124435350Y-125444416D01*
X124453921Y-125359706D01*
X124469381Y-125274593D01*
X124481648Y-125189127D01*
X124490635Y-125103353D01*
X124496261Y-125017322D01*
X124498440Y-124931082D01*
X124497090Y-124844680D01*
X124492125Y-124758166D01*
X124483463Y-124671586D01*
X124471019Y-124584991D01*
X124454709Y-124498427D01*
X124434451Y-124411943D01*
X123916354Y-124370824D01*
X123787018Y-124358837D01*
X123657962Y-124344969D01*
X123529287Y-124328620D01*
X123401095Y-124309191D01*
X123389822Y-124265168D01*
X123380638Y-124221100D01*
X123367889Y-124132844D01*
X123361546Y-124044459D01*
X123360304Y-123955975D01*
X123362862Y-123867428D01*
X123367916Y-123778849D01*
X123380303Y-123601733D01*
X123385029Y-123513262D01*
X123387041Y-123424894D01*
X123385035Y-123336661D01*
X123377708Y-123248597D01*
X123363758Y-123160736D01*
X123353892Y-123116891D01*
X123341881Y-123073110D01*
X123327563Y-123029396D01*
X123310775Y-122985753D01*
X123291354Y-122942186D01*
X123269137Y-122898699D01*
X123162988Y-122942271D01*
X123059638Y-122988587D01*
X122959062Y-123037545D01*
X122861234Y-123089043D01*
X122766127Y-123142980D01*
X122673717Y-123199254D01*
X122583976Y-123257764D01*
X122496880Y-123318408D01*
X122412402Y-123381085D01*
X122330517Y-123445693D01*
X122251198Y-123512132D01*
X122174420Y-123580298D01*
X122100157Y-123650092D01*
X122028383Y-123721411D01*
X121959072Y-123794154D01*
X121892199Y-123868219D01*
X121357590Y-123458353D01*
X121092528Y-123250098D01*
X120833723Y-123037785D01*
X120707784Y-122929673D01*
X120584748Y-122820029D01*
X120465062Y-122708677D01*
X120349173Y-122595447D01*
X120237528Y-122480164D01*
X120130571Y-122362656D01*
X120028751Y-122242749D01*
X119932513Y-122120272D01*
X119919514Y-122068109D01*
X119909727Y-122016172D01*
X119902998Y-121964453D01*
X119899175Y-121912942D01*
X119898106Y-121861631D01*
X119899637Y-121810511D01*
X119903615Y-121759575D01*
X119909888Y-121708814D01*
X119928707Y-121607781D01*
X119954870Y-121507345D01*
X119987156Y-121407439D01*
X120024342Y-121307994D01*
X120065205Y-121208942D01*
X120108523Y-121110216D01*
X120197633Y-120913470D01*
X120240980Y-120815313D01*
X120281892Y-120717211D01*
X120319146Y-120619096D01*
X120351519Y-120520899D01*
X120504902Y-120563975D01*
G37*
D11*
X120504902Y-120563975D02*
X120659396Y-120606302D01*
X120713014Y-120847767D01*
X120770767Y-121090208D01*
X120836199Y-121332337D01*
X120872904Y-121452881D01*
X120912859Y-121572863D01*
X120956508Y-121692121D01*
X121004294Y-121810496D01*
X121056660Y-121927825D01*
X121114049Y-122043947D01*
X121176906Y-122158701D01*
X121245673Y-122271926D01*
X121320794Y-122383460D01*
X121402712Y-122493143D01*
X121421208Y-122496990D01*
X121439286Y-122499718D01*
X121456966Y-122501381D01*
X121474266Y-122502034D01*
X121491205Y-122501731D01*
X121507802Y-122500527D01*
X121524076Y-122498476D01*
X121540046Y-122495634D01*
X121555732Y-122492054D01*
X121571151Y-122487791D01*
X121601268Y-122477437D01*
X121630549Y-122465007D01*
X121659146Y-122450938D01*
X121687210Y-122435668D01*
X121714892Y-122419632D01*
X121769722Y-122387012D01*
X121797173Y-122371302D01*
X121824849Y-122356574D01*
X121852903Y-122343265D01*
X121881487Y-122331812D01*
X121979082Y-122331055D01*
X122075579Y-122330812D01*
X122251782Y-122581522D01*
X122427859Y-122833765D01*
X122660277Y-122713087D01*
X122892626Y-122593187D01*
X123269090Y-122665896D01*
X123645058Y-122741192D01*
X124397204Y-122892137D01*
X124546364Y-122718177D01*
X124689892Y-122541677D01*
X124828447Y-122362959D01*
X124962687Y-122182348D01*
X125093271Y-122000166D01*
X125220857Y-121816737D01*
X125469668Y-121447428D01*
X125605606Y-121631884D01*
X125734691Y-121818613D01*
X125858555Y-122007072D01*
X125978833Y-122196719D01*
X126215161Y-122577407D01*
X126334479Y-122767363D01*
X126456744Y-122956339D01*
X126526288Y-122958222D01*
X126610430Y-122961652D01*
X126764117Y-122968836D01*
X126836173Y-122876514D01*
X126905762Y-122783118D01*
X127039262Y-122593861D01*
X127295620Y-122210794D01*
X127425376Y-122020018D01*
X127560782Y-121831768D01*
X127631681Y-121739064D01*
X127705286Y-121647561D01*
X127782028Y-121557447D01*
X127862338Y-121468912D01*
X127859569Y-121640616D01*
X127852357Y-121812405D01*
X127830037Y-122156106D01*
X127806244Y-122499752D01*
X127797190Y-122671472D01*
X127791844Y-122843079D01*
X127791562Y-123014539D01*
X127797704Y-123185820D01*
X127811627Y-123356890D01*
X127834689Y-123527713D01*
X127868250Y-123698259D01*
X127913667Y-123868493D01*
X127972299Y-124038383D01*
X128045504Y-124207895D01*
X128056054Y-124451343D01*
X128075242Y-124696272D01*
X128103953Y-124941969D01*
X128143070Y-125187720D01*
X128193477Y-125432812D01*
X128256060Y-125676532D01*
X128331701Y-125918165D01*
X128421286Y-126156998D01*
X128525699Y-126392317D01*
X128645823Y-126623410D01*
X128782543Y-126849561D01*
X128936744Y-127070059D01*
X129109309Y-127284189D01*
X129301124Y-127491237D01*
X129513071Y-127690490D01*
X129746035Y-127881235D01*
X130102145Y-127718386D01*
X130136971Y-127526931D01*
X130176368Y-127336323D01*
X130265150Y-126957002D01*
X130456561Y-126201373D01*
X130544274Y-125822463D01*
X130582870Y-125632165D01*
X130616717Y-125441088D01*
X130644881Y-125249069D01*
X130666432Y-125055946D01*
X130680436Y-124861556D01*
X130685961Y-124665735D01*
X130785001Y-124428650D01*
X130878400Y-124190355D01*
X131050629Y-123710657D01*
X131207347Y-123227678D01*
X131353257Y-122742454D01*
X131631448Y-121769419D01*
X131773132Y-121283681D01*
X131922808Y-120799845D01*
X131961305Y-120945403D01*
X131990658Y-121091167D01*
X132012240Y-121237108D01*
X132027426Y-121383197D01*
X132037589Y-121529406D01*
X132044104Y-121675707D01*
X132051684Y-121968468D01*
X132061158Y-122261251D01*
X132070040Y-122407579D01*
X132083517Y-122553827D01*
X132102965Y-122699966D01*
X132129755Y-122845968D01*
X132165264Y-122991804D01*
X132210864Y-123137445D01*
X132426140Y-123156895D01*
X132641360Y-123177248D01*
X132741344Y-123061409D01*
X132837724Y-122944025D01*
X132930838Y-122825242D01*
X133021021Y-122705208D01*
X133193944Y-122461971D01*
X133359187Y-122215487D01*
X133997225Y-121220568D01*
X134150866Y-121233140D01*
X134303362Y-121246164D01*
X134289494Y-121452009D01*
X134278971Y-121658087D01*
X134272286Y-121864382D01*
X134269936Y-122070875D01*
X134272414Y-122277550D01*
X134280216Y-122484390D01*
X134293836Y-122691377D01*
X134313769Y-122898493D01*
X134497141Y-122923766D01*
X134680605Y-122947992D01*
X134789511Y-122848112D01*
X134894506Y-122746229D01*
X134995841Y-122642483D01*
X135093769Y-122537015D01*
X135188540Y-122429965D01*
X135280407Y-122321475D01*
X135369619Y-122211686D01*
X135456429Y-122100738D01*
X135623847Y-121875927D01*
X135784673Y-121648171D01*
X135940918Y-121418595D01*
X136094592Y-121188326D01*
X136121738Y-121314396D01*
X136143751Y-121440949D01*
X136161696Y-121567880D01*
X136176639Y-121695084D01*
X136227709Y-122204522D01*
X136243632Y-122331511D01*
X136262949Y-122458142D01*
X136286727Y-122584309D01*
X136316030Y-122709908D01*
X136351926Y-122834832D01*
X136395481Y-122958977D01*
X136447760Y-123082237D01*
X136509829Y-123204508D01*
X136930804Y-123241304D01*
X137133933Y-122631828D01*
X137235428Y-122326678D01*
X137342125Y-122022804D01*
X137457963Y-121721367D01*
X137520540Y-121571925D01*
X137586878Y-121423528D01*
X137657471Y-121276322D01*
X137732809Y-121130450D01*
X137813385Y-120986059D01*
X137899691Y-120843294D01*
X138181742Y-121427051D01*
X138318560Y-121720207D01*
X138448674Y-122014677D01*
X138569158Y-122310806D01*
X138624875Y-122459601D01*
X138677087Y-122608941D01*
X138725430Y-122758868D01*
X138769538Y-122909427D01*
X138809045Y-123060660D01*
X138843584Y-123212610D01*
X139045542Y-123232524D01*
X139247500Y-123253107D01*
X139247317Y-123251764D01*
X139342634Y-123113151D01*
X139429812Y-122972165D01*
X139509671Y-122829048D01*
X139583033Y-122684039D01*
X139650718Y-122537380D01*
X139713547Y-122389309D01*
X139772343Y-122240068D01*
X139827925Y-122089897D01*
X140034543Y-121484714D01*
X140139920Y-121182788D01*
X140196000Y-121032832D01*
X140255434Y-120883867D01*
X140444015Y-121187304D01*
X140622732Y-121494328D01*
X140707288Y-121649186D01*
X140788053Y-121804943D01*
X140864586Y-121961599D01*
X140936446Y-122119153D01*
X141003190Y-122277607D01*
X141064378Y-122436960D01*
X141119567Y-122597214D01*
X141168317Y-122758368D01*
X141210185Y-122920423D01*
X141244731Y-123083379D01*
X141271512Y-123247237D01*
X141290087Y-123411997D01*
X141493088Y-123438373D01*
X141594831Y-123452358D01*
X141696902Y-123466997D01*
X141797717Y-123343747D01*
X141892056Y-123218055D01*
X141980755Y-123090237D01*
X142064652Y-122960608D01*
X142144583Y-122829482D01*
X142221385Y-122697176D01*
X142368954Y-122430283D01*
X142514054Y-122162452D01*
X142663383Y-121896204D01*
X142741726Y-121764463D01*
X142823637Y-121634063D01*
X142909954Y-121505320D01*
X143001513Y-121378550D01*
X143050644Y-121865030D01*
X143073970Y-122108481D01*
X143093514Y-122351911D01*
X143107057Y-122595201D01*
X143112383Y-122838227D01*
X143111271Y-122959604D01*
X143107273Y-123080870D01*
X143100112Y-123202009D01*
X143089510Y-123323008D01*
X143422793Y-123532816D01*
X143543239Y-123435428D01*
X143660161Y-123335932D01*
X143773634Y-123234412D01*
X143883735Y-123130950D01*
X143990540Y-123025631D01*
X144094126Y-122918538D01*
X144194570Y-122809754D01*
X144291947Y-122699362D01*
X144386334Y-122587446D01*
X144477807Y-122474089D01*
X144566444Y-122359374D01*
X144652320Y-122243386D01*
X144735511Y-122126206D01*
X144816095Y-122007920D01*
X144894147Y-121888609D01*
X144969744Y-121768358D01*
X145032221Y-121986198D01*
X145087790Y-122204686D01*
X145137457Y-122423717D01*
X145182228Y-122643187D01*
X145223111Y-122862991D01*
X145261111Y-123083024D01*
X145332491Y-123523355D01*
X145420927Y-123505770D01*
X145504703Y-123484395D01*
X145584059Y-123459424D01*
X145659237Y-123431052D01*
X145730476Y-123399470D01*
X145798018Y-123364873D01*
X145862103Y-123327455D01*
X145922971Y-123287409D01*
X145980864Y-123244928D01*
X146036021Y-123200207D01*
X146088685Y-123153438D01*
X146139094Y-123104816D01*
X146187490Y-123054533D01*
X146234113Y-123002784D01*
X146323004Y-122895661D01*
X146655786Y-122447224D01*
X146742910Y-122337872D01*
X146835456Y-122232719D01*
X146884364Y-122182202D01*
X146935349Y-122133315D01*
X146988651Y-122086253D01*
X147044512Y-122041208D01*
X147074027Y-122048419D01*
X147101747Y-122056978D01*
X147127743Y-122066820D01*
X147152085Y-122077881D01*
X147174844Y-122090097D01*
X147196091Y-122103404D01*
X147215895Y-122117736D01*
X147234328Y-122133031D01*
X147251460Y-122149223D01*
X147267362Y-122166249D01*
X147282104Y-122184044D01*
X147295756Y-122202543D01*
X147308389Y-122221684D01*
X147320075Y-122241400D01*
X147330882Y-122261628D01*
X147340882Y-122282305D01*
X147358742Y-122324743D01*
X147374219Y-122368202D01*
X147387878Y-122412165D01*
X147400283Y-122456120D01*
X147423585Y-122541947D01*
X147435612Y-122582791D01*
X147448641Y-122621569D01*
X147487192Y-122933835D01*
X147516587Y-123246383D01*
X147537375Y-123559091D01*
X147550103Y-123871840D01*
X147555316Y-124184510D01*
X147553563Y-124496979D01*
X147545390Y-124809128D01*
X147531344Y-125120836D01*
X147573009Y-125368138D01*
X147608047Y-125615634D01*
X147636785Y-125863287D01*
X147659548Y-126111056D01*
X147676665Y-126358903D01*
X147688460Y-126606789D01*
X147697392Y-127102519D01*
X147688955Y-127597933D01*
X147665761Y-128092718D01*
X147630420Y-128586561D01*
X147585543Y-129079149D01*
X148225298Y-129278818D01*
X148398858Y-129146167D01*
X148564071Y-129009347D01*
X148721187Y-128868534D01*
X148870456Y-128723902D01*
X149012129Y-128575624D01*
X149146456Y-128423875D01*
X149273686Y-128268830D01*
X149394071Y-128110662D01*
X149615304Y-127785657D01*
X149812156Y-127450255D01*
X149986629Y-127105850D01*
X150140725Y-126753837D01*
X150276444Y-126395609D01*
X150395790Y-126032562D01*
X150500763Y-125666089D01*
X150593365Y-125297586D01*
X150675598Y-124928447D01*
X150749463Y-124560066D01*
X150880099Y-123831156D01*
X150949129Y-123915151D01*
X151014537Y-124000318D01*
X151076605Y-124086558D01*
X151135615Y-124173771D01*
X151191850Y-124261860D01*
X151245593Y-124350726D01*
X151297126Y-124440270D01*
X151346732Y-124530394D01*
X151441291Y-124711989D01*
X151531532Y-124894721D01*
X151708102Y-125260446D01*
X151808984Y-125270314D01*
X151910181Y-125281121D01*
X152011573Y-125292791D01*
X152113039Y-125305246D01*
X152207359Y-125190148D01*
X152294543Y-125072630D01*
X152375299Y-124952931D01*
X152450336Y-124831292D01*
X152520363Y-124707951D01*
X152586089Y-124583148D01*
X152648222Y-124457123D01*
X152707472Y-124330114D01*
X152820157Y-124074107D01*
X152929813Y-123817041D01*
X153042111Y-123560833D01*
X153101023Y-123433649D01*
X153162722Y-123307398D01*
X153218930Y-123433764D01*
X153270834Y-123560842D01*
X153319076Y-123688523D01*
X153364296Y-123816699D01*
X153448234Y-124074107D01*
X153527779Y-124332203D01*
X153608058Y-124590125D01*
X153694201Y-124847011D01*
X153741073Y-124974797D01*
X153791335Y-125102000D01*
X153845626Y-125228512D01*
X153904589Y-125354227D01*
X153911852Y-125370564D01*
X153920292Y-125386106D01*
X153929853Y-125400890D01*
X153940478Y-125414953D01*
X153952114Y-125428330D01*
X153964703Y-125441057D01*
X153978190Y-125453170D01*
X153992519Y-125464706D01*
X154007635Y-125475701D01*
X154023481Y-125486190D01*
X154057143Y-125505796D01*
X154093060Y-125523813D01*
X154130785Y-125540531D01*
X154169873Y-125556238D01*
X154209878Y-125571222D01*
X154290853Y-125600177D01*
X154330932Y-125614726D01*
X154370145Y-125629706D01*
X154408044Y-125645408D01*
X154444186Y-125662119D01*
X154544463Y-125557701D01*
X154641030Y-125451419D01*
X154734054Y-125343385D01*
X154823706Y-125233708D01*
X154910155Y-125122501D01*
X154993571Y-125009873D01*
X155074122Y-124895937D01*
X155151980Y-124780802D01*
X155250298Y-124913912D01*
X155350179Y-125046545D01*
X155452120Y-125178420D01*
X155556622Y-125309256D01*
X155664183Y-125438773D01*
X155775302Y-125566688D01*
X155890478Y-125692721D01*
X156010210Y-125816591D01*
X156123845Y-125696865D01*
X156236866Y-125576610D01*
X156462527Y-125335794D01*
X156500801Y-125345305D01*
X156546925Y-125357270D01*
X156630373Y-125379198D01*
X156657181Y-125396281D01*
X156683580Y-125414164D01*
X156735701Y-125451497D01*
X156787831Y-125489526D01*
X156814241Y-125508278D01*
X156841063Y-125526578D01*
X156868434Y-125544215D01*
X156896491Y-125560982D01*
X156925370Y-125576668D01*
X156955208Y-125591066D01*
X156986142Y-125603965D01*
X157002063Y-125609788D01*
X157018309Y-125615158D01*
X157034897Y-125620049D01*
X157051844Y-125624434D01*
X157069168Y-125628289D01*
X157086886Y-125631586D01*
X157242801Y-125474029D01*
X157385888Y-125311142D01*
X157517169Y-125143400D01*
X157637665Y-124971279D01*
X157748397Y-124795255D01*
X157850386Y-124615802D01*
X157944654Y-124433398D01*
X158032221Y-124248517D01*
X158114109Y-124061636D01*
X158191340Y-123873229D01*
X158335911Y-123493744D01*
X158614092Y-122737406D01*
X158745949Y-122890815D01*
X158865425Y-123048667D01*
X158973190Y-123210533D01*
X159069912Y-123375986D01*
X159156260Y-123544595D01*
X159232904Y-123715934D01*
X159300513Y-123889573D01*
X159359755Y-124065083D01*
X159411300Y-124242037D01*
X159455817Y-124420006D01*
X159493975Y-124598561D01*
X159526442Y-124777274D01*
X159553889Y-124955716D01*
X159576984Y-125133459D01*
X159612795Y-125485132D01*
X159168895Y-125795258D01*
X158721558Y-126104317D01*
X158269526Y-126410271D01*
X157811541Y-126711084D01*
X157766204Y-126646823D01*
X157718325Y-126583750D01*
X157667984Y-126521866D01*
X157615261Y-126461171D01*
X157560234Y-126401663D01*
X157502985Y-126343342D01*
X157443592Y-126286208D01*
X157382136Y-126230260D01*
X157318695Y-126175497D01*
X157253350Y-126121919D01*
X157186180Y-126069526D01*
X157117265Y-126018316D01*
X157046685Y-125968289D01*
X156974518Y-125919446D01*
X156900846Y-125871784D01*
X156825747Y-125825304D01*
X156780403Y-125908503D01*
X156741051Y-125992921D01*
X156707033Y-126078428D01*
X156677690Y-126164893D01*
X156652363Y-126252184D01*
X156630392Y-126340170D01*
X156611119Y-126428720D01*
X156593886Y-126517702D01*
X156532163Y-126875329D01*
X156515241Y-126964504D01*
X156496404Y-127053323D01*
X156474993Y-127141657D01*
X156450350Y-127229372D01*
X156202456Y-127194856D01*
X155955271Y-127158307D01*
X155462801Y-127081469D01*
X155409071Y-127183801D01*
X155363424Y-127287624D01*
X155324961Y-127392777D01*
X155292785Y-127499097D01*
X155266000Y-127606425D01*
X155243706Y-127714598D01*
X155225008Y-127823456D01*
X155209008Y-127932836D01*
X155154032Y-128372366D01*
X155138057Y-128481944D01*
X155119396Y-128591078D01*
X155097150Y-128699606D01*
X155070422Y-128807367D01*
X154945208Y-128784531D01*
X154827497Y-128770662D01*
X154716969Y-128765340D01*
X154613306Y-128768145D01*
X154516187Y-128778657D01*
X154425295Y-128796457D01*
X154340311Y-128821125D01*
X154260915Y-128852242D01*
X154186789Y-128889387D01*
X154117613Y-128932140D01*
X154053069Y-128980083D01*
X153992838Y-129032795D01*
X153936600Y-129089856D01*
X153884037Y-129150847D01*
X153834830Y-129215348D01*
X153788660Y-129282939D01*
X153745208Y-129353200D01*
X153704155Y-129425713D01*
X153627971Y-129575810D01*
X153557555Y-129729873D01*
X153490356Y-129884543D01*
X153423823Y-130036464D01*
X153355403Y-130182275D01*
X153282546Y-130318620D01*
X153243656Y-130382193D01*
X153202700Y-130442141D01*
X152498949Y-129937189D01*
X152012453Y-129899790D01*
X151943859Y-129954186D01*
X151878208Y-130009906D01*
X151755242Y-130125082D01*
X151642564Y-130244854D01*
X151539183Y-130368757D01*
X151444106Y-130496328D01*
X151356342Y-130627103D01*
X151274900Y-130760616D01*
X151198788Y-130896405D01*
X151127014Y-131034005D01*
X151058586Y-131172951D01*
X150927805Y-131453028D01*
X150798509Y-131732922D01*
X150731940Y-131871640D01*
X150662768Y-132008921D01*
X150535204Y-131952847D01*
X150412511Y-131892912D01*
X150294664Y-131829252D01*
X150181641Y-131762003D01*
X150073417Y-131691301D01*
X149969967Y-131617282D01*
X149871268Y-131540083D01*
X149777295Y-131459839D01*
X149688024Y-131376686D01*
X149603431Y-131290762D01*
X149523493Y-131202201D01*
X149448184Y-131111140D01*
X149377481Y-131017715D01*
X149311360Y-130922063D01*
X149249797Y-130824319D01*
X149192767Y-130724619D01*
X149169932Y-130678949D01*
X149144346Y-130635312D01*
X149116121Y-130593636D01*
X149085373Y-130553846D01*
X149052216Y-130515872D01*
X149016764Y-130479638D01*
X148979131Y-130445072D01*
X148939431Y-130412101D01*
X148897779Y-130380653D01*
X148854289Y-130350653D01*
X148809074Y-130322029D01*
X148762250Y-130294708D01*
X148664229Y-130243681D01*
X148561140Y-130196989D01*
X148453897Y-130154047D01*
X148343413Y-130114269D01*
X148230601Y-130077073D01*
X148116377Y-130041872D01*
X147663622Y-129909342D01*
X147533062Y-130010502D01*
X147407767Y-130114719D01*
X147287562Y-130221835D01*
X147172271Y-130331689D01*
X147061717Y-130444122D01*
X146955725Y-130558974D01*
X146854118Y-130676086D01*
X146756720Y-130795298D01*
X146663355Y-130916450D01*
X146573847Y-131039383D01*
X146488019Y-131163938D01*
X146405696Y-131289954D01*
X146326702Y-131417273D01*
X146250860Y-131545734D01*
X146177994Y-131675177D01*
X146107928Y-131805445D01*
X146100197Y-131839326D01*
X146094575Y-131873418D01*
X146090889Y-131907702D01*
X146088970Y-131942160D01*
X146089755Y-132011526D01*
X146095566Y-132081366D01*
X146105046Y-132151532D01*
X146116831Y-132221879D01*
X146141880Y-132362519D01*
X146152423Y-132432518D01*
X146159829Y-132502106D01*
X146162740Y-132571135D01*
X146162083Y-132605393D01*
X146159793Y-132639457D01*
X146155698Y-132673307D01*
X146149629Y-132706926D01*
X146141416Y-132740294D01*
X146130887Y-132773393D01*
X146117875Y-132806204D01*
X146102207Y-132838710D01*
X146083715Y-132870892D01*
X146062228Y-132902731D01*
X145998593Y-132999878D01*
X145940472Y-133098509D01*
X145887501Y-133198511D01*
X145839315Y-133299770D01*
X145795550Y-133402173D01*
X145755842Y-133505608D01*
X145719828Y-133609961D01*
X145687142Y-133715120D01*
X145657420Y-133820971D01*
X145630299Y-133927402D01*
X145582402Y-134141549D01*
X145540536Y-134356657D01*
X145501788Y-134571821D01*
X145320235Y-134395925D01*
X145145227Y-134216614D01*
X144975671Y-134034447D01*
X144810469Y-133849985D01*
X144488747Y-133476412D01*
X144171297Y-133100374D01*
X143849356Y-132726348D01*
X143683963Y-132541489D01*
X143514159Y-132358813D01*
X143338851Y-132178878D01*
X143156941Y-132002246D01*
X142967336Y-131829476D01*
X142768938Y-131661127D01*
X142705572Y-131744671D01*
X142649236Y-131829735D01*
X142599493Y-131916228D01*
X142555912Y-132004060D01*
X142518057Y-132093141D01*
X142485495Y-132183381D01*
X142457791Y-132274690D01*
X142434510Y-132366979D01*
X142399486Y-132554132D01*
X142376948Y-132744120D01*
X142363423Y-132936223D01*
X142355439Y-133129721D01*
X142342197Y-133518019D01*
X142329994Y-133711378D01*
X142309437Y-133903250D01*
X142277055Y-134092915D01*
X142255344Y-134186695D01*
X142229374Y-134279653D01*
X142198711Y-134371698D01*
X142162920Y-134462742D01*
X142121568Y-134552693D01*
X142074221Y-134641462D01*
X141929815Y-134486845D01*
X141789381Y-134329989D01*
X141516636Y-134011672D01*
X140977105Y-133371437D01*
X140837935Y-133213714D01*
X140695156Y-133057982D01*
X140547818Y-132904771D01*
X140394976Y-132754609D01*
X140235680Y-132608026D01*
X140068983Y-132465551D01*
X139893938Y-132327713D01*
X139709597Y-132195040D01*
X139662023Y-132355570D01*
X139619633Y-132516832D01*
X139581799Y-132678736D01*
X139547891Y-132841192D01*
X139489330Y-133167401D01*
X139438912Y-133494742D01*
X139342347Y-134149952D01*
X139286122Y-134476387D01*
X139253819Y-134638998D01*
X139217883Y-134801084D01*
X139170020Y-134631022D01*
X139135105Y-134460714D01*
X139111179Y-134290201D01*
X139096286Y-134119523D01*
X139088469Y-133948717D01*
X139085768Y-133777824D01*
X139087891Y-133435933D01*
X139086994Y-133094162D01*
X139080520Y-132923420D01*
X139067419Y-132752827D01*
X139045733Y-132582420D01*
X139013506Y-132412241D01*
X138968778Y-132242327D01*
X138941116Y-132157482D01*
X138909594Y-132072718D01*
X138580051Y-132307990D01*
X138257549Y-132548366D01*
X137941509Y-132793375D01*
X137631352Y-133042543D01*
X137326497Y-133295399D01*
X137026364Y-133551470D01*
X136730373Y-133810285D01*
X136437945Y-134071371D01*
X136289975Y-134072101D01*
X136142062Y-134072081D01*
X136138442Y-133886109D01*
X136145869Y-133699510D01*
X136162013Y-133512411D01*
X136184546Y-133324939D01*
X136291989Y-132573863D01*
X136311533Y-132386431D01*
X136323492Y-132199389D01*
X136325539Y-132012863D01*
X136315343Y-131826979D01*
X136290576Y-131641866D01*
X136272001Y-131549638D01*
X136248910Y-131457650D01*
X136221012Y-131365918D01*
X136188015Y-131274458D01*
X136149629Y-131183285D01*
X136105563Y-131092417D01*
X135881308Y-131195473D01*
X135669133Y-131307670D01*
X135467774Y-131428057D01*
X135275967Y-131555683D01*
X135092448Y-131689596D01*
X134915954Y-131828846D01*
X134745220Y-131972483D01*
X134578984Y-132119553D01*
X133933731Y-132723165D01*
X133605227Y-133020854D01*
X133435083Y-133165341D01*
X133259325Y-133305654D01*
X133067149Y-133277330D01*
X132874834Y-133250357D01*
X132861253Y-132693839D01*
X132835120Y-132136249D01*
X132793154Y-131578286D01*
X132732073Y-131020648D01*
X132693340Y-130742170D01*
X132648597Y-130464034D01*
X132597434Y-130186329D01*
X132539442Y-129909141D01*
X132474211Y-129632559D01*
X132401329Y-129356668D01*
X132320387Y-129081558D01*
X132230975Y-128807314D01*
X132209965Y-128750243D01*
X132183377Y-128690755D01*
X132151372Y-128630010D01*
X132114109Y-128569173D01*
X132071748Y-128509405D01*
X132024449Y-128451869D01*
X131998998Y-128424301D01*
X131972373Y-128397728D01*
X131944593Y-128372294D01*
X131915678Y-128348144D01*
X131885650Y-128325425D01*
X131854526Y-128304281D01*
X131822328Y-128284858D01*
X131789076Y-128267300D01*
X131754789Y-128251754D01*
X131719488Y-128238365D01*
X131683193Y-128227278D01*
X131645923Y-128218638D01*
X131607698Y-128212590D01*
X131568539Y-128209281D01*
X131528465Y-128208855D01*
X131487498Y-128211457D01*
X131445655Y-128217234D01*
X131402958Y-128226329D01*
X131359427Y-128238890D01*
X131315081Y-128255060D01*
X131123405Y-128331080D01*
X130937178Y-128413144D01*
X130756139Y-128500830D01*
X130580022Y-128593717D01*
X130408564Y-128691384D01*
X130241503Y-128793408D01*
X130078573Y-128899370D01*
X129919512Y-129008846D01*
X129764056Y-129121416D01*
X129611941Y-129236659D01*
X129316681Y-129473474D01*
X129031622Y-129715921D01*
X128754656Y-129960627D01*
X128461277Y-129857007D01*
X128315458Y-129804167D01*
X128170245Y-129750406D01*
X128179210Y-129612180D01*
X128177841Y-129473902D01*
X128166268Y-129335907D01*
X128144620Y-129198529D01*
X128113029Y-129062104D01*
X128071623Y-128926965D01*
X128020535Y-128793448D01*
X127959893Y-128661886D01*
X127889828Y-128532615D01*
X127810470Y-128405970D01*
X127721950Y-128282284D01*
X127624398Y-128161893D01*
X127517944Y-128045130D01*
X127402718Y-127932332D01*
X127278850Y-127823832D01*
X127146471Y-127719965D01*
X127071289Y-127717803D01*
X126996409Y-127717445D01*
X126847483Y-127721562D01*
X126699551Y-127731148D01*
X126552468Y-127745041D01*
X126406091Y-127762074D01*
X126260276Y-127781083D01*
X125969759Y-127820368D01*
X125905523Y-127545371D01*
X125869842Y-127403852D01*
X125829796Y-127261540D01*
X125783889Y-127119852D01*
X125730630Y-126980203D01*
X125668525Y-126844012D01*
X125596079Y-126712693D01*
X125555512Y-126649304D01*
X125511801Y-126587664D01*
X125464757Y-126527950D01*
X125414196Y-126470339D01*
X125359929Y-126415010D01*
X125301770Y-126362137D01*
X125239534Y-126311899D01*
X125173032Y-126264473D01*
X125102078Y-126220035D01*
X125026486Y-126178763D01*
X124946069Y-126140834D01*
X124860641Y-126106424D01*
X124770014Y-126075712D01*
X124674001Y-126048873D01*
X124572417Y-126026085D01*
X124465075Y-126007524D01*
X124331637Y-125778261D01*
X124361811Y-125695645D01*
X124389211Y-125612434D01*
X124413752Y-125528674D01*
X124435350Y-125444416D01*
X124453921Y-125359706D01*
X124469381Y-125274593D01*
X124481648Y-125189127D01*
X124490635Y-125103353D01*
X124496261Y-125017322D01*
X124498440Y-124931082D01*
X124497090Y-124844680D01*
X124492125Y-124758166D01*
X124483463Y-124671586D01*
X124471019Y-124584991D01*
X124454709Y-124498427D01*
X124434451Y-124411943D01*
X123916354Y-124370824D01*
X123787018Y-124358837D01*
X123657962Y-124344969D01*
X123529287Y-124328620D01*
X123401095Y-124309191D01*
X123389822Y-124265168D01*
X123380638Y-124221100D01*
X123367889Y-124132844D01*
X123361546Y-124044459D01*
X123360304Y-123955975D01*
X123362862Y-123867428D01*
X123367916Y-123778849D01*
X123380303Y-123601733D01*
X123385029Y-123513262D01*
X123387041Y-123424894D01*
X123385035Y-123336661D01*
X123377708Y-123248597D01*
X123363758Y-123160736D01*
X123353892Y-123116891D01*
X123341881Y-123073110D01*
X123327563Y-123029396D01*
X123310775Y-122985753D01*
X123291354Y-122942186D01*
X123269137Y-122898699D01*
X123162988Y-122942271D01*
X123059638Y-122988587D01*
X122959062Y-123037545D01*
X122861234Y-123089043D01*
X122766127Y-123142980D01*
X122673717Y-123199254D01*
X122583976Y-123257764D01*
X122496880Y-123318408D01*
X122412402Y-123381085D01*
X122330517Y-123445693D01*
X122251198Y-123512132D01*
X122174420Y-123580298D01*
X122100157Y-123650092D01*
X122028383Y-123721411D01*
X121959072Y-123794154D01*
X121892199Y-123868219D01*
X121357590Y-123458353D01*
X121092528Y-123250098D01*
X120833723Y-123037785D01*
X120707784Y-122929673D01*
X120584748Y-122820029D01*
X120465062Y-122708677D01*
X120349173Y-122595447D01*
X120237528Y-122480164D01*
X120130571Y-122362656D01*
X120028751Y-122242749D01*
X119932513Y-122120272D01*
X119919514Y-122068109D01*
X119909727Y-122016172D01*
X119902998Y-121964453D01*
X119899175Y-121912942D01*
X119898106Y-121861631D01*
X119899637Y-121810511D01*
X119903615Y-121759575D01*
X119909888Y-121708814D01*
X119928707Y-121607781D01*
X119954870Y-121507345D01*
X119987156Y-121407439D01*
X120024342Y-121307994D01*
X120065205Y-121208942D01*
X120108523Y-121110216D01*
X120197633Y-120913470D01*
X120240980Y-120815313D01*
X120281892Y-120717211D01*
X120319146Y-120619096D01*
X120351519Y-120520899D01*
X120504902Y-120563975D01*
%TD*%
D13*
%TO.C,H1*%
X162560000Y-116840000D03*
%TD*%
M02*
