%TF.GenerationSoftware,KiCad,Pcbnew,(6.0.7)*%
%TF.CreationDate,2022-11-12T15:58:39-06:00*%
%TF.ProjectId,chrimbus2022,63687269-6d62-4757-9332-3032322e6b69,rev?*%
%TF.SameCoordinates,Original*%
%TF.FileFunction,Legend,Bot*%
%TF.FilePolarity,Positive*%
%FSLAX46Y46*%
G04 Gerber Fmt 4.6, Leading zero omitted, Abs format (unit mm)*
G04 Created by KiCad (PCBNEW (6.0.7)) date 2022-11-12 15:58:39*
%MOMM*%
%LPD*%
G01*
G04 APERTURE LIST*
G04 Aperture macros list*
%AMRoundRect*
0 Rectangle with rounded corners*
0 $1 Rounding radius*
0 $2 $3 $4 $5 $6 $7 $8 $9 X,Y pos of 4 corners*
0 Add a 4 corners polygon primitive as box body*
4,1,4,$2,$3,$4,$5,$6,$7,$8,$9,$2,$3,0*
0 Add four circle primitives for the rounded corners*
1,1,$1+$1,$2,$3*
1,1,$1+$1,$4,$5*
1,1,$1+$1,$6,$7*
1,1,$1+$1,$8,$9*
0 Add four rect primitives between the rounded corners*
20,1,$1+$1,$2,$3,$4,$5,0*
20,1,$1+$1,$4,$5,$6,$7,0*
20,1,$1+$1,$6,$7,$8,$9,0*
20,1,$1+$1,$8,$9,$2,$3,0*%
G04 Aperture macros list end*
%ADD10C,0.300000*%
%ADD11C,0.250000*%
%ADD12C,0.120000*%
%ADD13C,0.100000*%
%ADD14C,3.200000*%
%ADD15R,1.000000X2.500000*%
%ADD16RoundRect,0.250000X0.400000X0.625000X-0.400000X0.625000X-0.400000X-0.625000X0.400000X-0.625000X0*%
%ADD17C,2.500000*%
%ADD18R,1.400000X2.600000*%
%ADD19C,17.800000*%
%ADD20R,2.600000X5.560000*%
G04 APERTURE END LIST*
D10*
X146652380Y-112029761D02*
X147604761Y-112029761D01*
X147604761Y-110029761D01*
X145604761Y-110029761D02*
X145223809Y-110029761D01*
X145033333Y-110125000D01*
X144842857Y-110315476D01*
X144747619Y-110696428D01*
X144747619Y-111363095D01*
X144842857Y-111744047D01*
X145033333Y-111934523D01*
X145223809Y-112029761D01*
X145604761Y-112029761D01*
X145795238Y-111934523D01*
X145985714Y-111744047D01*
X146080952Y-111363095D01*
X146080952Y-110696428D01*
X145985714Y-110315476D01*
X145795238Y-110125000D01*
X145604761Y-110029761D01*
X144176190Y-110029761D02*
X143509523Y-112029761D01*
X142842857Y-110029761D01*
X142176190Y-110982142D02*
X141509523Y-110982142D01*
X141223809Y-112029761D02*
X142176190Y-112029761D01*
X142176190Y-110029761D01*
X141223809Y-110029761D01*
X140271428Y-111934523D02*
X140271428Y-112029761D01*
X140366666Y-112220238D01*
X140461904Y-112315476D01*
X137319047Y-110029761D02*
X137319047Y-111458333D01*
X137414285Y-111744047D01*
X137604761Y-111934523D01*
X137890476Y-112029761D01*
X138080952Y-112029761D01*
X136461904Y-111458333D02*
X135509523Y-111458333D01*
X136652380Y-112029761D02*
X135985714Y-110029761D01*
X135319047Y-112029761D01*
X134652380Y-112029761D02*
X134652380Y-110029761D01*
X133509523Y-112029761D02*
X134366666Y-110886904D01*
X133509523Y-110029761D02*
X134652380Y-111172619D01*
X132652380Y-110982142D02*
X131985714Y-110982142D01*
X131699999Y-112029761D02*
X132652380Y-112029761D01*
X132652380Y-110029761D01*
X131699999Y-110029761D01*
X157652380Y-108854761D02*
X157652380Y-106854761D01*
X156985714Y-108283333D01*
X156319047Y-106854761D01*
X156319047Y-108854761D01*
X155366666Y-107807142D02*
X154700000Y-107807142D01*
X154414285Y-108854761D02*
X155366666Y-108854761D01*
X155366666Y-106854761D01*
X154414285Y-106854761D01*
X152414285Y-108854761D02*
X153080952Y-107902380D01*
X153557142Y-108854761D02*
X153557142Y-106854761D01*
X152795238Y-106854761D01*
X152604761Y-106950000D01*
X152509523Y-107045238D01*
X152414285Y-107235714D01*
X152414285Y-107521428D01*
X152509523Y-107711904D01*
X152604761Y-107807142D01*
X152795238Y-107902380D01*
X153557142Y-107902380D01*
X150414285Y-108854761D02*
X151080952Y-107902380D01*
X151557142Y-108854761D02*
X151557142Y-106854761D01*
X150795238Y-106854761D01*
X150604761Y-106950000D01*
X150509523Y-107045238D01*
X150414285Y-107235714D01*
X150414285Y-107521428D01*
X150509523Y-107711904D01*
X150604761Y-107807142D01*
X150795238Y-107902380D01*
X151557142Y-107902380D01*
X149176190Y-107902380D02*
X149176190Y-108854761D01*
X149842857Y-106854761D02*
X149176190Y-107902380D01*
X148509523Y-106854761D01*
X145176190Y-108664285D02*
X145271428Y-108759523D01*
X145557142Y-108854761D01*
X145747619Y-108854761D01*
X146033333Y-108759523D01*
X146223809Y-108569047D01*
X146319047Y-108378571D01*
X146414285Y-107997619D01*
X146414285Y-107711904D01*
X146319047Y-107330952D01*
X146223809Y-107140476D01*
X146033333Y-106950000D01*
X145747619Y-106854761D01*
X145557142Y-106854761D01*
X145271428Y-106950000D01*
X145176190Y-107045238D01*
X144319047Y-108854761D02*
X144319047Y-106854761D01*
X144319047Y-107807142D02*
X143176190Y-107807142D01*
X143176190Y-108854761D02*
X143176190Y-106854761D01*
X141080952Y-108854761D02*
X141747619Y-107902380D01*
X142223809Y-108854761D02*
X142223809Y-106854761D01*
X141461904Y-106854761D01*
X141271428Y-106950000D01*
X141176190Y-107045238D01*
X141080952Y-107235714D01*
X141080952Y-107521428D01*
X141176190Y-107711904D01*
X141271428Y-107807142D01*
X141461904Y-107902380D01*
X142223809Y-107902380D01*
X140223809Y-108854761D02*
X140223809Y-106854761D01*
X139366666Y-108759523D02*
X139080952Y-108854761D01*
X138604761Y-108854761D01*
X138414285Y-108759523D01*
X138319047Y-108664285D01*
X138223809Y-108473809D01*
X138223809Y-108283333D01*
X138319047Y-108092857D01*
X138414285Y-107997619D01*
X138604761Y-107902380D01*
X138985714Y-107807142D01*
X139176190Y-107711904D01*
X139271428Y-107616666D01*
X139366666Y-107426190D01*
X139366666Y-107235714D01*
X139271428Y-107045238D01*
X139176190Y-106950000D01*
X138985714Y-106854761D01*
X138509523Y-106854761D01*
X138223809Y-106950000D01*
X137652380Y-106854761D02*
X136509523Y-106854761D01*
X137080952Y-108854761D02*
X137080952Y-106854761D01*
X135842857Y-108854761D02*
X135842857Y-106854761D01*
X135176190Y-108283333D01*
X134509523Y-106854761D01*
X134509523Y-108854761D01*
X133652380Y-108283333D02*
X132700000Y-108283333D01*
X133842857Y-108854761D02*
X133176190Y-106854761D01*
X132509523Y-108854761D01*
X131938095Y-108759523D02*
X131652380Y-108854761D01*
X131176190Y-108854761D01*
X130985714Y-108759523D01*
X130890476Y-108664285D01*
X130795238Y-108473809D01*
X130795238Y-108283333D01*
X130890476Y-108092857D01*
X130985714Y-107997619D01*
X131176190Y-107902380D01*
X131557142Y-107807142D01*
X131747619Y-107711904D01*
X131842857Y-107616666D01*
X131938095Y-107426190D01*
X131938095Y-107235714D01*
X131842857Y-107045238D01*
X131747619Y-106950000D01*
X131557142Y-106854761D01*
X131080952Y-106854761D01*
X130795238Y-106950000D01*
X128509523Y-107045238D02*
X128414285Y-106950000D01*
X128223809Y-106854761D01*
X127747619Y-106854761D01*
X127557142Y-106950000D01*
X127461904Y-107045238D01*
X127366666Y-107235714D01*
X127366666Y-107426190D01*
X127461904Y-107711904D01*
X128604761Y-108854761D01*
X127366666Y-108854761D01*
X126128571Y-106854761D02*
X125938095Y-106854761D01*
X125747619Y-106950000D01*
X125652380Y-107045238D01*
X125557142Y-107235714D01*
X125461904Y-107616666D01*
X125461904Y-108092857D01*
X125557142Y-108473809D01*
X125652380Y-108664285D01*
X125747619Y-108759523D01*
X125938095Y-108854761D01*
X126128571Y-108854761D01*
X126319047Y-108759523D01*
X126414285Y-108664285D01*
X126509523Y-108473809D01*
X126604761Y-108092857D01*
X126604761Y-107616666D01*
X126509523Y-107235714D01*
X126414285Y-107045238D01*
X126319047Y-106950000D01*
X126128571Y-106854761D01*
X124700000Y-107045238D02*
X124604761Y-106950000D01*
X124414285Y-106854761D01*
X123938095Y-106854761D01*
X123747619Y-106950000D01*
X123652380Y-107045238D01*
X123557142Y-107235714D01*
X123557142Y-107426190D01*
X123652380Y-107711904D01*
X124795238Y-108854761D01*
X123557142Y-108854761D01*
X122795238Y-107045238D02*
X122700000Y-106950000D01*
X122509523Y-106854761D01*
X122033333Y-106854761D01*
X121842857Y-106950000D01*
X121747619Y-107045238D01*
X121652380Y-107235714D01*
X121652380Y-107426190D01*
X121747619Y-107711904D01*
X122890476Y-108854761D01*
X121652380Y-108854761D01*
D11*
X132853809Y-91390476D02*
X132615714Y-91390476D01*
X132496666Y-91450000D01*
X132377619Y-91569047D01*
X132318095Y-91807142D01*
X132318095Y-92223809D01*
X132377619Y-92461904D01*
X132496666Y-92580952D01*
X132615714Y-92640476D01*
X132853809Y-92640476D01*
X132972857Y-92580952D01*
X133091904Y-92461904D01*
X133151428Y-92223809D01*
X133151428Y-91807142D01*
X133091904Y-91569047D01*
X132972857Y-91450000D01*
X132853809Y-91390476D01*
X131782380Y-92640476D02*
X131782380Y-91390476D01*
X131068095Y-92640476D01*
X131068095Y-91390476D01*
X147240476Y-91390476D02*
X147002380Y-91390476D01*
X146883333Y-91450000D01*
X146764285Y-91569047D01*
X146704761Y-91807142D01*
X146704761Y-92223809D01*
X146764285Y-92461904D01*
X146883333Y-92580952D01*
X147002380Y-92640476D01*
X147240476Y-92640476D01*
X147359523Y-92580952D01*
X147478571Y-92461904D01*
X147538095Y-92223809D01*
X147538095Y-91807142D01*
X147478571Y-91569047D01*
X147359523Y-91450000D01*
X147240476Y-91390476D01*
X145752380Y-91985714D02*
X146169047Y-91985714D01*
X146169047Y-92640476D02*
X146169047Y-91390476D01*
X145573809Y-91390476D01*
X144680952Y-91985714D02*
X145097619Y-91985714D01*
X145097619Y-92640476D02*
X145097619Y-91390476D01*
X144502380Y-91390476D01*
D12*
%TO.C,R2*%
X151222064Y-112120000D02*
X149767936Y-112120000D01*
X151222064Y-113940000D02*
X149767936Y-113940000D01*
%TO.C,R1*%
X125822064Y-112120000D02*
X124367936Y-112120000D01*
X125822064Y-113940000D02*
X124367936Y-113940000D01*
%TO.C,D2*%
G36*
X149165000Y-105410000D02*
G01*
X148530000Y-105410000D01*
X149165000Y-104775000D01*
X149165000Y-105410000D01*
G37*
D13*
X149165000Y-105410000D02*
X148530000Y-105410000D01*
X149165000Y-104775000D01*
X149165000Y-105410000D01*
%TO.C,D1*%
G36*
X130115000Y-103505000D02*
G01*
X129480000Y-103505000D01*
X130115000Y-102870000D01*
X130115000Y-103505000D01*
G37*
X130115000Y-103505000D02*
X129480000Y-103505000D01*
X130115000Y-102870000D01*
X130115000Y-103505000D01*
D12*
%TO.C,BT1*%
X130202090Y-129980000D02*
G75*
G03*
X147927910Y-129980000I8862910J4885000D01*
G01*
X147930021Y-120213832D02*
G75*
G03*
X130202090Y-120210000I-8865021J-4881167D01*
G01*
X149535000Y-128095000D02*
X149535000Y-129980000D01*
X149535000Y-122095000D02*
X149535000Y-120210000D01*
X149535000Y-129980000D02*
X147927910Y-129980000D01*
X128595000Y-122095000D02*
X128595000Y-120210000D01*
X128595000Y-128095000D02*
X128595000Y-129980000D01*
X149535000Y-120210000D02*
X147927910Y-120210000D01*
X128595000Y-120210000D02*
X130202090Y-120210000D01*
X128595000Y-129980000D02*
X130202090Y-129980000D01*
%TD*%
%LPC*%
D14*
%TO.C,H1*%
X162560000Y-116840000D03*
%TD*%
D15*
%TO.C,SW1*%
X136565000Y-94825000D03*
X139065000Y-89325000D03*
X141565000Y-94825000D03*
%TD*%
D16*
%TO.C,R2*%
X152045000Y-113030000D03*
X148945000Y-113030000D03*
%TD*%
%TO.C,R1*%
X126645000Y-113030000D03*
X123545000Y-113030000D03*
%TD*%
D17*
%TO.C,D2*%
X147260000Y-104140000D03*
D18*
X144660000Y-104140000D03*
X149860000Y-104140000D03*
%TD*%
D17*
%TO.C,D1*%
X128210000Y-102235000D03*
D18*
X125610000Y-102235000D03*
X130810000Y-102235000D03*
%TD*%
D19*
%TO.C,BT1*%
X139065000Y-125095000D03*
D20*
X150970000Y-125095000D03*
X127160000Y-125095000D03*
%TD*%
M02*
