%TF.GenerationSoftware,KiCad,Pcbnew,(6.0.7)*%
%TF.CreationDate,2022-11-12T15:58:38-06:00*%
%TF.ProjectId,chrimbus2022,63687269-6d62-4757-9332-3032322e6b69,rev?*%
%TF.SameCoordinates,Original*%
%TF.FileFunction,Copper,L2,Bot*%
%TF.FilePolarity,Positive*%
%FSLAX46Y46*%
G04 Gerber Fmt 4.6, Leading zero omitted, Abs format (unit mm)*
G04 Created by KiCad (PCBNEW (6.0.7)) date 2022-11-12 15:58:38*
%MOMM*%
%LPD*%
G01*
G04 APERTURE LIST*
G04 Aperture macros list*
%AMRoundRect*
0 Rectangle with rounded corners*
0 $1 Rounding radius*
0 $2 $3 $4 $5 $6 $7 $8 $9 X,Y pos of 4 corners*
0 Add a 4 corners polygon primitive as box body*
4,1,4,$2,$3,$4,$5,$6,$7,$8,$9,$2,$3,0*
0 Add four circle primitives for the rounded corners*
1,1,$1+$1,$2,$3*
1,1,$1+$1,$4,$5*
1,1,$1+$1,$6,$7*
1,1,$1+$1,$8,$9*
0 Add four rect primitives between the rounded corners*
20,1,$1+$1,$2,$3,$4,$5,0*
20,1,$1+$1,$4,$5,$6,$7,0*
20,1,$1+$1,$6,$7,$8,$9,0*
20,1,$1+$1,$8,$9,$2,$3,0*%
G04 Aperture macros list end*
%TA.AperFunction,SMDPad,CuDef*%
%ADD10R,1.000000X2.500000*%
%TD*%
%TA.AperFunction,SMDPad,CuDef*%
%ADD11RoundRect,0.250000X0.400000X0.625000X-0.400000X0.625000X-0.400000X-0.625000X0.400000X-0.625000X0*%
%TD*%
%TA.AperFunction,SMDPad,CuDef*%
%ADD12R,1.400000X2.600000*%
%TD*%
%TA.AperFunction,SMDPad,CuDef*%
%ADD13C,17.800000*%
%TD*%
%TA.AperFunction,SMDPad,CuDef*%
%ADD14R,2.600000X5.560000*%
%TD*%
%TA.AperFunction,Conductor*%
%ADD15C,0.250000*%
%TD*%
G04 APERTURE END LIST*
D10*
%TO.P,SW1,3,C*%
%TO.N,Net-(SW1-Pad3)*%
X136565000Y-94825000D03*
%TO.P,SW1,2,B*%
%TO.N,+3V3*%
X139065000Y-89325000D03*
%TO.P,SW1,1,A*%
%TO.N,unconnected-(SW1-Pad1)*%
X141565000Y-94825000D03*
%TD*%
D11*
%TO.P,R2,1*%
%TO.N,+3V3*%
X152045000Y-113030000D03*
%TO.P,R2,2*%
%TO.N,Net-(D2-Pad2)*%
X148945000Y-113030000D03*
%TD*%
%TO.P,R1,1*%
%TO.N,+3V3*%
X126645000Y-113030000D03*
%TO.P,R1,2*%
%TO.N,Net-(D1-Pad2)*%
X123545000Y-113030000D03*
%TD*%
D12*
%TO.P,D2,2,A*%
%TO.N,Net-(D2-Pad2)*%
X144660000Y-104140000D03*
%TO.P,D2,1,K*%
%TO.N,GND*%
X149860000Y-104140000D03*
%TD*%
%TO.P,D1,2,A*%
%TO.N,Net-(D1-Pad2)*%
X125610000Y-102235000D03*
%TO.P,D1,1,K*%
%TO.N,GND*%
X130810000Y-102235000D03*
%TD*%
D13*
%TO.P,BT1,2,-*%
%TO.N,GND*%
X139065000Y-125095000D03*
D14*
%TO.P,BT1,1,+*%
%TO.N,Net-(SW1-Pad3)*%
X150970000Y-125095000D03*
X127160000Y-125095000D03*
%TD*%
D15*
%TO.N,+3V3*%
X131655000Y-89325000D02*
X139065000Y-89325000D01*
X120015000Y-100965000D02*
X131655000Y-89325000D01*
X120015000Y-114935000D02*
X120015000Y-100965000D01*
X120650000Y-115570000D02*
X120015000Y-114935000D01*
X124105000Y-115570000D02*
X120650000Y-115570000D01*
X126645000Y-113030000D02*
X124105000Y-115570000D01*
%TO.N,Net-(SW1-Pad3)*%
X150970000Y-129700000D02*
X150970000Y-125095000D01*
X142875000Y-137795000D02*
X150970000Y-129700000D01*
X127160000Y-131605000D02*
X133350000Y-137795000D01*
X133350000Y-137795000D02*
X142875000Y-137795000D01*
X127160000Y-125095000D02*
X127160000Y-131605000D01*
%TO.N,+3V3*%
X152045000Y-114655000D02*
X152045000Y-113030000D01*
X151130000Y-115570000D02*
X152045000Y-114655000D01*
X145415000Y-115570000D02*
X151130000Y-115570000D01*
X142875000Y-113030000D02*
X145415000Y-115570000D01*
X126645000Y-113030000D02*
X142875000Y-113030000D01*
%TO.N,GND*%
X146050000Y-100330000D02*
X132715000Y-100330000D01*
X149860000Y-104140000D02*
X146050000Y-100330000D01*
X132715000Y-100330000D02*
X130810000Y-102235000D01*
X150495000Y-104140000D02*
X149860000Y-104140000D01*
X153670000Y-107315000D02*
X150495000Y-104140000D01*
X153670000Y-116205000D02*
X153670000Y-107315000D01*
X146050000Y-118110000D02*
X151765000Y-118110000D01*
X151765000Y-118110000D02*
X153670000Y-116205000D01*
X139065000Y-125095000D02*
X146050000Y-118110000D01*
%TO.N,Net-(SW1-Pad3)*%
X154940000Y-104775000D02*
X154940000Y-121125000D01*
X148590000Y-98425000D02*
X154940000Y-104775000D01*
X140165000Y-98425000D02*
X148590000Y-98425000D01*
X136565000Y-94825000D02*
X140165000Y-98425000D01*
X154940000Y-121125000D02*
X150970000Y-125095000D01*
%TO.N,Net-(D1-Pad2)*%
X125610000Y-110965000D02*
X125610000Y-102235000D01*
X123545000Y-113030000D02*
X125610000Y-110965000D01*
%TO.N,Net-(D2-Pad2)*%
X144660000Y-108745000D02*
X148945000Y-113030000D01*
X144660000Y-104140000D02*
X144660000Y-108745000D01*
%TD*%
M02*
