<?xml version="1.0" encoding="UTF-8" standalone="no"?>
<svg
   xmlns:dc="http://purl.org/dc/elements/1.1/"
   xmlns:cc="http://creativecommons.org/ns#"
   xmlns:rdf="http://www.w3.org/1999/02/22-rdf-syntax-ns#"
   xmlns:svg="http://www.w3.org/2000/svg"
   xmlns="http://www.w3.org/2000/svg"
   xmlns:sodipodi="http://sodipodi.sourceforge.net/DTD/sodipodi-0.dtd"
   xmlns:inkscape="http://www.inkscape.org/namespaces/inkscape"
   width="81.280022mm"
   height="88.900002mm"
   viewBox="0 0 81.280022 88.900002"
   version="1.1"
   id="svg3362"
   sodipodi:docname="copper.svg"
   inkscape:version="1.0.2-2 (e86c870879, 2021-01-15)"
   inkscape:export-filename="C:\Users\jake\Documents\projects\chrimbus2022\art\layers\copper.png"
   inkscape:export-xdpi="149.99997"
   inkscape:export-ydpi="149.99997">
  <sodipodi:namedview
     pagecolor="#ffffff"
     bordercolor="#666666"
     borderopacity="1"
     objecttolerance="10"
     gridtolerance="10"
     guidetolerance="10"
     inkscape:pageopacity="0"
     inkscape:pageshadow="2"
     inkscape:window-width="1748"
     inkscape:window-height="1051"
     id="namedview4868"
     showgrid="false"
     inkscape:zoom="1.8519463"
     inkscape:cx="124.36432"
     inkscape:cy="159.65699"
     inkscape:window-x="163"
     inkscape:window-y="-9"
     inkscape:window-maximized="1"
     inkscape:current-layer="layer1" />
  <defs
     id="defs3356" />
  <metadata
     id="metadata3359">
    <rdf:RDF>
      <cc:Work
         rdf:about="">
        <dc:format>image/svg+xml</dc:format>
        <dc:type
           rdf:resource="http://purl.org/dc/dcmitype/StillImage" />
        <dc:title></dc:title>
      </cc:Work>
    </rdf:RDF>
  </metadata>
  <g
     id="layer1"
     transform="translate(-183.93832,-6.7348415)">
    <rect
       style="display:inline;fill:none;stroke:#000000;stroke-width:0.230414;stroke-miterlimit:4;stroke-dasharray:none;stroke-opacity:1"
       id="rect3276"
       width="81.049606"
       height="88.669586"
       x="184.05353"
       y="6.8500485" />
    <path
       id="path12"
       d="m 223.62166,25.975159 c 0.48067,-0.23731 1.07196,-0.17898 1.50335,0.13785 0.94022,0.71096 1.82413,1.49832 2.79149,2.17507 -0.0674,-0.29866 -0.16792,-0.59229 -0.19105,-0.89898 0.0734,-0.31275 0.46157,-0.40828 0.72401,-0.27454 1.94279,0.78134 3.65227,2.0373 5.21494,3.41295 0,-0.78033 -0.0674,-1.57676 0.0996,-2.34401 0.10361,-0.33082 0.54603,-0.31174 0.77027,-0.11763 2.66679,1.86634 5.14355,4.05651 7.08734,6.68208 1.87037,2.51697 3.16656,5.50455 3.46622,8.64298 0.179,1.983 0.0855,4.06353 -0.76222,5.89772 -0.70492,1.55161 -1.99105,2.79751 -3.51653,3.53864 -2.94232,1.44704 -6.31102,1.47922 -9.5168,1.37062 -3.22893,-0.10361 -6.44376,-0.43945 -9.66866,-0.59732 -3.96702,-0.19708 -7.87772,-0.92816 -11.77737,-1.63708 -1.79596,-0.36906 -3.61607,-0.81455 -5.21695,-1.73865 -1.14435,-0.65063 -2.14591,-1.69341 -2.41239,-3.01977 -0.76726,-3.10423 0.26548,-6.32209 1.68435,-9.0804 1.3505,-2.60545 3.14646,-4.97057 5.21494,-7.0471 1.31329,-1.26403 2.7211,-2.49185 4.40445,-3.23195 0.29664,-0.12975 0.75318,-0.28056 0.96033,0.0684 0.0583,0.33384 -0.0241,0.67473 -0.0231,1.0116 1.33742,-0.97039 2.48881,-2.31083 4.13796,-2.75931 0.31877,-0.0985 0.82558,-0.19911 0.94424,0.22726 0.0221,0.67675 -0.58424,1.18456 -0.74212,1.802 0.17296,0.42435 0.81653,0.3238 1.19061,0.26448 1.24893,-0.7713 2.22736,-1.96493 3.63316,-2.48481 m -7.28945,8.60577 c -2.58937,0.52591 -4.80366,2.40031 -6.06969,4.67996 -0.86781,1.50537 -0.97843,3.61105 0.31776,4.91327 1.76983,1.73865 4.54221,2.16401 6.88522,1.57474 1.7849,-0.48065 3.30936,-2.00712 3.58691,-3.86445 0.25642,-1.68836 -0.26246,-3.38477 -0.98346,-4.89716 -0.35497,-0.70793 -0.65363,-1.5124 -1.34447,-1.96692 -0.68586,-0.49374 -1.57882,-0.57519 -2.39233,-0.43944 m 11.97345,1.31529 c -0.99453,0.0775 -1.85128,0.73207 -2.32691,1.58682 -1.03073,1.66121 -1.77184,3.608 -1.6019,5.59102 0.14682,1.88347 1.38972,3.62914 3.11026,4.40343 2.2877,0.96839 5.12142,0.92112 7.23917,-0.44647 1.39677,-0.87987 1.982,-2.68188 1.56672,-4.24958 -0.44348,-1.90657 -1.67331,-3.53263 -3.10526,-4.82478 -1.35552,-1.14737 -3.03785,-2.18815 -4.88208,-2.06044 m -9.06129,11.24441 c -0.94424,0.23832 -1.55664,1.04982 -2.22032,1.69842 -0.41129,0.47564 -0.89899,0.96938 -0.98849,1.61999 -0.0362,0.39622 0.3962,0.68783 0.76324,0.56112 1.20971,-0.27653 2.25954,-1.02972 3.0992,-1.92267 0.39217,-0.38212 0.8648,-0.88189 0.71094,-1.4782 -0.21921,-0.50581 -0.88591,-0.5933 -1.36457,-0.47866 m 3.82925,0.31676 c -0.60938,0.0291 -1.06792,0.68783 -0.73608,1.24591 0.78133,1.49028 2.07954,2.74222 3.64824,3.37776 0.50077,0.22624 0.96535,-0.33989 0.82256,-0.81352 -0.22524,-0.9181 -0.88591,-1.6381 -1.42691,-2.38624 -0.55106,-0.72402 -1.32133,-1.50033 -2.30781,-1.42391 z"
       inkscape:connector-curvature="0"
       style="display:inline;fill:#3a7bb5;stroke-width:0.100558" />
    <path
       style="display:inline;fill:#3a7bb5;fill-opacity:1;stroke-width:0.119218"
       inkscape:connector-curvature="0"
       id="path25"
       d="m 234.27048,56.836369 c 1.55219,0.0577 3.2491,-0.18273 4.68543,0.46536 0.83889,0.33203 1.80019,0.34942 2.66692,0.61821 0.83007,0.25736 1.65541,0.60054 2.56531,0.59906 0.76553,-0.009 1.48706,0.21222 2.17237,0.46513 1.25649,1.30051 1.98049,2.85002 2.07794,4.41555 -0.96335,0.56438 -1.93041,1.15514 -2.55449,1.95652 -0.95556,1.0495 -0.82597,2.47109 -1.90581,3.4738 -2.4503,2.53627 -5.20846,4.9389 -8.49463,6.9012 -1.44161,0.86328 -3.17216,1.4088 -4.85094,1.98449 -2.31052,0.60354 -4.91531,0.69486 -7.3628,0.23235 -2.28515,-0.19684 -4.35702,-1.07706 -6.36706,-1.89851 -2.01046,-0.7209 -3.87175,-1.75923 -5.2095,-3.1038 -2.24471,-2.14238 -4.21799,-4.43653 -5.85892,-6.84528 -0.46195,-0.7168 -0.98819,-1.44843 -1.03996,-2.24431 -0.0482,-0.82119 -0.48206,-1.60328 -0.87801,-2.37279 -0.42757,-0.79078 -1.19505,-1.4922 -1.37879,-2.34271 -0.22709,-0.96105 0.2449,-1.90611 0.98648,-2.64694 0.62787,-0.62145 1.1285,-1.3197 1.8983,-1.85687 1.11862,0.0374 2.21107,0.29402 3.32247,0.41385 1.16407,0.34712 2.31166,-0.12212 3.48686,0.0659 1.64139,0.21852 3.34026,0.051 4.93117,0.51147 1.88882,0.27712 3.82327,0.2719 5.70268,0.60874 2.29692,0.71621 4.78248,0.53646 7.14524,0.40447 1.40328,-0.18616 2.85422,-0.0397 4.25974,0.19511 m -23.83224,-0.40796 c -1.5744,-0.34609 -3.22723,-0.41783 -4.81403,-0.23951 -0.20311,0.009 -0.42723,0.1464 -0.37327,0.31117 0.14709,0.79088 0.20301,1.5871 0.40188,2.37633 -0.0777,-0.0211 -0.23167,-0.0632 -0.30788,-0.0854 -0.15748,0.52404 -0.57534,1.04171 -0.41901,1.59938 0.49759,0.66037 1.2524,1.20367 1.95968,1.74795 -0.73016,0.64224 -1.17953,1.64778 -0.46795,2.44595 0.39719,0.37241 0.21237,0.85815 0.45832,1.26866 0.25246,0.54347 1.18832,0.72389 1.34225,1.30905 0.23778,0.6633 0.91396,1.1484 1.72835,1.44135 0.58985,0.77007 1.45422,1.43277 2.62171,1.69297 1.06037,1.03805 2.42706,2.16345 4.30773,2.16685 0.95505,0.71068 2.26772,1.3849 3.64137,1.25053 0.86876,0.7719 2.3718,0.78535 3.46161,0.40242 1.08678,0.48098 2.58128,0.89501 3.5899,0.19603 1.18155,0.38665 2.484,0.0614 3.46803,-0.40478 0.53335,-0.3064 1.25563,-0.0135 1.86641,-0.13635 1.23037,-0.20335 2.24467,-0.79201 3.07297,-1.45545 1.0638,0.009 2.00025,-0.39053 2.58863,-1.00722 0.30094,-0.39345 1.05225,-0.17685 1.42106,-0.50073 0.56366,-0.43 1.35806,-0.68996 1.67195,-1.27935 0.60452,-0.3864 1.04771,-0.89057 1.10725,-1.50735 0.5783,-0.3579 0.98547,-0.89703 0.86696,-1.48832 -0.1491,-0.54369 -0.49252,-1.05306 -0.82706,-1.55136 0.61519,-0.39676 1.21111,-0.81264 1.80124,-1.22596 -0.0805,-0.92873 -0.26127,-1.94216 -0.9987,-2.74771 0.0886,-0.42334 0.18147,-0.84628 0.25916,-1.27159 -0.97706,-0.21993 -1.98866,-0.23658 -2.98185,-0.36761 -1.94063,-0.19545 -3.81356,-0.76575 -5.77193,-0.82214 -1.50355,-0.0556 -2.95105,-0.46447 -4.42242,-0.68045 -1.50118,0.1407 -3.03021,0.10554 -4.55212,0.0204 -1.32761,0.24615 -2.72007,-0.0584 -3.98019,-0.45598 -1.1209,-0.0591 -2.11491,-0.56375 -3.23349,-0.6175 -1.61648,-0.13635 -3.23417,-0.27474 -4.84949,-0.42427 -1.2305,-0.16206 -2.40676,0.34777 -3.63707,0.0399 z" />
  </g>
</svg>
