999
"DXF R12 Output" (www.mydxf.blogspot.com)
 0 
SECTION
 2 
HEADER
 9 
$ACADVER
 1 
AC1009
 9 
$EXTMIN
 10 
 0 
 20 
 0 
 9 
$EXTMAX
 10 
 8.5 
 20 
 11 
 0 
ENDSEC
 0 
SECTION
 2 
ENTITIES
0
LINE
8
Layer 1
10
27.541300
20
-12.040300
11
27.892392
21
-12.035688
0
LINE
8
Layer 1
10
27.892392
20
-12.035688
11
28.216453
21
-12.164320
0
LINE
8
Layer 1
10
28.216453
20
-12.164320
11
28.595889
21
-12.719425
0
LINE
8
Layer 1
10
28.595889
20
-12.719425
11
28.838109
21
-13.391847
0
LINE
8
Layer 1
10
28.838109
20
-13.391847
11
28.873443
21
-14.101515
0
LINE
8
Layer 1
10
28.873443
20
-14.101515
11
28.526821
21
-14.792525
0
LINE
8
Layer 1
10
28.526821
20
-14.792525
11
27.861143
21
-15.192145
0
LINE
8
Layer 1
10
27.861143
20
-15.192145
11
26.828900
21
-15.216303
0
LINE
8
Layer 1
10
26.828900
20
-15.216303
11
26.339332
21
-15.047555
0
LINE
8
Layer 1
10
26.339332
20
-15.047555
11
25.917983
21
-14.747719
0
LINE
8
Layer 1
10
25.917983
20
-14.747719
11
25.715201
21
-14.435755
0
LINE
8
Layer 1
10
25.715201
20
-14.435755
11
25.644119
21
-14.075900
0
LINE
8
Layer 1
10
25.644119
20
-14.075900
11
25.828303
21
-13.361089
0
LINE
8
Layer 1
10
25.828303
20
-13.361089
11
26.544749
21
-12.515093
0
LINE
8
Layer 1
10
26.544749
20
-12.515093
11
27.541303
21
-12.040299
0
LINE
8
Layer 1
10
27.795017
20
-13.541869
11
27.487093
21
-13.715902
0
LINE
8
Layer 1
10
27.487093
20
-13.715902
11
27.318983
21
-14.022088
0
LINE
8
Layer 1
10
27.318983
20
-14.022088
11
27.313755
21
-14.371537
0
LINE
8
Layer 1
10
27.313755
20
-14.371537
11
27.494476
21
-14.675359
0
LINE
8
Layer 1
10
27.494476
20
-14.675359
11
27.793487
21
-14.846980
0
LINE
8
Layer 1
10
27.793487
20
-14.846980
11
28.134403
21
-14.840634
0
LINE
8
Layer 1
10
28.134403
20
-14.840634
11
28.434613
21
-14.678431
0
LINE
8
Layer 1
10
28.434613
20
-14.678431
11
28.611506
21
-14.382480
0
LINE
8
Layer 1
10
28.611506
20
-14.382480
11
28.620738
21
-14.029320
0
LINE
8
Layer 1
10
28.620738
20
-14.029320
11
28.445059
21
-13.727830
0
LINE
8
Layer 1
10
28.445059
20
-13.727830
11
28.148483
21
-13.543513
0
LINE
8
Layer 1
10
28.148483
20
-13.543513
11
27.795022
21
-13.541873
0
LINE
8
Layer 1
10
27.795022
20
-13.541873
11
27.795017
21
-13.541869
0
LINE
8
Layer 1
10
30.920400
20
-12.411500
11
31.661041
21
-12.567304
0
LINE
8
Layer 1
10
31.661041
20
-12.567304
11
32.298240
21
-12.992999
0
LINE
8
Layer 1
10
32.298240
20
-12.992999
11
32.841037
21
-13.608804
0
LINE
8
Layer 1
10
32.841037
20
-13.608804
11
33.174604
21
-14.354659
0
LINE
8
Layer 1
10
33.174604
20
-14.354659
11
33.145303
21
-15.027115
0
LINE
8
Layer 1
10
33.145303
20
-15.027115
11
32.732450
21
-15.553979
0
LINE
8
Layer 1
10
32.732450
20
-15.553979
11
31.728906
21
-15.864206
0
LINE
8
Layer 1
10
31.728906
20
-15.864206
11
30.689390
21
-15.679985
0
LINE
8
Layer 1
10
30.689390
20
-15.679985
11
30.083944
21
-15.175997
0
LINE
8
Layer 1
10
30.083944
20
-15.175997
11
29.811606
21
-14.437235
0
LINE
8
Layer 1
10
29.811606
20
-14.437235
11
29.910581
21
-13.614224
0
LINE
8
Layer 1
10
29.910581
20
-13.614224
11
30.263695
21
-12.859325
0
LINE
8
Layer 1
10
30.263695
20
-12.859325
11
30.537133
21
-12.553145
0
LINE
8
Layer 1
10
30.537133
20
-12.553145
11
30.920400
21
-12.411495
0
LINE
8
Layer 1
10
30.577574
20
-13.770025
11
30.157094
21
-13.977728
0
LINE
8
Layer 1
10
30.157094
20
-13.977728
11
29.973088
21
-14.409136
0
LINE
8
Layer 1
10
29.973088
20
-14.409136
11
30.189447
21
-14.932138
0
LINE
8
Layer 1
10
30.189447
20
-14.932138
11
30.727419
21
-15.108412
0
LINE
8
Layer 1
10
30.727419
20
-15.108412
11
31.200437
21
-14.818265
0
LINE
8
Layer 1
10
31.200437
20
-14.818265
11
31.297567
21
-14.272061
0
LINE
8
Layer 1
10
31.297567
20
-14.272061
11
31.029947
21
-13.888439
0
LINE
8
Layer 1
10
31.029947
20
-13.888439
11
30.577574
21
-13.770025
0
LINE
8
Layer 1
10
30.577574
20
-13.770025
11
30.577574
21
-13.770025
 0 
ENDSEC
 0 
EOF