<?xml version="1.0" encoding="UTF-8" standalone="no"?>
<svg
   xmlns:dc="http://purl.org/dc/elements/1.1/"
   xmlns:cc="http://creativecommons.org/ns#"
   xmlns:rdf="http://www.w3.org/1999/02/22-rdf-syntax-ns#"
   xmlns:svg="http://www.w3.org/2000/svg"
   xmlns="http://www.w3.org/2000/svg"
   width="81.280022mm"
   height="88.900002mm"
   viewBox="0 0 81.280022 88.900002"
   version="1.1"
   id="svg61">
  <defs
     id="defs55" />
  <metadata
     id="metadata58">
    <rdf:RDF>
      <cc:Work
         rdf:about="">
        <dc:format>image/svg+xml</dc:format>
        <dc:type
           rdf:resource="http://purl.org/dc/dcmitype/StillImage" />
        <dc:title></dc:title>
      </cc:Work>
    </rdf:RDF>
  </metadata>
  <g
     id="layer1"
     transform="translate(-296.51474,157.0869)">
    <path
       id="path5-3"
       style="display:inline;mix-blend-mode:normal;fill:#ececec;stroke-width:0.100558"
       d="m 335.2327,-156.46611 c -0.40001,0.01 -0.7946,0.10253 -1.16151,0.30188 -0.67274,0.34493 -0.63444,1.41271 -0.0492,1.81597 0.50279,0.36301 1.38963,0.47158 1.47309,1.20865 -0.28056,0.46559 -0.90996,0.43047 -1.38459,0.49281 -1.57776,0.0351 -3.15659,9.9e-4 -4.73434,0.0223 -0.67073,0.019 -1.37562,-0.0594 -2.00814,0.21413 -0.51184,0.20915 -0.84576,0.86087 -0.58733,1.37875 0.22726,0.42736 0.66281,0.67879 0.99968,1.01063 -2.2334,-0.14685 -4.50506,-0.28363 -6.71432,0.16586 -1.56469,0.32077 -3.08721,1.06282 -4.11592,2.31276 -0.30168,0.29967 -0.4252,0.80352 -0.14867,1.16153 0.58928,0.74813 1.55248,1.03582 2.4203,1.32643 -2.29575,0.80447 -4.55124,1.71851 -6.7977,2.64866 -0.87687,0.38715 -1.82711,0.69578 -2.52598,1.38261 -0.7562,0.68982 -1.13825,1.8051 -0.86272,2.80263 0.19608,0.63452 0.88794,0.89089 1.49631,0.91501 -1.53552,1.36056 -3.33959,2.42251 -4.67199,4.0053 -0.30469,0.37709 -0.64557,0.79038 -0.66066,1.29919 0.002,0.44547 0.42629,0.71902 0.80439,0.8417 0.88994,0.28659 1.8403,0.25344 2.76241,0.23735 -0.84971,1.07497 -2.34499,1.1573 -3.37974,1.97686 -1.48524,1.14334 -2.71817,2.64269 -3.50956,4.34613 -0.4676,1.06594 -0.75515,2.31394 -0.3489,3.4452 0.28961,0.7914 1.05793,1.26605 1.82821,1.50439 -1.25296,0.92109 -2.41648,2.00004 -3.27424,3.30729 -0.63854,0.98449 -1.08999,2.15991 -0.95122,3.3505 0.0684,0.62044 0.47359,1.23285 1.09605,1.40381 0.71999,0.21921 1.45398,-0.0481 2.1418,-0.25327 -0.99251,0.8658 -1.94172,1.86931 -2.38317,3.13635 -0.18403,0.51989 -0.20922,1.22081 0.28251,1.58281 0.59732,0.41532 1.3717,0.34093 2.05549,0.2635 -0.96234,1.5707 -1.85727,3.19263 -2.53403,4.90916 -0.36603,0.99855 -0.72008,2.04437 -0.6517,3.12337 0.0322,0.54503 0.31578,1.15337 0.88192,1.31128 0.67374,0.16892 1.31135,-0.27667 1.9871,-0.19623 0.22525,1.8201 -0.19109,3.73079 0.45751,5.49156 0.25341,0.73709 0.97126,1.30531 1.7717,1.25203 1.08402,0.0572 1.80813,-0.93735 2.81673,-1.14251 0.47061,-0.0945 0.88395,0.24855 1.10116,0.63471 1.67731,2.81161 1.62191,6.34621 3.53554,9.0452 0.54301,0.72503 1.31843,1.66423 2.33306,1.44602 1.38972,-0.65262 1.65204,-2.57934 3.16946,-3.07711 0.6305,-0.28458 1.25598,0.20918 1.46815,0.78939 0.98045,2.22435 0.72507,4.79353 1.72764,7.01384 0.24335,0.53497 0.70892,1.06697 1.34546,1.05489 0.94323,-0.0271 1.58384,-0.88185 2.50093,-1.0216 0.78737,-0.22124 1.66824,0.22317 1.97796,0.97535 0.47363,1.07194 0.0292,2.2595 0.25746,3.36767 0.0704,0.40525 0.53792,0.56108 0.89088,0.42733 1.33139,-0.40827 2.47465,-1.2449 3.55967,-2.09261 1.68435,-1.31832 3.31443,-2.74014 5.218,-3.7407 0.48368,-0.23732 1.0418,-0.49479 1.58683,-0.32586 0.50279,0.16794 0.74123,0.70499 0.83877,1.18767 0.20514,1.09405 -0.0976,2.23225 0.20608,3.31427 0.26245,0.98548 1.40483,1.53269 2.36415,1.32554 0.92514,-0.19912 1.6874,-0.81554 2.35008,-1.46011 1.55262,-1.5647 2.76724,-3.4171 4.0212,-5.21708 0.39118,-0.54604 0.82667,-1.07097 1.38075,-1.46012 0.9543,0.71998 1.84318,1.68934 3.08608,1.86733 0.64758,0.0965 1.2046,-0.32261 1.636,-0.753 1.11519,-1.15541 1.83323,-2.62473 2.44463,-4.0929 0.35397,-0.77228 0.79342,-1.68323 1.68538,-1.92255 1.01265,-0.21318 1.58888,1.02674 2.56933,0.94629 0.74312,-0.19007 1.14334,-0.95643 1.3877,-1.62414 0.61139,-1.93674 0.39715,-4.0242 0.95727,-5.97301 0.8678,0.95631 1.3283,2.2614 2.37712,3.06285 0.27452,0.22021 0.72797,0.27953 0.9492,-0.0464 0.90101,-1.22279 1.3797,-2.82166 1.01468,-4.32601 -0.14685,-0.78637 -0.61032,-1.45702 -0.84665,-2.21019 -0.0413,-0.44346 0.45846,-0.14565 0.64148,-0.009 0.60235,0.3439 1.46322,0.99648 2.10577,0.41123 1.0217,-1.5516 0.3006,-3.51853 -0.62352,-4.93238 0.8839,0.33587 1.92377,0.42334 2.77647,-0.0482 0.70995,-0.38311 1.08711,-1.17952 1.16757,-1.95583 0.1659,-1.51239 -0.44055,-3.04488 -1.46727,-4.14498 1.10817,0.0533 2.353,-0.31073 2.9473,-1.31933 0.62044,-1.07295 0.48679,-2.44063 -0.0553,-3.51762 -0.69585,-1.39975 -1.89758,-2.46456 -3.14953,-3.36054 0.8829,0 1.8131,-0.26851 2.42649,-0.93421 0.74917,-0.82558 0.89293,-2.08671 0.47966,-3.10436 -0.82357,-1.97295 -2.49576,-3.43997 -4.18414,-4.67784 0.85978,0.0563 1.88131,0.0201 2.5088,-0.65663 0.56917,-0.75217 0.24543,-1.76987 -0.0734,-2.55927 -1.04179,-2.343 -2.97846,-4.15817 -5.06404,-5.58408 -1.23484,-0.94222 -2.53114,-1.82404 -3.63428,-2.92315 0.78636,0.17296 1.61089,0.38014 2.41335,0.18506 0.53899,-0.1428 1.10618,-0.58321 1.07702,-1.19461 -0.0572,-0.81749 -0.56307,-1.50531 -1.01156,-2.15894 -1.35452,-1.95787 -2.97249,-3.77898 -4.97864,-5.08725 -1.56871,-1.01161 -3.23997,-1.84826 -4.8479,-2.79351 -0.26547,-0.18702 -0.61248,-0.37306 -0.68591,-0.71495 0.0391,-0.43744 0.75732,-0.27855 0.80459,-0.71298 0.0502,-0.32581 -0.30779,-0.49984 -0.52097,-0.67583 -1.06391,-0.75419 -2.43754,-0.63045 -3.61708,-1.0518 0.84568,-0.48166 1.82923,-0.65359 2.66586,-1.14833 0.24738,-0.11462 0.30169,-0.4878 0.0704,-0.64769 -0.92915,-0.82457 -2.23146,-0.99244 -3.42509,-1.03166 -2.33596,-0.0773 -4.7232,0.11775 -6.91839,0.9675 -2.38523,-1.7286 -4.05548,-4.37738 -6.7977,-5.61225 -0.59518,-0.29351 -1.2771,-0.49657 -1.94376,-0.47781 z m 1.63711,18.47474 c 0.29569,0.009 0.58897,0.10435 0.83163,0.28249 0.94022,0.71097 1.82413,1.49834 2.7915,2.17511 -0.0674,-0.29869 -0.16796,-0.59224 -0.19109,-0.89894 0.0734,-0.31273 0.46148,-0.40838 0.72393,-0.27465 1.94278,0.78135 3.6524,2.03738 5.21508,3.41302 0,-0.78034 -0.0675,-1.57678 0.0995,-2.34404 0.10361,-0.33083 0.54594,-0.31164 0.77019,-0.11762 2.66682,1.86634 5.14356,4.05638 7.08735,6.68194 1.87039,2.51697 3.16656,5.50467 3.46622,8.6431 0.17899,1.983 0.0856,4.0635 -0.76213,5.89766 -0.70491,1.55162 -1.99107,2.79754 -3.51652,3.53865 -2.94233,1.44703 -6.311,1.47912 -9.51677,1.37052 -3.22893,-0.10361 -6.44385,-0.43934 -9.66874,-0.59722 -3.96702,-0.1971 -7.87761,-0.92818 -11.77726,-1.63711 -1.79596,-0.36905 -3.6162,-0.81448 -5.21708,-1.73862 -1.14435,-0.6506 -2.14595,-1.69351 -2.41243,-3.01987 -0.76726,-3.10423 0.2656,-6.32199 1.68448,-9.08029 1.35049,-2.60546 3.14641,-4.9706 5.21489,-7.04712 1.31329,-1.26401 2.72113,-2.49189 4.40447,-3.23199 0.29664,-0.12975 0.75321,-0.28055 0.96036,0.0684 0.0583,0.33386 -0.0242,0.6747 -0.0232,1.01158 1.33742,-0.97041 2.4889,-2.31083 4.13805,-2.75932 0.31877,-0.0985 0.82561,-0.19908 0.94427,0.2273 0.0221,0.67675 -0.58434,1.18462 -0.74221,1.80204 0.17296,0.42436 0.8165,0.32373 1.19058,0.26441 1.24893,-0.77128 2.22737,-1.96478 3.63318,-2.48465 0.21029,-0.10372 0.44183,-0.15105 0.67181,-0.14475 z m -18.87106,28.80646 c 0.91696,0.005 -0.0883,1.05817 4.30177,0.5457 1.97499,-0.24008 3.94436,0.0976 5.92071,0.16695 2.26152,0.47782 4.5805,0.51465 6.86755,0.82796 3.04269,0.94915 6.2436,0.45682 9.35971,0.39004 1.71699,0.19967 3.42697,0.32204 5.1571,0.29933 1.66707,0.22275 3.25061,0.83497 4.90478,1.15274 6.31991,3.07802 3.75988,-0.44023 6.63404,2.61685 0.54569,0.87259 1.16784,2.19141 0.51144,3.15007 -1.20423,0.76568 -2.3361,1.72372 -2.99097,3.02172 -0.42955,1.39323 -1.28434,2.55491 -2.24879,3.62658 -1.22334,0.99344 -2.12779,2.32384 -3.4143,3.24097 -2.00825,2.04052 -4.44893,3.60282 -7.07142,4.73671 -3.50834,1.73549 -7.52498,1.72816 -11.31171,1.16279 -3.17566,-0.57626 -6.27775,-1.73886 -9.04866,-3.40424 -3.49516,-2.60679 -6.20051,-6.11064 -8.46791,-9.80478 -0.92384,-1.18566 -1.08868,-2.67642 -1.61408,-4.03838 -0.69389,-1.33942 -1.75055,-2.67921 -1.53508,-4.28983 0.29994,-2.6516 3.28606,-3.40433 4.04582,-3.40118 z" />
  </g>
</svg>
