  0
SECTION
  2
HEADER
  9
$ACADVER
  1
AC1014
  9
$HANDSEED
  5
FFFF
  9
$MEASUREMENT
 70
     1
  0
ENDSEC
  0
SECTION
  2
TABLES
  0
TABLE
  2
VPORT
  5
8
330
0
100
AcDbSymbolTable
 70
     4
  0
VPORT
  5
2E
330
8
100
AcDbSymbolTableRecord
100
AcDbViewportTableRecord
  2
*ACTIVE
 70
     0
 10
0.0
 20
0.0
 11
1.0
 21
1.0
 12
210.0
 22
148.5
 13
0.0
 23
0.0
 14
10.0
 24
10.0
 15
10.0
 25
10.0
 16
0.0
 26
0.0
 36
1.0
 17
0.0
 27
0.0
 37
0.0
 40
341.0
 41
1.24
 42
50.0
 43
0.0
 44
0.0
 50
0.0
 51
0.0
 71
     0
 72
   100
 73
     1
 74
     3
 75
     0
 76
     0
 77
     0
 78
     0
  0
ENDTAB
  0
TABLE
  2
LTYPE
  5
5
330
0
100
AcDbSymbolTable
 70
     1
  0
LTYPE
  5
14
330
5
100
AcDbSymbolTableRecord
100
AcDbLinetypeTableRecord
  2
BYBLOCK
 70
     0
  3

 72
    65
 73
     0
 40
0.0
  0
LTYPE
  5
15
330
5
100
AcDbSymbolTableRecord
100
AcDbLinetypeTableRecord
  2
BYLAYER
 70
     0
  3

 72
    65
 73
     0
 40
0.0
  0
LTYPE
  5
16
330
5
100
AcDbSymbolTableRecord
100
AcDbLinetypeTableRecord
  2
CONTINUOUS
 70
     0
  3
Solid line
 72
    65
 73
     0
 40
0.0
  0
ENDTAB
  0
TABLE
  2
LAYER
  5
2
100
AcDbSymbolTable
 70
2
  0
LAYER
  5
50
100
AcDbSymbolTableRecord
100
AcDbLayerTableRecord
  2
0
 70
0
  6
CONTINUOUS
  0
LAYER
  5
51
100
AcDbSymbolTableRecord
100
AcDbLayerTableRecord
  2
Layer_1
 70
0
  6
CONTINUOUS
  0
ENDTAB
  0
TABLE
  2
STYLE
  5
3
330
0
100
AcDbSymbolTable
 70
     1
  0
STYLE
  5
11
330
3
100
AcDbSymbolTableRecord
100
AcDbTextStyleTableRecord
  2
STANDARD
 70
     0
 40
0.0
 41
1.0
 50
0.0
 71
     0
 42
2.5
  3
txt
  4

  0
ENDTAB
  0
TABLE
  2
VIEW
  5
6
330
0
100
AcDbSymbolTable
 70
     0
  0
ENDTAB
  0
TABLE
  2
UCS
  5
7
330
0
100
AcDbSymbolTable
 70
     0
  0
ENDTAB
  0
TABLE
  2
APPID
  5
9
330
0
100
AcDbSymbolTable
 70
     2
  0
APPID
  5
12
330
9
100
AcDbSymbolTableRecord
100
AcDbRegAppTableRecord
  2
ACAD
 70
     0
  0
ENDTAB
  0
TABLE
  2
DIMSTYLE
  5
A
330
0
100
AcDbSymbolTable
 70
     1
  0
DIMSTYLE
105
27
330
A
100
AcDbSymbolTableRecord
100
AcDbDimStyleTableRecord
  2
ISO-25
 70
     0
  3

  4

  5

  6

  7

 40
1.0
 41
2.5
 42
0.625
 43
3.75
 44
1.25
 45
0.0
 46
0.0
 47
0.0
 48
0.0
140
2.5
141
2.5
142
0.0
143
0.03937007874016
144
1.0
145
0.0
146
1.0
147
0.625
 71
     0
 72
     0
 73
     0
 74
     0
 75
     0
 76
     0
 77
     1
 78
     8
170
     0
171
     3
172
     1
173
     0
174
     0
175
     0
176
     0
177
     0
178
     0
270
     2
271
     2
272
     2
273
     2
274
     3
340
11
275
     0
280
     0
281
     0
282
     0
283
     0
284
     8
285
     0
286
     0
287
     3
288
     0
  0
ENDTAB
  0
TABLE
  2
BLOCK_RECORD
  5
1
330
0
100
AcDbSymbolTable
 70
     1
  0
BLOCK_RECORD
  5
1F
330
1
100
AcDbSymbolTableRecord
100
AcDbBlockTableRecord
  2
*MODEL_SPACE
  0
BLOCK_RECORD
  5
1B
330
1
100
AcDbSymbolTableRecord
100
AcDbBlockTableRecord
  2
*PAPER_SPACE
  0
ENDTAB
  0
ENDSEC
  0
SECTION
  2
BLOCKS
  0
BLOCK
  5
20
330
1F
100
AcDbEntity
  8
0
100
AcDbBlockBegin
  2
*MODEL_SPACE
 70
     0
 10
0.0
 20
0.0
 30
0.0
  3
*MODEL_SPACE
  1

  0
ENDBLK
  5
21
330
1F
100
AcDbEntity
  8
0
100
AcDbBlockEnd
  0
BLOCK
  5
1C
330
1B
100
AcDbEntity
 67
     1
  8
0
100
AcDbBlockBegin
  2
*PAPER_SPACE
  1

  0
ENDBLK
  5
1D
330
1B
100
AcDbEntity
 67
     1
  8
0
100
AcDbBlockEnd
  0
ENDSEC
  0
SECTION
  2
ENTITIES
  0
SPLINE
  5
100
100
AcDbEntity
  8
Layer_1
 62
7
100
AcDbSpline
 70
8
 71
3
 72
8
 73
4
 74
0
 40
0
 40
0
 40
0
 40
0
 40
1
 40
1
 40
1
 40
1
 10
21.483750
 20
40.997913
 30
0.0
 10
22.400711
 20
40.992913
 30
0.0
 10
21.395450
 20
39.939743
 30
0.0
 10
25.785521
 20
40.452213
 30
0.0
  0
SPLINE
  5
101
100
AcDbEntity
  8
Layer_1
 62
7
100
AcDbSpline
 70
8
 71
3
 72
8
 73
4
 74
0
 40
0
 40
0
 40
0
 40
0
 40
1
 40
1
 40
1
 40
1
 10
25.785521
 20
40.452213
 30
0.0
 10
27.760511
 20
40.692293
 30
0.0
 10
29.729881
 20
40.354613
 30
0.0
 10
31.706231
 20
40.285263
 30
0.0
  0
SPLINE
  5
102
100
AcDbEntity
  8
Layer_1
 62
7
100
AcDbSpline
 70
8
 71
3
 72
8
 73
4
 74
0
 40
0
 40
0
 40
0
 40
0
 40
1
 40
1
 40
1
 40
1
 10
31.706231
 20
40.285263
 30
0.0
 10
33.967751
 20
39.807443
 30
0.0
 10
36.286731
 20
39.770613
 30
0.0
 10
38.573781
 20
39.457303
 30
0.0
  0
SPLINE
  5
103
100
AcDbEntity
  8
Layer_1
 62
7
100
AcDbSpline
 70
8
 71
3
 72
8
 73
4
 74
0
 40
0
 40
0
 40
0
 40
0
 40
1
 40
1
 40
1
 40
1
 10
38.573781
 20
39.457303
 30
0.0
 10
41.616471
 20
38.508153
 30
0.0
 10
44.817381
 20
39.000483
 30
0.0
 10
47.933491
 20
39.067263
 30
0.0
  0
SPLINE
  5
104
100
AcDbEntity
  8
Layer_1
 62
7
100
AcDbSpline
 70
8
 71
3
 72
8
 73
4
 74
0
 40
0
 40
0
 40
0
 40
0
 40
1
 40
1
 40
1
 40
1
 10
47.933491
 20
39.067263
 30
0.0
 10
49.650481
 20
38.867593
 30
0.0
 10
51.360461
 20
38.745223
 30
0.0
 10
53.090591
 20
38.767933
 30
0.0
  0
SPLINE
  5
105
100
AcDbEntity
  8
Layer_1
 62
7
100
AcDbSpline
 70
8
 71
3
 72
8
 73
4
 74
0
 40
0
 40
0
 40
0
 40
0
 40
1
 40
1
 40
1
 40
1
 10
53.090591
 20
38.767933
 30
0.0
 10
54.757661
 20
38.545183
 30
0.0
 10
56.341201
 20
37.932963
 30
0.0
 10
57.995371
 20
37.615193
 30
0.0
  0
SPLINE
  5
106
100
AcDbEntity
  8
Layer_1
 62
7
100
AcDbSpline
 70
8
 71
3
 72
8
 73
4
 74
0
 40
0
 40
0
 40
0
 40
0
 40
1
 40
1
 40
1
 40
1
 10
57.995371
 20
37.615193
 30
0.0
 10
64.315281
 20
34.537173
 30
0.0
 10
61.755251
 20
38.055423
 30
0.0
 10
64.629411
 20
34.998343
 30
0.0
  0
SPLINE
  5
107
100
AcDbEntity
  8
Layer_1
 62
7
100
AcDbSpline
 70
8
 71
3
 72
8
 73
4
 74
0
 40
0
 40
0
 40
0
 40
0
 40
1
 40
1
 40
1
 40
1
 10
64.629411
 20
34.998343
 30
0.0
 10
65.175101
 20
34.125753
 30
0.0
 10
65.797251
 20
32.806933
 30
0.0
 10
65.140851
 20
31.848273
 30
0.0
  0
SPLINE
  5
108
100
AcDbEntity
  8
Layer_1
 62
7
100
AcDbSpline
 70
8
 71
3
 72
8
 73
4
 74
0
 40
0
 40
0
 40
0
 40
0
 40
1
 40
1
 40
1
 40
1
 10
65.140851
 20
31.848273
 30
0.0
 10
63.936621
 20
31.082593
 30
0.0
 10
62.804751
 20
30.124553
 30
0.0
 10
62.149881
 20
28.826553
 30
0.0
  0
SPLINE
  5
109
100
AcDbEntity
  8
Layer_1
 62
7
100
AcDbSpline
 70
8
 71
3
 72
8
 73
4
 74
0
 40
0
 40
0
 40
0
 40
0
 40
1
 40
1
 40
1
 40
1
 10
62.149881
 20
28.826553
 30
0.0
 10
61.720331
 20
27.433323
 30
0.0
 10
60.865541
 20
26.271643
 30
0.0
 10
59.901091
 20
25.199973
 30
0.0
  0
SPLINE
  5
10a
100
AcDbEntity
  8
Layer_1
 62
7
100
AcDbSpline
 70
8
 71
3
 72
8
 73
4
 74
0
 40
0
 40
0
 40
0
 40
0
 40
1
 40
1
 40
1
 40
1
 10
59.901091
 20
25.199973
 30
0.0
 10
58.677751
 20
24.206533
 30
0.0
 10
57.773301
 20
22.876133
 30
0.0
 10
56.486791
 20
21.959002
 30
0.0
  0
SPLINE
  5
10b
100
AcDbEntity
  8
Layer_1
 62
7
100
AcDbSpline
 70
8
 71
3
 72
8
 73
4
 74
0
 40
0
 40
0
 40
0
 40
0
 40
1
 40
1
 40
1
 40
1
 10
56.486791
 20
21.959002
 30
0.0
 10
54.478541
 20
19.918482
 30
0.0
 10
52.037861
 20
18.356182
 30
0.0
 10
49.415371
 20
17.222292
 30
0.0
  0
SPLINE
  5
10c
100
AcDbEntity
  8
Layer_1
 62
7
100
AcDbSpline
 70
8
 71
3
 72
8
 73
4
 74
0
 40
0
 40
0
 40
0
 40
0
 40
1
 40
1
 40
1
 40
1
 10
49.415371
 20
17.222292
 30
0.0
 10
45.907031
 20
15.486802
 30
0.0
 10
41.890391
 20
15.494132
 30
0.0
 10
38.103661
 20
16.059502
 30
0.0
  0
SPLINE
  5
10d
100
AcDbEntity
  8
Layer_1
 62
7
100
AcDbSpline
 70
8
 71
3
 72
8
 73
4
 74
0
 40
0
 40
0
 40
0
 40
0
 40
1
 40
1
 40
1
 40
1
 10
38.103661
 20
16.059502
 30
0.0
 10
34.928001
 20
16.635762
 30
0.0
 10
31.825911
 20
17.798362
 30
0.0
 10
29.055001
 20
19.463742
 30
0.0
  0
SPLINE
  5
10e
100
AcDbEntity
  8
Layer_1
 62
7
100
AcDbSpline
 70
8
 71
3
 72
8
 73
4
 74
0
 40
0
 40
0
 40
0
 40
0
 40
1
 40
1
 40
1
 40
1
 10
29.055001
 20
19.463742
 30
0.0
 10
25.559841
 20
22.070532
 30
0.0
 10
22.854491
 20
25.574383
 30
0.0
 10
20.587090
 20
29.268523
 30
0.0
  0
SPLINE
  5
10f
100
AcDbEntity
  8
Layer_1
 62
7
100
AcDbSpline
 70
8
 71
3
 72
8
 73
4
 74
0
 40
0
 40
0
 40
0
 40
0
 40
1
 40
1
 40
1
 40
1
 10
20.587090
 20
29.268523
 30
0.0
 10
19.663250
 20
30.454183
 30
0.0
 10
19.498410
 20
31.944943
 30
0.0
 10
18.973010
 20
33.306903
 30
0.0
  0
SPLINE
  5
110
100
AcDbEntity
  8
Layer_1
 62
7
100
AcDbSpline
 70
8
 71
3
 72
8
 73
4
 74
0
 40
0
 40
0
 40
0
 40
0
 40
1
 40
1
 40
1
 40
1
 10
18.973010
 20
33.306903
 30
0.0
 10
18.279120
 20
34.646323
 30
0.0
 10
17.222460
 20
35.986113
 30
0.0
 10
17.437930
 20
37.596733
 30
0.0
  0
SPLINE
  5
111
100
AcDbEntity
  8
Layer_1
 62
7
100
AcDbSpline
 70
8
 71
3
 72
8
 73
4
 74
0
 40
0
 40
0
 40
0
 40
0
 40
1
 40
1
 40
1
 40
1
 10
17.437930
 20
37.596733
 30
0.0
 10
17.737870
 20
40.248333
 30
0.0
 10
20.723990
 20
41.001063
 30
0.0
 10
21.483750
 20
40.997913
 30
0.0
  0
SPLINE
  5
112
100
AcDbEntity
  8
Layer_1
 62
7
100
AcDbSpline
 70
8
 71
3
 72
8
 73
4
 74
0
 40
0
 40
0
 40
0
 40
0
 40
1
 40
1
 40
1
 40
1
 10
40.354811
 20
69.804374
 30
0.0
 10
40.650501
 20
69.795374
 30
0.0
 10
40.943781
 20
69.700024
 30
0.0
 10
41.186441
 20
69.521884
 30
0.0
  0
SPLINE
  5
113
100
AcDbEntity
  8
Layer_1
 62
7
100
AcDbSpline
 70
8
 71
3
 72
8
 73
4
 74
0
 40
0
 40
0
 40
0
 40
0
 40
1
 40
1
 40
1
 40
1
 10
41.186441
 20
69.521884
 30
0.0
 10
42.126661
 20
68.810914
 30
0.0
 10
43.010571
 20
68.023544
 30
0.0
 10
43.977941
 20
67.346774
 30
0.0
  0
SPLINE
  5
114
100
AcDbEntity
  8
Layer_1
 62
7
100
AcDbSpline
 70
8
 71
3
 72
8
 73
4
 74
0
 40
0
 40
0
 40
0
 40
0
 40
1
 40
1
 40
1
 40
1
 10
43.977941
 20
67.346774
 30
0.0
 10
43.910541
 20
67.645464
 30
0.0
 10
43.809981
 20
67.939014
 30
0.0
 10
43.786851
 20
68.245714
 30
0.0
  0
SPLINE
  5
115
100
AcDbEntity
  8
Layer_1
 62
7
100
AcDbSpline
 70
8
 71
3
 72
8
 73
4
 74
0
 40
0
 40
0
 40
0
 40
0
 40
1
 40
1
 40
1
 40
1
 10
43.786851
 20
68.245714
 30
0.0
 10
43.860251
 20
68.558444
 30
0.0
 10
44.248331
 20
68.654094
 30
0.0
 10
44.510781
 20
68.520364
 30
0.0
  0
SPLINE
  5
116
100
AcDbEntity
  8
Layer_1
 62
7
100
AcDbSpline
 70
8
 71
3
 72
8
 73
4
 74
0
 40
0
 40
0
 40
0
 40
0
 40
1
 40
1
 40
1
 40
1
 10
44.510781
 20
68.520364
 30
0.0
 10
46.453561
 20
67.739014
 30
0.0
 10
48.163181
 20
66.482983
 30
0.0
 10
49.725861
 20
65.107343
 30
0.0
  0
SPLINE
  5
117
100
AcDbEntity
  8
Layer_1
 62
7
100
AcDbSpline
 70
8
 71
3
 72
8
 73
4
 74
0
 40
0
 40
0
 40
0
 40
0
 40
1
 40
1
 40
1
 40
1
 10
49.725861
 20
65.107343
 30
0.0
 10
49.725861
 20
65.887683
 30
0.0
 10
49.658361
 20
66.684124
 30
0.0
 10
49.825361
 20
67.451384
 30
0.0
  0
SPLINE
  5
118
100
AcDbEntity
  8
Layer_1
 62
7
100
AcDbSpline
 70
8
 71
3
 72
8
 73
4
 74
0
 40
0
 40
0
 40
0
 40
0
 40
1
 40
1
 40
1
 40
1
 10
49.825361
 20
67.451384
 30
0.0
 10
49.928971
 20
67.782214
 30
0.0
 10
50.371301
 20
67.763024
 30
0.0
 10
50.595551
 20
67.569004
 30
0.0
  0
SPLINE
  5
119
100
AcDbEntity
  8
Layer_1
 62
7
100
AcDbSpline
 70
8
 71
3
 72
8
 73
4
 74
0
 40
0
 40
0
 40
0
 40
0
 40
1
 40
1
 40
1
 40
1
 10
50.595551
 20
67.569004
 30
0.0
 10
53.262371
 20
65.702663
 30
0.0
 10
55.739111
 20
63.512623
 30
0.0
 10
57.682901
 20
60.887063
 30
0.0
  0
SPLINE
  5
11a
100
AcDbEntity
  8
Layer_1
 62
7
100
AcDbSpline
 70
8
 71
3
 72
8
 73
4
 74
0
 40
0
 40
0
 40
0
 40
0
 40
1
 40
1
 40
1
 40
1
 10
57.682901
 20
60.887063
 30
0.0
 10
59.553291
 20
58.370093
 30
0.0
 10
60.849461
 20
55.382393
 30
0.0
 10
61.149121
 20
52.243963
 30
0.0
  0
SPLINE
  5
11b
100
AcDbEntity
  8
Layer_1
 62
7
100
AcDbSpline
 70
8
 71
3
 72
8
 73
4
 74
0
 40
0
 40
0
 40
0
 40
0
 40
1
 40
1
 40
1
 40
1
 10
61.149121
 20
52.243963
 30
0.0
 10
61.328111
 20
50.260963
 30
0.0
 10
61.234721
 20
48.180463
 30
0.0
 10
60.386991
 20
46.346303
 30
0.0
  0
SPLINE
  5
11c
100
AcDbEntity
  8
Layer_1
 62
7
100
AcDbSpline
 70
8
 71
3
 72
8
 73
4
 74
0
 40
0
 40
0
 40
0
 40
0
 40
1
 40
1
 40
1
 40
1
 10
60.386991
 20
46.346303
 30
0.0
 10
59.682081
 20
44.794683
 30
0.0
 10
58.395921
 20
43.548763
 30
0.0
 10
56.870471
 20
42.807653
 30
0.0
  0
SPLINE
  5
11d
100
AcDbEntity
  8
Layer_1
 62
7
100
AcDbSpline
 70
8
 71
3
 72
8
 73
4
 74
0
 40
0
 40
0
 40
0
 40
0
 40
1
 40
1
 40
1
 40
1
 10
56.870471
 20
42.807653
 30
0.0
 10
53.928141
 20
41.360623
 30
0.0
 10
50.559471
 20
41.328533
 30
0.0
 10
47.353701
 20
41.437133
 30
0.0
  0
SPLINE
  5
11e
100
AcDbEntity
  8
Layer_1
 62
7
100
AcDbSpline
 70
8
 71
3
 72
8
 73
4
 74
0
 40
0
 40
0
 40
0
 40
0
 40
1
 40
1
 40
1
 40
1
 10
47.353701
 20
41.437133
 30
0.0
 10
44.124771
 20
41.540743
 30
0.0
 10
40.909851
 20
41.876473
 30
0.0
 10
37.684961
 20
42.034353
 30
0.0
  0
SPLINE
  5
11f
100
AcDbEntity
  8
Layer_1
 62
7
100
AcDbSpline
 70
8
 71
3
 72
8
 73
4
 74
0
 40
0
 40
0
 40
0
 40
0
 40
1
 40
1
 40
1
 40
1
 10
37.684961
 20
42.034353
 30
0.0
 10
33.717941
 20
42.231453
 30
0.0
 10
29.807351
 20
42.962533
 30
0.0
 10
25.907701
 20
43.671463
 30
0.0
  0
SPLINE
  5
120
100
AcDbEntity
  8
Layer_1
 62
7
100
AcDbSpline
 70
8
 71
3
 72
8
 73
4
 74
0
 40
0
 40
0
 40
0
 40
0
 40
1
 40
1
 40
1
 40
1
 10
25.907701
 20
43.671463
 30
0.0
 10
24.111741
 20
44.040513
 30
0.0
 10
22.291501
 20
44.485943
 30
0.0
 10
20.690620
 20
45.410083
 30
0.0
  0
SPLINE
  5
121
100
AcDbEntity
  8
Layer_1
 62
7
100
AcDbSpline
 70
8
 71
3
 72
8
 73
4
 74
0
 40
0
 40
0
 40
0
 40
0
 40
1
 40
1
 40
1
 40
1
 10
20.690620
 20
45.410083
 30
0.0
 10
19.546270
 20
46.060683
 30
0.0
 10
18.544670
 20
47.103593
 30
0.0
 10
18.278190
 20
48.429953
 30
0.0
  0
SPLINE
  5
122
100
AcDbEntity
  8
Layer_1
 62
7
100
AcDbSpline
 70
8
 71
3
 72
8
 73
4
 74
0
 40
0
 40
0
 40
0
 40
0
 40
1
 40
1
 40
1
 40
1
 10
18.278190
 20
48.429953
 30
0.0
 10
17.510930
 20
51.534183
 30
0.0
 10
18.543790
 20
54.751943
 30
0.0
 10
19.962670
 20
57.510243
 30
0.0
  0
SPLINE
  5
123
100
AcDbEntity
  8
Layer_1
 62
7
100
AcDbSpline
 70
8
 71
3
 72
8
 73
4
 74
0
 40
0
 40
0
 40
0
 40
0
 40
1
 40
1
 40
1
 40
1
 10
19.962670
 20
57.510243
 30
0.0
 10
21.313160
 20
60.115703
 30
0.0
 10
23.109081
 20
62.480843
 30
0.0
 10
25.177561
 20
64.557363
 30
0.0
  0
SPLINE
  5
124
100
AcDbEntity
  8
Layer_1
 62
7
100
AcDbSpline
 70
8
 71
3
 72
8
 73
4
 74
0
 40
0
 40
0
 40
0
 40
0
 40
1
 40
1
 40
1
 40
1
 10
25.177561
 20
64.557363
 30
0.0
 10
26.490851
 20
65.821373
 30
0.0
 10
27.898691
 20
67.049254
 30
0.0
 10
29.582031
 20
67.789354
 30
0.0
  0
SPLINE
  5
125
100
AcDbEntity
  8
Layer_1
 62
7
100
AcDbSpline
 70
8
 71
3
 72
8
 73
4
 74
0
 40
0
 40
0
 40
0
 40
0
 40
1
 40
1
 40
1
 40
1
 10
29.582031
 20
67.789354
 30
0.0
 10
29.878671
 20
67.919104
 30
0.0
 10
30.335241
 20
68.069904
 30
0.0
 10
30.542391
 20
67.720954
 30
0.0
  0
SPLINE
  5
126
100
AcDbEntity
  8
Layer_1
 62
7
100
AcDbSpline
 70
8
 71
3
 72
8
 73
4
 74
0
 40
0
 40
0
 40
0
 40
0
 40
1
 40
1
 40
1
 40
1
 10
30.542391
 20
67.720954
 30
0.0
 10
30.600691
 20
67.387094
 30
0.0
 10
30.518191
 20
67.046254
 30
0.0
 10
30.519191
 20
66.709374
 30
0.0
  0
SPLINE
  5
127
100
AcDbEntity
  8
Layer_1
 62
7
100
AcDbSpline
 70
8
 71
3
 72
8
 73
4
 74
0
 40
0
 40
0
 40
0
 40
0
 40
1
 40
1
 40
1
 40
1
 10
30.519191
 20
66.709374
 30
0.0
 10
31.856611
 20
67.679784
 30
0.0
 10
33.008091
 20
69.020204
 30
0.0
 10
34.657241
 20
69.468694
 30
0.0
  0
SPLINE
  5
128
100
AcDbEntity
  8
Layer_1
 62
7
100
AcDbSpline
 70
8
 71
3
 72
8
 73
4
 74
0
 40
0
 40
0
 40
0
 40
0
 40
1
 40
1
 40
1
 40
1
 10
34.657241
 20
69.468694
 30
0.0
 10
34.976011
 20
69.567194
 30
0.0
 10
35.482851
 20
69.667774
 30
0.0
 10
35.601511
 20
69.241394
 30
0.0
  0
SPLINE
  5
129
100
AcDbEntity
  8
Layer_1
 62
7
100
AcDbSpline
 70
8
 71
3
 72
8
 73
4
 74
0
 40
0
 40
0
 40
0
 40
0
 40
1
 40
1
 40
1
 40
1
 10
35.601511
 20
69.241394
 30
0.0
 10
35.623611
 20
68.564644
 30
0.0
 10
35.017171
 20
68.056774
 30
0.0
 10
34.859301
 20
67.439354
 30
0.0
  0
SPLINE
  5
12a
100
AcDbEntity
  8
Layer_1
 62
7
100
AcDbSpline
 70
8
 71
3
 72
8
 73
4
 74
0
 40
0
 40
0
 40
0
 40
0
 40
1
 40
1
 40
1
 40
1
 10
34.859301
 20
67.439354
 30
0.0
 10
35.032261
 20
67.014994
 30
0.0
 10
35.675801
 20
67.115624
 30
0.0
 10
36.049881
 20
67.174944
 30
0.0
  0
SPLINE
  5
12b
100
AcDbEntity
  8
Layer_1
 62
7
100
AcDbSpline
 70
8
 71
3
 72
8
 73
4
 74
0
 40
0
 40
0
 40
0
 40
0
 40
1
 40
1
 40
1
 40
1
 10
36.049881
 20
67.174944
 30
0.0
 10
37.298811
 20
67.946224
 30
0.0
 10
38.277251
 20
69.139724
 30
0.0
 10
39.683061
 20
69.659594
 30
0.0
  0
SPLINE
  5
12c
100
AcDbEntity
  8
Layer_1
 62
7
100
AcDbSpline
 70
8
 71
3
 72
8
 73
4
 74
0
 40
0
 40
0
 40
0
 40
0
 40
1
 40
1
 40
1
 40
1
 10
39.683061
 20
69.659594
 30
0.0
 10
39.893351
 20
69.763314
 30
0.0
 10
40.124891
 20
69.810644
 30
0.0
 10
40.354871
 20
69.804344
 30
0.0
  0
LWPOLYLINE
  5
12d
100
AcDbEntity
  8
Layer_1
 62
7
100
AcDbPolyline
 90
1
 70
1
 10
21.483750
 20
40.997913
 30
0.0
  0
SPLINE
  5
12e
100
AcDbEntity
  8
Layer_1
 62
7
100
AcDbSpline
 70
8
 71
3
 72
8
 73
4
 74
0
 40
0
 40
0
 40
0
 40
0
 40
1
 40
1
 40
1
 40
1
 10
38.717701
 20
88.279114
 30
0.0
 10
38.317691
 20
88.269114
 30
0.0
 10
37.923101
 20
88.176584
 30
0.0
 10
37.556191
 20
87.977234
 30
0.0
  0
SPLINE
  5
12f
100
AcDbEntity
  8
Layer_1
 62
7
100
AcDbSpline
 70
8
 71
3
 72
8
 73
4
 74
0
 40
0
 40
0
 40
0
 40
0
 40
1
 40
1
 40
1
 40
1
 10
37.556191
 20
87.977234
 30
0.0
 10
36.883451
 20
87.632304
 30
0.0
 10
36.921751
 20
86.564524
 30
0.0
 10
37.506991
 20
86.161264
 30
0.0
  0
SPLINE
  5
130
100
AcDbEntity
  8
Layer_1
 62
7
100
AcDbSpline
 70
8
 71
3
 72
8
 73
4
 74
0
 40
0
 40
0
 40
0
 40
0
 40
1
 40
1
 40
1
 40
1
 10
37.506991
 20
86.161264
 30
0.0
 10
38.009781
 20
85.798254
 30
0.0
 10
38.896621
 20
85.689684
 30
0.0
 10
38.980081
 20
84.952614
 30
0.0
  0
SPLINE
  5
131
100
AcDbEntity
  8
Layer_1
 62
7
100
AcDbSpline
 70
8
 71
3
 72
8
 73
4
 74
0
 40
0
 40
0
 40
0
 40
0
 40
1
 40
1
 40
1
 40
1
 10
38.980081
 20
84.952614
 30
0.0
 10
38.699521
 20
84.487024
 30
0.0
 10
38.070121
 20
84.522144
 30
0.0
 10
37.595491
 20
84.459804
 30
0.0
  0
SPLINE
  5
132
100
AcDbEntity
  8
Layer_1
 62
7
100
AcDbSpline
 70
8
 71
3
 72
8
 73
4
 74
0
 40
0
 40
0
 40
0
 40
0
 40
1
 40
1
 40
1
 40
1
 10
37.595491
 20
84.459804
 30
0.0
 10
36.017731
 20
84.424704
 30
0.0
 10
34.438901
 20
84.458814
 30
0.0
 10
32.861151
 20
84.437504
 30
0.0
  0
SPLINE
  5
133
100
AcDbEntity
  8
Layer_1
 62
7
100
AcDbSpline
 70
8
 71
3
 72
8
 73
4
 74
0
 40
0
 40
0
 40
0
 40
0
 40
1
 40
1
 40
1
 40
1
 10
32.861151
 20
84.437504
 30
0.0
 10
32.190421
 20
84.418504
 30
0.0
 10
31.485531
 20
84.496904
 30
0.0
 10
30.853011
 20
84.223374
 30
0.0
  0
SPLINE
  5
134
100
AcDbEntity
  8
Layer_1
 62
7
100
AcDbSpline
 70
8
 71
3
 72
8
 73
4
 74
0
 40
0
 40
0
 40
0
 40
0
 40
1
 40
1
 40
1
 40
1
 10
30.853011
 20
84.223374
 30
0.0
 10
30.341171
 20
84.014224
 30
0.0
 10
30.007251
 20
83.362504
 30
0.0
 10
30.265681
 20
82.844624
 30
0.0
  0
SPLINE
  5
135
100
AcDbEntity
  8
Layer_1
 62
7
100
AcDbSpline
 70
8
 71
3
 72
8
 73
4
 74
0
 40
0
 40
0
 40
0
 40
0
 40
1
 40
1
 40
1
 40
1
 10
30.265681
 20
82.844624
 30
0.0
 10
30.492941
 20
82.417264
 30
0.0
 10
30.928491
 20
82.165834
 30
0.0
 10
31.265361
 20
81.833994
 30
0.0
  0
SPLINE
  5
136
100
AcDbEntity
  8
Layer_1
 62
7
100
AcDbSpline
 70
8
 71
3
 72
8
 73
4
 74
0
 40
0
 40
0
 40
0
 40
0
 40
1
 40
1
 40
1
 40
1
 10
31.265361
 20
81.833994
 30
0.0
 10
29.031961
 20
81.980844
 30
0.0
 10
26.760301
 20
82.117624
 30
0.0
 10
24.551041
 20
81.668134
 30
0.0
  0
SPLINE
  5
137
100
AcDbEntity
  8
Layer_1
 62
7
100
AcDbSpline
 70
8
 71
3
 72
8
 73
4
 74
0
 40
0
 40
0
 40
0
 40
0
 40
1
 40
1
 40
1
 40
1
 10
24.551041
 20
81.668134
 30
0.0
 10
22.986351
 20
81.347364
 30
0.0
 10
21.463830
 20
80.605314
 30
0.0
 10
20.435120
 20
79.355374
 30
0.0
  0
SPLINE
  5
138
100
AcDbEntity
  8
Layer_1
 62
7
100
AcDbSpline
 70
8
 71
3
 72
8
 73
4
 74
0
 40
0
 40
0
 40
0
 40
0
 40
1
 40
1
 40
1
 40
1
 10
20.435120
 20
79.355374
 30
0.0
 10
20.133440
 20
79.055704
 30
0.0
 10
20.009920
 20
78.551854
 30
0.0
 10
20.286450
 20
78.193844
 30
0.0
  0
SPLINE
  5
139
100
AcDbEntity
  8
Layer_1
 62
7
100
AcDbSpline
 70
8
 71
3
 72
8
 73
4
 74
0
 40
0
 40
0
 40
0
 40
0
 40
1
 40
1
 40
1
 40
1
 10
20.286450
 20
78.193844
 30
0.0
 10
20.875730
 20
77.445714
 30
0.0
 10
21.838930
 20
77.158024
 30
0.0
 10
22.706751
 20
76.867414
 30
0.0
  0
SPLINE
  5
13a
100
AcDbEntity
  8
Layer_1
 62
7
100
AcDbSpline
 70
8
 71
3
 72
8
 73
4
 74
0
 40
0
 40
0
 40
0
 40
0
 40
1
 40
1
 40
1
 40
1
 10
22.706751
 20
76.867414
 30
0.0
 10
20.411000
 20
76.062944
 30
0.0
 10
18.155510
 20
75.148904
 30
0.0
 10
15.909050
 20
74.218754
 30
0.0
  0
SPLINE
  5
13b
100
AcDbEntity
  8
Layer_1
 62
7
100
AcDbSpline
 70
8
 71
3
 72
8
 73
4
 74
0
 40
0
 40
0
 40
0
 40
0
 40
1
 40
1
 40
1
 40
1
 10
15.909050
 20
74.218754
 30
0.0
 10
15.032180
 20
73.831604
 30
0.0
 10
14.081940
 20
73.522974
 30
0.0
 10
13.383070
 20
72.836144
 30
0.0
  0
SPLINE
  5
13c
100
AcDbEntity
  8
Layer_1
 62
7
100
AcDbSpline
 70
8
 71
3
 72
8
 73
4
 74
0
 40
0
 40
0
 40
0
 40
0
 40
1
 40
1
 40
1
 40
1
 10
13.383070
 20
72.836144
 30
0.0
 10
12.626870
 20
72.146324
 30
0.0
 10
12.244820
 20
71.031044
 30
0.0
 10
12.520350
 20
70.033514
 30
0.0
  0
SPLINE
  5
13d
100
AcDbEntity
  8
Layer_1
 62
7
100
AcDbSpline
 70
8
 71
3
 72
8
 73
4
 74
0
 40
0
 40
0
 40
0
 40
0
 40
1
 40
1
 40
1
 40
1
 10
12.520350
 20
70.033514
 30
0.0
 10
12.716430
 20
69.398994
 30
0.0
 10
13.408290
 20
69.142624
 30
0.0
 10
14.016660
 20
69.118504
 30
0.0
  0
SPLINE
  5
13e
100
AcDbEntity
  8
Layer_1
 62
7
100
AcDbSpline
 70
8
 71
3
 72
8
 73
4
 74
0
 40
0
 40
0
 40
0
 40
0
 40
1
 40
1
 40
1
 40
1
 10
14.016660
 20
69.118504
 30
0.0
 10
12.481140
 20
67.757944
 30
0.0
 10
10.677070
 20
66.695994
 30
0.0
 10
9.344670
 20
65.113203
 30
0.0
  0
SPLINE
  5
13f
100
AcDbEntity
  8
Layer_1
 62
7
100
AcDbSpline
 70
8
 71
3
 72
8
 73
4
 74
0
 40
0
 40
0
 40
0
 40
0
 40
1
 40
1
 40
1
 40
1
 10
9.344670
 20
65.113203
 30
0.0
 10
9.039980
 20
64.736113
 30
0.0
 10
8.699100
 20
64.322823
 30
0.0
 10
8.684010
 20
63.814013
 30
0.0
  0
SPLINE
  5
140
100
AcDbEntity
  8
Layer_1
 62
7
100
AcDbSpline
 70
8
 71
3
 72
8
 73
4
 74
0
 40
0
 40
0
 40
0
 40
0
 40
1
 40
1
 40
1
 40
1
 10
8.684010
 20
63.814013
 30
0.0
 10
8.686010
 20
63.368543
 30
0.0
 10
9.110300
 20
63.094993
 30
0.0
 10
9.488400
 20
62.972313
 30
0.0
  0
SPLINE
  5
141
100
AcDbEntity
  8
Layer_1
 62
7
100
AcDbSpline
 70
8
 71
3
 72
8
 73
4
 74
0
 40
0
 40
0
 40
0
 40
0
 40
1
 40
1
 40
1
 40
1
 10
9.488400
 20
62.972313
 30
0.0
 10
10.378340
 20
62.685723
 30
0.0
 10
11.328700
 20
62.718873
 30
0.0
 10
12.250810
 20
62.734963
 30
0.0
  0
SPLINE
  5
142
100
AcDbEntity
  8
Layer_1
 62
7
100
AcDbSpline
 70
8
 71
3
 72
8
 73
4
 74
0
 40
0
 40
0
 40
0
 40
0
 40
1
 40
1
 40
1
 40
1
 10
12.250810
 20
62.734963
 30
0.0
 10
11.401100
 20
61.659993
 30
0.0
 10
9.905820
 20
61.577663
 30
0.0
 10
8.871070
 20
60.758103
 30
0.0
  0
SPLINE
  5
143
100
AcDbEntity
  8
Layer_1
 62
7
100
AcDbSpline
 70
8
 71
3
 72
8
 73
4
 74
0
 40
0
 40
0
 40
0
 40
0
 40
1
 40
1
 40
1
 40
1
 10
8.871070
 20
60.758103
 30
0.0
 10
7.385830
 20
59.614763
 30
0.0
 10
6.152900
 20
58.115413
 30
0.0
 10
5.361510
 20
56.411973
 30
0.0
  0
SPLINE
  5
144
100
AcDbEntity
  8
Layer_1
 62
7
100
AcDbSpline
 70
8
 71
3
 72
8
 73
4
 74
0
 40
0
 40
0
 40
0
 40
0
 40
1
 40
1
 40
1
 40
1
 10
5.361510
 20
56.411973
 30
0.0
 10
4.893910
 20
55.346033
 30
0.0
 10
4.606360
 20
54.098033
 30
0.0
 10
5.012610
 20
52.966773
 30
0.0
  0
SPLINE
  5
145
100
AcDbEntity
  8
Layer_1
 62
7
100
AcDbSpline
 70
8
 71
3
 72
8
 73
4
 74
0
 40
0
 40
0
 40
0
 40
0
 40
1
 40
1
 40
1
 40
1
 10
5.012610
 20
52.966773
 30
0.0
 10
5.302220
 20
52.175373
 30
0.0
 10
6.070540
 20
51.700723
 30
0.0
 10
6.840820
 20
51.462383
 30
0.0
  0
SPLINE
  5
146
100
AcDbEntity
  8
Layer_1
 62
7
100
AcDbSpline
 70
8
 71
3
 72
8
 73
4
 74
0
 40
0
 40
0
 40
0
 40
0
 40
1
 40
1
 40
1
 40
1
 10
6.840820
 20
51.462383
 30
0.0
 10
5.587860
 20
50.541293
 30
0.0
 10
4.424340
 20
49.462343
 30
0.0
 10
3.566580
 20
48.155093
 30
0.0
  0
SPLINE
  5
147
100
AcDbEntity
  8
Layer_1
 62
7
100
AcDbSpline
 70
8
 71
3
 72
8
 73
4
 74
0
 40
0
 40
0
 40
0
 40
0
 40
1
 40
1
 40
1
 40
1
 10
3.566580
 20
48.155093
 30
0.0
 10
2.928040
 20
47.170603
 30
0.0
 10
2.476590
 20
45.995183
 30
0.0
 10
2.615360
 20
44.804593
 30
0.0
  0
SPLINE
  5
148
100
AcDbEntity
  8
Layer_1
 62
7
100
AcDbSpline
 70
8
 71
3
 72
8
 73
4
 74
0
 40
0
 40
0
 40
0
 40
0
 40
1
 40
1
 40
1
 40
1
 10
2.615360
 20
44.804593
 30
0.0
 10
2.683760
 20
44.184153
 30
0.0
 10
3.088950
 20
43.571743
 30
0.0
 10
3.711410
 20
43.400783
 30
0.0
  0
SPLINE
  5
149
100
AcDbEntity
  8
Layer_1
 62
7
100
AcDbSpline
 70
8
 71
3
 72
8
 73
4
 74
0
 40
0
 40
0
 40
0
 40
0
 40
1
 40
1
 40
1
 40
1
 10
3.711410
 20
43.400783
 30
0.0
 10
4.431400
 20
43.181573
 30
0.0
 10
5.165390
 20
43.448883
 30
0.0
 10
5.853210
 20
43.654053
 30
0.0
  0
SPLINE
  5
14a
100
AcDbEntity
  8
Layer_1
 62
7
100
AcDbSpline
 70
8
 71
3
 72
8
 73
4
 74
0
 40
0
 40
0
 40
0
 40
0
 40
1
 40
1
 40
1
 40
1
 10
5.853210
 20
43.654053
 30
0.0
 10
4.860700
 20
42.788253
 30
0.0
 10
3.911490
 20
41.784743
 30
0.0
 10
3.470040
 20
40.517703
 30
0.0
  0
SPLINE
  5
14b
100
AcDbEntity
  8
Layer_1
 62
7
100
AcDbSpline
 70
8
 71
3
 72
8
 73
4
 74
0
 40
0
 40
0
 40
0
 40
0
 40
1
 40
1
 40
1
 40
1
 10
3.470040
 20
40.517703
 30
0.0
 10
3.286010
 20
39.997813
 30
0.0
 10
3.260820
 20
39.296893
 30
0.0
 10
3.752550
 20
38.934893
 30
0.0
  0
SPLINE
  5
14c
100
AcDbEntity
  8
Layer_1
 62
7
100
AcDbSpline
 70
8
 71
3
 72
8
 73
4
 74
0
 40
0
 40
0
 40
0
 40
0
 40
1
 40
1
 40
1
 40
1
 10
3.752550
 20
38.934893
 30
0.0
 10
4.349870
 20
38.519573
 30
0.0
 10
5.124250
 20
38.593963
 30
0.0
 10
5.808040
 20
38.671393
 30
0.0
  0
SPLINE
  5
14d
100
AcDbEntity
  8
Layer_1
 62
7
100
AcDbSpline
 70
8
 71
3
 72
8
 73
4
 74
0
 40
0
 40
0
 40
0
 40
0
 40
1
 40
1
 40
1
 40
1
 10
5.808040
 20
38.671393
 30
0.0
 10
4.845700
 20
37.100693
 30
0.0
 10
3.950770
 20
35.478763
 30
0.0
 10
3.274010
 20
33.762233
 30
0.0
  0
SPLINE
  5
14e
100
AcDbEntity
  8
Layer_1
 62
7
100
AcDbSpline
 70
8
 71
3
 72
8
 73
4
 74
0
 40
0
 40
0
 40
0
 40
0
 40
1
 40
1
 40
1
 40
1
 10
3.274010
 20
33.762233
 30
0.0
 10
2.907980
 20
32.763683
 30
0.0
 10
2.553930
 20
31.717863
 30
0.0
 10
2.622310
 20
30.638863
 30
0.0
  0
SPLINE
  5
14f
100
AcDbEntity
  8
Layer_1
 62
7
100
AcDbSpline
 70
8
 71
3
 72
8
 73
4
 74
0
 40
0
 40
0
 40
0
 40
0
 40
1
 40
1
 40
1
 40
1
 10
2.622310
 20
30.638863
 30
0.0
 10
2.654510
 20
30.093833
 30
0.0
 10
2.938090
 20
29.485493
 30
0.0
 10
3.504230
 20
29.327583
 30
0.0
  0
SPLINE
  5
150
100
AcDbEntity
  8
Layer_1
 62
7
100
AcDbSpline
 70
8
 71
3
 72
8
 73
4
 74
0
 40
0
 40
0
 40
0
 40
0
 40
1
 40
1
 40
1
 40
1
 10
3.504230
 20
29.327583
 30
0.0
 10
4.177970
 20
29.158663
 30
0.0
 10
4.815580
 20
29.604253
 30
0.0
 10
5.491330
 20
29.523813
 30
0.0
  0
SPLINE
  5
151
100
AcDbEntity
  8
Layer_1
 62
7
100
AcDbSpline
 70
8
 71
3
 72
8
 73
4
 74
0
 40
0
 40
0
 40
0
 40
0
 40
1
 40
1
 40
1
 40
1
 10
5.491330
 20
29.523813
 30
0.0
 10
5.716580
 20
27.703713
 30
0.0
 10
5.300240
 20
25.793023
 30
0.0
 10
5.948840
 20
24.032253
 30
0.0
  0
SPLINE
  5
152
100
AcDbEntity
  8
Layer_1
 62
7
100
AcDbSpline
 70
8
 71
3
 72
8
 73
4
 74
0
 40
0
 40
0
 40
0
 40
0
 40
1
 40
1
 40
1
 40
1
 10
5.948840
 20
24.032253
 30
0.0
 10
6.202250
 20
23.295163
 30
0.0
 10
6.920100
 20
22.726943
 30
0.0
 10
7.720540
 20
22.780223
 30
0.0
  0
SPLINE
  5
153
100
AcDbEntity
  8
Layer_1
 62
7
100
AcDbSpline
 70
8
 71
3
 72
8
 73
4
 74
0
 40
0
 40
0
 40
0
 40
0
 40
1
 40
1
 40
1
 40
1
 10
7.720540
 20
22.780223
 30
0.0
 10
8.804560
 20
22.723023
 30
0.0
 10
9.528670
 20
23.717573
 30
0.0
 10
10.537270
 20
23.922733
 30
0.0
  0
SPLINE
  5
154
100
AcDbEntity
  8
Layer_1
 62
7
100
AcDbSpline
 70
8
 71
3
 72
8
 73
4
 74
0
 40
0
 40
0
 40
0
 40
0
 40
1
 40
1
 40
1
 40
1
 10
10.537270
 20
23.922733
 30
0.0
 10
11.007880
 20
24.017233
 30
0.0
 10
11.421220
 20
23.674183
 30
0.0
 10
11.638430
 20
23.288023
 30
0.0
  0
SPLINE
  5
155
100
AcDbEntity
  8
Layer_1
 62
7
100
AcDbSpline
 70
8
 71
3
 72
8
 73
4
 74
0
 40
0
 40
0
 40
0
 40
0
 40
1
 40
1
 40
1
 40
1
 10
11.638430
 20
23.288023
 30
0.0
 10
13.315740
 20
20.476412
 30
0.0
 10
13.260340
 20
16.941812
 30
0.0
 10
15.173970
 20
14.242822
 30
0.0
  0
SPLINE
  5
156
100
AcDbEntity
  8
Layer_1
 62
7
100
AcDbSpline
 70
8
 71
3
 72
8
 73
4
 74
0
 40
0
 40
0
 40
0
 40
0
 40
1
 40
1
 40
1
 40
1
 10
15.173970
 20
14.242822
 30
0.0
 10
15.716980
 20
13.517792
 30
0.0
 10
16.492400
 20
12.578592
 30
0.0
 10
17.507030
 20
12.796802
 30
0.0
  0
SPLINE
  5
157
100
AcDbEntity
  8
Layer_1
 62
7
100
AcDbSpline
 70
8
 71
3
 72
8
 73
4
 74
0
 40
0
 40
0
 40
0
 40
0
 40
1
 40
1
 40
1
 40
1
 10
17.507030
 20
12.796802
 30
0.0
 10
18.896750
 20
13.449422
 30
0.0
 10
19.159070
 20
15.376142
 30
0.0
 10
20.676490
 20
15.873912
 30
0.0
  0
SPLINE
  5
158
100
AcDbEntity
  8
Layer_1
 62
7
100
AcDbSpline
 70
8
 71
3
 72
8
 73
4
 74
0
 40
0
 40
0
 40
0
 40
0
 40
1
 40
1
 40
1
 40
1
 10
20.676490
 20
15.873912
 30
0.0
 10
21.306990
 20
16.158492
 30
0.0
 10
21.932470
 20
15.664732
 30
0.0
 10
22.144640
 20
15.084522
 30
0.0
  0
SPLINE
  5
159
100
AcDbEntity
  8
Layer_1
 62
7
100
AcDbSpline
 70
8
 71
3
 72
8
 73
4
 74
0
 40
0
 40
0
 40
0
 40
0
 40
1
 40
1
 40
1
 40
1
 10
22.144640
 20
15.084522
 30
0.0
 10
23.125091
 20
12.860172
 30
0.0
 10
22.869711
 20
10.290992
 30
0.0
 10
23.872281
 20
8.070682
 30
0.0
  0
SPLINE
  5
15a
100
AcDbEntity
  8
Layer_1
 62
7
100
AcDbSpline
 70
8
 71
3
 72
8
 73
4
 74
0
 40
0
 40
0
 40
0
 40
0
 40
1
 40
1
 40
1
 40
1
 10
23.872281
 20
8.070682
 30
0.0
 10
24.115631
 20
7.535712
 30
0.0
 10
24.581201
 20
7.003712
 30
0.0
 10
25.217741
 20
7.015792
 30
0.0
  0
SPLINE
  5
15b
100
AcDbEntity
  8
Layer_1
 62
7
100
AcDbSpline
 70
8
 71
3
 72
8
 73
4
 74
0
 40
0
 40
0
 40
0
 40
0
 40
1
 40
1
 40
1
 40
1
 10
25.217741
 20
7.015792
 30
0.0
 10
26.160971
 20
7.042892
 30
0.0
 10
26.801581
 20
7.897642
 30
0.0
 10
27.718671
 20
8.037392
 30
0.0
  0
SPLINE
  5
15c
100
AcDbEntity
  8
Layer_1
 62
7
100
AcDbSpline
 70
8
 71
3
 72
8
 73
4
 74
0
 40
0
 40
0
 40
0
 40
0
 40
1
 40
1
 40
1
 40
1
 10
27.718671
 20
8.037392
 30
0.0
 10
28.506041
 20
8.258632
 30
0.0
 10
29.386911
 20
7.814222
 30
0.0
 10
29.696631
 20
7.062042
 30
0.0
  0
SPLINE
  5
15d
100
AcDbEntity
  8
Layer_1
 62
7
100
AcDbSpline
 70
8
 71
3
 72
8
 73
4
 74
0
 40
0
 40
0
 40
0
 40
0
 40
1
 40
1
 40
1
 40
1
 10
29.696631
 20
7.062042
 30
0.0
 10
30.170261
 20
5.990102
 30
0.0
 10
29.725831
 20
4.802542
 30
0.0
 10
29.954091
 20
3.694372
 30
0.0
  0
SPLINE
  5
15e
100
AcDbEntity
  8
Layer_1
 62
7
100
AcDbSpline
 70
8
 71
3
 72
8
 73
4
 74
0
 40
0
 40
0
 40
0
 40
0
 40
1
 40
1
 40
1
 40
1
 10
29.954091
 20
3.694372
 30
0.0
 10
30.024491
 20
3.289122
 30
0.0
 10
30.492011
 20
3.133292
 30
0.0
 10
30.844971
 20
3.267042
 30
0.0
  0
SPLINE
  5
15f
100
AcDbEntity
  8
Layer_1
 62
7
100
AcDbSpline
 70
8
 71
3
 72
8
 73
4
 74
0
 40
0
 40
0
 40
0
 40
0
 40
1
 40
1
 40
1
 40
1
 10
30.844971
 20
3.267042
 30
0.0
 10
32.176361
 20
3.675312
 30
0.0
 10
33.319621
 20
4.511942
 30
0.0
 10
34.404641
 20
5.359652
 30
0.0
  0
SPLINE
  5
160
100
AcDbEntity
  8
Layer_1
 62
7
100
AcDbSpline
 70
8
 71
3
 72
8
 73
4
 74
0
 40
0
 40
0
 40
0
 40
0
 40
1
 40
1
 40
1
 40
1
 10
34.404641
 20
5.359652
 30
0.0
 10
36.088991
 20
6.677972
 30
0.0
 10
37.719071
 20
8.099792
 30
0.0
 10
39.622641
 20
9.100352
 30
0.0
  0
SPLINE
  5
161
100
AcDbEntity
  8
Layer_1
 62
7
100
AcDbSpline
 70
8
 71
3
 72
8
 73
4
 74
0
 40
0
 40
0
 40
0
 40
0
 40
1
 40
1
 40
1
 40
1
 10
39.622641
 20
9.100352
 30
0.0
 10
40.106321
 20
9.337672
 30
0.0
 10
40.664441
 20
9.595142
 30
0.0
 10
41.209471
 20
9.426212
 30
0.0
  0
SPLINE
  5
162
100
AcDbEntity
  8
Layer_1
 62
7
100
AcDbSpline
 70
8
 71
3
 72
8
 73
4
 74
0
 40
0
 40
0
 40
0
 40
0
 40
1
 40
1
 40
1
 40
1
 10
41.209471
 20
9.426212
 30
0.0
 10
41.712261
 20
9.258272
 30
0.0
 10
41.950701
 20
8.721222
 30
0.0
 10
42.048241
 20
8.238542
 30
0.0
  0
SPLINE
  5
163
100
AcDbEntity
  8
Layer_1
 62
7
100
AcDbSpline
 70
8
 71
3
 72
8
 73
4
 74
0
 40
0
 40
0
 40
0
 40
0
 40
1
 40
1
 40
1
 40
1
 10
42.048241
 20
8.238542
 30
0.0
 10
42.253381
 20
7.144492
 30
0.0
 10
41.950641
 20
6.006292
 30
0.0
 10
42.254321
 20
4.924272
 30
0.0
  0
SPLINE
  5
164
100
AcDbEntity
  8
Layer_1
 62
7
100
AcDbSpline
 70
8
 71
3
 72
8
 73
4
 74
0
 40
0
 40
0
 40
0
 40
0
 40
1
 40
1
 40
1
 40
1
 10
42.254321
 20
4.924272
 30
0.0
 10
42.516771
 20
3.938792
 30
0.0
 10
43.659151
 20
3.391582
 30
0.0
 10
44.618471
 20
3.598732
 30
0.0
  0
SPLINE
  5
165
100
AcDbEntity
  8
Layer_1
 62
7
100
AcDbSpline
 70
8
 71
3
 72
8
 73
4
 74
0
 40
0
 40
0
 40
0
 40
0
 40
1
 40
1
 40
1
 40
1
 10
44.618471
 20
3.598732
 30
0.0
 10
45.543611
 20
3.797852
 30
0.0
 10
46.305871
 20
4.414272
 30
0.0
 10
46.968551
 20
5.058842
 30
0.0
  0
SPLINE
  5
166
100
AcDbEntity
  8
Layer_1
 62
7
100
AcDbSpline
 70
8
 71
3
 72
8
 73
4
 74
0
 40
0
 40
0
 40
0
 40
0
 40
1
 40
1
 40
1
 40
1
 10
46.968551
 20
5.058842
 30
0.0
 10
48.521171
 20
6.623542
 30
0.0
 10
49.735791
 20
8.475942
 30
0.0
 10
50.989751
 20
10.275922
 30
0.0
  0
SPLINE
  5
167
100
AcDbEntity
  8
Layer_1
 62
7
100
AcDbSpline
 70
8
 71
3
 72
8
 73
4
 74
0
 40
0
 40
0
 40
0
 40
0
 40
1
 40
1
 40
1
 40
1
 10
50.989751
 20
10.275922
 30
0.0
 10
51.380931
 20
10.821962
 30
0.0
 10
51.816421
 20
11.346892
 30
0.0
 10
52.370501
 20
11.736042
 30
0.0
  0
SPLINE
  5
168
100
AcDbEntity
  8
Layer_1
 62
7
100
AcDbSpline
 70
8
 71
3
 72
8
 73
4
 74
0
 40
0
 40
0
 40
0
 40
0
 40
1
 40
1
 40
1
 40
1
 10
52.370501
 20
11.736042
 30
0.0
 10
53.324801
 20
11.016062
 30
0.0
 10
54.213681
 20
10.046702
 30
0.0
 10
55.456581
 20
9.868712
 30
0.0
  0
SPLINE
  5
169
100
AcDbEntity
  8
Layer_1
 62
7
100
AcDbSpline
 70
8
 71
3
 72
8
 73
4
 74
0
 40
0
 40
0
 40
0
 40
0
 40
1
 40
1
 40
1
 40
1
 10
55.456581
 20
9.868712
 30
0.0
 10
56.104161
 20
9.772212
 30
0.0
 10
56.661181
 20
10.191322
 30
0.0
 10
57.092581
 20
10.621712
 30
0.0
  0
SPLINE
  5
16a
100
AcDbEntity
  8
Layer_1
 62
7
100
AcDbSpline
 70
8
 71
3
 72
8
 73
4
 74
0
 40
0
 40
0
 40
0
 40
0
 40
1
 40
1
 40
1
 40
1
 10
57.092581
 20
10.621712
 30
0.0
 10
58.207771
 20
11.777122
 30
0.0
 10
58.925811
 20
13.246442
 30
0.0
 10
59.537211
 20
14.714612
 30
0.0
  0
SPLINE
  5
16b
100
AcDbEntity
  8
Layer_1
 62
7
100
AcDbSpline
 70
8
 71
3
 72
8
 73
4
 74
0
 40
0
 40
0
 40
0
 40
0
 40
1
 40
1
 40
1
 40
1
 10
59.537211
 20
14.714612
 30
0.0
 10
59.891181
 20
15.486892
 30
0.0
 10
60.330631
 20
16.397842
 30
0.0
 10
61.222591
 20
16.637162
 30
0.0
  0
SPLINE
  5
16c
100
AcDbEntity
  8
Layer_1
 62
7
100
AcDbSpline
 70
8
 71
3
 72
8
 73
4
 74
0
 40
0
 40
0
 40
0
 40
0
 40
1
 40
1
 40
1
 40
1
 10
61.222591
 20
16.637162
 30
0.0
 10
62.235241
 20
16.850342
 30
0.0
 10
62.811471
 20
15.610422
 30
0.0
 10
63.791921
 20
15.690872
 30
0.0
  0
SPLINE
  5
16d
100
AcDbEntity
  8
Layer_1
 62
7
100
AcDbSpline
 70
8
 71
3
 72
8
 73
4
 74
0
 40
0
 40
0
 40
0
 40
0
 40
1
 40
1
 40
1
 40
1
 10
63.791921
 20
15.690872
 30
0.0
 10
64.535041
 20
15.880942
 30
0.0
 10
64.935261
 20
16.647302
 30
0.0
 10
65.179621
 20
17.315012
 30
0.0
  0
SPLINE
  5
16e
100
AcDbEntity
  8
Layer_1
 62
7
100
AcDbSpline
 70
8
 71
3
 72
8
 73
4
 74
0
 40
0
 40
0
 40
0
 40
0
 40
1
 40
1
 40
1
 40
1
 10
65.179621
 20
17.315012
 30
0.0
 10
65.791011
 20
19.251752
 30
0.0
 10
65.576771
 20
21.339212
 30
0.0
 10
66.136891
 20
23.288023
 30
0.0
  0
SPLINE
  5
16f
100
AcDbEntity
  8
Layer_1
 62
7
100
AcDbSpline
 70
8
 71
3
 72
8
 73
4
 74
0
 40
0
 40
0
 40
0
 40
0
 40
1
 40
1
 40
1
 40
1
 10
66.136891
 20
23.288023
 30
0.0
 10
67.004692
 20
22.331713
 30
0.0
 10
67.465192
 20
21.026622
 30
0.0
 10
68.514012
 20
20.225172
 30
0.0
  0
SPLINE
  5
170
100
AcDbEntity
  8
Layer_1
 62
7
100
AcDbSpline
 70
8
 71
3
 72
8
 73
4
 74
0
 40
0
 40
0
 40
0
 40
0
 40
1
 40
1
 40
1
 40
1
 10
68.514012
 20
20.225172
 30
0.0
 10
68.788532
 20
20.004962
 30
0.0
 10
69.241982
 20
19.945642
 30
0.0
 10
69.463212
 20
20.271572
 30
0.0
  0
SPLINE
  5
171
100
AcDbEntity
  8
Layer_1
 62
7
100
AcDbSpline
 70
8
 71
3
 72
8
 73
4
 74
0
 40
0
 40
0
 40
0
 40
0
 40
1
 40
1
 40
1
 40
1
 10
69.463212
 20
20.271572
 30
0.0
 10
70.364222
 20
21.494362
 30
0.0
 10
70.842912
 20
23.093233
 30
0.0
 10
70.477892
 20
24.597583
 30
0.0
  0
SPLINE
  5
172
100
AcDbEntity
  8
Layer_1
 62
7
100
AcDbSpline
 70
8
 71
3
 72
8
 73
4
 74
0
 40
0
 40
0
 40
0
 40
0
 40
1
 40
1
 40
1
 40
1
 10
70.477892
 20
24.597583
 30
0.0
 10
70.331042
 20
25.383953
 30
0.0
 10
69.867572
 20
26.054603
 30
0.0
 10
69.631242
 20
26.807773
 30
0.0
  0
SPLINE
  5
173
100
AcDbEntity
  8
Layer_1
 62
7
100
AcDbSpline
 70
8
 71
3
 72
8
 73
4
 74
0
 40
0
 40
0
 40
0
 40
0
 40
1
 40
1
 40
1
 40
1
 10
69.631242
 20
26.807773
 30
0.0
 10
69.589942
 20
27.251233
 30
0.0
 10
70.089702
 20
26.953423
 30
0.0
 10
70.272722
 20
26.816773
 30
0.0
  0
SPLINE
  5
174
100
AcDbEntity
  8
Layer_1
 62
7
100
AcDbSpline
 70
8
 71
3
 72
8
 73
4
 74
0
 40
0
 40
0
 40
0
 40
0
 40
1
 40
1
 40
1
 40
1
 10
70.272722
 20
26.816773
 30
0.0
 10
70.875072
 20
26.472873
 30
0.0
 10
71.735942
 20
25.820293
 30
0.0
 10
72.378492
 20
26.405543
 30
0.0
  0
SPLINE
  5
175
100
AcDbEntity
  8
Layer_1
 62
7
100
AcDbSpline
 70
8
 71
3
 72
8
 73
4
 74
0
 40
0
 40
0
 40
0
 40
0
 40
1
 40
1
 40
1
 40
1
 10
72.378492
 20
26.405543
 30
0.0
 10
73.400192
 20
27.957143
 30
0.0
 10
72.679092
 20
29.924073
 30
0.0
 10
71.754972
 20
31.337923
 30
0.0
  0
SPLINE
  5
176
100
AcDbEntity
  8
Layer_1
 62
7
100
AcDbSpline
 70
8
 71
3
 72
8
 73
4
 74
0
 40
0
 40
0
 40
0
 40
0
 40
1
 40
1
 40
1
 40
1
 10
71.754972
 20
31.337923
 30
0.0
 10
72.638872
 20
31.002053
 30
0.0
 10
73.678742
 20
30.914583
 30
0.0
 10
74.531442
 20
31.386123
 30
0.0
  0
SPLINE
  5
177
100
AcDbEntity
  8
Layer_1
 62
7
100
AcDbSpline
 70
8
 71
3
 72
8
 73
4
 74
0
 40
0
 40
0
 40
0
 40
0
 40
1
 40
1
 40
1
 40
1
 10
74.531442
 20
31.386123
 30
0.0
 10
75.241392
 20
31.769233
 30
0.0
 10
75.618552
 20
32.565643
 30
0.0
 10
75.699012
 20
33.341953
 30
0.0
  0
SPLINE
  5
178
100
AcDbEntity
  8
Layer_1
 62
7
100
AcDbSpline
 70
8
 71
3
 72
8
 73
4
 74
0
 40
0
 40
0
 40
0
 40
0
 40
1
 40
1
 40
1
 40
1
 10
75.699012
 20
33.341953
 30
0.0
 10
75.864912
 20
34.854343
 30
0.0
 10
75.258462
 20
36.386833
 30
0.0
 10
74.231742
 20
37.486933
 30
0.0
  0
SPLINE
  5
179
100
AcDbEntity
  8
Layer_1
 62
7
100
AcDbSpline
 70
8
 71
3
 72
8
 73
4
 74
0
 40
0
 40
0
 40
0
 40
0
 40
1
 40
1
 40
1
 40
1
 10
74.231742
 20
37.486933
 30
0.0
 10
75.339912
 20
37.433633
 30
0.0
 10
76.584742
 20
37.797663
 30
0.0
 10
77.179042
 20
38.806263
 30
0.0
  0
SPLINE
  5
17a
100
AcDbEntity
  8
Layer_1
 62
7
100
AcDbSpline
 70
8
 71
3
 72
8
 73
4
 74
0
 40
0
 40
0
 40
0
 40
0
 40
1
 40
1
 40
1
 40
1
 10
77.179042
 20
38.806263
 30
0.0
 10
77.799482
 20
39.879213
 30
0.0
 10
77.665832
 20
41.246893
 30
0.0
 10
77.123742
 20
42.323883
 30
0.0
  0
SPLINE
  5
17b
100
AcDbEntity
  8
Layer_1
 62
7
100
AcDbSpline
 70
8
 71
3
 72
8
 73
4
 74
0
 40
0
 40
0
 40
0
 40
0
 40
1
 40
1
 40
1
 40
1
 10
77.123742
 20
42.323883
 30
0.0
 10
76.427892
 20
43.723633
 30
0.0
 10
75.226162
 20
44.788443
 30
0.0
 10
73.974212
 20
45.684423
 30
0.0
  0
SPLINE
  5
17c
100
AcDbEntity
  8
Layer_1
 62
7
100
AcDbSpline
 70
8
 71
3
 72
8
 73
4
 74
0
 40
0
 40
0
 40
0
 40
0
 40
1
 40
1
 40
1
 40
1
 10
73.974212
 20
45.684423
 30
0.0
 10
74.857112
 20
45.684423
 30
0.0
 10
75.787312
 20
45.952933
 30
0.0
 10
76.400702
 20
46.618633
 30
0.0
  0
SPLINE
  5
17d
100
AcDbEntity
  8
Layer_1
 62
7
100
AcDbSpline
 70
8
 71
3
 72
8
 73
4
 74
0
 40
0
 40
0
 40
0
 40
0
 40
1
 40
1
 40
1
 40
1
 10
76.400702
 20
46.618633
 30
0.0
 10
77.149872
 20
47.444213
 30
0.0
 10
77.293632
 20
48.705343
 30
0.0
 10
76.880362
 20
49.722993
 30
0.0
  0
SPLINE
  5
17e
100
AcDbEntity
  8
Layer_1
 62
7
100
AcDbSpline
 70
8
 71
3
 72
8
 73
4
 74
0
 40
0
 40
0
 40
0
 40
0
 40
1
 40
1
 40
1
 40
1
 10
76.880362
 20
49.722993
 30
0.0
 10
76.056792
 20
51.695943
 30
0.0
 10
74.384602
 20
53.162963
 30
0.0
 10
72.696222
 20
54.400833
 30
0.0
  0
SPLINE
  5
17f
100
AcDbEntity
  8
Layer_1
 62
7
100
AcDbSpline
 70
8
 71
3
 72
8
 73
4
 74
0
 40
0
 40
0
 40
0
 40
0
 40
1
 40
1
 40
1
 40
1
 10
72.696222
 20
54.400833
 30
0.0
 10
73.556002
 20
54.344533
 30
0.0
 10
74.577532
 20
54.380733
 30
0.0
 10
75.205022
 20
55.057463
 30
0.0
  0
SPLINE
  5
180
100
AcDbEntity
  8
Layer_1
 62
7
100
AcDbSpline
 70
8
 71
3
 72
8
 73
4
 74
0
 40
0
 40
0
 40
0
 40
0
 40
1
 40
1
 40
1
 40
1
 10
75.205022
 20
55.057463
 30
0.0
 10
75.774192
 20
55.809633
 30
0.0
 10
75.450452
 20
56.827333
 30
0.0
 10
75.131622
 20
57.616733
 30
0.0
  0
SPLINE
  5
181
100
AcDbEntity
  8
Layer_1
 62
7
100
AcDbSpline
 70
8
 71
3
 72
8
 73
4
 74
0
 40
0
 40
0
 40
0
 40
0
 40
1
 40
1
 40
1
 40
1
 10
75.131622
 20
57.616733
 30
0.0
 10
74.089832
 20
59.959733
 30
0.0
 10
72.153162
 20
61.774903
 30
0.0
 10
70.067582
 20
63.200813
 30
0.0
  0
SPLINE
  5
182
100
AcDbEntity
  8
Layer_1
 62
7
100
AcDbSpline
 70
8
 71
3
 72
8
 73
4
 74
0
 40
0
 40
0
 40
0
 40
0
 40
1
 40
1
 40
1
 40
1
 10
70.067582
 20
63.200813
 30
0.0
 10
68.832742
 20
64.143033
 30
0.0
 10
67.536442
 20
65.024853
 30
0.0
 10
66.433301
 20
66.123963
 30
0.0
  0
SPLINE
  5
183
100
AcDbEntity
  8
Layer_1
 62
7
100
AcDbSpline
 70
8
 71
3
 72
8
 73
4
 74
0
 40
0
 40
0
 40
0
 40
0
 40
1
 40
1
 40
1
 40
1
 10
66.433301
 20
66.123963
 30
0.0
 10
67.219662
 20
65.951003
 30
0.0
 10
68.044192
 20
65.743823
 30
0.0
 10
68.846652
 20
65.938903
 30
0.0
  0
SPLINE
  5
184
100
AcDbEntity
  8
Layer_1
 62
7
100
AcDbSpline
 70
8
 71
3
 72
8
 73
4
 74
0
 40
0
 40
0
 40
0
 40
0
 40
1
 40
1
 40
1
 40
1
 10
68.846652
 20
65.938903
 30
0.0
 10
69.385642
 20
66.081703
 30
0.0
 10
69.952832
 20
66.522113
 30
0.0
 10
69.923672
 20
67.133514
 30
0.0
  0
SPLINE
  5
185
100
AcDbEntity
  8
Layer_1
 62
7
100
AcDbSpline
 70
8
 71
3
 72
8
 73
4
 74
0
 40
0
 40
0
 40
0
 40
0
 40
1
 40
1
 40
1
 40
1
 10
69.923672
 20
67.133514
 30
0.0
 10
69.866472
 20
67.951004
 30
0.0
 10
69.360602
 20
68.638824
 30
0.0
 10
68.912112
 20
69.292454
 30
0.0
  0
SPLINE
  5
186
100
AcDbEntity
  8
Layer_1
 62
7
100
AcDbSpline
 70
8
 71
3
 72
8
 73
4
 74
0
 40
0
 40
0
 40
0
 40
0
 40
1
 40
1
 40
1
 40
1
 10
68.912112
 20
69.292454
 30
0.0
 10
67.557592
 20
71.250324
 30
0.0
 10
65.939621
 20
73.071434
 30
0.0
 10
63.933471
 20
74.379704
 30
0.0
  0
SPLINE
  5
187
100
AcDbEntity
  8
Layer_1
 62
7
100
AcDbSpline
 70
8
 71
3
 72
8
 73
4
 74
0
 40
0
 40
0
 40
0
 40
0
 40
1
 40
1
 40
1
 40
1
 10
63.933471
 20
74.379704
 30
0.0
 10
62.364761
 20
75.391314
 30
0.0
 10
60.693501
 20
76.227964
 30
0.0
 10
59.085571
 20
77.173214
 30
0.0
  0
SPLINE
  5
188
100
AcDbEntity
  8
Layer_1
 62
7
100
AcDbSpline
 70
8
 71
3
 72
8
 73
4
 74
0
 40
0
 40
0
 40
0
 40
0
 40
1
 40
1
 40
1
 40
1
 10
59.085571
 20
77.173214
 30
0.0
 10
58.820101
 20
77.360234
 30
0.0
 10
58.473091
 20
77.546274
 30
0.0
 10
58.399661
 20
77.888164
 30
0.0
  0
SPLINE
  5
189
100
AcDbEntity
  8
Layer_1
 62
7
100
AcDbSpline
 70
8
 71
3
 72
8
 73
4
 74
0
 40
0
 40
0
 40
0
 40
0
 40
1
 40
1
 40
1
 40
1
 10
58.399661
 20
77.888164
 30
0.0
 10
58.438761
 20
78.325604
 30
0.0
 10
59.156981
 20
78.166714
 30
0.0
 10
59.204251
 20
78.601144
 30
0.0
  0
SPLINE
  5
18a
100
AcDbEntity
  8
Layer_1
 62
7
100
AcDbSpline
 70
8
 71
3
 72
8
 73
4
 74
0
 40
0
 40
0
 40
0
 40
0
 40
1
 40
1
 40
1
 40
1
 10
59.204251
 20
78.601144
 30
0.0
 10
59.254451
 20
78.926954
 30
0.0
 10
58.896461
 20
79.100984
 30
0.0
 10
58.683281
 20
79.276974
 30
0.0
  0
SPLINE
  5
18b
100
AcDbEntity
  8
Layer_1
 62
7
100
AcDbSpline
 70
8
 71
3
 72
8
 73
4
 74
0
 40
0
 40
0
 40
0
 40
0
 40
1
 40
1
 40
1
 40
1
 10
58.683281
 20
79.276974
 30
0.0
 10
57.619371
 20
80.031164
 30
0.0
 10
56.245741
 20
79.907424
 30
0.0
 10
55.066201
 20
80.328774
 30
0.0
  0
SPLINE
  5
18c
100
AcDbEntity
  8
Layer_1
 62
7
100
AcDbSpline
 70
8
 71
3
 72
8
 73
4
 74
0
 40
0
 40
0
 40
0
 40
0
 40
1
 40
1
 40
1
 40
1
 10
55.066201
 20
80.328774
 30
0.0
 10
55.911881
 20
80.810434
 30
0.0
 10
56.895431
 20
80.982364
 30
0.0
 10
57.732061
 20
81.477104
 30
0.0
  0
SPLINE
  5
18d
100
AcDbEntity
  8
Layer_1
 62
7
100
AcDbSpline
 70
8
 71
3
 72
8
 73
4
 74
0
 40
0
 40
0
 40
0
 40
0
 40
1
 40
1
 40
1
 40
1
 10
57.732061
 20
81.477104
 30
0.0
 10
57.979441
 20
81.591724
 30
0.0
 10
58.033751
 20
81.964904
 30
0.0
 10
57.802461
 20
82.124794
 30
0.0
  0
SPLINE
  5
18e
100
AcDbEntity
  8
Layer_1
 62
7
100
AcDbSpline
 70
8
 71
3
 72
8
 73
4
 74
0
 40
0
 40
0
 40
0
 40
0
 40
1
 40
1
 40
1
 40
1
 10
57.802461
 20
82.124794
 30
0.0
 10
56.873311
 20
82.949364
 30
0.0
 10
55.571001
 20
83.117234
 30
0.0
 10
54.377371
 20
83.156454
 30
0.0
  0
SPLINE
  5
18f
100
AcDbEntity
  8
Layer_1
 62
7
100
AcDbSpline
 70
8
 71
3
 72
8
 73
4
 74
0
 40
0
 40
0
 40
0
 40
0
 40
1
 40
1
 40
1
 40
1
 10
54.377371
 20
83.156454
 30
0.0
 10
52.041411
 20
83.233754
 30
0.0
 10
49.654171
 20
83.038704
 30
0.0
 10
47.458981
 20
82.188954
 30
0.0
  0
SPLINE
  5
190
100
AcDbEntity
  8
Layer_1
 62
7
100
AcDbSpline
 70
8
 71
3
 72
8
 73
4
 74
0
 40
0
 40
0
 40
0
 40
0
 40
1
 40
1
 40
1
 40
1
 10
47.458981
 20
82.188954
 30
0.0
 10
45.073751
 20
83.917554
 30
0.0
 10
43.403501
 20
86.566334
 30
0.0
 10
40.661281
 20
87.801204
 30
0.0
  0
SPLINE
  5
191
100
AcDbEntity
  8
Layer_1
 62
7
100
AcDbSpline
 70
8
 71
3
 72
8
 73
4
 74
0
 40
0
 40
0
 40
0
 40
0
 40
1
 40
1
 40
1
 40
1
 10
40.661281
 20
87.801204
 30
0.0
 10
40.066101
 20
88.094714
 30
0.0
 10
39.384181
 20
88.297774
 30
0.0
 10
38.717521
 20
88.279014
 30
0.0
  0
LWPOLYLINE
  5
192
100
AcDbEntity
  8
Layer_1
 62
7
100
AcDbPolyline
 90
1
 70
1
 10
40.354871
 20
69.804344
 30
0.0
  0
LWPOLYLINE
  5
193
100
AcDbEntity
  8
Layer_1
 62
7
100
AcDbPolyline
 90
2
 70
0
 10
38.717521
 20
88.279014
 30
0.0
 10
38.717701
 20
88.279114
 30
0.0
  0
ENDSEC
  0
SECTION
  2
OBJECTS
  0
DICTIONARY
  5
C
330
0
100
AcDbDictionary
  3
ACAD_GROUP
350
D
  3
ACAD_MLINESTYLE
350
17
  0
DICTIONARY
  5
D
330
C
100
AcDbDictionary
  0
DICTIONARY
  5
1A
330
C
100
AcDbDictionary
  0
DICTIONARY
  5
17
330
C
100
AcDbDictionary
  3
STANDARD
350
18
  0
DICTIONARY
  5
19
330
C
100
AcDbDictionary
  0
ENDSEC
  0
EOF
