  0
SECTION
  2
HEADER
  9
$ACADVER
  1
AC1014
  9
$HANDSEED
  5
FFFF
  9
$MEASUREMENT
 70
     1
  0
ENDSEC
  0
SECTION
  2
TABLES
  0
TABLE
  2
VPORT
  5
8
330
0
100
AcDbSymbolTable
 70
     4
  0
VPORT
  5
2E
330
8
100
AcDbSymbolTableRecord
100
AcDbViewportTableRecord
  2
*ACTIVE
 70
     0
 10
0.0
 20
0.0
 11
1.0
 21
1.0
 12
210.0
 22
148.5
 13
0.0
 23
0.0
 14
10.0
 24
10.0
 15
10.0
 25
10.0
 16
0.0
 26
0.0
 36
1.0
 17
0.0
 27
0.0
 37
0.0
 40
341.0
 41
1.24
 42
50.0
 43
0.0
 44
0.0
 50
0.0
 51
0.0
 71
     0
 72
   100
 73
     1
 74
     3
 75
     0
 76
     0
 77
     0
 78
     0
  0
ENDTAB
  0
TABLE
  2
LTYPE
  5
5
330
0
100
AcDbSymbolTable
 70
     1
  0
LTYPE
  5
14
330
5
100
AcDbSymbolTableRecord
100
AcDbLinetypeTableRecord
  2
BYBLOCK
 70
     0
  3

 72
    65
 73
     0
 40
0.0
  0
LTYPE
  5
15
330
5
100
AcDbSymbolTableRecord
100
AcDbLinetypeTableRecord
  2
BYLAYER
 70
     0
  3

 72
    65
 73
     0
 40
0.0
  0
LTYPE
  5
16
330
5
100
AcDbSymbolTableRecord
100
AcDbLinetypeTableRecord
  2
CONTINUOUS
 70
     0
  3
Solid line
 72
    65
 73
     0
 40
0.0
  0
ENDTAB
  0
TABLE
  2
LAYER
  5
2
100
AcDbSymbolTable
 70
4
  0
LAYER
  5
50
100
AcDbSymbolTableRecord
100
AcDbLayerTableRecord
  2
0
 70
0
  6
CONTINUOUS
  0
LAYER
  5
51
100
AcDbSymbolTableRecord
100
AcDbLayerTableRecord
  2
Layer_2
 70
0
  6
CONTINUOUS
  0
LAYER
  5
52
100
AcDbSymbolTableRecord
100
AcDbLayerTableRecord
  2
Layer_3
 70
0
  6
CONTINUOUS
  0
LAYER
  5
53
100
AcDbSymbolTableRecord
100
AcDbLayerTableRecord
  2
Layer_1
 70
0
  6
CONTINUOUS
  0
ENDTAB
  0
TABLE
  2
STYLE
  5
3
330
0
100
AcDbSymbolTable
 70
     1
  0
STYLE
  5
11
330
3
100
AcDbSymbolTableRecord
100
AcDbTextStyleTableRecord
  2
STANDARD
 70
     0
 40
0.0
 41
1.0
 50
0.0
 71
     0
 42
2.5
  3
txt
  4

  0
ENDTAB
  0
TABLE
  2
VIEW
  5
6
330
0
100
AcDbSymbolTable
 70
     0
  0
ENDTAB
  0
TABLE
  2
UCS
  5
7
330
0
100
AcDbSymbolTable
 70
     0
  0
ENDTAB
  0
TABLE
  2
APPID
  5
9
330
0
100
AcDbSymbolTable
 70
     2
  0
APPID
  5
12
330
9
100
AcDbSymbolTableRecord
100
AcDbRegAppTableRecord
  2
ACAD
 70
     0
  0
ENDTAB
  0
TABLE
  2
DIMSTYLE
  5
A
330
0
100
AcDbSymbolTable
 70
     1
  0
DIMSTYLE
105
27
330
A
100
AcDbSymbolTableRecord
100
AcDbDimStyleTableRecord
  2
ISO-25
 70
     0
  3

  4

  5

  6

  7

 40
1.0
 41
2.5
 42
0.625
 43
3.75
 44
1.25
 45
0.0
 46
0.0
 47
0.0
 48
0.0
140
2.5
141
2.5
142
0.0
143
0.03937007874016
144
1.0
145
0.0
146
1.0
147
0.625
 71
     0
 72
     0
 73
     0
 74
     0
 75
     0
 76
     0
 77
     1
 78
     8
170
     0
171
     3
172
     1
173
     0
174
     0
175
     0
176
     0
177
     0
178
     0
270
     2
271
     2
272
     2
273
     2
274
     3
340
11
275
     0
280
     0
281
     0
282
     0
283
     0
284
     8
285
     0
286
     0
287
     3
288
     0
  0
ENDTAB
  0
TABLE
  2
BLOCK_RECORD
  5
1
330
0
100
AcDbSymbolTable
 70
     1
  0
BLOCK_RECORD
  5
1F
330
1
100
AcDbSymbolTableRecord
100
AcDbBlockTableRecord
  2
*MODEL_SPACE
  0
BLOCK_RECORD
  5
1B
330
1
100
AcDbSymbolTableRecord
100
AcDbBlockTableRecord
  2
*PAPER_SPACE
  0
ENDTAB
  0
ENDSEC
  0
SECTION
  2
BLOCKS
  0
BLOCK
  5
20
330
1F
100
AcDbEntity
  8
0
100
AcDbBlockBegin
  2
*MODEL_SPACE
 70
     0
 10
0.0
 20
0.0
 30
0.0
  3
*MODEL_SPACE
  1

  0
ENDBLK
  5
21
330
1F
100
AcDbEntity
  8
0
100
AcDbBlockEnd
  0
BLOCK
  5
1C
330
1B
100
AcDbEntity
 67
     1
  8
0
100
AcDbBlockBegin
  2
*PAPER_SPACE
  1

  0
ENDBLK
  5
1D
330
1B
100
AcDbEntity
 67
     1
  8
0
100
AcDbBlockEnd
  0
ENDSEC
  0
SECTION
  2
ENTITIES
  0
SPLINE
  5
100
100
AcDbEntity
  8
Layer_2
 62
7
100
AcDbSpline
 70
8
 71
3
 72
8
 73
4
 74
0
 40
0
 40
0
 40
0
 40
0
 40
1
 40
1
 40
1
 40
1
 10
38.717971
 20
88.279214
 30
0.0
 10
38.317961
 20
88.269214
 30
0.0
 10
37.923371
 20
88.176684
 30
0.0
 10
37.556461
 20
87.977334
 30
0.0
  0
SPLINE
  5
101
100
AcDbEntity
  8
Layer_2
 62
7
100
AcDbSpline
 70
8
 71
3
 72
8
 73
4
 74
0
 40
0
 40
0
 40
0
 40
0
 40
1
 40
1
 40
1
 40
1
 10
37.556461
 20
87.977334
 30
0.0
 10
36.883721
 20
87.632404
 30
0.0
 10
36.922021
 20
86.564624
 30
0.0
 10
37.507261
 20
86.161364
 30
0.0
  0
SPLINE
  5
102
100
AcDbEntity
  8
Layer_2
 62
7
100
AcDbSpline
 70
8
 71
3
 72
8
 73
4
 74
0
 40
0
 40
0
 40
0
 40
0
 40
1
 40
1
 40
1
 40
1
 10
37.507261
 20
86.161364
 30
0.0
 10
38.010051
 20
85.798354
 30
0.0
 10
38.896891
 20
85.689784
 30
0.0
 10
38.980351
 20
84.952714
 30
0.0
  0
SPLINE
  5
103
100
AcDbEntity
  8
Layer_2
 62
7
100
AcDbSpline
 70
8
 71
3
 72
8
 73
4
 74
0
 40
0
 40
0
 40
0
 40
0
 40
1
 40
1
 40
1
 40
1
 10
38.980351
 20
84.952714
 30
0.0
 10
38.699791
 20
84.487124
 30
0.0
 10
38.070391
 20
84.522244
 30
0.0
 10
37.595761
 20
84.459904
 30
0.0
  0
SPLINE
  5
104
100
AcDbEntity
  8
Layer_2
 62
7
100
AcDbSpline
 70
8
 71
3
 72
8
 73
4
 74
0
 40
0
 40
0
 40
0
 40
0
 40
1
 40
1
 40
1
 40
1
 10
37.595761
 20
84.459904
 30
0.0
 10
36.018001
 20
84.424804
 30
0.0
 10
34.439171
 20
84.458914
 30
0.0
 10
32.861421
 20
84.437604
 30
0.0
  0
SPLINE
  5
105
100
AcDbEntity
  8
Layer_2
 62
7
100
AcDbSpline
 70
8
 71
3
 72
8
 73
4
 74
0
 40
0
 40
0
 40
0
 40
0
 40
1
 40
1
 40
1
 40
1
 10
32.861421
 20
84.437604
 30
0.0
 10
32.190691
 20
84.418604
 30
0.0
 10
31.485801
 20
84.497004
 30
0.0
 10
30.853281
 20
84.223474
 30
0.0
  0
SPLINE
  5
106
100
AcDbEntity
  8
Layer_2
 62
7
100
AcDbSpline
 70
8
 71
3
 72
8
 73
4
 74
0
 40
0
 40
0
 40
0
 40
0
 40
1
 40
1
 40
1
 40
1
 10
30.853281
 20
84.223474
 30
0.0
 10
30.341441
 20
84.014324
 30
0.0
 10
30.007521
 20
83.362604
 30
0.0
 10
30.265951
 20
82.844724
 30
0.0
  0
SPLINE
  5
107
100
AcDbEntity
  8
Layer_2
 62
7
100
AcDbSpline
 70
8
 71
3
 72
8
 73
4
 74
0
 40
0
 40
0
 40
0
 40
0
 40
1
 40
1
 40
1
 40
1
 10
30.265951
 20
82.844724
 30
0.0
 10
30.493211
 20
82.417364
 30
0.0
 10
30.928761
 20
82.165934
 30
0.0
 10
31.265631
 20
81.834094
 30
0.0
  0
SPLINE
  5
108
100
AcDbEntity
  8
Layer_2
 62
7
100
AcDbSpline
 70
8
 71
3
 72
8
 73
4
 74
0
 40
0
 40
0
 40
0
 40
0
 40
1
 40
1
 40
1
 40
1
 10
31.265631
 20
81.834094
 30
0.0
 10
29.032231
 20
81.980944
 30
0.0
 10
26.760571
 20
82.117724
 30
0.0
 10
24.551311
 20
81.668234
 30
0.0
  0
SPLINE
  5
109
100
AcDbEntity
  8
Layer_2
 62
7
100
AcDbSpline
 70
8
 71
3
 72
8
 73
4
 74
0
 40
0
 40
0
 40
0
 40
0
 40
1
 40
1
 40
1
 40
1
 10
24.551311
 20
81.668234
 30
0.0
 10
22.986621
 20
81.347464
 30
0.0
 10
21.464100
 20
80.605414
 30
0.0
 10
20.435390
 20
79.355474
 30
0.0
  0
SPLINE
  5
10a
100
AcDbEntity
  8
Layer_2
 62
7
100
AcDbSpline
 70
8
 71
3
 72
8
 73
4
 74
0
 40
0
 40
0
 40
0
 40
0
 40
1
 40
1
 40
1
 40
1
 10
20.435390
 20
79.355474
 30
0.0
 10
20.133710
 20
79.055804
 30
0.0
 10
20.010190
 20
78.551954
 30
0.0
 10
20.286720
 20
78.193944
 30
0.0
  0
SPLINE
  5
10b
100
AcDbEntity
  8
Layer_2
 62
7
100
AcDbSpline
 70
8
 71
3
 72
8
 73
4
 74
0
 40
0
 40
0
 40
0
 40
0
 40
1
 40
1
 40
1
 40
1
 10
20.286720
 20
78.193944
 30
0.0
 10
20.876000
 20
77.445814
 30
0.0
 10
21.839200
 20
77.158124
 30
0.0
 10
22.707021
 20
76.867514
 30
0.0
  0
SPLINE
  5
10c
100
AcDbEntity
  8
Layer_2
 62
7
100
AcDbSpline
 70
8
 71
3
 72
8
 73
4
 74
0
 40
0
 40
0
 40
0
 40
0
 40
1
 40
1
 40
1
 40
1
 10
22.707021
 20
76.867514
 30
0.0
 10
20.411270
 20
76.063044
 30
0.0
 10
18.155780
 20
75.149004
 30
0.0
 10
15.909320
 20
74.218854
 30
0.0
  0
SPLINE
  5
10d
100
AcDbEntity
  8
Layer_2
 62
7
100
AcDbSpline
 70
8
 71
3
 72
8
 73
4
 74
0
 40
0
 40
0
 40
0
 40
0
 40
1
 40
1
 40
1
 40
1
 10
15.909320
 20
74.218854
 30
0.0
 10
15.032450
 20
73.831704
 30
0.0
 10
14.082210
 20
73.523074
 30
0.0
 10
13.383340
 20
72.836244
 30
0.0
  0
SPLINE
  5
10e
100
AcDbEntity
  8
Layer_2
 62
7
100
AcDbSpline
 70
8
 71
3
 72
8
 73
4
 74
0
 40
0
 40
0
 40
0
 40
0
 40
1
 40
1
 40
1
 40
1
 10
13.383340
 20
72.836244
 30
0.0
 10
12.627140
 20
72.146424
 30
0.0
 10
12.245090
 20
71.031144
 30
0.0
 10
12.520620
 20
70.033614
 30
0.0
  0
SPLINE
  5
10f
100
AcDbEntity
  8
Layer_2
 62
7
100
AcDbSpline
 70
8
 71
3
 72
8
 73
4
 74
0
 40
0
 40
0
 40
0
 40
0
 40
1
 40
1
 40
1
 40
1
 10
12.520620
 20
70.033614
 30
0.0
 10
12.716700
 20
69.399094
 30
0.0
 10
13.408560
 20
69.142724
 30
0.0
 10
14.016930
 20
69.118604
 30
0.0
  0
SPLINE
  5
110
100
AcDbEntity
  8
Layer_2
 62
7
100
AcDbSpline
 70
8
 71
3
 72
8
 73
4
 74
0
 40
0
 40
0
 40
0
 40
0
 40
1
 40
1
 40
1
 40
1
 10
14.016930
 20
69.118604
 30
0.0
 10
12.481410
 20
67.758044
 30
0.0
 10
10.677340
 20
66.696094
 30
0.0
 10
9.344940
 20
65.113303
 30
0.0
  0
SPLINE
  5
111
100
AcDbEntity
  8
Layer_2
 62
7
100
AcDbSpline
 70
8
 71
3
 72
8
 73
4
 74
0
 40
0
 40
0
 40
0
 40
0
 40
1
 40
1
 40
1
 40
1
 10
9.344940
 20
65.113303
 30
0.0
 10
9.040250
 20
64.736213
 30
0.0
 10
8.699370
 20
64.322923
 30
0.0
 10
8.684280
 20
63.814113
 30
0.0
  0
SPLINE
  5
112
100
AcDbEntity
  8
Layer_2
 62
7
100
AcDbSpline
 70
8
 71
3
 72
8
 73
4
 74
0
 40
0
 40
0
 40
0
 40
0
 40
1
 40
1
 40
1
 40
1
 10
8.684280
 20
63.814113
 30
0.0
 10
8.686280
 20
63.368643
 30
0.0
 10
9.110570
 20
63.095093
 30
0.0
 10
9.488670
 20
62.972413
 30
0.0
  0
SPLINE
  5
113
100
AcDbEntity
  8
Layer_2
 62
7
100
AcDbSpline
 70
8
 71
3
 72
8
 73
4
 74
0
 40
0
 40
0
 40
0
 40
0
 40
1
 40
1
 40
1
 40
1
 10
9.488670
 20
62.972413
 30
0.0
 10
10.378610
 20
62.685823
 30
0.0
 10
11.328970
 20
62.718973
 30
0.0
 10
12.251080
 20
62.735063
 30
0.0
  0
SPLINE
  5
114
100
AcDbEntity
  8
Layer_2
 62
7
100
AcDbSpline
 70
8
 71
3
 72
8
 73
4
 74
0
 40
0
 40
0
 40
0
 40
0
 40
1
 40
1
 40
1
 40
1
 10
12.251080
 20
62.735063
 30
0.0
 10
11.401370
 20
61.660093
 30
0.0
 10
9.906090
 20
61.577763
 30
0.0
 10
8.871340
 20
60.758203
 30
0.0
  0
SPLINE
  5
115
100
AcDbEntity
  8
Layer_2
 62
7
100
AcDbSpline
 70
8
 71
3
 72
8
 73
4
 74
0
 40
0
 40
0
 40
0
 40
0
 40
1
 40
1
 40
1
 40
1
 10
8.871340
 20
60.758203
 30
0.0
 10
7.386100
 20
59.614863
 30
0.0
 10
6.153170
 20
58.115513
 30
0.0
 10
5.361780
 20
56.412073
 30
0.0
  0
SPLINE
  5
116
100
AcDbEntity
  8
Layer_2
 62
7
100
AcDbSpline
 70
8
 71
3
 72
8
 73
4
 74
0
 40
0
 40
0
 40
0
 40
0
 40
1
 40
1
 40
1
 40
1
 10
5.361780
 20
56.412073
 30
0.0
 10
4.894180
 20
55.346133
 30
0.0
 10
4.606630
 20
54.098133
 30
0.0
 10
5.012880
 20
52.966873
 30
0.0
  0
SPLINE
  5
117
100
AcDbEntity
  8
Layer_2
 62
7
100
AcDbSpline
 70
8
 71
3
 72
8
 73
4
 74
0
 40
0
 40
0
 40
0
 40
0
 40
1
 40
1
 40
1
 40
1
 10
5.012880
 20
52.966873
 30
0.0
 10
5.302490
 20
52.175473
 30
0.0
 10
6.070810
 20
51.700823
 30
0.0
 10
6.841090
 20
51.462483
 30
0.0
  0
SPLINE
  5
118
100
AcDbEntity
  8
Layer_2
 62
7
100
AcDbSpline
 70
8
 71
3
 72
8
 73
4
 74
0
 40
0
 40
0
 40
0
 40
0
 40
1
 40
1
 40
1
 40
1
 10
6.841090
 20
51.462483
 30
0.0
 10
5.588130
 20
50.541393
 30
0.0
 10
4.424610
 20
49.462443
 30
0.0
 10
3.566850
 20
48.155193
 30
0.0
  0
SPLINE
  5
119
100
AcDbEntity
  8
Layer_2
 62
7
100
AcDbSpline
 70
8
 71
3
 72
8
 73
4
 74
0
 40
0
 40
0
 40
0
 40
0
 40
1
 40
1
 40
1
 40
1
 10
3.566850
 20
48.155193
 30
0.0
 10
2.928310
 20
47.170703
 30
0.0
 10
2.476860
 20
45.995283
 30
0.0
 10
2.615630
 20
44.804693
 30
0.0
  0
SPLINE
  5
11a
100
AcDbEntity
  8
Layer_2
 62
7
100
AcDbSpline
 70
8
 71
3
 72
8
 73
4
 74
0
 40
0
 40
0
 40
0
 40
0
 40
1
 40
1
 40
1
 40
1
 10
2.615630
 20
44.804693
 30
0.0
 10
2.684030
 20
44.184253
 30
0.0
 10
3.089220
 20
43.571843
 30
0.0
 10
3.711680
 20
43.400883
 30
0.0
  0
SPLINE
  5
11b
100
AcDbEntity
  8
Layer_2
 62
7
100
AcDbSpline
 70
8
 71
3
 72
8
 73
4
 74
0
 40
0
 40
0
 40
0
 40
0
 40
1
 40
1
 40
1
 40
1
 10
3.711680
 20
43.400883
 30
0.0
 10
4.431670
 20
43.181673
 30
0.0
 10
5.165660
 20
43.448983
 30
0.0
 10
5.853480
 20
43.654153
 30
0.0
  0
SPLINE
  5
11c
100
AcDbEntity
  8
Layer_2
 62
7
100
AcDbSpline
 70
8
 71
3
 72
8
 73
4
 74
0
 40
0
 40
0
 40
0
 40
0
 40
1
 40
1
 40
1
 40
1
 10
5.853480
 20
43.654153
 30
0.0
 10
4.860970
 20
42.788353
 30
0.0
 10
3.911760
 20
41.784843
 30
0.0
 10
3.470310
 20
40.517803
 30
0.0
  0
SPLINE
  5
11d
100
AcDbEntity
  8
Layer_2
 62
7
100
AcDbSpline
 70
8
 71
3
 72
8
 73
4
 74
0
 40
0
 40
0
 40
0
 40
0
 40
1
 40
1
 40
1
 40
1
 10
3.470310
 20
40.517803
 30
0.0
 10
3.286280
 20
39.997913
 30
0.0
 10
3.261090
 20
39.296993
 30
0.0
 10
3.752820
 20
38.934993
 30
0.0
  0
SPLINE
  5
11e
100
AcDbEntity
  8
Layer_2
 62
7
100
AcDbSpline
 70
8
 71
3
 72
8
 73
4
 74
0
 40
0
 40
0
 40
0
 40
0
 40
1
 40
1
 40
1
 40
1
 10
3.752820
 20
38.934993
 30
0.0
 10
4.350140
 20
38.519673
 30
0.0
 10
5.124520
 20
38.594063
 30
0.0
 10
5.808310
 20
38.671493
 30
0.0
  0
SPLINE
  5
11f
100
AcDbEntity
  8
Layer_2
 62
7
100
AcDbSpline
 70
8
 71
3
 72
8
 73
4
 74
0
 40
0
 40
0
 40
0
 40
0
 40
1
 40
1
 40
1
 40
1
 10
5.808310
 20
38.671493
 30
0.0
 10
4.845970
 20
37.100793
 30
0.0
 10
3.951040
 20
35.478863
 30
0.0
 10
3.274280
 20
33.762333
 30
0.0
  0
SPLINE
  5
120
100
AcDbEntity
  8
Layer_2
 62
7
100
AcDbSpline
 70
8
 71
3
 72
8
 73
4
 74
0
 40
0
 40
0
 40
0
 40
0
 40
1
 40
1
 40
1
 40
1
 10
3.274280
 20
33.762333
 30
0.0
 10
2.908250
 20
32.763783
 30
0.0
 10
2.554200
 20
31.717963
 30
0.0
 10
2.622580
 20
30.638963
 30
0.0
  0
SPLINE
  5
121
100
AcDbEntity
  8
Layer_2
 62
7
100
AcDbSpline
 70
8
 71
3
 72
8
 73
4
 74
0
 40
0
 40
0
 40
0
 40
0
 40
1
 40
1
 40
1
 40
1
 10
2.622580
 20
30.638963
 30
0.0
 10
2.654780
 20
30.093933
 30
0.0
 10
2.938360
 20
29.485593
 30
0.0
 10
3.504500
 20
29.327683
 30
0.0
  0
SPLINE
  5
122
100
AcDbEntity
  8
Layer_2
 62
7
100
AcDbSpline
 70
8
 71
3
 72
8
 73
4
 74
0
 40
0
 40
0
 40
0
 40
0
 40
1
 40
1
 40
1
 40
1
 10
3.504500
 20
29.327683
 30
0.0
 10
4.178240
 20
29.158763
 30
0.0
 10
4.815850
 20
29.604353
 30
0.0
 10
5.491600
 20
29.523913
 30
0.0
  0
SPLINE
  5
123
100
AcDbEntity
  8
Layer_2
 62
7
100
AcDbSpline
 70
8
 71
3
 72
8
 73
4
 74
0
 40
0
 40
0
 40
0
 40
0
 40
1
 40
1
 40
1
 40
1
 10
5.491600
 20
29.523913
 30
0.0
 10
5.716850
 20
27.703813
 30
0.0
 10
5.300510
 20
25.793123
 30
0.0
 10
5.949110
 20
24.032353
 30
0.0
  0
SPLINE
  5
124
100
AcDbEntity
  8
Layer_2
 62
7
100
AcDbSpline
 70
8
 71
3
 72
8
 73
4
 74
0
 40
0
 40
0
 40
0
 40
0
 40
1
 40
1
 40
1
 40
1
 10
5.949110
 20
24.032353
 30
0.0
 10
6.202520
 20
23.295263
 30
0.0
 10
6.920370
 20
22.727043
 30
0.0
 10
7.720810
 20
22.780323
 30
0.0
  0
SPLINE
  5
125
100
AcDbEntity
  8
Layer_2
 62
7
100
AcDbSpline
 70
8
 71
3
 72
8
 73
4
 74
0
 40
0
 40
0
 40
0
 40
0
 40
1
 40
1
 40
1
 40
1
 10
7.720810
 20
22.780323
 30
0.0
 10
8.804830
 20
22.723123
 30
0.0
 10
9.528940
 20
23.717673
 30
0.0
 10
10.537540
 20
23.922833
 30
0.0
  0
SPLINE
  5
126
100
AcDbEntity
  8
Layer_2
 62
7
100
AcDbSpline
 70
8
 71
3
 72
8
 73
4
 74
0
 40
0
 40
0
 40
0
 40
0
 40
1
 40
1
 40
1
 40
1
 10
10.537540
 20
23.922833
 30
0.0
 10
11.008150
 20
24.017333
 30
0.0
 10
11.421490
 20
23.674283
 30
0.0
 10
11.638700
 20
23.288123
 30
0.0
  0
SPLINE
  5
127
100
AcDbEntity
  8
Layer_2
 62
7
100
AcDbSpline
 70
8
 71
3
 72
8
 73
4
 74
0
 40
0
 40
0
 40
0
 40
0
 40
1
 40
1
 40
1
 40
1
 10
11.638700
 20
23.288123
 30
0.0
 10
13.316010
 20
20.476512
 30
0.0
 10
13.260610
 20
16.941912
 30
0.0
 10
15.174240
 20
14.242922
 30
0.0
  0
SPLINE
  5
128
100
AcDbEntity
  8
Layer_2
 62
7
100
AcDbSpline
 70
8
 71
3
 72
8
 73
4
 74
0
 40
0
 40
0
 40
0
 40
0
 40
1
 40
1
 40
1
 40
1
 10
15.174240
 20
14.242922
 30
0.0
 10
15.717250
 20
13.517892
 30
0.0
 10
16.492670
 20
12.578692
 30
0.0
 10
17.507300
 20
12.796902
 30
0.0
  0
SPLINE
  5
129
100
AcDbEntity
  8
Layer_2
 62
7
100
AcDbSpline
 70
8
 71
3
 72
8
 73
4
 74
0
 40
0
 40
0
 40
0
 40
0
 40
1
 40
1
 40
1
 40
1
 10
17.507300
 20
12.796902
 30
0.0
 10
18.897020
 20
13.449522
 30
0.0
 10
19.159340
 20
15.376242
 30
0.0
 10
20.676760
 20
15.874012
 30
0.0
  0
SPLINE
  5
12a
100
AcDbEntity
  8
Layer_2
 62
7
100
AcDbSpline
 70
8
 71
3
 72
8
 73
4
 74
0
 40
0
 40
0
 40
0
 40
0
 40
1
 40
1
 40
1
 40
1
 10
20.676760
 20
15.874012
 30
0.0
 10
21.307260
 20
16.158592
 30
0.0
 10
21.932740
 20
15.664832
 30
0.0
 10
22.144910
 20
15.084622
 30
0.0
  0
SPLINE
  5
12b
100
AcDbEntity
  8
Layer_2
 62
7
100
AcDbSpline
 70
8
 71
3
 72
8
 73
4
 74
0
 40
0
 40
0
 40
0
 40
0
 40
1
 40
1
 40
1
 40
1
 10
22.144910
 20
15.084622
 30
0.0
 10
23.125361
 20
12.860272
 30
0.0
 10
22.869981
 20
10.291092
 30
0.0
 10
23.872551
 20
8.070782
 30
0.0
  0
SPLINE
  5
12c
100
AcDbEntity
  8
Layer_2
 62
7
100
AcDbSpline
 70
8
 71
3
 72
8
 73
4
 74
0
 40
0
 40
0
 40
0
 40
0
 40
1
 40
1
 40
1
 40
1
 10
23.872551
 20
8.070782
 30
0.0
 10
24.115901
 20
7.535812
 30
0.0
 10
24.581471
 20
7.003812
 30
0.0
 10
25.218011
 20
7.015892
 30
0.0
  0
SPLINE
  5
12d
100
AcDbEntity
  8
Layer_2
 62
7
100
AcDbSpline
 70
8
 71
3
 72
8
 73
4
 74
0
 40
0
 40
0
 40
0
 40
0
 40
1
 40
1
 40
1
 40
1
 10
25.218011
 20
7.015892
 30
0.0
 10
26.161241
 20
7.042992
 30
0.0
 10
26.801851
 20
7.897742
 30
0.0
 10
27.718941
 20
8.037492
 30
0.0
  0
SPLINE
  5
12e
100
AcDbEntity
  8
Layer_2
 62
7
100
AcDbSpline
 70
8
 71
3
 72
8
 73
4
 74
0
 40
0
 40
0
 40
0
 40
0
 40
1
 40
1
 40
1
 40
1
 10
27.718941
 20
8.037492
 30
0.0
 10
28.506311
 20
8.258732
 30
0.0
 10
29.387181
 20
7.814322
 30
0.0
 10
29.696901
 20
7.062142
 30
0.0
  0
SPLINE
  5
12f
100
AcDbEntity
  8
Layer_2
 62
7
100
AcDbSpline
 70
8
 71
3
 72
8
 73
4
 74
0
 40
0
 40
0
 40
0
 40
0
 40
1
 40
1
 40
1
 40
1
 10
29.696901
 20
7.062142
 30
0.0
 10
30.170531
 20
5.990202
 30
0.0
 10
29.726101
 20
4.802642
 30
0.0
 10
29.954361
 20
3.694472
 30
0.0
  0
SPLINE
  5
130
100
AcDbEntity
  8
Layer_2
 62
7
100
AcDbSpline
 70
8
 71
3
 72
8
 73
4
 74
0
 40
0
 40
0
 40
0
 40
0
 40
1
 40
1
 40
1
 40
1
 10
29.954361
 20
3.694472
 30
0.0
 10
30.024761
 20
3.289222
 30
0.0
 10
30.492281
 20
3.133392
 30
0.0
 10
30.845241
 20
3.267142
 30
0.0
  0
SPLINE
  5
131
100
AcDbEntity
  8
Layer_2
 62
7
100
AcDbSpline
 70
8
 71
3
 72
8
 73
4
 74
0
 40
0
 40
0
 40
0
 40
0
 40
1
 40
1
 40
1
 40
1
 10
30.845241
 20
3.267142
 30
0.0
 10
32.176631
 20
3.675412
 30
0.0
 10
33.319891
 20
4.512042
 30
0.0
 10
34.404911
 20
5.359752
 30
0.0
  0
SPLINE
  5
132
100
AcDbEntity
  8
Layer_2
 62
7
100
AcDbSpline
 70
8
 71
3
 72
8
 73
4
 74
0
 40
0
 40
0
 40
0
 40
0
 40
1
 40
1
 40
1
 40
1
 10
34.404911
 20
5.359752
 30
0.0
 10
36.089261
 20
6.678072
 30
0.0
 10
37.719341
 20
8.099892
 30
0.0
 10
39.622911
 20
9.100452
 30
0.0
  0
SPLINE
  5
133
100
AcDbEntity
  8
Layer_2
 62
7
100
AcDbSpline
 70
8
 71
3
 72
8
 73
4
 74
0
 40
0
 40
0
 40
0
 40
0
 40
1
 40
1
 40
1
 40
1
 10
39.622911
 20
9.100452
 30
0.0
 10
40.106591
 20
9.337772
 30
0.0
 10
40.664711
 20
9.595242
 30
0.0
 10
41.209741
 20
9.426312
 30
0.0
  0
SPLINE
  5
134
100
AcDbEntity
  8
Layer_2
 62
7
100
AcDbSpline
 70
8
 71
3
 72
8
 73
4
 74
0
 40
0
 40
0
 40
0
 40
0
 40
1
 40
1
 40
1
 40
1
 10
41.209741
 20
9.426312
 30
0.0
 10
41.712531
 20
9.258372
 30
0.0
 10
41.950971
 20
8.721322
 30
0.0
 10
42.048511
 20
8.238642
 30
0.0
  0
SPLINE
  5
135
100
AcDbEntity
  8
Layer_2
 62
7
100
AcDbSpline
 70
8
 71
3
 72
8
 73
4
 74
0
 40
0
 40
0
 40
0
 40
0
 40
1
 40
1
 40
1
 40
1
 10
42.048511
 20
8.238642
 30
0.0
 10
42.253651
 20
7.144592
 30
0.0
 10
41.950911
 20
6.006392
 30
0.0
 10
42.254591
 20
4.924372
 30
0.0
  0
SPLINE
  5
136
100
AcDbEntity
  8
Layer_2
 62
7
100
AcDbSpline
 70
8
 71
3
 72
8
 73
4
 74
0
 40
0
 40
0
 40
0
 40
0
 40
1
 40
1
 40
1
 40
1
 10
42.254591
 20
4.924372
 30
0.0
 10
42.517041
 20
3.938892
 30
0.0
 10
43.659421
 20
3.391682
 30
0.0
 10
44.618741
 20
3.598832
 30
0.0
  0
SPLINE
  5
137
100
AcDbEntity
  8
Layer_2
 62
7
100
AcDbSpline
 70
8
 71
3
 72
8
 73
4
 74
0
 40
0
 40
0
 40
0
 40
0
 40
1
 40
1
 40
1
 40
1
 10
44.618741
 20
3.598832
 30
0.0
 10
45.543881
 20
3.797952
 30
0.0
 10
46.306141
 20
4.414372
 30
0.0
 10
46.968821
 20
5.058942
 30
0.0
  0
SPLINE
  5
138
100
AcDbEntity
  8
Layer_2
 62
7
100
AcDbSpline
 70
8
 71
3
 72
8
 73
4
 74
0
 40
0
 40
0
 40
0
 40
0
 40
1
 40
1
 40
1
 40
1
 10
46.968821
 20
5.058942
 30
0.0
 10
48.521441
 20
6.623642
 30
0.0
 10
49.736061
 20
8.476042
 30
0.0
 10
50.990021
 20
10.276022
 30
0.0
  0
SPLINE
  5
139
100
AcDbEntity
  8
Layer_2
 62
7
100
AcDbSpline
 70
8
 71
3
 72
8
 73
4
 74
0
 40
0
 40
0
 40
0
 40
0
 40
1
 40
1
 40
1
 40
1
 10
50.990021
 20
10.276022
 30
0.0
 10
51.381201
 20
10.822062
 30
0.0
 10
51.816691
 20
11.346992
 30
0.0
 10
52.370771
 20
11.736142
 30
0.0
  0
SPLINE
  5
13a
100
AcDbEntity
  8
Layer_2
 62
7
100
AcDbSpline
 70
8
 71
3
 72
8
 73
4
 74
0
 40
0
 40
0
 40
0
 40
0
 40
1
 40
1
 40
1
 40
1
 10
52.370771
 20
11.736142
 30
0.0
 10
53.325071
 20
11.016162
 30
0.0
 10
54.213951
 20
10.046802
 30
0.0
 10
55.456851
 20
9.868812
 30
0.0
  0
SPLINE
  5
13b
100
AcDbEntity
  8
Layer_2
 62
7
100
AcDbSpline
 70
8
 71
3
 72
8
 73
4
 74
0
 40
0
 40
0
 40
0
 40
0
 40
1
 40
1
 40
1
 40
1
 10
55.456851
 20
9.868812
 30
0.0
 10
56.104431
 20
9.772312
 30
0.0
 10
56.661451
 20
10.191422
 30
0.0
 10
57.092851
 20
10.621812
 30
0.0
  0
SPLINE
  5
13c
100
AcDbEntity
  8
Layer_2
 62
7
100
AcDbSpline
 70
8
 71
3
 72
8
 73
4
 74
0
 40
0
 40
0
 40
0
 40
0
 40
1
 40
1
 40
1
 40
1
 10
57.092851
 20
10.621812
 30
0.0
 10
58.208041
 20
11.777222
 30
0.0
 10
58.926081
 20
13.246542
 30
0.0
 10
59.537481
 20
14.714712
 30
0.0
  0
SPLINE
  5
13d
100
AcDbEntity
  8
Layer_2
 62
7
100
AcDbSpline
 70
8
 71
3
 72
8
 73
4
 74
0
 40
0
 40
0
 40
0
 40
0
 40
1
 40
1
 40
1
 40
1
 10
59.537481
 20
14.714712
 30
0.0
 10
59.891451
 20
15.486992
 30
0.0
 10
60.330901
 20
16.397942
 30
0.0
 10
61.222861
 20
16.637262
 30
0.0
  0
SPLINE
  5
13e
100
AcDbEntity
  8
Layer_2
 62
7
100
AcDbSpline
 70
8
 71
3
 72
8
 73
4
 74
0
 40
0
 40
0
 40
0
 40
0
 40
1
 40
1
 40
1
 40
1
 10
61.222861
 20
16.637262
 30
0.0
 10
62.235511
 20
16.850442
 30
0.0
 10
62.811741
 20
15.610522
 30
0.0
 10
63.792191
 20
15.690972
 30
0.0
  0
SPLINE
  5
13f
100
AcDbEntity
  8
Layer_2
 62
7
100
AcDbSpline
 70
8
 71
3
 72
8
 73
4
 74
0
 40
0
 40
0
 40
0
 40
0
 40
1
 40
1
 40
1
 40
1
 10
63.792191
 20
15.690972
 30
0.0
 10
64.535311
 20
15.881042
 30
0.0
 10
64.935531
 20
16.647402
 30
0.0
 10
65.179891
 20
17.315112
 30
0.0
  0
SPLINE
  5
140
100
AcDbEntity
  8
Layer_2
 62
7
100
AcDbSpline
 70
8
 71
3
 72
8
 73
4
 74
0
 40
0
 40
0
 40
0
 40
0
 40
1
 40
1
 40
1
 40
1
 10
65.179891
 20
17.315112
 30
0.0
 10
65.791281
 20
19.251852
 30
0.0
 10
65.577041
 20
21.339312
 30
0.0
 10
66.137161
 20
23.288123
 30
0.0
  0
SPLINE
  5
141
100
AcDbEntity
  8
Layer_2
 62
7
100
AcDbSpline
 70
8
 71
3
 72
8
 73
4
 74
0
 40
0
 40
0
 40
0
 40
0
 40
1
 40
1
 40
1
 40
1
 10
66.137161
 20
23.288123
 30
0.0
 10
67.004962
 20
22.331813
 30
0.0
 10
67.465462
 20
21.026722
 30
0.0
 10
68.514282
 20
20.225272
 30
0.0
  0
SPLINE
  5
142
100
AcDbEntity
  8
Layer_2
 62
7
100
AcDbSpline
 70
8
 71
3
 72
8
 73
4
 74
0
 40
0
 40
0
 40
0
 40
0
 40
1
 40
1
 40
1
 40
1
 10
68.514282
 20
20.225272
 30
0.0
 10
68.788802
 20
20.005062
 30
0.0
 10
69.242252
 20
19.945742
 30
0.0
 10
69.463482
 20
20.271672
 30
0.0
  0
SPLINE
  5
143
100
AcDbEntity
  8
Layer_2
 62
7
100
AcDbSpline
 70
8
 71
3
 72
8
 73
4
 74
0
 40
0
 40
0
 40
0
 40
0
 40
1
 40
1
 40
1
 40
1
 10
69.463482
 20
20.271672
 30
0.0
 10
70.364492
 20
21.494462
 30
0.0
 10
70.843182
 20
23.093333
 30
0.0
 10
70.478162
 20
24.597683
 30
0.0
  0
SPLINE
  5
144
100
AcDbEntity
  8
Layer_2
 62
7
100
AcDbSpline
 70
8
 71
3
 72
8
 73
4
 74
0
 40
0
 40
0
 40
0
 40
0
 40
1
 40
1
 40
1
 40
1
 10
70.478162
 20
24.597683
 30
0.0
 10
70.331312
 20
25.384053
 30
0.0
 10
69.867842
 20
26.054703
 30
0.0
 10
69.631512
 20
26.807873
 30
0.0
  0
SPLINE
  5
145
100
AcDbEntity
  8
Layer_2
 62
7
100
AcDbSpline
 70
8
 71
3
 72
8
 73
4
 74
0
 40
0
 40
0
 40
0
 40
0
 40
1
 40
1
 40
1
 40
1
 10
69.631512
 20
26.807873
 30
0.0
 10
69.590212
 20
27.251333
 30
0.0
 10
70.089972
 20
26.953523
 30
0.0
 10
70.272992
 20
26.816873
 30
0.0
  0
SPLINE
  5
146
100
AcDbEntity
  8
Layer_2
 62
7
100
AcDbSpline
 70
8
 71
3
 72
8
 73
4
 74
0
 40
0
 40
0
 40
0
 40
0
 40
1
 40
1
 40
1
 40
1
 10
70.272992
 20
26.816873
 30
0.0
 10
70.875342
 20
26.472973
 30
0.0
 10
71.736212
 20
25.820393
 30
0.0
 10
72.378762
 20
26.405643
 30
0.0
  0
SPLINE
  5
147
100
AcDbEntity
  8
Layer_2
 62
7
100
AcDbSpline
 70
8
 71
3
 72
8
 73
4
 74
0
 40
0
 40
0
 40
0
 40
0
 40
1
 40
1
 40
1
 40
1
 10
72.378762
 20
26.405643
 30
0.0
 10
73.400462
 20
27.957243
 30
0.0
 10
72.679362
 20
29.924173
 30
0.0
 10
71.755242
 20
31.338023
 30
0.0
  0
SPLINE
  5
148
100
AcDbEntity
  8
Layer_2
 62
7
100
AcDbSpline
 70
8
 71
3
 72
8
 73
4
 74
0
 40
0
 40
0
 40
0
 40
0
 40
1
 40
1
 40
1
 40
1
 10
71.755242
 20
31.338023
 30
0.0
 10
72.639142
 20
31.002153
 30
0.0
 10
73.679012
 20
30.914683
 30
0.0
 10
74.531712
 20
31.386223
 30
0.0
  0
SPLINE
  5
149
100
AcDbEntity
  8
Layer_2
 62
7
100
AcDbSpline
 70
8
 71
3
 72
8
 73
4
 74
0
 40
0
 40
0
 40
0
 40
0
 40
1
 40
1
 40
1
 40
1
 10
74.531712
 20
31.386223
 30
0.0
 10
75.241662
 20
31.769333
 30
0.0
 10
75.618822
 20
32.565743
 30
0.0
 10
75.699282
 20
33.342053
 30
0.0
  0
SPLINE
  5
14a
100
AcDbEntity
  8
Layer_2
 62
7
100
AcDbSpline
 70
8
 71
3
 72
8
 73
4
 74
0
 40
0
 40
0
 40
0
 40
0
 40
1
 40
1
 40
1
 40
1
 10
75.699282
 20
33.342053
 30
0.0
 10
75.865182
 20
34.854443
 30
0.0
 10
75.258732
 20
36.386933
 30
0.0
 10
74.232012
 20
37.487033
 30
0.0
  0
SPLINE
  5
14b
100
AcDbEntity
  8
Layer_2
 62
7
100
AcDbSpline
 70
8
 71
3
 72
8
 73
4
 74
0
 40
0
 40
0
 40
0
 40
0
 40
1
 40
1
 40
1
 40
1
 10
74.232012
 20
37.487033
 30
0.0
 10
75.340182
 20
37.433733
 30
0.0
 10
76.585012
 20
37.797763
 30
0.0
 10
77.179312
 20
38.806363
 30
0.0
  0
SPLINE
  5
14c
100
AcDbEntity
  8
Layer_2
 62
7
100
AcDbSpline
 70
8
 71
3
 72
8
 73
4
 74
0
 40
0
 40
0
 40
0
 40
0
 40
1
 40
1
 40
1
 40
1
 10
77.179312
 20
38.806363
 30
0.0
 10
77.799752
 20
39.879313
 30
0.0
 10
77.666102
 20
41.246993
 30
0.0
 10
77.124012
 20
42.323983
 30
0.0
  0
SPLINE
  5
14d
100
AcDbEntity
  8
Layer_2
 62
7
100
AcDbSpline
 70
8
 71
3
 72
8
 73
4
 74
0
 40
0
 40
0
 40
0
 40
0
 40
1
 40
1
 40
1
 40
1
 10
77.124012
 20
42.323983
 30
0.0
 10
76.428162
 20
43.723733
 30
0.0
 10
75.226432
 20
44.788543
 30
0.0
 10
73.974482
 20
45.684523
 30
0.0
  0
SPLINE
  5
14e
100
AcDbEntity
  8
Layer_2
 62
7
100
AcDbSpline
 70
8
 71
3
 72
8
 73
4
 74
0
 40
0
 40
0
 40
0
 40
0
 40
1
 40
1
 40
1
 40
1
 10
73.974482
 20
45.684523
 30
0.0
 10
74.857382
 20
45.684523
 30
0.0
 10
75.787582
 20
45.953033
 30
0.0
 10
76.400972
 20
46.618733
 30
0.0
  0
SPLINE
  5
14f
100
AcDbEntity
  8
Layer_2
 62
7
100
AcDbSpline
 70
8
 71
3
 72
8
 73
4
 74
0
 40
0
 40
0
 40
0
 40
0
 40
1
 40
1
 40
1
 40
1
 10
76.400972
 20
46.618733
 30
0.0
 10
77.150142
 20
47.444313
 30
0.0
 10
77.293902
 20
48.705443
 30
0.0
 10
76.880632
 20
49.723093
 30
0.0
  0
SPLINE
  5
150
100
AcDbEntity
  8
Layer_2
 62
7
100
AcDbSpline
 70
8
 71
3
 72
8
 73
4
 74
0
 40
0
 40
0
 40
0
 40
0
 40
1
 40
1
 40
1
 40
1
 10
76.880632
 20
49.723093
 30
0.0
 10
76.057062
 20
51.696043
 30
0.0
 10
74.384872
 20
53.163063
 30
0.0
 10
72.696492
 20
54.400933
 30
0.0
  0
SPLINE
  5
151
100
AcDbEntity
  8
Layer_2
 62
7
100
AcDbSpline
 70
8
 71
3
 72
8
 73
4
 74
0
 40
0
 40
0
 40
0
 40
0
 40
1
 40
1
 40
1
 40
1
 10
72.696492
 20
54.400933
 30
0.0
 10
73.556272
 20
54.344633
 30
0.0
 10
74.577802
 20
54.380833
 30
0.0
 10
75.205292
 20
55.057563
 30
0.0
  0
SPLINE
  5
152
100
AcDbEntity
  8
Layer_2
 62
7
100
AcDbSpline
 70
8
 71
3
 72
8
 73
4
 74
0
 40
0
 40
0
 40
0
 40
0
 40
1
 40
1
 40
1
 40
1
 10
75.205292
 20
55.057563
 30
0.0
 10
75.774462
 20
55.809733
 30
0.0
 10
75.450722
 20
56.827433
 30
0.0
 10
75.131892
 20
57.616833
 30
0.0
  0
SPLINE
  5
153
100
AcDbEntity
  8
Layer_2
 62
7
100
AcDbSpline
 70
8
 71
3
 72
8
 73
4
 74
0
 40
0
 40
0
 40
0
 40
0
 40
1
 40
1
 40
1
 40
1
 10
75.131892
 20
57.616833
 30
0.0
 10
74.090102
 20
59.959833
 30
0.0
 10
72.153432
 20
61.775003
 30
0.0
 10
70.067852
 20
63.200913
 30
0.0
  0
SPLINE
  5
154
100
AcDbEntity
  8
Layer_2
 62
7
100
AcDbSpline
 70
8
 71
3
 72
8
 73
4
 74
0
 40
0
 40
0
 40
0
 40
0
 40
1
 40
1
 40
1
 40
1
 10
70.067852
 20
63.200913
 30
0.0
 10
68.833012
 20
64.143133
 30
0.0
 10
67.536712
 20
65.024953
 30
0.0
 10
66.433571
 20
66.124063
 30
0.0
  0
SPLINE
  5
155
100
AcDbEntity
  8
Layer_2
 62
7
100
AcDbSpline
 70
8
 71
3
 72
8
 73
4
 74
0
 40
0
 40
0
 40
0
 40
0
 40
1
 40
1
 40
1
 40
1
 10
66.433571
 20
66.124063
 30
0.0
 10
67.219932
 20
65.951103
 30
0.0
 10
68.044462
 20
65.743923
 30
0.0
 10
68.846922
 20
65.939003
 30
0.0
  0
SPLINE
  5
156
100
AcDbEntity
  8
Layer_2
 62
7
100
AcDbSpline
 70
8
 71
3
 72
8
 73
4
 74
0
 40
0
 40
0
 40
0
 40
0
 40
1
 40
1
 40
1
 40
1
 10
68.846922
 20
65.939003
 30
0.0
 10
69.385912
 20
66.081803
 30
0.0
 10
69.953102
 20
66.522213
 30
0.0
 10
69.923942
 20
67.133614
 30
0.0
  0
SPLINE
  5
157
100
AcDbEntity
  8
Layer_2
 62
7
100
AcDbSpline
 70
8
 71
3
 72
8
 73
4
 74
0
 40
0
 40
0
 40
0
 40
0
 40
1
 40
1
 40
1
 40
1
 10
69.923942
 20
67.133614
 30
0.0
 10
69.866742
 20
67.951104
 30
0.0
 10
69.360872
 20
68.638924
 30
0.0
 10
68.912382
 20
69.292554
 30
0.0
  0
SPLINE
  5
158
100
AcDbEntity
  8
Layer_2
 62
7
100
AcDbSpline
 70
8
 71
3
 72
8
 73
4
 74
0
 40
0
 40
0
 40
0
 40
0
 40
1
 40
1
 40
1
 40
1
 10
68.912382
 20
69.292554
 30
0.0
 10
67.557862
 20
71.250424
 30
0.0
 10
65.939891
 20
73.071534
 30
0.0
 10
63.933741
 20
74.379804
 30
0.0
  0
SPLINE
  5
159
100
AcDbEntity
  8
Layer_2
 62
7
100
AcDbSpline
 70
8
 71
3
 72
8
 73
4
 74
0
 40
0
 40
0
 40
0
 40
0
 40
1
 40
1
 40
1
 40
1
 10
63.933741
 20
74.379804
 30
0.0
 10
62.365031
 20
75.391414
 30
0.0
 10
60.693771
 20
76.228064
 30
0.0
 10
59.085841
 20
77.173314
 30
0.0
  0
SPLINE
  5
15a
100
AcDbEntity
  8
Layer_2
 62
7
100
AcDbSpline
 70
8
 71
3
 72
8
 73
4
 74
0
 40
0
 40
0
 40
0
 40
0
 40
1
 40
1
 40
1
 40
1
 10
59.085841
 20
77.173314
 30
0.0
 10
58.820371
 20
77.360334
 30
0.0
 10
58.473361
 20
77.546374
 30
0.0
 10
58.399931
 20
77.888264
 30
0.0
  0
SPLINE
  5
15b
100
AcDbEntity
  8
Layer_2
 62
7
100
AcDbSpline
 70
8
 71
3
 72
8
 73
4
 74
0
 40
0
 40
0
 40
0
 40
0
 40
1
 40
1
 40
1
 40
1
 10
58.399931
 20
77.888264
 30
0.0
 10
58.439031
 20
78.325704
 30
0.0
 10
59.157251
 20
78.166814
 30
0.0
 10
59.204521
 20
78.601244
 30
0.0
  0
SPLINE
  5
15c
100
AcDbEntity
  8
Layer_2
 62
7
100
AcDbSpline
 70
8
 71
3
 72
8
 73
4
 74
0
 40
0
 40
0
 40
0
 40
0
 40
1
 40
1
 40
1
 40
1
 10
59.204521
 20
78.601244
 30
0.0
 10
59.254721
 20
78.927054
 30
0.0
 10
58.896731
 20
79.101084
 30
0.0
 10
58.683551
 20
79.277074
 30
0.0
  0
SPLINE
  5
15d
100
AcDbEntity
  8
Layer_2
 62
7
100
AcDbSpline
 70
8
 71
3
 72
8
 73
4
 74
0
 40
0
 40
0
 40
0
 40
0
 40
1
 40
1
 40
1
 40
1
 10
58.683551
 20
79.277074
 30
0.0
 10
57.619641
 20
80.031264
 30
0.0
 10
56.246011
 20
79.907524
 30
0.0
 10
55.066471
 20
80.328874
 30
0.0
  0
SPLINE
  5
15e
100
AcDbEntity
  8
Layer_2
 62
7
100
AcDbSpline
 70
8
 71
3
 72
8
 73
4
 74
0
 40
0
 40
0
 40
0
 40
0
 40
1
 40
1
 40
1
 40
1
 10
55.066471
 20
80.328874
 30
0.0
 10
55.912151
 20
80.810534
 30
0.0
 10
56.895701
 20
80.982464
 30
0.0
 10
57.732331
 20
81.477204
 30
0.0
  0
SPLINE
  5
15f
100
AcDbEntity
  8
Layer_2
 62
7
100
AcDbSpline
 70
8
 71
3
 72
8
 73
4
 74
0
 40
0
 40
0
 40
0
 40
0
 40
1
 40
1
 40
1
 40
1
 10
57.732331
 20
81.477204
 30
0.0
 10
57.979711
 20
81.591824
 30
0.0
 10
58.034021
 20
81.965004
 30
0.0
 10
57.802731
 20
82.124894
 30
0.0
  0
SPLINE
  5
160
100
AcDbEntity
  8
Layer_2
 62
7
100
AcDbSpline
 70
8
 71
3
 72
8
 73
4
 74
0
 40
0
 40
0
 40
0
 40
0
 40
1
 40
1
 40
1
 40
1
 10
57.802731
 20
82.124894
 30
0.0
 10
56.873581
 20
82.949464
 30
0.0
 10
55.571271
 20
83.117334
 30
0.0
 10
54.377641
 20
83.156554
 30
0.0
  0
SPLINE
  5
161
100
AcDbEntity
  8
Layer_2
 62
7
100
AcDbSpline
 70
8
 71
3
 72
8
 73
4
 74
0
 40
0
 40
0
 40
0
 40
0
 40
1
 40
1
 40
1
 40
1
 10
54.377641
 20
83.156554
 30
0.0
 10
52.041681
 20
83.233854
 30
0.0
 10
49.654441
 20
83.038804
 30
0.0
 10
47.459251
 20
82.189054
 30
0.0
  0
SPLINE
  5
162
100
AcDbEntity
  8
Layer_2
 62
7
100
AcDbSpline
 70
8
 71
3
 72
8
 73
4
 74
0
 40
0
 40
0
 40
0
 40
0
 40
1
 40
1
 40
1
 40
1
 10
47.459251
 20
82.189054
 30
0.0
 10
45.074021
 20
83.917654
 30
0.0
 10
43.403771
 20
86.566434
 30
0.0
 10
40.661551
 20
87.801304
 30
0.0
  0
SPLINE
  5
163
100
AcDbEntity
  8
Layer_2
 62
7
100
AcDbSpline
 70
8
 71
3
 72
8
 73
4
 74
0
 40
0
 40
0
 40
0
 40
0
 40
1
 40
1
 40
1
 40
1
 10
40.661551
 20
87.801304
 30
0.0
 10
40.066371
 20
88.094814
 30
0.0
 10
39.384451
 20
88.297874
 30
0.0
 10
38.717791
 20
88.279114
 30
0.0
  0
SPLINE
  5
164
100
AcDbEntity
  8
Layer_3
 62
7
100
AcDbSpline
 70
8
 71
3
 72
8
 73
4
 74
0
 40
0
 40
0
 40
0
 40
0
 40
1
 40
1
 40
1
 40
1
 10
40.355161
 20
69.804529
 30
0.0
 10
40.125179
 20
69.810828
 30
0.0
 10
39.893656
 20
69.763555
 30
0.0
 10
39.683368
 20
69.659835
 30
0.0
  0
SPLINE
  5
165
100
AcDbEntity
  8
Layer_3
 62
7
100
AcDbSpline
 70
8
 71
3
 72
8
 73
4
 74
0
 40
0
 40
0
 40
0
 40
0
 40
1
 40
1
 40
1
 40
1
 10
39.683368
 20
69.659835
 30
0.0
 10
38.277557
 20
69.139965
 30
0.0
 10
37.298927
 20
67.946512
 30
0.0
 10
36.049995
 20
67.175232
 30
0.0
  0
SPLINE
  5
166
100
AcDbEntity
  8
Layer_3
 62
7
100
AcDbSpline
 70
8
 71
3
 72
8
 73
4
 74
0
 40
0
 40
0
 40
0
 40
0
 40
1
 40
1
 40
1
 40
1
 10
36.049995
 20
67.175232
 30
0.0
 10
35.675917
 20
67.115912
 30
0.0
 10
35.032331
 20
67.014938
 30
0.0
 10
34.859370
 20
67.439298
 30
0.0
  0
SPLINE
  5
167
100
AcDbEntity
  8
Layer_3
 62
7
100
AcDbSpline
 70
8
 71
3
 72
8
 73
4
 74
0
 40
0
 40
0
 40
0
 40
0
 40
1
 40
1
 40
1
 40
1
 10
34.859370
 20
67.439298
 30
0.0
 10
35.017242
 20
68.056718
 30
0.0
 10
35.624061
 20
68.564505
 30
0.0
 10
35.601961
 20
69.241255
 30
0.0
  0
SPLINE
  5
168
100
AcDbEntity
  8
Layer_3
 62
7
100
AcDbSpline
 70
8
 71
3
 72
8
 73
4
 74
0
 40
0
 40
0
 40
0
 40
0
 40
1
 40
1
 40
1
 40
1
 10
35.601961
 20
69.241255
 30
0.0
 10
35.483303
 20
69.667636
 30
0.0
 10
34.976086
 20
69.567132
 30
0.0
 10
34.657316
 20
69.468632
 30
0.0
  0
SPLINE
  5
169
100
AcDbEntity
  8
Layer_3
 62
7
100
AcDbSpline
 70
8
 71
3
 72
8
 73
4
 74
0
 40
0
 40
0
 40
0
 40
0
 40
1
 40
1
 40
1
 40
1
 10
34.657316
 20
69.468632
 30
0.0
 10
33.008166
 20
69.020142
 30
0.0
 10
31.857006
 20
67.680037
 30
0.0
 10
30.519585
 20
66.709627
 30
0.0
  0
SPLINE
  5
16a
100
AcDbEntity
  8
Layer_3
 62
7
100
AcDbSpline
 70
8
 71
3
 72
8
 73
4
 74
0
 40
0
 40
0
 40
0
 40
0
 40
1
 40
1
 40
1
 40
1
 10
30.519585
 20
66.709627
 30
0.0
 10
30.518526
 20
67.046507
 30
0.0
 10
30.601140
 20
67.387075
 30
0.0
 10
30.542841
 20
67.720935
 30
0.0
  0
SPLINE
  5
16b
100
AcDbEntity
  8
Layer_3
 62
7
100
AcDbSpline
 70
8
 71
3
 72
8
 73
4
 74
0
 40
0
 40
0
 40
0
 40
0
 40
1
 40
1
 40
1
 40
1
 10
30.542841
 20
67.720935
 30
0.0
 10
30.335691
 20
68.069885
 30
0.0
 10
29.878817
 20
67.919414
 30
0.0
 10
29.582176
 20
67.789665
 30
0.0
  0
SPLINE
  5
16c
100
AcDbEntity
  8
Layer_3
 62
7
100
AcDbSpline
 70
8
 71
3
 72
8
 73
4
 74
0
 40
0
 40
0
 40
0
 40
0
 40
1
 40
1
 40
1
 40
1
 10
29.582176
 20
67.789665
 30
0.0
 10
27.898836
 20
67.049564
 30
0.0
 10
26.491084
 20
65.821313
 30
0.0
 10
25.177794
 20
64.557304
 30
0.0
  0
SPLINE
  5
16d
100
AcDbEntity
  8
Layer_3
 62
7
100
AcDbSpline
 70
8
 71
3
 72
8
 73
4
 74
0
 40
0
 40
0
 40
0
 40
0
 40
1
 40
1
 40
1
 40
1
 10
25.177794
 20
64.557304
 30
0.0
 10
23.109314
 20
62.480783
 30
0.0
 10
21.313615
 20
60.115650
 30
0.0
 10
19.963125
 20
57.510189
 30
0.0
  0
SPLINE
  5
16e
100
AcDbEntity
  8
Layer_3
 62
7
100
AcDbSpline
 70
8
 71
3
 72
8
 73
4
 74
0
 40
0
 40
0
 40
0
 40
0
 40
1
 40
1
 40
1
 40
1
 10
19.963125
 20
57.510189
 30
0.0
 10
18.544245
 20
54.751889
 30
0.0
 10
17.511214
 20
51.534352
 30
0.0
 10
18.278474
 20
48.430123
 30
0.0
  0
SPLINE
  5
16f
100
AcDbEntity
  8
Layer_3
 62
7
100
AcDbSpline
 70
8
 71
3
 72
8
 73
4
 74
0
 40
0
 40
0
 40
0
 40
0
 40
1
 40
1
 40
1
 40
1
 10
18.278474
 20
48.430123
 30
0.0
 10
18.544954
 20
47.103761
 30
0.0
 10
19.546380
 20
46.060753
 30
0.0
 10
20.690730
 20
45.410153
 30
0.0
  0
SPLINE
  5
170
100
AcDbEntity
  8
Layer_3
 62
7
100
AcDbSpline
 70
8
 71
3
 72
8
 73
4
 74
0
 40
0
 40
0
 40
0
 40
0
 40
1
 40
1
 40
1
 40
1
 10
20.690730
 20
45.410153
 30
0.0
 10
22.291610
 20
44.486011
 30
0.0
 10
24.112022
 20
44.040807
 30
0.0
 10
25.907982
 20
43.671755
 30
0.0
  0
SPLINE
  5
171
100
AcDbEntity
  8
Layer_3
 62
7
100
AcDbSpline
 70
8
 71
3
 72
8
 73
4
 74
0
 40
0
 40
0
 40
0
 40
0
 40
1
 40
1
 40
1
 40
1
 10
25.907982
 20
43.671755
 30
0.0
 10
29.807633
 20
42.962826
 30
0.0
 10
33.718021
 20
42.231747
 30
0.0
 10
37.685041
 20
42.034646
 30
0.0
  0
SPLINE
  5
172
100
AcDbEntity
  8
Layer_3
 62
7
100
AcDbSpline
 70
8
 71
3
 72
8
 73
4
 74
0
 40
0
 40
0
 40
0
 40
0
 40
1
 40
1
 40
1
 40
1
 10
37.685041
 20
42.034646
 30
0.0
 10
40.909931
 20
41.876767
 30
0.0
 10
44.125288
 20
41.540878
 30
0.0
 10
47.354218
 20
41.437267
 30
0.0
  0
SPLINE
  5
173
100
AcDbEntity
  8
Layer_3
 62
7
100
AcDbSpline
 70
8
 71
3
 72
8
 73
4
 74
0
 40
0
 40
0
 40
0
 40
0
 40
1
 40
1
 40
1
 40
1
 10
47.354218
 20
41.437267
 30
0.0
 10
50.559989
 20
41.328666
 30
0.0
 10
53.928622
 20
41.360697
 30
0.0
 10
56.870950
 20
42.807727
 30
0.0
  0
SPLINE
  5
174
100
AcDbEntity
  8
Layer_3
 62
7
100
AcDbSpline
 70
8
 71
3
 72
8
 73
4
 74
0
 40
0
 40
0
 40
0
 40
0
 40
1
 40
1
 40
1
 40
1
 10
56.870950
 20
42.807727
 30
0.0
 10
58.396400
 20
43.548835
 30
0.0
 10
59.682105
 20
44.794909
 30
0.0
 10
60.387016
 20
46.346529
 30
0.0
  0
SPLINE
  5
175
100
AcDbEntity
  8
Layer_3
 62
7
100
AcDbSpline
 70
8
 71
3
 72
8
 73
4
 74
0
 40
0
 40
0
 40
0
 40
0
 40
1
 40
1
 40
1
 40
1
 10
60.387016
 20
46.346529
 30
0.0
 10
61.234744
 20
48.180689
 30
0.0
 10
61.328232
 20
50.260844
 30
0.0
 10
61.149241
 20
52.243843
 30
0.0
  0
SPLINE
  5
176
100
AcDbEntity
  8
Layer_3
 62
7
100
AcDbSpline
 70
8
 71
3
 72
8
 73
4
 74
0
 40
0
 40
0
 40
0
 40
0
 40
1
 40
1
 40
1
 40
1
 10
61.149241
 20
52.243843
 30
0.0
 10
60.849582
 20
55.382272
 30
0.0
 10
59.553695
 20
58.370273
 30
0.0
 10
57.683303
 20
60.887243
 30
0.0
  0
SPLINE
  5
177
100
AcDbEntity
  8
Layer_3
 62
7
100
AcDbSpline
 70
8
 71
3
 72
8
 73
4
 74
0
 40
0
 40
0
 40
0
 40
0
 40
1
 40
1
 40
1
 40
1
 10
57.683303
 20
60.887243
 30
0.0
 10
55.739515
 20
63.512803
 30
0.0
 10
53.262703
 20
65.702666
 30
0.0
 10
50.595882
 20
67.569006
 30
0.0
  0
SPLINE
  5
178
100
AcDbEntity
  8
Layer_3
 62
7
100
AcDbSpline
 70
8
 71
3
 72
8
 73
4
 74
0
 40
0
 40
0
 40
0
 40
0
 40
1
 40
1
 40
1
 40
1
 10
50.595882
 20
67.569006
 30
0.0
 10
50.371632
 20
67.763026
 30
0.0
 10
49.928995
 20
67.782531
 30
0.0
 10
49.825387
 20
67.451701
 30
0.0
  0
SPLINE
  5
179
100
AcDbEntity
  8
Layer_3
 62
7
100
AcDbSpline
 70
8
 71
3
 72
8
 73
4
 74
0
 40
0
 40
0
 40
0
 40
0
 40
1
 40
1
 40
1
 40
1
 10
49.825387
 20
67.451701
 30
0.0
 10
49.658387
 20
66.684441
 30
0.0
 10
49.726168
 20
65.887997
 30
0.0
 10
49.726168
 20
65.107658
 30
0.0
  0
SPLINE
  5
17a
100
AcDbEntity
  8
Layer_3
 62
7
100
AcDbSpline
 70
8
 71
3
 72
8
 73
4
 74
0
 40
0
 40
0
 40
0
 40
0
 40
1
 40
1
 40
1
 40
1
 10
49.726168
 20
65.107658
 30
0.0
 10
48.163486
 20
66.483298
 30
0.0
 10
46.453761
 20
67.739019
 30
0.0
 10
44.510982
 20
68.520369
 30
0.0
  0
SPLINE
  5
17b
100
AcDbEntity
  8
Layer_3
 62
7
100
AcDbSpline
 70
8
 71
3
 72
8
 73
4
 74
0
 40
0
 40
0
 40
0
 40
0
 40
1
 40
1
 40
1
 40
1
 10
44.510982
 20
68.520369
 30
0.0
 10
44.248531
 20
68.654099
 30
0.0
 10
43.860395
 20
68.558697
 30
0.0
 10
43.786994
 20
68.245967
 30
0.0
  0
SPLINE
  5
17c
100
AcDbEntity
  8
Layer_3
 62
7
100
AcDbSpline
 70
8
 71
3
 72
8
 73
4
 74
0
 40
0
 40
0
 40
0
 40
0
 40
1
 40
1
 40
1
 40
1
 10
43.786994
 20
68.245967
 30
0.0
 10
43.810119
 20
67.939267
 30
0.0
 10
43.910798
 20
67.645488
 30
0.0
 10
43.978198
 20
67.346797
 30
0.0
  0
SPLINE
  5
17d
100
AcDbEntity
  8
Layer_3
 62
7
100
AcDbSpline
 70
8
 71
3
 72
8
 73
4
 74
0
 40
0
 40
0
 40
0
 40
0
 40
1
 40
1
 40
1
 40
1
 10
43.978198
 20
67.346797
 30
0.0
 10
43.010828
 20
68.023567
 30
0.0
 10
42.126856
 20
68.810888
 30
0.0
 10
41.186638
 20
69.521859
 30
0.0
  0
SPLINE
  5
17e
100
AcDbEntity
  8
Layer_3
 62
7
100
AcDbSpline
 70
8
 71
3
 72
8
 73
4
 74
0
 40
0
 40
0
 40
0
 40
0
 40
1
 40
1
 40
1
 40
1
 10
41.186638
 20
69.521859
 30
0.0
 10
40.943978
 20
69.699999
 30
0.0
 10
40.650854
 20
69.795528
 30
0.0
 10
40.355163
 20
69.804529
 30
0.0
  0
LWPOLYLINE
  5
17f
100
AcDbEntity
  8
Layer_2
 62
7
100
AcDbPolyline
 90
2
 70
0
 10
38.717791
 20
88.279114
 30
0.0
 10
38.717971
 20
88.279214
 30
0.0
  0
SPLINE
  5
180
100
AcDbEntity
  8
Layer_1
 62
7
100
AcDbSpline
 70
8
 71
3
 72
8
 73
4
 74
0
 40
0
 40
0
 40
0
 40
0
 40
1
 40
1
 40
1
 40
1
 10
21.483750
 20
40.997913
 30
0.0
 10
22.400711
 20
40.992913
 30
0.0
 10
21.395450
 20
39.939743
 30
0.0
 10
25.785521
 20
40.452213
 30
0.0
  0
SPLINE
  5
181
100
AcDbEntity
  8
Layer_1
 62
7
100
AcDbSpline
 70
8
 71
3
 72
8
 73
4
 74
0
 40
0
 40
0
 40
0
 40
0
 40
1
 40
1
 40
1
 40
1
 10
25.785521
 20
40.452213
 30
0.0
 10
27.760511
 20
40.692293
 30
0.0
 10
29.729881
 20
40.354613
 30
0.0
 10
31.706231
 20
40.285263
 30
0.0
  0
SPLINE
  5
182
100
AcDbEntity
  8
Layer_1
 62
7
100
AcDbSpline
 70
8
 71
3
 72
8
 73
4
 74
0
 40
0
 40
0
 40
0
 40
0
 40
1
 40
1
 40
1
 40
1
 10
31.706231
 20
40.285263
 30
0.0
 10
33.967751
 20
39.807443
 30
0.0
 10
36.286731
 20
39.770613
 30
0.0
 10
38.573781
 20
39.457303
 30
0.0
  0
SPLINE
  5
183
100
AcDbEntity
  8
Layer_1
 62
7
100
AcDbSpline
 70
8
 71
3
 72
8
 73
4
 74
0
 40
0
 40
0
 40
0
 40
0
 40
1
 40
1
 40
1
 40
1
 10
38.573781
 20
39.457303
 30
0.0
 10
41.616471
 20
38.508153
 30
0.0
 10
44.817381
 20
39.000483
 30
0.0
 10
47.933491
 20
39.067263
 30
0.0
  0
SPLINE
  5
184
100
AcDbEntity
  8
Layer_1
 62
7
100
AcDbSpline
 70
8
 71
3
 72
8
 73
4
 74
0
 40
0
 40
0
 40
0
 40
0
 40
1
 40
1
 40
1
 40
1
 10
47.933491
 20
39.067263
 30
0.0
 10
49.650481
 20
38.867593
 30
0.0
 10
51.360461
 20
38.745223
 30
0.0
 10
53.090591
 20
38.767933
 30
0.0
  0
SPLINE
  5
185
100
AcDbEntity
  8
Layer_1
 62
7
100
AcDbSpline
 70
8
 71
3
 72
8
 73
4
 74
0
 40
0
 40
0
 40
0
 40
0
 40
1
 40
1
 40
1
 40
1
 10
53.090591
 20
38.767933
 30
0.0
 10
54.757661
 20
38.545183
 30
0.0
 10
56.341201
 20
37.932963
 30
0.0
 10
57.995371
 20
37.615193
 30
0.0
  0
SPLINE
  5
186
100
AcDbEntity
  8
Layer_1
 62
7
100
AcDbSpline
 70
8
 71
3
 72
8
 73
4
 74
0
 40
0
 40
0
 40
0
 40
0
 40
1
 40
1
 40
1
 40
1
 10
57.995371
 20
37.615193
 30
0.0
 10
64.315281
 20
34.537173
 30
0.0
 10
61.755251
 20
38.055423
 30
0.0
 10
64.629411
 20
34.998343
 30
0.0
  0
SPLINE
  5
187
100
AcDbEntity
  8
Layer_1
 62
7
100
AcDbSpline
 70
8
 71
3
 72
8
 73
4
 74
0
 40
0
 40
0
 40
0
 40
0
 40
1
 40
1
 40
1
 40
1
 10
64.629411
 20
34.998343
 30
0.0
 10
65.175101
 20
34.125753
 30
0.0
 10
65.797251
 20
32.806933
 30
0.0
 10
65.140851
 20
31.848273
 30
0.0
  0
SPLINE
  5
188
100
AcDbEntity
  8
Layer_1
 62
7
100
AcDbSpline
 70
8
 71
3
 72
8
 73
4
 74
0
 40
0
 40
0
 40
0
 40
0
 40
1
 40
1
 40
1
 40
1
 10
65.140851
 20
31.848273
 30
0.0
 10
63.936621
 20
31.082593
 30
0.0
 10
62.804751
 20
30.124553
 30
0.0
 10
62.149881
 20
28.826553
 30
0.0
  0
SPLINE
  5
189
100
AcDbEntity
  8
Layer_1
 62
7
100
AcDbSpline
 70
8
 71
3
 72
8
 73
4
 74
0
 40
0
 40
0
 40
0
 40
0
 40
1
 40
1
 40
1
 40
1
 10
62.149881
 20
28.826553
 30
0.0
 10
61.720331
 20
27.433323
 30
0.0
 10
60.865541
 20
26.271643
 30
0.0
 10
59.901091
 20
25.199973
 30
0.0
  0
SPLINE
  5
18a
100
AcDbEntity
  8
Layer_1
 62
7
100
AcDbSpline
 70
8
 71
3
 72
8
 73
4
 74
0
 40
0
 40
0
 40
0
 40
0
 40
1
 40
1
 40
1
 40
1
 10
59.901091
 20
25.199973
 30
0.0
 10
58.677751
 20
24.206533
 30
0.0
 10
57.773301
 20
22.876133
 30
0.0
 10
56.486791
 20
21.959002
 30
0.0
  0
SPLINE
  5
18b
100
AcDbEntity
  8
Layer_1
 62
7
100
AcDbSpline
 70
8
 71
3
 72
8
 73
4
 74
0
 40
0
 40
0
 40
0
 40
0
 40
1
 40
1
 40
1
 40
1
 10
56.486791
 20
21.959002
 30
0.0
 10
54.478541
 20
19.918482
 30
0.0
 10
52.037861
 20
18.356182
 30
0.0
 10
49.415371
 20
17.222292
 30
0.0
  0
SPLINE
  5
18c
100
AcDbEntity
  8
Layer_1
 62
7
100
AcDbSpline
 70
8
 71
3
 72
8
 73
4
 74
0
 40
0
 40
0
 40
0
 40
0
 40
1
 40
1
 40
1
 40
1
 10
49.415371
 20
17.222292
 30
0.0
 10
45.907031
 20
15.486802
 30
0.0
 10
41.890391
 20
15.494132
 30
0.0
 10
38.103661
 20
16.059502
 30
0.0
  0
SPLINE
  5
18d
100
AcDbEntity
  8
Layer_1
 62
7
100
AcDbSpline
 70
8
 71
3
 72
8
 73
4
 74
0
 40
0
 40
0
 40
0
 40
0
 40
1
 40
1
 40
1
 40
1
 10
38.103661
 20
16.059502
 30
0.0
 10
34.928001
 20
16.635762
 30
0.0
 10
31.825911
 20
17.798362
 30
0.0
 10
29.055001
 20
19.463742
 30
0.0
  0
SPLINE
  5
18e
100
AcDbEntity
  8
Layer_1
 62
7
100
AcDbSpline
 70
8
 71
3
 72
8
 73
4
 74
0
 40
0
 40
0
 40
0
 40
0
 40
1
 40
1
 40
1
 40
1
 10
29.055001
 20
19.463742
 30
0.0
 10
25.559841
 20
22.070532
 30
0.0
 10
22.854491
 20
25.574383
 30
0.0
 10
20.587090
 20
29.268523
 30
0.0
  0
SPLINE
  5
18f
100
AcDbEntity
  8
Layer_1
 62
7
100
AcDbSpline
 70
8
 71
3
 72
8
 73
4
 74
0
 40
0
 40
0
 40
0
 40
0
 40
1
 40
1
 40
1
 40
1
 10
20.587090
 20
29.268523
 30
0.0
 10
19.663250
 20
30.454183
 30
0.0
 10
19.498410
 20
31.944943
 30
0.0
 10
18.973010
 20
33.306903
 30
0.0
  0
SPLINE
  5
190
100
AcDbEntity
  8
Layer_1
 62
7
100
AcDbSpline
 70
8
 71
3
 72
8
 73
4
 74
0
 40
0
 40
0
 40
0
 40
0
 40
1
 40
1
 40
1
 40
1
 10
18.973010
 20
33.306903
 30
0.0
 10
18.279120
 20
34.646323
 30
0.0
 10
17.222460
 20
35.986113
 30
0.0
 10
17.437930
 20
37.596733
 30
0.0
  0
SPLINE
  5
191
100
AcDbEntity
  8
Layer_1
 62
7
100
AcDbSpline
 70
8
 71
3
 72
8
 73
4
 74
0
 40
0
 40
0
 40
0
 40
0
 40
1
 40
1
 40
1
 40
1
 10
17.437930
 20
37.596733
 30
0.0
 10
17.737870
 20
40.248333
 30
0.0
 10
20.723990
 20
41.001063
 30
0.0
 10
21.483750
 20
40.997913
 30
0.0
  0
LWPOLYLINE
  5
192
100
AcDbEntity
  8
Layer_3
 62
7
100
AcDbPolyline
 90
1
 70
1
 10
40.355163
 20
69.804529
 30
0.0
  0
LWPOLYLINE
  5
193
100
AcDbEntity
  8
Layer_1
 62
7
100
AcDbPolyline
 90
1
 70
1
 10
21.483750
 20
40.997913
 30
0.0
  0
ENDSEC
  0
SECTION
  2
OBJECTS
  0
DICTIONARY
  5
C
330
0
100
AcDbDictionary
  3
ACAD_GROUP
350
D
  3
ACAD_MLINESTYLE
350
17
  0
DICTIONARY
  5
D
330
C
100
AcDbDictionary
  0
DICTIONARY
  5
1A
330
C
100
AcDbDictionary
  0
DICTIONARY
  5
17
330
C
100
AcDbDictionary
  3
STANDARD
350
18
  0
DICTIONARY
  5
19
330
C
100
AcDbDictionary
  0
ENDSEC
  0
EOF
