<?xml version="1.0" encoding="UTF-8" standalone="no"?>
<svg
   xmlns:dc="http://purl.org/dc/elements/1.1/"
   xmlns:cc="http://creativecommons.org/ns#"
   xmlns:rdf="http://www.w3.org/1999/02/22-rdf-syntax-ns#"
   xmlns:svg="http://www.w3.org/2000/svg"
   xmlns="http://www.w3.org/2000/svg"
   xmlns:sodipodi="http://sodipodi.sourceforge.net/DTD/sodipodi-0.dtd"
   xmlns:inkscape="http://www.inkscape.org/namespaces/inkscape"
   width="81.280022mm"
   height="88.900002mm"
   viewBox="0 0 81.280022 88.900002"
   version="1.1"
   id="svg3362"
   sodipodi:docname="silk.svg"
   inkscape:version="1.0.2-2 (e86c870879, 2021-01-15)">
  <sodipodi:namedview
     pagecolor="#ffffff"
     bordercolor="#666666"
     borderopacity="1"
     objecttolerance="10"
     gridtolerance="10"
     guidetolerance="10"
     inkscape:pageopacity="0"
     inkscape:pageshadow="2"
     inkscape:window-width="1748"
     inkscape:window-height="1051"
     id="namedview4868"
     showgrid="false"
     inkscape:zoom="0.65476189"
     inkscape:cx="-132.77842"
     inkscape:cy="573.86523"
     inkscape:window-x="163"
     inkscape:window-y="-9"
     inkscape:window-maximized="1"
     inkscape:current-layer="layer1" />
  <defs
     id="defs3356" />
  <metadata
     id="metadata3359">
    <rdf:RDF>
      <cc:Work
         rdf:about="">
        <dc:format>image/svg+xml</dc:format>
        <dc:type
           rdf:resource="http://purl.org/dc/dcmitype/StillImage" />
        <dc:title></dc:title>
      </cc:Work>
    </rdf:RDF>
  </metadata>
  <g
     id="layer1"
     transform="translate(-199.92878,-11.583931)">
    <rect
       style="display:inline;fill:none;stroke:#000000;stroke-width:0.230414;stroke-miterlimit:4;stroke-dasharray:none;stroke-opacity:1"
       id="rect3276"
       width="81.049606"
       height="88.669586"
       x="200.04399"
       y="11.699138" />
    <path
       id="path25-1-9"
       style="display:inline;fill:#fee0e0;fill-opacity:1;stroke-width:0.119218"
       d="m 223.41996,60.944236 c -0.606,-0.005 -1.2103,0.0269 -1.80535,0.0937 -0.20311,0.009 -0.42716,0.1464 -0.37321,0.31123 0.14709,0.79086 0.20306,1.587 0.40192,2.37622 0.14063,0.64148 0.28751,1.30696 0.74331,1.88671 0.1996,0.0472 0.32458,-0.10585 0.47872,-0.16128 0.0489,-7.1e-4 0.14657,-0.001 0.19401,-0.001 0.11801,0.16635 0.23454,0.33468 0.35237,0.50304 0.15498,-0.0809 0.30993,-0.16078 0.46482,-0.24063 0.50247,0.0944 1.00244,0.20064 1.50454,0.29897 0.40586,-0.46023 0.74461,-0.951 1.07246,-1.44475 0.3731,0.48835 0.65564,1.00678 0.98706,1.50893 0.0765,10e-4 0.23086,0.009 0.30738,0.0125 0.39164,-0.48919 0.65965,-1.03235 1.09824,-1.49998 -3.5e-4,0.91549 -0.24848,1.83601 0.18322,2.739 0.0348,1.29321 0.40029,2.68009 1.70039,3.67343 0.0887,-0.0405 0.26754,-0.12237 0.3562,-0.16292 0.17188,-1.02366 0.57862,-2.00413 0.58386,-3.05263 0.54429,-1.26099 0.82287,-2.57918 1.23685,-3.86595 0.23214,0.77572 0.0154,1.56148 0.288,2.33765 0.14401,0.0125 0.28651,0.0261 0.43044,0.0396 0.54345,-0.61343 0.9188,-1.29893 1.35588,-1.95658 0.0776,0.006 0.22994,0.0193 0.3061,0.0257 -0.041,0.54859 -0.0515,1.09981 0.0104,1.65229 0.0923,0.0135 0.27439,0.0374 0.36681,0.0495 0.59171,-0.5271 1.00589,-1.14583 1.41404,-1.75981 0.16037,0.67091 0.0563,1.36707 0.41526,2.01635 0.13995,0.01 0.27978,0.0234 0.42094,0.0367 0.28146,-0.80877 0.49232,-1.64116 0.96877,-2.39798 0.37576,0.777 0.77358,1.55689 0.94391,2.36928 0.10101,0.009 0.30293,0.0306 0.40393,0.0404 0.53154,-0.73251 0.6807,-1.57639 1.00809,-2.36782 0.51289,0.80438 0.95838,1.64703 1.03478,2.52818 0.13527,0.0171 0.27029,0.035 0.40668,0.055 0.55643,-0.6503 0.80092,-1.41813 1.30469,-2.08843 0.0619,0.64793 0.15414,1.29958 0.088,1.94451 0.0834,0.0524 0.25003,0.15729 0.33334,0.20974 0.65192,-0.51362 1.15017,-1.12085 1.54696,-1.76457 0.17671,0.57997 0.26904,1.16798 0.36279,1.75507 0.96902,-0.1667 1.10154,-1.01303 1.71192,-1.48207 0.32462,0.0695 0.33094,0.38001 0.40411,0.58039 0.1155,0.83223 0.12758,1.66858 0.0828,2.49911 0.24048,1.31836 0.18422,2.64668 0.0541,3.95831 0.2133,0.0659 0.4252,0.1326 0.63981,0.19968 1.8967,-1.3921 2.32605,-3.5253 2.65471,-5.44768 0.37831,0.44467 0.59001,0.94364 0.82798,1.4294 0.13424,0.0125 0.26976,0.0277 0.40501,0.0445 0.52335,-0.60698 0.71188,-1.32747 1.04962,-1.9979 0.31238,0.6719 0.41377,1.37877 0.74183,2.0469 0.071,0.17864 0.35235,0.2156 0.53963,0.30794 0.27249,-0.27587 0.50362,-0.57287 0.70782,-0.88137 0.26055,0.35533 0.53253,0.7087 0.85833,1.03588 0.15207,-0.15913 0.30143,-0.32065 0.45219,-0.48091 0.0422,0.01 0.1269,0.0329 0.16788,0.0435 0.1443,0.0886 0.26545,0.22021 0.4566,0.25234 0.86755,-0.82525 1.14425,-1.89831 1.5272,-2.89426 0.0886,-0.42332 0.18145,-0.84627 0.25912,-1.27159 -0.97705,-0.21993 -1.98864,-0.23651 -2.98185,-0.36754 -1.94062,-0.19544 -3.81352,-0.76574 -5.77186,-0.82212 -1.50354,-0.0556 -2.9512,-0.46444 -4.42257,-0.68042 -1.50118,0.1407 -3.03014,0.10554 -4.55204,0.0204 -1.32761,0.24617 -2.72012,-0.0584 -3.98024,-0.45604 -1.1209,-0.0592 -2.11488,-0.56378 -3.23346,-0.6175 -1.61648,-0.13635 -3.23421,-0.2747 -4.84954,-0.42423 -1.2305,-0.16205 -2.40671,0.34783 -3.63702,0.04 -0.984,-0.21631 -1.99872,-0.32546 -3.00872,-0.33334 z m 0.83309,5.07354 c -0.57364,0.22489 -1.0267,0.57112 -1.37691,0.96951 -0.70502,-0.53879 -0.56864,-0.43714 0,2e-4 -0.73016,0.64225 -1.17969,1.64772 -0.46811,2.44588 0.39719,0.37242 0.21247,0.85815 0.45842,1.26866 0.25246,0.54348 1.18824,0.72391 1.34217,1.30906 0.23778,0.66332 0.91397,1.14835 1.72836,1.4413 0.58985,0.77005 1.4543,1.43285 2.6218,1.69306 1.06036,1.03806 2.42707,2.16332 4.30774,2.16685 0.95505,0.71067 2.26757,1.38492 3.64122,1.25055 0.86877,0.77189 2.37185,0.78524 3.46166,0.40229 1.08678,0.481 2.58141,0.895 3.59003,0.19603 1.18154,0.38665 2.48383,0.0614 3.46788,-0.40467 0.53333,-0.3064 1.25563,-0.0135 1.86642,-0.13635 1.23037,-0.20333 2.24479,-0.7921 3.07308,-1.45553 1.0638,0.009 2.00014,-0.39048 2.58851,-1.00718 0.30095,-0.39347 1.05236,-0.17677 1.42118,-0.50065 0.56367,-0.43001 1.35795,-0.69008 1.67186,-1.27946 0.60451,-0.3864 1.04764,-0.89052 1.10719,-1.50729 0.57829,-0.3579 0.98561,-0.89699 0.86711,-1.48828 -0.14925,-0.54368 -0.49252,-1.05302 -0.82706,-1.55134 -0.23487,-0.34591 -0.58162,-0.64122 -0.98579,-0.88594 -0.25898,0.44024 -0.23416,0.93822 -0.37539,1.40415 -0.33101,-0.0444 -0.66008,-0.0958 -0.98763,-0.1479 -0.30968,0.54151 -0.23628,1.15341 -0.39241,1.72581 -1.37672,-0.29289 -1.41867,1.01611 -1.86768,1.63472 -0.23497,-0.16937 -0.47017,-0.33662 -0.70383,-0.50486 -0.122,-0.009 -0.36582,-0.0279 -0.48639,-0.0375 -0.74781,0.57299 -0.97206,1.38175 -1.34967,2.10925 -0.69337,-0.28851 -1.17785,-0.74768 -1.46998,-1.28437 -0.2285,-0.49829 -0.94621,-0.63709 -1.52924,-0.81537 -0.71065,0.53108 -1.1892,1.19958 -1.55573,1.89623 -0.0944,0.36022 0.20011,0.7596 -0.0457,1.09732 -0.35475,0.51398 -0.4587,1.09606 -0.56047,1.66913 -0.98767,-0.92805 -1.64927,-2.02582 -2.73278,-2.9109 -0.71493,0.88272 -0.15613,2.04011 -0.69469,2.98038 -0.78242,-0.81772 -1.35506,-1.75358 -2.36469,-2.44646 -0.26868,0.85406 -0.28923,1.74318 -0.4917,2.60608 -0.29329,-0.90628 0.0494,-1.8247 -0.3083,-2.7284 -0.8887,0.62018 -1.6961,1.29997 -2.47168,1.9988 -0.074,7.1e-4 -0.22193,0.001 -0.29586,7.1e-4 -0.0529,-0.98994 0.46484,-2.01204 -0.0366,-2.97965 -1.23048,0.52358 -1.89156,1.47777 -2.84616,2.2133 -0.12807,-0.0194 -0.2563,-0.0377 -0.38455,-0.0553 -0.0224,-1.48196 -0.14367,-2.9829 -0.64384,-4.44303 -0.0969,-0.29587 -0.43863,-0.74449 -0.91593,-0.55223 -1.03727,0.38856 -1.83069,1.05311 -2.56036,1.70568 -0.19633,-0.0684 -0.3912,-0.138 -0.58441,-0.21027 0.0756,-0.73648 -0.29532,-1.48946 -1.02381,-2.03045 -0.4018,-0.0166 -0.78995,0.0497 -1.17669,0.10029 -0.16659,-0.71146 -0.32836,-1.63807 -1.50473,-1.81282 -0.0326,-0.0572 -0.10081,-0.17187 -0.13348,-0.22913 0.16817,-0.43894 0.22169,-0.90553 0.10296,-1.3665 -0.34489,-0.0291 -0.69239,-0.046 -1.0335,-0.10264 -0.13197,-0.46933 0.12065,-0.94716 -0.13184,-1.41058 z"
       sodipodi:nodetypes="cccccccccccccccccccccccccccccccccccccccccccccccccccccccccccccccccsccccccccccccccccccccccccccccccccccccccccccccccccccccccccc" />
  </g>
</svg>
