<?xml version="1.0" encoding="UTF-8" standalone="no"?>
<svg
   xmlns:dc="http://purl.org/dc/elements/1.1/"
   xmlns:cc="http://creativecommons.org/ns#"
   xmlns:rdf="http://www.w3.org/1999/02/22-rdf-syntax-ns#"
   xmlns:svg="http://www.w3.org/2000/svg"
   xmlns="http://www.w3.org/2000/svg"
   xmlns:sodipodi="http://sodipodi.sourceforge.net/DTD/sodipodi-0.dtd"
   xmlns:inkscape="http://www.inkscape.org/namespaces/inkscape"
   width="490.27808pt"
   height="598.28003pt"
   viewBox="0 0 490.27808 598.28003"
   version="1.1"
   id="svg39"
   sodipodi:docname="Abominable Rudolph Snowman Face.svg"
   inkscape:version="0.92.4 (5da689c313, 2019-01-14)">
  <metadata
     id="metadata45">
    <rdf:RDF>
      <cc:Work
         rdf:about="">
        <dc:format>image/svg+xml</dc:format>
        <dc:type
           rdf:resource="http://purl.org/dc/dcmitype/StillImage" />
        <dc:title></dc:title>
      </cc:Work>
    </rdf:RDF>
  </metadata>
  <defs
     id="defs43" />
  <sodipodi:namedview
     pagecolor="#ffffff"
     bordercolor="#666666"
     borderopacity="1"
     objecttolerance="10"
     gridtolerance="10"
     guidetolerance="10"
     inkscape:pageopacity="0"
     inkscape:pageshadow="2"
     inkscape:window-width="640"
     inkscape:window-height="480"
     id="namedview41"
     showgrid="false"
     inkscape:pagecheckerboard="true"
     inkscape:zoom="0.75999999"
     inkscape:cx="-223.59"
     inkscape:cy="281.90918"
     inkscape:current-layer="svg39" />
  <path
     style="opacity:1;fill:#000000;stroke-width:1"
     d="m 228.20647,0.00133 c 11.71999,12.529987 17.66988,29.159415 20.12988,45.899414 -6.63,-5.61 -9.60944,-16.290742 -18.43946,-19.010744 4.14,9.60999 7.42887,21.800197 -0.16113,30.700192 -17.07,-3.199995 -33.54915,-10.179315 -51.13916,-10.299315 4.54001,5.679997 10.07022,10.599532 13.97022,16.769535 -17.86,0.78 -35.85016,-0.969945 -53.66016,0.810052 -8.02,0.730013 -15.59056,3.759728 -23.56054,4.719728 -0.09,0.890002 -0.18979,1.790917 -0.27979,2.690917 12.45,-1.659997 25.09054,-1.31106 37.29052,1.91895 -0.05,0.889987 -0.0904,1.790917 -0.13036,2.690917 -8.49,2.829998 -17.14008,5.42994 -25.33008,8.93994 -7.31,1.29 -13.5995,5.56911 -20.74952,7.349123 -4.40998,1.14 -8.610396,2.960685 -12.420396,5.45068 -12.45,5.210001 -25.100002,10.620451 -36,18.710451 7.369995,0.44 14.149448,-4.78094 21.439447,-6.21094 11.300003,-2.29 21.850099,-7.52968 33.350099,-8.92969 -5.98,6.16002 -14.409839,9.01067 -21.339839,13.93067 -12.310012,7.55 -24.639524,15.139 -36.269534,23.729 -10.47,7.36001 -21.30039,15.07111 -28.400392,25.89112 5.22,-1.22001 8.829457,-5.74034 13.939454,-7.34033 9.63,-4.66001 20.650253,-5.38041 30.760253,-1.92042 0.970005,2.06001 1.599922,4.55961 -0.58008,6.09961 -10.999995,10.77 -16.72974,25.3302 -24.73974,38.2002 -2.770013,9.69999 -10.36983,17.46964 -11.819827,27.61963 7.820002,-0.75999 14.479844,-6.46952 22.089847,-8.74952 -18.280012,23.61 -33.670507,49.30963 -50.270512,74.11964 -2.7999975,3.78 -6.849195,7.43089 -5.67919497,12.67089 6.94999487,-0.86 13.41953197,-4.09101 20.51952697,-4.54101 -1.68,8.7 -6.459667,16.62017 -6.159667,25.68017 -5.9799976,11.86 -5.7396451,25.19035 -8.6396475,37.86035 4.8200025,-1.08 9.8200195,-2.48949 14.7700195,-1.47949 0.01,8.04 -8.920665,12.01967 -11.6806646,18.90967 -1.7000025,7.06 -4.3493924,13.95929 -4.8793949,21.25928 11.9399995,0.65 25.0694175,-3.08984 36.1494145,1.16015 -0.680002,6.71001 -1.999882,13.21981 -4.37988,19.54981 -1.8,12.72 5.359492,25.0413 2.979488,37.8413 -0.99,5.27001 0.619822,13.86932 7.319827,14.04932 2.059995,-3.84 3.870585,-7.84051 6.600585,-11.27051 2.919997,5.29 2.210347,11.57019 4.110352,17.2002 2.49,7.50999 -1.160137,16.45034 4.60986,22.86035 4.240013,0.51 5.0601,-4.35928 7.1001,-7.00928 2.61,-4.8 7.029143,-8.0901 11.619142,-10.8501 1.2,15.33 -3.198794,31.90885 5.24121,45.81885 2.749995,-5.34 5.989688,-10.73906 11.179688,-14.03906 2.61,-1.15001 5.059176,1.119 7.409166,1.979 0.6,3.59 1.2912,7.18062 2.4712,10.64063 1.7,4.5 -0.32023,9.59996 2.00976,13.95996 3.46001,7.16 6.49919,14.69074 6.65918,22.76074 5.18001,-2.62 10.23075,-5.51112 15.26075,-8.41113 5.1,-2.94 8.85976,-9.19032 15.50976,-8.32032 2.07,2.07 4.42967,3.90004 6.15967,6.29004 1.46,3.86001 0.93957,9.18039 5.80957,10.63038 -0.31,-3.36 1.40049,-8.32991 5.50049,-7.8999 6.86,2.76999 10.44963,9.68062 14.86962,15.14062 8.80002,2.29 12.63083,-8.86087 20.34083,-9.15088 7.21,9.93 16.83023,18.07988 26.49023,25.60988 0.38,-7.52003 0.54905,-16.71967 7.51904,-21.38966 3.91,-0.88001 4.86055,4.24097 7.06055,6.50097 4.18,4.6 3.96971,11.56859 8.69971,15.80856 1.57,-0.27 3.24976,-0.55942 4.25976,-1.93942 4.89,-5.4 9.6003,-11.07039 15.30029,-15.65039 10.01001,4.67 12.24948,18.35001 22.70948,22.27004 7.45,-6.05003 14.6507,-12.42968 20.9707,-19.65969 6.84,-8.18 11.07057,-18.76994 20.33057,-24.68994 2.58,-1.66 6.27896,-5.59959 9.18896,-2.57959 4.39,4.77 2.80979,11.68908 3.27979,17.55908 4.56,-3.27999 6.38131,-8.62939 9.34131,-13.12939 4.74,-5.37 8.11953,-11.75951 13.01953,-16.99952 3.33,-3.78 6.85054,-8.61999 12.31054,-9 8.80001,8.43 11.44969,21.39967 11.17969,33.15967 13.33,-18.61999 18.68965,-41.46084 22.88965,-63.61084 0.23,-3.95 -1.17002,-11.29872 4.72998,-11.19873 8.54,9.76 9.09014,23.71981 14.14014,35.29981 0.53,-0.03 1.58937,-0.0799 2.10937,-0.10987 12.86,-16.15998 21.53,-37.8903 16.5,-58.57031 -0.55,-2.83 0.28069,-7.39078 3.95068,-7.30078 7.14,0.05 14.18959,-1.24962 21.32959,-1.36962 -5.08999,-7.35 -12.99992,-12.67997 -15.91992,-21.45997 2.68,-6.22999 10.19065,-7.38945 14.16065,-12.43945 2.40999,-2.92001 4.9098,-5.75999 7.5498,-8.47998 -4.18,-4.15001 -8.15103,-8.52066 -12.56103,-12.43066 -2.92002,-2.26001 -2.73928,-6.8594 -0.25928,-9.3794 5.37,-5.92 12.4706,-9.97989 17.62061,-16.1499 -10.38,-16.36999 -19.90053,-33.46042 -25.29054,-52.17041 1.27001,-1.31 2.1695,-3.97942 4.4795,-3.14941 8.29,2.03001 16.44973,4.67974 24.21973,8.23974 0.45,-2.79 0.57058,-5.76102 -0.89942,-8.29101 -5.08,-9.32001 -11.66023,-17.65902 -17.49023,-26.49903 -6.83,-6.96999 -18.30992,-7.84092 -23.41993,-16.94091 0.35001,-0.69 1.06065,-2.06977 1.41065,-2.75977 5.3,-0.87 10.53918,0.31037 15.65918,1.63037 -0.79,-18.69999 -9.82961,-35.45994 -19.59961,-50.93994 -2.54,-4.14 -6.74953,-7.5099 -7.76953,-12.3999 1.56,-0.01 3.12922,-0.0501 4.69922,-0.12012 -3.11,-6.96 -6.52903,-13.80043 -8.49902,-21.19043 -4.02,-6.66 -7.33098,-13.74969 -11.75098,-20.17969 3.1,0.25 6.21105,0.47031 9.33105,0.3003 -2.94,-9.84999 -11.13074,-16.7703 -16.01074,-25.57032 -9.11,-7.17999 -16.80024,-15.85927 -25.51026,-23.50927 -0.04,-0.59001 -0.10941,-1.78012 -0.1494,-2.37012 6.69,1.49 12.91896,4.619 19.68896,5.729 -0.65,-2.35 -1.30973,-4.83977 -3.21973,-6.50976 -6.33,-6.49001 -13.27002,-12.59026 -21.52002,-16.51025 -14.62,-10.420014 -30.73965,-18.489751 -46.88965,-26.239749 12.31,-1.010002 24.65043,0.809708 36.94044,-0.300292 -3.56001,-4.240012 -9.3302,-5.229825 -14.2002,-7.319827 -16.54,-4.809998 -33.90059,-4.439258 -50.85059,-2.739255 -5.94,1.029997 -12.19885,2.539072 -18.06885,0.309082 0.15,-6.65001 6.6692,-10.358827 10.9292,-14.54883 3.82,-3.879997 11.30082,-4.850782 12.09082,-11.050785 -12.33,-1.569997 -23.32046,5.550788 -34.98046,8.050785 1.92,-6.44001 3.76914,-12.950302 7.11914,-18.820312 1.05,-2.7 3.79036,-6.520147 0.88036,-8.89014 -7.59,3.860003 -15.96026,7.040355 -21.53027,13.860353 -4.11999,-6.319995 -7.49877,-13.420935 -13.50879,-18.210938 -7.41999,-6.6 -14.97039,-13.5889046 -24.65038,-16.628902 z"
     id="path164"
     inkscape:connector-curvature="0" />
  <g
     id="g46">
    <g
       transform="translate(-54.223106,-0.28)"
       id="#0c0d10ff" />
    <g
       style="fill:#ececec"
       transform="translate(-54.223106,-0.28)"
       id="#ffffffff">
      <path
         style="opacity:1;fill:#ececec"
         inkscape:connector-curvature="0"
         id="path5"
         d="m 282.43,0.28 c 9.68,3.04 17.23,10.03 24.65,16.63 6.01,4.79 9.39,11.89 13.51,18.21 5.57,-6.82 13.94,-10 21.53,-13.86 2.91,2.37 0.17,6.19 -0.88,8.89 -3.35,5.87 -5.2,12.38 -7.12,18.82 11.66,-2.5 22.65,-9.62 34.98,-8.05 -0.79,6.2 -8.27,7.17 -12.09,11.05 -4.26,4.19 -10.78,7.9 -10.93,14.55 5.87,2.23 12.13,0.72 18.07,-0.31 16.95,-1.7 34.31,-2.07 50.85,2.74 4.87,2.09 10.64,3.08 14.2,7.32 -12.29,1.11 -24.63,-0.71 -36.94,0.3 16.15,7.75 32.27,15.82 46.89,26.24 8.25,3.92 15.19,10.02 21.52,16.51 1.91,1.67 2.57,4.16 3.22,6.51 -6.77,-1.11 -13,-4.24 -19.69,-5.73 0.04,0.59 0.11,1.78 0.15,2.37 8.71,7.65 16.4,16.33 25.51,23.51 4.88,8.8 13.07,15.72 16.01,25.57 -3.12,0.17 -6.23,-0.05 -9.33,-0.3 4.42,6.43 7.73,13.52 11.75,20.18 1.97,7.39 5.39,14.23 8.5,21.19 -1.57,0.07 -3.14,0.11 -4.7,0.12 1.02,4.89 5.23,8.26 7.77,12.4 9.77,15.48 18.81,32.24 19.6,50.94 -5.12,-1.32 -10.36,-2.5 -15.66,-1.63 -0.35,0.69 -1.06,2.07 -1.41,2.76 5.11,9.1 16.59,9.97 23.42,16.94 5.83,8.84 12.41,17.18 17.49,26.5 1.47,2.53 1.35,5.5 0.9,8.29 -7.77,-3.56 -15.93,-6.21 -24.22,-8.24 -2.31,-0.83 -3.21,1.84 -4.48,3.15 5.39,18.71 14.91,35.8 25.29,52.17 -5.15,6.17 -12.25,10.23 -17.62,16.15 -2.48,2.52 -2.66,7.12 0.26,9.38 4.41,3.91 8.38,8.28 12.56,12.43 -2.64,2.72 -5.14,5.56 -7.55,8.48 -3.97,5.05 -11.48,6.21 -14.16,12.44 2.92,8.78 10.83,14.11 15.92,21.46 -7.14,0.12 -14.19,1.42 -21.33,1.37 -3.67,-0.09 -4.5,4.47 -3.95,7.3 5.03,20.68 -3.64,42.41 -16.5,58.57 -0.52,0.03 -1.58,0.08 -2.11,0.11 -5.05,-11.58 -5.6,-25.54 -14.14,-35.3 -5.9,-0.1 -4.5,7.25 -4.73,11.2 -4.2,22.15 -9.56,44.99 -22.89,63.61 0.27,-11.76 -2.38,-24.73 -11.18,-33.16 -5.46,0.38 -8.98,5.22 -12.31,9 -4.9,5.24 -8.28,11.63 -13.02,17 -2.96,4.5 -4.78,9.85 -9.34,13.13 -0.47,-5.87 1.11,-12.79 -3.28,-17.56 -2.91,-3.02 -6.61,0.92 -9.19,2.58 -9.26,5.92 -13.49,16.51 -20.33,24.69 -6.32,7.23 -13.52,13.61 -20.97,19.66 -10.46,-3.92 -12.7,-17.6 -22.71,-22.27 -5.7,4.58 -10.41,10.25 -15.3,15.65 -1.01,1.38 -2.69,1.67 -4.26,1.94 -4.73,-4.24 -4.52,-11.21 -8.7,-15.81 -2.2,-2.26 -3.15,-7.38 -7.06,-6.5 -6.97,4.67 -7.14,13.87 -7.52,21.39 -9.66,-7.53 -19.28,-15.68 -26.49,-25.61 -7.71,0.29 -11.54,11.44 -20.34,9.15 -4.42,-5.46 -8.01,-12.37 -14.87,-15.14 -4.1,-0.43 -5.81,4.54 -5.5,7.9 -4.87,-1.45 -4.35,-6.77 -5.81,-10.63 -1.73,-2.39 -4.09,-4.22 -6.16,-6.29 -6.65,-0.87 -10.41,5.38 -15.51,8.32 -5.03,2.9 -10.08,5.79 -15.26,8.41 -0.16,-8.07 -3.2,-15.6 -6.66,-22.76 -2.33,-4.36 -0.31,-9.46 -2.01,-13.96 -1.18,-3.46 -1.87,-7.05 -2.47,-10.64 -2.35,-0.86 -4.8,-3.13 -7.41,-1.98 -5.19,3.3 -8.43,8.7 -11.18,14.04 -8.44,-13.91 -4.04,-30.49 -5.24,-45.82 -4.59,2.76 -9.01,6.05 -11.62,10.85 -2.04,2.65 -2.86,7.52 -7.1,7.01 -5.77,-6.41 -2.12,-15.35 -4.61,-22.86 -1.9,-5.63 -1.19,-11.91 -4.11,-17.2 -2.73,3.43 -4.54,7.43 -6.6,11.27 -6.7,-0.18 -8.31,-8.78 -7.32,-14.05 2.38,-12.8 -4.78,-25.12 -2.98,-37.84 2.38,-6.33 3.7,-12.84 4.38,-19.55 -11.08,-4.25 -24.21,-0.51 -36.15,-1.16 0.53,-7.3 3.18,-14.2 4.88,-21.26 2.76,-6.89 11.69,-10.87 11.68,-18.91 -4.95,-1.01 -9.95,0.4 -14.77,1.48 2.9,-12.67 2.66,-26 8.64,-37.86 -0.3,-9.06 4.48,-16.98 6.16,-25.68 -7.1,0.45 -13.57,3.68 -20.52,4.54 -1.17,-5.24 2.88,-8.89 5.68,-12.67 16.6,-24.81 31.99,-50.51 50.27,-74.12 -7.61,2.28 -14.27,7.99 -22.09,8.75 1.45,-10.15 9.05,-17.92 11.82,-27.62 8.01,-12.87 13.74,-27.43 24.74,-38.2 2.18,-1.54 1.55,-4.04 0.58,-6.1 -10.11,-3.46 -21.13,-2.74 -30.76,1.92 -5.11,1.6 -8.72,6.12 -13.94,7.34 7.1,-10.82 17.93,-18.53 28.4,-25.89 11.63,-8.59 23.96,-16.18 36.27,-23.73 6.93,-4.92 15.36,-7.77 21.34,-13.93 -11.5,1.4 -22.05,6.64 -33.35,8.93 -7.29,1.43 -14.07,6.65 -21.44,6.21 10.9,-8.09 23.55,-13.5 36,-18.71 3.81,-2.49 8.01,-4.31 12.42,-5.45 7.15,-1.78 13.44,-6.06 20.75,-7.35 8.19,-3.51 16.84,-6.11 25.33,-8.94 0.04,-0.9 0.08,-1.8 0.13,-2.69 -12.2,-3.23 -24.84,-3.58 -37.29,-1.92 0.09,-0.9 0.19,-1.8 0.28,-2.69 7.97,-0.96 15.54,-3.99 23.56,-4.72 17.81,-1.78 35.8,-0.03 53.66,-0.81 -3.9,-6.17 -9.43,-11.09 -13.97,-16.77 17.59,0.12 34.07,7.1 51.14,10.3 7.59,-8.9 4.3,-21.09 0.16,-30.7 8.83,2.72 11.81,13.4 18.44,19.01 -2.46,-16.74 -8.41,-33.37 -20.13,-45.9 m 58.93,121.84 c -6.08,-2.34 -9.43,-8.63 -15.47,-11.09 -8.67,-3.45 -17.48,-8.08 -27.14,-6.64 8.87,16.79 23.05,30.71 29.28,48.86 -1.78,0.64 -3.74,1.47 -5.38,0.03 -7.73,-5.13 -14.82,-11.16 -22.2,-16.75 -9.41,-8.91 -21.06,-14.85 -31.24,-22.78 -2.85,-1.53 -6.23,-5.54 -9.56,-3.11 -5.75,11.51 -7.33,25 -14.48,35.87 -6.52,-6.7 -11.38,-14.69 -12.66,-24.08 -1.35,-0.06 -2.7,-0.09 -4.05,-0.09 -5.95,15.69 -15.77,29.45 -24.43,43.71 -4.54,5.82 -9.05,11.67 -12.68,18.12 0.2,-6.69 0.38,-13.38 0.39,-20.07 -1.84,-0.93 -3.6,-2.21 -5.68,-2.5 -5.07,3.62 -7.08,9.87 -10.84,14.63 -4.56,5.95 -6.79,13.19 -10.42,19.66 -7.5,11.39 -7.26,27.46 0.73,38.55 5.03,5.7 13.14,7.48 20.47,7.02 21.27,0.43 42.62,0.75 63.85,-0.57 20.33,-5.66 41.71,1 62.12,-3.94 9.71,-1.39 19.48,1.02 29.18,-0.08 8.11,1.57 14.79,6.64 22.58,9.15 l -0.91,0.34 c 9.17,2.43 18.74,3.11 28.19,2.39 14.65,-1.33 29.34,0.5 43.99,0.77 3.69,0.09 9.39,-0.67 9.41,-5.48 -0.83,-10.38 -3.84,-20.48 -6.9,-30.4 -1.89,-10.34 0.08,-21.23 -3.87,-31.25 -5.43,-17.09 -10.37,-34.36 -16.94,-51.06 -0.78,-1.48 -1.5,-4.01 -3.67,-3.64 -8.66,3.6 -14.17,11.49 -21.73,16.61 -0.29,-8.06 -3.89,-15.17 -7.46,-22.19 -2.18,-3.96 -2.53,-11.73 -8.71,-10.41 -0.67,11.04 -5.28,21.23 -10.41,30.84 -2.1,-14.92 -9.26,-28.67 -18.69,-40.25 -4.85,4.83 -2.71,13.47 -4.67,19.83 M 374,302.49 c -10.22,-1.09 -20.71,-1.28 -30.65,1.73 -16.85,3.3 -34.55,7.17 -51.46,2.15 -13.68,-1.68 -27.54,0.02 -41.25,-1.07 -11.69,-3.13 -23.76,-0.05 -35.66,-0.78 -8.54,-0.83 -16.47,4.72 -25.03,2.33 -8.04,-0.22 -16.03,-1.79 -24.07,-1.2 -8.48,7.21 -16.66,15.33 -22.19,25.06 -6.32,15.84 -1.86,34.47 7.31,48.32 5.24,9.88 7.51,20.92 10.42,31.59 12.1,25.13 27.16,48.81 43.72,71.23 12.42,12.53 22.52,28.32 38.77,36.31 15.82,9.95 34.15,15.2 52.11,19.81 22.37,1.54 46.07,2.14 66.73,-8.06 20.75,-10.86 38.57,-26.68 53.71,-44.46 5.84,-7.33 9.99,-15.86 16.15,-22.95 6.25,-6.84 8.87,-16.03 14.66,-23.22 5.72,-7.13 8.91,-15.77 13.12,-23.78 4.79,-9.14 4.36,-19.96 8.92,-29.18 3.08,-6.32 5.83,-13.04 10.96,-18.04 2.82,-3.17 6.8,-6.08 7.25,-10.63 0.98,-12.44 -4.67,-24.42 -12.14,-34.04 -3.66,-4.3 -7.37,-9.63 -13.39,-10.5 -5.07,-1.88 -10.38,-3.43 -15.86,-2.68 -6.52,0.79 -12.65,-1.85 -18.76,-3.65 -6.38,-1.88 -13.28,-1.23 -19.5,-3.75 -10.7,-5.09 -22.71,-1.3 -33.87,-0.54 z" />
      <path
         style="opacity:1;fill:#ececec"
         inkscape:connector-curvature="0"
         id="path7"
         d="m 275.94,159.89 c 9.76,-1.89 20.43,1.73 26.64,9.58 4.6,5.09 2.3,12.45 1.73,18.53 -1.65,7.24 -6.52,13.02 -11.86,17.91 -0.58,-1.31 -1.15,-2.61 -1.72,-3.91 -2.99,-9.38 -14.72,-14.78 -23.48,-9.7 -8.56,4.16 -11.45,15.81 -6.25,23.67 1,1.81 2.02,3.59 3.05,5.39 -7.47,0.42 -15.12,0.97 -22.46,-0.8 -7.17,-3.95 -14.53,-10.07 -15.95,-18.55 0.27,-8.56 5.49,-16.13 11.35,-22.01 10.75,-10.09 24.01,-18.52 38.95,-20.11 z" />
      <path
         style="opacity:1;fill:#ececec"
         inkscape:connector-curvature="0"
         id="path9"
         d="m 349.09,161.93 c 12.61,-1.9 26.12,-1.01 37.36,5.57 13.08,6.93 26.56,18.66 27.11,34.51 0.54,9.69 -8.54,15.35 -16.39,18.52 -8.08,3.68 -17.93,1.98 -25.2,-2.8 l 0.86,-0.84 c 8.2,-6.27 8.78,-19.79 0.4,-26.14 -8.47,-7.21 -21.98,-2.92 -26.37,6.89 -1.19,1.61 -1.19,3.73 -1.7,5.6 -5.56,-4.26 -8.65,-10.61 -9.83,-17.38 -5.1,-9.75 3.76,-21.9 13.76,-23.93 z" />
      <path
         style="opacity:1;fill:#ececec"
         inkscape:connector-curvature="0"
         id="path11"
         d="m 202.95,318.83 c 9.01,1.95 17.12,-4.02 26.04,-3.49 11.67,0.08 23.35,0.05 35.02,0 8.05,-0.43 15.49,3.64 23.56,3.26 9.28,2.8 19.45,4.58 28.81,1.05 10.96,-0.47 21.94,-1.43 32.61,-4.08 10.68,0.85 21.31,3.6 32.12,2.86 14.07,-1.12 27.85,2.84 41.88,3.09 7.2,0.43 14.46,-0.27 21.6,1.04 -0.29,4.21 -0.69,8.41 -1.06,12.61 -2.12,10.03 -3.43,20.72 -9.13,29.5 -1.39,-0.15 -2.34,-1.33 -3.43,-2.07 -0.3,-0.07 -0.92,-0.21 -1.23,-0.28 -0.98,1.69 -1.95,3.39 -2.94,5.07 -2.54,-2.91 -4.71,-6.12 -6.8,-9.36 -1.27,3.18 -2.74,6.27 -4.52,9.19 -1.4,-0.74 -3.44,-0.86 -4.06,-2.54 -2.77,-6.23 -3.94,-13.03 -6.6,-19.31 -2,6.82 -2.9,14 -6.27,20.36 -0.98,-0.05 -1.96,-0.08 -2.93,-0.09 -2.01,-4.53 -3.84,-9.21 -6.83,-13.22 -1.15,19.01 -2.89,40.16 -15.61,55.34 -1.58,-0.47 -3.14,-0.94 -4.71,-1.4 0.11,-12.89 -0.32,-25.88 -2.87,-38.52 -0.2,-8.13 -0.81,-16.27 -2.16,-24.28 -0.65,-1.89 -0.89,-4.91 -3.26,-5.31 -4.08,5.09 -4.5,13.45 -11.34,15.9 -1.04,-5.64 -2.07,-11.29 -3.7,-16.79 -2.44,6.61 -5.63,12.95 -9.98,18.51 -0.63,-0.44 -1.89,-1.32 -2.52,-1.76 0.07,-6.34 -1,-12.61 -1.85,-18.87 -3.19,6.96 -4.46,14.65 -8.04,21.46 -0.99,-0.08 -1.97,-0.14 -2.95,-0.19 -1.1,-8.52 -4.82,-16.35 -9,-23.75 -1.85,7.99 -2.39,16.34 -5.74,23.93 -0.73,-0.01 -2.19,-0.04 -2.92,-0.05 -1.73,-7.77 -5.07,-15.03 -8.25,-22.28 -2.94,7.78 -3.93,16.07 -5.44,24.19 -1.02,-0.01 -2.03,-0.01 -3.04,0 -2.98,-6.02 -2.67,-12.89 -4.24,-19.29 -2.54,6.33 -5.12,12.71 -9.03,18.35 -0.67,-0.04 -1.99,-0.12 -2.66,-0.17 -0.79,-5.33 -1.06,-10.71 -1.11,-16.09 -0.55,0 -1.65,0 -2.21,0.01 -2.72,6.78 -4.98,13.78 -8.49,20.22 -1.04,-0.01 -2.07,-0.02 -3.11,-0.02 -2.44,-7.33 -1.38,-15.17 -3.53,-22.53 -2.16,12.89 -3.33,25.97 -6.44,38.72 0.62,10.22 -1.68,20.12 -2.27,30.24 -0.61,0.47 -1.84,1.42 -2.45,1.89 -9.94,-8.57 -13.43,-21.77 -14.49,-34.34 -3.66,-8.43 -2.46,-17.61 -3.03,-26.53 -2.85,4.93 -4.43,10.45 -6.93,15.55 -0.55,0.04 -1.66,0.11 -2.21,0.15 -2.69,-4.61 -5.04,-9.42 -8.02,-13.86 -2.04,5.09 -4.16,10.16 -6.78,14.99 -3.66,-0.53 -7.31,-1.14 -10.97,-1.63 -1.06,0.91 -2.12,1.82 -3.18,2.74 -0.95,-1.54 -1.89,-3.08 -2.84,-4.6 -0.34,0.04 -1.04,0.13 -1.39,0.18 -1.07,0.67 -1.87,2.27 -3.33,1.98 -3.63,-5.26 -5.1,-11.62 -6.51,-17.75 -1.92,-7.52 -2.82,-15.23 -4.37,-22.81 -0.49,-1.56 1.03,-3.09 2.48,-3.35 11.26,-3.09 23.15,-3.8 34.65,-1.77 z" />
      <path
         style="opacity:1;fill:#ececec"
         inkscape:connector-curvature="0"
         id="path13"
         d="m 181.07,377.49 c 2.26,-4.18 5.29,-7.94 9.26,-10.62 2.1,4.3 0.59,9.17 1.83,13.63 2.48,0.26 4.98,0.13 7.47,0.12 1.14,4.39 1.05,8.98 0.12,13.4 0.27,0.53 0.83,1.59 1.1,2.12 8.54,0.7 10.28,9.59 11.92,16.38 2.74,-0.82 5.48,-1.8 8.37,-1.98 5.56,4.65 8.69,11.67 8.61,18.91 1.43,0.54 2.87,1.05 4.32,1.55 4.82,-6.98 10.09,-14.13 17.28,-18.8 3.3,-2.28 6.03,1.8 6.91,4.6 4.5,13.8 6.31,28.32 7.4,42.74 0.93,0.06 1.86,0.13 2.79,0.21 6.38,-7.98 10.52,-17.84 19.01,-23.99 4.2,9 1.13,19.4 2.13,29 0.53,-0.06 1.59,-0.19 2.12,-0.26 5.12,-7.47 10.48,-14.78 16.46,-21.58 3.13,8.5 1.25,17.74 3.92,26.32 0.91,-8.58 0.5,-17.26 1.89,-25.81 7.67,5.89 12.36,14.52 18.48,21.82 3.27,-9.62 -1.46,-20.42 3.11,-29.63 8.32,7.7 13.75,17.83 21.41,26.03 0.37,-5.67 0.75,-11.43 2.97,-16.74 1.55,-3.5 -0.81,-7.14 -0.36,-10.73 2.19,-7.1 5.2,-14.02 9.96,-19.8 4.29,1.24 9.52,1.98 11.47,6.64 2.43,4.98 6.19,9.04 11.34,11.26 2.25,-7.41 3.35,-15.48 8.35,-21.7 0.87,-0.01 2.63,-0.04 3.51,-0.05 1.78,1.44 3.57,2.87 5.36,4.32 2.83,-6.41 2.31,-19.2 12.36,-17.52 0.76,-5.71 -0.15,-11.61 1.73,-17.15 2.38,0.23 4.77,0.45 7.17,0.6 0.72,-4.66 0.23,-9.49 1.81,-14 3.05,2.04 5.72,4.62 7.62,7.79 2.71,4.57 5.49,9.24 6.9,14.41 1.22,5.66 -1.36,11.26 -5.28,15.24 -0.04,6.06 -2.9,11.35 -6.99,15.63 -1.88,6.01 -7.41,9.22 -11.18,13.89 -2.44,3.47 -7.96,2 -9.87,6.09 -3.83,6.51 -10.29,11.21 -17.92,12.02 -5.52,7.17 -12.42,13.77 -21.11,16.8 -4.3,1.72 -9.66,-0.52 -13.29,2.92 -6.76,5.38 -15.89,9.66 -24.6,6.9 -6.79,7.67 -17.76,4.91 -25.85,1.15 -7.57,4.66 -18.35,5.81 -25.06,-0.97 -9.76,2.48 -19.59,-2.97 -26.88,-9.08 -13.48,1.57 -23.98,-8.23 -32.23,-17.44 -8.53,-1.54 -15.14,-7.26 -19.85,-14.26 -6.02,-2.16 -11.17,-6.31 -13.29,-12.57 -1.47,-5.57 -8.29,-6.53 -10.44,-11.61 -2.02,-3.79 -1,-8.68 -4.08,-11.97 -5.6,-7.17 -3.01,-17.35 1.82,-24.23 z" />
    </g>
    <g
       transform="translate(-54.223106,-0.28)"
       id="#a0cce7ff">
      <path
         style="opacity:1;fill:#a0cce7"
         inkscape:connector-curvature="0"
         id="path16"
         d="m 341.36,122.12 c 1.96,-6.36 -0.18,-15 4.67,-19.83 9.43,11.58 16.59,25.33 18.69,40.25 5.13,-9.61 9.74,-19.8 10.41,-30.84 6.18,-1.32 6.53,6.45 8.71,10.41 3.57,7.02 7.17,14.13 7.46,22.19 7.56,-5.12 13.07,-13.01 21.73,-16.61 2.17,-0.37 2.89,2.16 3.67,3.64 6.57,16.7 11.51,33.97 16.94,51.06 3.95,10.02 1.98,20.91 3.87,31.25 3.06,9.92 6.07,20.02 6.9,30.4 -0.02,4.81 -5.72,5.57 -9.41,5.48 -14.65,-0.27 -29.34,-2.1 -43.99,-0.77 -9.45,0.72 -19.02,0.04 -28.19,-2.39 l 0.91,-0.34 c 0.54,-0.2 1.61,-0.6 2.15,-0.8 -6.86,-7.23 -10.88,-16.44 -16.76,-24.35 -4.6,-6.77 -14.93,-5.99 -20.14,-0.38 0.94,7.2 6.98,12 12.17,16.38 -9.7,1.1 -19.47,-1.31 -29.18,0.08 -20.41,4.94 -41.79,-1.72 -62.12,3.94 -21.23,1.32 -42.58,1 -63.85,0.57 -7.33,0.46 -15.44,-1.32 -20.47,-7.02 -7.99,-11.09 -8.23,-27.16 -0.73,-38.55 3.63,-6.47 5.86,-13.71 10.42,-19.66 3.76,-4.76 5.77,-11.01 10.84,-14.63 2.08,0.29 3.84,1.57 5.68,2.5 -0.01,6.69 -0.19,13.38 -0.39,20.07 3.63,-6.45 8.14,-12.3 12.68,-18.12 8.66,-14.26 18.48,-28.02 24.43,-43.71 1.35,0 2.7,0.03 4.05,0.09 1.28,9.39 6.14,17.38 12.66,24.08 7.15,-10.87 8.73,-24.36 14.48,-35.87 3.33,-2.43 6.71,1.58 9.56,3.11 10.18,7.93 21.83,13.87 31.24,22.78 7.38,5.59 14.47,11.62 22.2,16.75 1.64,1.44 3.6,0.61 5.38,-0.03 -6.23,-18.15 -20.41,-32.07 -29.28,-48.86 9.66,-1.44 18.47,3.19 27.14,6.64 6.04,2.46 9.39,8.75 15.47,11.09 m -84.99,38.26 c -13.45,4.38 -24.1,14.66 -31.78,26.24 -3.35,4.96 -4.99,11.07 -4.05,17.03 2.28,10.39 12.34,18.27 22.96,18.1 -0.48,-0.3 -1.43,-0.89 -1.91,-1.19 7.34,1.77 14.99,1.22 22.46,0.8 -1.03,-1.8 -2.05,-3.58 -3.05,-5.39 1.48,1.71 3.2,3.19 4.84,4.74 8.82,-3.34 17.38,-7.46 24.82,-13.32 0.06,-1.8 0.15,-3.6 0.07,-5.39 0.57,1.3 1.14,2.6 1.72,3.91 5.34,-4.89 10.21,-10.67 11.86,-17.91 -0.03,0.84 -0.1,2.51 -0.13,3.35 3.86,-5.27 4.39,-12.09 4.08,-18.4 -0.19,-6.52 -5.97,-10.78 -10.85,-14.15 -12.92,-6.31 -28.19,-3.44 -41.04,1.58 m 80,2.99 c -6.06,6.99 -6.35,17.76 -2.06,25.71 0.26,-0.8 0.77,-2.41 1.02,-3.22 1.18,6.77 4.27,13.12 9.83,17.38 0.51,-1.87 0.51,-3.99 1.7,-5.6 -0.03,2.24 -0.18,4.47 -0.32,6.7 6.37,7.19 15.34,10.57 23.87,14.33 0.82,-0.58 1.63,-1.17 2.42,-1.78 l -0.86,0.84 c 7.27,4.78 17.12,6.48 25.2,2.8 l -1.27,0.63 c 9.4,0.73 19.14,-6 22.36,-14.83 3.01,-12.65 -4.67,-24.75 -13.87,-32.74 -11.7,-9.85 -26.08,-16.92 -41.35,-18.83 -9.52,-0.93 -19.8,1.69 -26.67,8.61 M 275,238.28 c 9.95,0.04 19.99,0.57 29.89,-0.21 6.21,-4.04 12.35,-10.71 10.77,-18.73 -2.5,-1.58 -5.44,-3.81 -8.47,-2.08 -11.81,4.9 -23.78,11.21 -32.19,21.02 z" />
      <path
         style="opacity:1;fill:#a0cce7"
         inkscape:connector-curvature="0"
         id="path18"
         d="m 143.69,330.71 c 5.53,-9.73 13.71,-17.85 22.19,-25.06 -5.18,5.89 -8.33,13.12 -12.44,19.71 -4.85,7.85 -7.64,17.46 -5.41,26.63 1.85,8.13 7.79,14.31 11.35,21.65 3.32,7.16 6.92,14.41 7.78,22.37 0.87,7.71 5.1,14.39 8.86,20.98 13.27,22.07 28.85,42.74 46.28,61.7 10.43,11.96 24.42,20.49 39.28,25.8 14.92,6.29 30.32,13.1 46.82,13.07 17.83,2.42 36.44,-0.69 52.62,-8.54 11.67,-7.04 23.73,-13.83 33.52,-23.47 22.32,-21.92 40.58,-47.68 56.55,-74.48 7.11,-10.69 5.29,-24.43 11.48,-35.47 3.97,-8.34 10.53,-14.92 17.08,-21.24 -1.68,-15.17 -7.84,-29.65 -17.66,-41.25 6.02,0.87 9.73,6.2 13.39,10.5 7.47,9.62 13.12,21.6 12.14,34.04 -0.45,4.55 -4.43,7.46 -7.25,10.63 -5.13,5 -7.88,11.72 -10.96,18.04 -4.56,9.22 -4.13,20.04 -8.92,29.18 -4.21,8.01 -7.4,16.65 -13.12,23.78 -5.79,7.19 -8.41,16.38 -14.66,23.22 -6.16,7.09 -10.31,15.62 -16.15,22.95 -15.14,17.78 -32.96,33.6 -53.71,44.46 -20.66,10.2 -44.36,9.6 -66.73,8.06 -17.96,-4.61 -36.29,-9.86 -52.11,-19.81 -16.25,-7.99 -26.35,-23.78 -38.77,-36.31 -16.56,-22.42 -31.62,-46.1 -43.72,-71.23 -2.91,-10.67 -5.18,-21.71 -10.42,-31.59 -9.17,-13.85 -13.63,-32.48 -7.31,-48.32 z" />
    </g>
    <g
       transform="translate(-54.223106,-0.28)"
       id="#395a8fff">
      <path
         style="opacity:1;fill:#395a8f"
         inkscape:connector-curvature="0"
         id="path21"
         d="m 256.37,160.38 c 12.85,-5.02 28.12,-7.89 41.04,-1.58 4.88,3.37 10.66,7.63 10.85,14.15 0.31,6.31 -0.22,13.13 -4.08,18.4 0.03,-0.84 0.1,-2.51 0.13,-3.35 0.57,-6.08 2.87,-13.44 -1.73,-18.53 -6.21,-7.85 -16.88,-11.47 -26.64,-9.58 -14.94,1.59 -28.2,10.02 -38.95,20.11 -5.86,5.88 -11.08,13.45 -11.35,22.01 1.42,8.48 8.78,14.6 15.95,18.55 0.48,0.3 1.43,0.89 1.91,1.19 -10.62,0.17 -20.68,-7.71 -22.96,-18.1 -0.94,-5.96 0.7,-12.07 4.05,-17.03 7.68,-11.58 18.33,-21.86 31.78,-26.24 z" />
      <path
         style="opacity:1;fill:#395a8f"
         inkscape:connector-curvature="0"
         id="path23"
         d="m 336.37,163.37 c 6.87,-6.92 17.15,-9.54 26.67,-8.61 15.27,1.91 29.65,8.98 41.35,18.83 9.2,7.99 16.88,20.09 13.87,32.74 -3.22,8.83 -12.96,15.56 -22.36,14.83 l 1.27,-0.63 c 7.85,-3.17 16.93,-8.83 16.39,-18.52 -0.55,-15.85 -14.03,-27.58 -27.11,-34.51 -11.24,-6.58 -24.75,-7.47 -37.36,-5.57 -10,2.03 -18.86,14.18 -13.76,23.93 -0.25,0.81 -0.76,2.42 -1.02,3.22 -4.29,-7.95 -4,-18.72 2.06,-25.71 z" />
      <path
         style="opacity:1;fill:#395a8f"
         inkscape:connector-curvature="0"
         id="path25"
         d="m 374,302.49 c 11.16,-0.76 23.17,-4.55 33.87,0.54 6.22,2.52 13.12,1.87 19.5,3.75 6.11,1.8 12.24,4.44 18.76,3.65 5.48,-0.75 10.79,0.8 15.86,2.68 9.82,11.6 15.98,26.08 17.66,41.25 -6.55,6.32 -13.11,12.9 -17.08,21.24 -6.19,11.04 -4.37,24.78 -11.48,35.47 -15.97,26.8 -34.23,52.56 -56.55,74.48 -9.79,9.64 -21.85,16.43 -33.52,23.47 -16.18,7.85 -34.79,10.96 -52.62,8.54 -16.5,0.03 -31.9,-6.78 -46.82,-13.07 -14.86,-5.31 -28.85,-13.84 -39.28,-25.8 -17.43,-18.96 -33.01,-39.63 -46.28,-61.7 -3.76,-6.59 -7.99,-13.27 -8.86,-20.98 -0.86,-7.96 -4.46,-15.21 -7.78,-22.37 -3.56,-7.34 -9.5,-13.52 -11.35,-21.65 -2.23,-9.17 0.56,-18.78 5.41,-26.63 4.11,-6.59 7.26,-13.82 12.44,-19.71 8.04,-0.59 16.03,0.98 24.07,1.2 8.56,2.39 16.49,-3.16 25.03,-2.33 11.9,0.73 23.97,-2.35 35.66,0.78 13.71,1.09 27.57,-0.61 41.25,1.07 16.91,5.02 34.61,1.15 51.46,-2.15 9.94,-3.01 20.43,-2.82 30.65,-1.73 m -171.05,16.34 c -11.5,-2.03 -23.39,-1.32 -34.65,1.77 -1.45,0.26 -2.97,1.79 -2.48,3.35 1.55,7.58 2.45,15.29 4.37,22.81 -0.57,-0.14 -1.7,-0.42 -2.26,-0.57 -0.8,5.24 -3.47,10.64 -2,15.94 3.98,6.01 9.73,10.66 15.14,15.36 -4.83,6.88 -7.42,17.06 -1.82,24.23 3.08,3.29 2.06,8.18 4.08,11.97 2.15,5.08 8.97,6.04 10.44,11.61 2.12,6.26 7.27,10.41 13.29,12.57 4.71,7 11.32,12.72 19.85,14.26 8.25,9.21 18.75,19.01 32.23,17.44 7.29,6.11 17.12,11.56 26.88,9.08 6.71,6.78 17.49,5.63 25.06,0.97 8.09,3.76 19.06,6.52 25.85,-1.15 8.71,2.76 17.84,-1.52 24.6,-6.9 3.63,-3.44 8.99,-1.2 13.29,-2.92 8.69,-3.03 15.59,-9.63 21.11,-16.8 7.63,-0.81 14.09,-5.51 17.92,-12.02 1.91,-4.09 7.43,-2.62 9.87,-6.09 3.77,-4.67 9.3,-7.88 11.18,-13.89 4.09,-4.28 6.95,-9.57 6.99,-15.63 3.92,-3.98 6.5,-9.58 5.28,-15.24 -1.41,-5.17 -4.19,-9.84 -6.9,-14.41 4.16,-4.39 8.17,-8.95 12.14,-13.48 -1.16,-8.98 -3.09,-18.7 -8.88,-25.92 0.37,-4.2 0.77,-8.4 1.06,-12.61 -7.14,-1.31 -14.4,-0.61 -21.6,-1.04 -14.03,-0.25 -27.81,-4.21 -41.88,-3.09 -10.81,0.74 -21.44,-2.01 -32.12,-2.86 -10.67,2.65 -21.65,3.61 -32.61,4.08 -9.36,3.53 -19.53,1.75 -28.81,-1.05 -8.07,0.38 -15.51,-3.69 -23.56,-3.26 -11.67,0.05 -23.35,0.08 -35.02,0 -8.92,-0.53 -17.03,5.44 -26.04,3.49 z" />
    </g>
    <g
       transform="translate(-54.223106,-0.28)"
       id="#110f10ff">
      <path
         style="opacity:1;fill:#110f10"
         inkscape:connector-curvature="0"
         id="path28"
         d="m 346.86,197.64 c 4.39,-9.81 17.9,-14.1 26.37,-6.89 8.38,6.35 7.8,19.87 -0.4,26.14 -0.79,0.61 -1.6,1.2 -2.42,1.78 -8.53,-3.76 -17.5,-7.14 -23.87,-14.33 0.14,-2.23 0.29,-4.46 0.32,-6.7 z" />
      <path
         style="opacity:1;fill:#110f10"
         inkscape:connector-curvature="0"
         id="path30"
         d="m 267.25,192.3 c 8.76,-5.08 20.49,0.32 23.48,9.7 0.08,1.79 -0.01,3.59 -0.07,5.39 -7.44,5.86 -16,9.98 -24.82,13.32 -1.64,-1.55 -3.36,-3.03 -4.84,-4.74 -5.2,-7.86 -2.31,-19.51 6.25,-23.67 z" />
      <path
         style="opacity:1;fill:#110f10"
         inkscape:connector-curvature="0"
         id="path32"
         d="m 328.98,220.49 c 5.21,-5.61 15.54,-6.39 20.14,0.38 5.88,7.91 9.9,17.12 16.76,24.35 -0.54,0.2 -1.61,0.6 -2.15,0.8 -7.79,-2.51 -14.47,-7.58 -22.58,-9.15 -5.19,-4.38 -11.23,-9.18 -12.17,-16.38 z" />
      <path
         style="opacity:1;fill:#110f10"
         inkscape:connector-curvature="0"
         id="path34"
         d="m 275,238.28 c 8.41,-9.81 20.38,-16.12 32.19,-21.02 3.03,-1.73 5.97,0.5 8.47,2.08 1.58,8.02 -4.56,14.69 -10.77,18.73 -9.9,0.78 -19.94,0.25 -29.89,0.21 z" />
      <path
         style="opacity:1;fill:#110f10"
         inkscape:connector-curvature="0"
         id="path36"
         d="m 305.06,356.69 c 3.35,-7.59 3.89,-15.94 5.74,-23.93 4.18,7.4 7.9,15.23 9,23.75 0.98,0.05 1.96,0.11 2.95,0.19 3.58,-6.81 4.85,-14.5 8.04,-21.46 0.85,6.26 1.92,12.53 1.85,18.87 0.63,0.44 1.89,1.32 2.52,1.76 4.35,-5.56 7.54,-11.9 9.98,-18.51 1.63,5.5 2.66,11.15 3.7,16.79 6.84,-2.45 7.26,-10.81 11.34,-15.9 2.37,0.4 2.61,3.42 3.26,5.31 1.35,8.01 1.96,16.15 2.16,24.28 2.55,12.64 2.98,25.63 2.87,38.52 1.57,0.46 3.13,0.93 4.71,1.4 12.72,-15.18 14.46,-36.33 15.61,-55.34 2.99,4.01 4.82,8.69 6.83,13.22 0.97,0.01 1.95,0.04 2.93,0.09 3.37,-6.36 4.27,-13.54 6.27,-20.36 2.66,6.28 3.83,13.08 6.6,19.31 0.62,1.68 2.66,1.8 4.06,2.54 1.78,-2.92 3.25,-6.01 4.52,-9.19 2.09,3.24 4.26,6.45 6.8,9.36 0.99,-1.68 1.96,-3.38 2.94,-5.07 0.31,0.07 0.93,0.21 1.23,0.28 1.09,0.74 2.04,1.92 3.43,2.07 5.7,-8.78 7.01,-19.47 9.13,-29.5 5.79,7.22 7.72,16.94 8.88,25.92 -3.97,4.53 -7.98,9.09 -12.14,13.48 -1.9,-3.17 -4.57,-5.75 -7.62,-7.79 -1.58,4.51 -1.09,9.34 -1.81,14 -2.4,-0.15 -4.79,-0.37 -7.17,-0.6 -1.88,5.54 -0.97,11.44 -1.73,17.15 -10.05,-1.68 -9.53,11.11 -12.36,17.52 -1.79,-1.45 -3.58,-2.88 -5.36,-4.32 -0.88,0.01 -2.64,0.04 -3.51,0.05 -5,6.22 -6.1,14.29 -8.35,21.7 -5.15,-2.22 -8.91,-6.28 -11.34,-11.26 -1.95,-4.66 -7.18,-5.4 -11.47,-6.64 -4.76,5.78 -7.77,12.7 -9.96,19.8 -0.45,3.59 1.91,7.23 0.36,10.73 -2.22,5.31 -2.6,11.07 -2.97,16.74 -7.66,-8.2 -13.09,-18.33 -21.41,-26.03 -4.57,9.21 0.16,20.01 -3.11,29.63 -6.12,-7.3 -10.81,-15.93 -18.48,-21.82 -1.39,8.55 -0.98,17.23 -1.89,25.81 -2.67,-8.58 -0.79,-17.82 -3.92,-26.32 -5.98,6.8 -11.34,14.11 -16.46,21.58 -0.53,0.07 -1.59,0.2 -2.12,0.26 -1,-9.6 2.07,-20 -2.13,-29 -8.49,6.15 -12.63,16.01 -19.01,23.99 -0.93,-0.08 -1.86,-0.15 -2.79,-0.21 -1.09,-14.42 -2.9,-28.94 -7.4,-42.74 -0.88,-2.8 -3.61,-6.88 -6.91,-4.6 -7.19,4.67 -12.46,11.82 -17.28,18.8 -1.45,-0.5 -2.89,-1.01 -4.32,-1.55 0.08,-7.24 -3.05,-14.26 -8.61,-18.91 -2.89,0.18 -5.63,1.16 -8.37,1.98 -1.64,-6.79 -3.38,-15.68 -11.92,-16.38 -0.27,-0.53 -0.83,-1.59 -1.1,-2.12 0.93,-4.42 1.02,-9.01 -0.12,-13.4 -2.49,0.01 -4.99,0.14 -7.47,-0.12 -1.24,-4.46 0.27,-9.33 -1.83,-13.63 -3.97,2.68 -7,6.44 -9.26,10.62 -5.41,-4.7 -11.16,-9.35 -15.14,-15.36 -1.47,-5.3 1.2,-10.7 2,-15.94 0.56,0.15 1.69,0.43 2.26,0.57 1.41,6.13 2.88,12.49 6.51,17.75 1.46,0.29 2.26,-1.31 3.33,-1.98 0.35,-0.05 1.05,-0.14 1.39,-0.18 0.95,1.52 1.89,3.06 2.84,4.6 1.06,-0.92 2.12,-1.83 3.18,-2.74 3.66,0.49 7.31,1.1 10.97,1.63 2.62,-4.83 4.74,-9.9 6.78,-14.99 2.98,4.44 5.33,9.25 8.02,13.86 0.55,-0.04 1.66,-0.11 2.21,-0.15 2.5,-5.1 4.08,-10.62 6.93,-15.55 0.57,8.92 -0.63,18.1 3.03,26.53 1.06,12.57 4.55,25.77 14.49,34.34 0.61,-0.47 1.84,-1.42 2.45,-1.89 0.59,-10.12 2.89,-20.02 2.27,-30.24 3.11,-12.75 4.28,-25.83 6.44,-38.72 2.15,7.36 1.09,15.2 3.53,22.53 1.04,0 2.07,0.01 3.11,0.02 3.51,-6.44 5.77,-13.44 8.49,-20.22 0.56,-0.01 1.66,-0.01 2.21,-0.01 0.05,5.38 0.32,10.76 1.11,16.09 0.67,0.05 1.99,0.13 2.66,0.17 3.91,-5.64 6.49,-12.02 9.03,-18.35 1.57,6.4 1.26,13.27 4.24,19.29 1.01,-0.01 2.02,-0.01 3.04,0 1.51,-8.12 2.5,-16.41 5.44,-24.19 3.18,7.25 6.52,14.51 8.25,22.28 0.73,0.01 2.19,0.04 2.92,0.05 z" />
    </g>
  </g>
</svg>
