<?xml version="1.0" encoding="UTF-8" standalone="no"?>
<svg
   xmlns:dc="http://purl.org/dc/elements/1.1/"
   xmlns:cc="http://creativecommons.org/ns#"
   xmlns:rdf="http://www.w3.org/1999/02/22-rdf-syntax-ns#"
   xmlns:svg="http://www.w3.org/2000/svg"
   xmlns="http://www.w3.org/2000/svg"
   xmlns:sodipodi="http://sodipodi.sourceforge.net/DTD/sodipodi-0.dtd"
   xmlns:inkscape="http://www.inkscape.org/namespaces/inkscape"
   width="600.81769pt"
   height="681.40631pt"
   viewBox="0 0 600.81769 681.40631"
   version="1.1"
   id="svg32"
   sodipodi:docname="Abominable Rudolph Snowman Face 2.svg"
   inkscape:version="0.92.4 (5da689c313, 2019-01-14)">
  <metadata
     id="metadata38">
    <rdf:RDF>
      <cc:Work
         rdf:about="">
        <dc:format>image/svg+xml</dc:format>
        <dc:type
           rdf:resource="http://purl.org/dc/dcmitype/StillImage" />
        <dc:title></dc:title>
      </cc:Work>
    </rdf:RDF>
  </metadata>
  <defs
     id="defs36" />
  <sodipodi:namedview
     pagecolor="#ffffff"
     bordercolor="#666666"
     borderopacity="1"
     objecttolerance="10"
     gridtolerance="10"
     guidetolerance="10"
     inkscape:pageopacity="0"
     inkscape:pageshadow="2"
     inkscape:window-width="640"
     inkscape:window-height="480"
     id="namedview34"
     showgrid="false"
     inkscape:pagecheckerboard="true"
     inkscape:zoom="0.32244069"
     inkscape:cx="-112.09049"
     inkscape:cy="397.97124"
     inkscape:current-layer="svg32" />
  <path
     style="opacity:1;fill:#000000;stroke-width:0.8055591"
     d="m 290.41646,0.00219973 c -0.33455,-0.004 -0.66923,-0.002000005 -1.00302,0.007 -3.20436,0.0903 -6.36516,0.82101 -9.30444,2.41903997 -5.38919,2.76306 -5.08249,11.3181503 -0.39413,14.5484403 4.02779,2.90807 11.13274,3.77849 11.80137,9.68323 -2.24752,3.72973 -7.28994,3.44772 -11.09218,3.94716 -12.63922,0.28195 -25.28657,0.008 -37.92579,0.177 -5.37308,0.15305 -11.02021,-0.47537 -16.08718,1.71574 -4.1003,1.67557 -6.77503,6.89517 -4.70473,11.0438 1.82055,3.42363 5.30898,5.43776 8.0076,8.0961 -17.89147,-1.17611 -36.08946,-2.27097 -53.78759,1.32988 -12.5345,2.56975 -24.7312,8.51437 -32.97207,18.52747 -2.41668,2.40056 -3.40711,6.43665 -1.19181,9.30444 4.72057,5.99336 12.43807,8.29681 19.39006,10.62489 -18.39092,6.44446 -36.45929,13.76766 -54.45549,21.21909 -7.024463,3.10139 -14.637497,5.57368 -20.236132,11.07564 -6.057805,5.52614 -9.118595,14.45989 -6.911365,22.45103 1.570838,5.08308 7.112996,7.13694 11.986629,7.33027 -12.3009,10.89922 -26.75298,19.40638 -37.426639,32.08587 -2.440844,3.02085 -5.171551,6.33164 -5.292385,10.40777 0.01611,3.56862 3.415188,5.75985 6.444082,6.74262 7.129198,2.29584 14.741907,2.0299 22.128879,1.90101 -6.80697,8.61142 -18.785134,9.27171 -27.074337,15.83702 -11.898105,9.15921 -21.774183,21.17026 -28.113931,34.81644 -3.74585,8.53892 -6.049921,18.53572 -2.795461,27.59826 2.32001,6.33974 8.474623,10.14235 14.645203,12.05153 -10.037264,7.37893 -19.358026,16.02268 -26.2294438,26.49495 -5.1153002,7.88642 -8.73222857,17.30286 -7.62055711,26.84069 0.547781,4.97031 3.79410481,9.87611 8.78051551,11.24557 5.7678044,1.75612 11.6486194,-0.38629 17.1586434,-2.02963 -7.950868,6.93587 -15.555112,14.9749 -19.0915136,25.12495 -1.4741731,4.16474 -1.6759088,9.78046 2.2632747,12.68047 4.7850249,3.32696 10.9881689,2.73016 16.4659729,2.10987 -7.7092,12.58284 -14.878436,25.57674 -20.2998516,39.32768 -2.932236,7.9992 -5.76818074,16.37746 -5.22040041,25.02107 0.2577791,4.36614 2.52947081,9.23986 7.06476841,10.5045 5.3972466,1.35334 10.5039086,-2.21621 15.9172656,-1.57174 1.804454,14.5806 -1.530718,29.88693 3.665139,43.99222 2.030008,5.90479 7.782178,10.45594 14.194438,10.02897 8.683919,0.45917 14.484554,-7.50765 22.564304,-9.15099 3.770016,-0.75727 7.080629,1.99013 8.820636,5.08348 13.436723,22.52343 12.993005,50.83783 28.322796,72.45906 4.35002,5.80805 10.56105,13.33226 18.68913,11.58422 11.13284,-5.22807 13.23575,-20.66187 25.39164,-24.64939 5.05085,-2.27977 10.0615,1.67446 11.76123,6.32251 7.8542,17.81895 5.80783,38.40101 13.83926,56.18775 1.94945,4.28555 5.6791,8.54797 10.77829,8.4513 7.55613,-0.2175 12.68764,-7.06497 20.03434,-8.18462 6.30753,-1.77221 13.36416,1.78852 15.84528,7.81409 3.7942,8.58717 0.23406,18.1003 2.06268,26.97754 0.56389,3.24644 4.30924,4.4946 7.13675,3.42329 10.6656,-3.27068 19.82551,-9.97248 28.5175,-16.76335 13.49311,-10.56088 26.55055,-21.95134 41.79978,-29.96655 3.87474,-1.90114 8.34621,-3.9636 12.71233,-2.61026 4.0278,1.34531 5.93647,5.64663 6.71785,9.51332 1.64334,8.7645 -0.78194,17.88377 1.65084,26.5516 2.10251,7.89456 11.25427,12.27727 18.9393,10.6178 7.41115,-1.59501 13.51737,-6.53385 18.82601,-11.6975 12.43783,-12.53453 22.16917,-27.37202 32.21449,-41.79155 3.13363,-4.37418 6.62168,-8.57998 11.06031,-11.6975 7.64475,5.76782 14.76585,13.53321 24.72256,14.95912 5.18781,0.77333 9.65062,-2.58567 13.10647,-6.03348 8.93366,-9.25587 14.68459,-21.02443 19.5824,-32.78561 2.83556,-6.1867 6.35645,-13.48554 13.50176,-15.40276 8.11198,-1.7078 12.72768,8.22486 20.58188,7.58039 5.95309,-1.5225 9.15945,-7.66074 11.11695,-13.0097 4.89781,-15.51506 3.18199,-32.23799 7.66894,-47.84972 6.95199,7.66087 10.64116,18.11698 19.04313,24.53731 2.19918,1.76418 5.83181,2.23947 7.60404,-0.37054 7.21781,-9.79557 11.05333,-22.60475 8.12915,-34.65593 -1.17613,-6.29949 -4.89086,-11.67255 -6.78393,-17.70615 -0.33028,-3.55252 3.67404,-1.16755 5.14016,-0.072 4.8253,2.75501 11.72083,7.98296 16.86835,3.2946 8.1845,-12.42976 2.4081,-28.18674 -4.99503,-39.51291 7.08087,2.69061 15.41103,3.39108 22.24219,-0.38703 5.68723,-3.06918 8.70837,-9.44819 9.35285,-15.66708 1.32917,-12.11565 -3.52944,-24.39291 -11.75418,-33.20573 8.87724,0.42695 18.85014,-2.48966 23.611,-10.56942 4.97026,-8.59531 3.89943,-19.55012 -0.44256,-28.17765 -5.57443,-11.21339 -15.20071,-19.74459 -25.22992,-26.92212 7.07276,0 14.52452,-2.15088 19.43842,-7.48367 6.00139,-6.61364 7.153,-16.71545 3.84215,-24.8677 -6.59753,-15.80507 -19.99426,-27.5586 -33.51962,-37.47502 6.88753,0.4511 15.07258,0.16206 20.09927,-5.25934 4.55948,-6.02559 1.96475,-14.178 -0.58883,-20.50164 -8.34563,-18.76952 -23.86058,-33.31047 -40.56786,-44.7333 -9.89226,-7.54811 -20.27524,-14.6127 -29.11222,-23.41747 6.29947,1.38557 12.90506,3.04488 19.33342,1.48211 4.31779,-1.14391 8.86072,-4.67215 8.6271,-9.56995 -0.45916,-6.5492 -4.51156,-12.05939 -8.10436,-17.29553 -10.85088,-15.68423 -23.81135,-30.27279 -39.88225,-40.7531 -12.56672,-8.10393 -25.95587,-14.80561 -38.83676,-22.37788 -2.12668,-1.49834 -4.90611,-2.9889 -5.49416,-5.7278 0.31416,-3.50419 6.06664,-2.23127 6.44526,-5.71129 0.40279,-2.61001 -2.46476,-4.00418 -4.17255,-5.41392 -8.52282,-6.04169 -19.52732,-5.05003 -28.97653,-8.42533 6.77477,-3.85863 14.65372,-5.23607 21.35597,-9.19942 1.98168,-0.91834 2.41566,-3.9077 0.56287,-5.18854 -7.44336,-6.60559 -17.8746,-7.95068 -27.4366,-8.26485 -18.71313,-0.62028 -37.83774,0.94221 -55.42309,7.74918 -19.10786,-13.84756 -32.48788,-35.06525 -54.45548,-44.9575103 -4.4699,-2.20428 -9.55034,-3.77266997 -14.5685,-3.83623997 z"
     id="path164"
     inkscape:connector-curvature="0" />
  <g
     id="g57"
     transform="matrix(0.80555908,0,0,0.80555908,-0.78871718,-60.98542)">
    <g
       id="#192033ff" />
    <g
       id="#ffffffff"
       style="fill:#ececec">
      <path
         id="path5"
         d="m 348.7,78.72 c 9.73,-5.29 21.41,-2.92 30.88,1.75 27.27,12.28 43.88,38.62 67.6,55.81 21.83,-8.45 45.57,-10.39 68.8,-9.62 11.87,0.39 24.82,2.06 34.06,10.26 2.3,1.59 1.76,5.3 -0.7,6.44 -8.32,4.92 -18.1,6.63 -26.51,11.42 11.73,4.19 25.39,2.96 35.97,10.46 2.12,1.75 5.68,3.48 5.18,6.72 -0.47,4.32 -7.61,2.74 -8,7.09 0.73,3.4 4.18,5.25 6.82,7.11 15.99,9.4 32.61,17.72 48.21,27.78 19.95,13.01 36.04,31.12 49.51,50.59 4.46,6.5 9.49,13.34 10.06,21.47 0.29,6.08 -5.35,10.46 -10.71,11.88 -7.98,1.94 -16.18,-0.12 -24,-1.84 10.97,10.93 23.86,19.7 36.14,29.07 20.74,14.18 40,32.23 50.36,55.53 3.17,7.85 6.39,17.97 0.73,25.45 -6.24,6.73 -16.4,7.09 -24.95,6.53 16.79,12.31 33.42,26.9 41.61,46.52 4.11,10.12 2.68,22.66 -4.77,30.87 -6.1,6.62 -15.35,9.29 -24.13,9.29 12.45,8.91 24.4,19.5 31.32,33.42 5.39,10.71 6.72,24.31 0.55,34.98 -5.91,10.03 -18.29,13.65 -29.31,13.12 10.21,10.94 16.24,26.18 14.59,41.22 -0.8,7.72 -4.55,15.64 -11.61,19.45 -8.48,4.69 -18.82,3.82 -27.61,0.48 9.19,14.06 16.36,33.62 6.2,49.05 -6.39,5.82 -14.95,-0.67 -20.94,-4.09 -1.82,-1.36 -6.79,-4.32 -6.38,0.09 2.35,7.49 6.96,14.16 8.42,21.98 3.63,14.96 -1.13,30.86 -10.09,43.02 -2.2,3.24 -6.71,2.65 -9.44,0.46 -10.43,-7.97 -15.01,-20.95 -23.64,-30.46 -5.57,19.38 -3.44,40.14 -9.52,59.4 -2.43,6.64 -6.41,14.26 -13.8,16.15 -9.75,0.8 -15.48,-11.53 -25.55,-9.41 -8.87,2.38 -13.24,11.44 -16.76,19.12 -6.08,14.6 -13.22,29.21 -24.31,40.7 -4.29,4.28 -9.83,8.45 -16.27,7.49 -12.36,-1.77 -21.2,-11.41 -30.69,-18.57 -5.51,3.87 -9.84,9.09 -13.73,14.52 -12.47,17.9 -24.55,36.32 -39.99,51.88 -6.59,6.41 -14.17,12.54 -23.37,14.52 -9.54,2.06 -20.9,-3.38 -23.51,-13.18 -3.02,-10.76 -0.01,-22.08 -2.05,-32.96 -0.97,-4.8 -3.34,-10.14 -8.34,-11.81 -5.42,-1.68 -10.97,0.88 -15.78,3.24 -18.93,9.95 -35.14,24.09 -51.89,37.2 -10.79,8.43 -22.16,16.75 -35.4,20.81 -3.51,1.33 -8.16,-0.22 -8.86,-4.25 -2.27,-11.02 2.15,-22.83 -2.56,-33.49 -3.08,-7.48 -11.84,-11.9 -19.67,-9.7 -9.12,1.39 -15.49,9.89 -24.87,10.16 -6.33,0.12 -10.96,-5.17 -13.38,-10.49 -9.97,-22.08 -7.43,-47.63 -17.18,-69.75 -2.11,-5.77 -8.33,-10.68 -14.6,-7.85 -15.09,4.95 -17.7,24.11 -31.52,30.6 -10.09,2.17 -17.8,-7.17 -23.2,-14.38 -19.03,-26.84 -18.48,-61.99 -35.16,-89.95 -2.16,-3.84 -6.27,-7.25 -10.95,-6.31 -10.03,2.04 -17.23,11.93 -28.01,11.36 -7.96,0.53 -15.1,-5.12 -17.62,-12.45 -6.45,-17.51 -2.31,-36.51 -4.55,-54.61 -6.72,-0.8 -13.06,3.63 -19.76,1.95 -5.63,-1.57 -8.45,-7.62 -8.77,-13.04 -0.68,-10.73 2.84,-21.13 6.48,-31.06 6.73,-17.07 15.63,-33.2 25.2,-48.82 -6.8,0.77 -14.5,1.51 -20.44,-2.62 -4.89,-3.6 -4.64,-10.57 -2.81,-15.74 4.39,-12.6 13.83,-22.58 23.7,-31.19 -6.84,2.04 -14.14,4.7 -21.3,2.52 -6.19,-1.7 -10.22,-7.79 -10.9,-13.96 -1.38,-11.84 3.11,-23.53 9.46,-33.32 8.53,-13 20.1,-23.73 32.56,-32.89 -7.66,-2.37 -15.3,-7.09 -18.18,-14.96 -4.04,-11.25 -1.18,-23.66 3.47,-34.26 7.87,-16.94 20.13,-31.85 34.9,-43.22 10.29,-8.15 25.16,-8.97 33.61,-19.66 -9.17,0.16 -18.62,0.49 -27.47,-2.36 -3.76,-1.22 -7.98,-3.94 -8,-8.37 0.15,-5.06 3.54,-9.17 6.57,-12.92 13.25,-15.74 31.19,-26.3 46.46,-39.83 -6.05,-0.24 -12.93,-2.79 -14.88,-9.1 -2.74,-9.92 1.06,-21.01 8.58,-27.87 6.95,-6.83 16.4,-9.9 25.12,-13.75 22.34,-9.25 44.77,-18.34 67.6,-26.34 -8.63,-2.89 -18.21,-5.75 -24.07,-13.19 -2.75,-3.56 -1.52,-8.57 1.48,-11.55 10.23,-12.43 25.37,-19.81 40.93,-23 21.97,-4.47 44.56,-3.11 66.77,-1.65 -3.35,-3.3 -7.68,-5.8 -9.94,-10.05 -2.57,-5.15 0.75,-11.63 5.84,-13.71 6.29,-2.72 13.3,-1.94 19.97,-2.13 15.69,-0.21 31.39,0.13 47.08,-0.22 4.72,-0.62 10.98,-0.27 13.77,-4.9 -0.83,-7.33 -9.65,-8.41 -14.65,-12.02 -5.82,-4.01 -6.2,-14.63 0.49,-18.06 m 21.15,182.16 c -13.98,5.17 -23.71,17.04 -36.13,24.71 -3.72,0.59 -10.12,1.59 -11.84,-2.63 1.57,-6.14 7.6,-11.19 7.38,-17.92 -1.18,-4.24 -6.22,-3.24 -9.39,-2.26 -16.4,4.46 -27.85,17.79 -41.15,27.44 -0.01,-3.35 0.81,-6.74 0.23,-10.06 -2.06,-3.47 -6.6,-1.97 -9.55,-0.68 -16.74,7.36 -30.74,19.57 -43.8,32.14 -20.57,20.65 -38.43,44.17 -51.86,70.08 -14.11,27.43 -24.38,59.43 -16.75,90.3 2.65,13.19 12.61,23.56 23.99,30.03 15.92,9.19 34.02,13.62 51.88,17.29 38.78,7.05 77.67,14.32 117.12,16.28 32.07,1.57 64.04,4.91 96.15,5.94 31.88,1.08 65.38,0.76 94.64,-13.63 15.17,-7.37 27.96,-19.76 34.97,-35.19 8.43,-18.24 9.36,-38.93 7.58,-58.65 -2.98,-31.21 -15.87,-60.92 -34.47,-85.95 -19.33,-26.11 -43.96,-47.89 -70.48,-66.45 -2.23,-1.93 -6.63,-2.12 -7.66,1.17 -1.66,7.63 -0.99,15.55 -0.99,23.31 -15.54,-13.68 -32.54,-26.17 -51.86,-33.94 -2.61,-1.33 -6.47,-0.38 -7.2,2.73 0.23,3.05 1.23,5.97 1.9,8.94 -9.62,-6.73 -18.41,-14.56 -27.76,-21.63 -4.29,-3.15 -10.17,-3.73 -14.95,-1.37 M 152.58,550.6 c -3.8,23.66 2.75,47.25 7.57,70.27 8.1,35.88 28.92,68.53 57.84,91.22 30.72,24.54 69.91,37.09 108.95,38.58 63.38,2.75 128.91,-17.37 176,-60.76 26.17,-24.12 46.01,-55.1 56.7,-89.06 0.89,-3.07 -0.82,-8.18 -4.52,-7.91 -7.89,5.44 -18.53,7.93 -24.65,15.27 0.52,3.76 3.48,7.62 1.13,11.41 -4.06,7.17 -12.63,9.43 -18.9,14.07 -4.05,3.14 1,8.32 -2.02,11.95 -3.18,5 -9.32,6.3 -14.74,7.16 -5.43,2.77 1.56,8.3 -0.6,12.52 -3.47,8.51 -13.9,11.61 -22.34,11.86 -4.81,-0.4 -12.28,-0.86 -13.77,5.1 -2.51,7.73 -7.1,15.97 -15.4,18.49 -9.64,2.77 -19.43,-1.13 -28.55,-4.03 -2.58,-0.99 -6.38,-0.03 -6.37,3.28 -1.94,17.09 -31.85,23.48 -37.86,5.87 -2.84,-1.71 -8.97,-3.22 -9.67,1.48 -1.81,7.68 -9.72,12.91 -17.42,12.6 -4.44,-0.17 -8.06,-4.01 -8.47,-8.35 -0.1,-4.61 -5.89,-5.78 -9.52,-4.84 -2.21,3.7 -4.38,8.26 -9.24,8.87 -7.11,2 -13.2,-4.72 -11.89,-11.64 -2.71,-1.75 -6.2,-3.72 -9.43,-2.51 -4.1,4.34 -7.43,11.51 -14.38,11.22 -6.83,-0.46 -16.03,-4.54 -15.21,-12.7 0.06,-2.64 2.48,-7.99 -1.82,-8.24 -4.82,1.99 -9.26,5.93 -14.9,4.95 -12.43,-1.43 -19.83,-15.18 -17.75,-26.82 -2.33,-2.23 -5.06,-4.35 -8.37,-4.71 -2.97,0.8 -5.81,3.53 -9.04,2.01 -6.74,-3.01 -8.92,-12.21 -5.02,-18.27 2.77,-4.06 -3.82,-9.24 -7.5,-6.48 -2.63,1.51 -7.36,4.32 -8.89,0 -3.24,-10.02 -0.08,-20.67 -0.02,-30.85 -1.78,-8.43 -12.58,0.19 -14.81,-7.45 -1.99,-8.57 1.84,-16.98 3.75,-25.19 0.14,-5.27 -7.06,-3.49 -9.3,-7.15 -6.18,-8.04 -0.69,-19.52 -6.18,-27.77 -4.94,-3.4 -11.46,1.92 -13.39,6.55 m 40.8,8.74 c -5.17,4.51 -3.67,12.63 -0.65,17.97 4.32,6.75 5.88,15.25 3.6,23 -1.43,3.76 0.16,9.11 4.55,9.86 6.71,2.48 5.03,11.06 4.3,16.63 2.75,4.22 8.67,3.65 12.81,2.08 8.77,-0.7 12.5,10.36 10.63,17.47 0.67,6.61 6.9,3.2 10.8,2.14 10.14,-1.04 16.36,9.15 19.79,17.24 2.12,4.03 1.97,11.07 7.78,11.6 4.37,-1.33 5.77,-6.67 10.07,-8.25 7.11,-3.79 16.43,1.23 17.94,8.95 0.98,2.25 0.38,6.71 3.78,6.68 4.56,-2.22 6.83,-7.75 12.07,-8.97 7.07,-2.68 16.15,1.62 16.71,9.63 -0.23,4.18 5.57,6.93 8.27,3.47 4.41,-5.67 10.71,-10.89 18.22,-11.02 4.18,-0.05 6.68,3.74 7.76,7.33 0.95,3.85 5.77,3.34 8.83,2.98 1.11,-11.39 13.93,-18.49 24.52,-16.49 4.64,0.82 7.97,4.79 9.04,9.24 0.7,3.78 7.79,3.16 8.11,-0.55 1.19,-5.59 3.91,-10.74 8.14,-14.62 7.55,-6.49 17.05,-12.91 27.49,-11.61 4.79,0.15 6.94,8.9 12.01,4.83 3.02,-4.48 3.81,-11.09 9.72,-13.15 5.06,-3.16 10.81,0.39 12.43,5.57 4.11,0.42 7.64,-3.48 8.05,-7.33 -0.71,-3.39 -2.66,-7.17 -0.46,-10.43 2.83,-4.91 8.97,-5.23 13.92,-6.15 5.62,-6.89 8.39,-15.61 12.34,-23.5 2.01,-3.09 -0.82,-7.43 -3.93,-8.18 -7.62,0.93 -10.85,9.74 -17.99,11.73 -6.72,-0.93 -5.92,-9.51 -6.22,-14.55 0.34,-4.37 -5.4,-7.08 -8.7,-4.86 -2.62,5.86 -1.68,13.03 -5.71,18.34 -2.32,3.16 -7.89,3.79 -10.16,0.24 -3.81,-5.58 -2.8,-12.97 -6.13,-18.74 -2.36,-3.48 -8.51,-1.14 -8.01,3.07 -3.36,19.31 -6.69,43.5 -26.6,52.87 -7.15,-18.53 -2.15,-38.63 -3.05,-57.87 0.46,-6.99 -9.3,-6.78 -13.45,-3.93 -6.74,4.62 -3.77,13.86 -6.57,20.41 -2.45,3.48 -7.42,1.33 -9.92,-1.01 -4.9,-5.16 -4.83,-12.77 -5.6,-19.39 -1.32,-3.29 -6.27,-2.75 -8.51,-0.72 -5.26,5.02 -4.8,13.26 -9.26,18.81 -1.94,2.58 -6.54,2.99 -8.2,-0.1 -2.87,-5.49 -1.55,-11.95 -3.1,-17.78 -4.27,-2.72 -12.52,-4.34 -14.99,1.48 -2.07,4.74 -2.42,10.26 -5.58,14.5 -1.12,1.53 -3.5,1.73 -4.63,0.1 -3.55,-5.04 -1.21,-11.9 -3.75,-17.21 -3.66,-1.93 -9.49,-2.84 -12.72,0.22 -1.56,5.61 -0.87,12.27 -4.88,16.95 -1.41,1.65 -3.44,0.03 -4.35,-1.28 -3.93,-5.49 -4.06,-12.52 -6.34,-18.68 -1.4,-5.05 -7.93,-1.6 -10.58,0.64 -2.17,4.2 -1.79,12.47 -7.84,13.02 -5.03,-5.53 -2.57,-14.08 -5.68,-20.55 -2.32,-1.71 -5.55,-0.97 -7.99,0.09 -2.76,3.91 -2.82,10.27 -7.49,12.49 -4.37,-3.08 -3.84,-9.08 -5.54,-13.59 -2.89,-1.68 -6.38,-1.27 -9.5,-0.57 -3.44,17.7 1.67,36.94 -6.53,53.74 -1.25,2.25 -3.73,-0.08 -4.91,-1.21 -5.02,-5.55 -8.96,-12.03 -12.29,-18.7 -5.42,-11.81 -2.12,-24.96 -1.73,-37.36 0.28,-4.57 -4.21,-7.08 -8.11,-7.79 -5.19,-1.05 -11.35,-2.6 -16.03,0.77 z"
         inkscape:connector-curvature="0"
         style="opacity:1;fill:#ececec" />
      <path
         id="path7"
         d="m 297.36,346.46 c 8.09,-1.35 16.97,-0.54 23.79,4.37 6.87,4.52 9.84,12.52 13.37,19.56 7.17,15.04 12.33,31.91 9.78,48.7 -2.76,18.47 -17.92,33.65 -35.67,38.43 -23.3,5.86 -50.87,1.63 -68.47,-15.66 C 227.27,428.91 228.37,407.97 237,393 c 12.59,-22.67 34.61,-41.31 60.36,-46.54 m 8.94,52.91 c -17.39,3.68 -23.81,28.13 -10.59,39.94 11.77,12.59 35.24,6.38 39.36,-10.32 5.78,-16.78 -11.83,-34.86 -28.77,-29.62 z"
         inkscape:connector-curvature="0"
         style="opacity:1;fill:#ececec" />
      <path
         id="path9"
         d="m 416.43,359.54 c 18.34,-1.27 35.07,9.08 48.55,20.49 14.24,12.85 26.47,29.02 30.88,47.98 4.13,15.59 -1.69,33.51 -15.58,42.26 -21.06,13.6 -49.24,14.07 -71.99,4.44 -17.11,-7.7 -29.47,-25.06 -30.93,-43.79 -1.69,-19.72 5.68,-39.08 15.93,-55.6 4.73,-8.5 13.25,-15.01 23.14,-15.78 m -12.08,47.87 c -11.4,0.92 -21.01,11.09 -21.3,22.52 -1.11,14.12 12.58,26.81 26.58,24.64 13.75,-1.3 24,-16.14 20.09,-29.47 -2.62,-11.06 -14.07,-19.09 -25.37,-17.69 z"
         inkscape:connector-curvature="0"
         style="opacity:1;fill:#ececec" />
    </g>
    <g
       id="#3a7bb5ff">
      <path
         id="path12"
         d="m 369.85,260.88 c 4.78,-2.36 10.66,-1.78 14.95,1.37 9.35,7.07 18.14,14.9 27.76,21.63 -0.67,-2.97 -1.67,-5.89 -1.9,-8.94 0.73,-3.11 4.59,-4.06 7.2,-2.73 19.32,7.77 36.32,20.26 51.86,33.94 0,-7.76 -0.67,-15.68 0.99,-23.31 1.03,-3.29 5.43,-3.1 7.66,-1.17 26.52,18.56 51.15,40.34 70.48,66.45 18.6,25.03 31.49,54.74 34.47,85.95 1.78,19.72 0.85,40.41 -7.58,58.65 -7.01,15.43 -19.8,27.82 -34.97,35.19 -29.26,14.39 -62.76,14.71 -94.64,13.63 -32.11,-1.03 -64.08,-4.37 -96.15,-5.94 -39.45,-1.96 -78.34,-9.23 -117.12,-16.28 -17.86,-3.67 -35.96,-8.1 -51.88,-17.29 -11.38,-6.47 -21.34,-16.84 -23.99,-30.03 -7.63,-30.87 2.64,-62.87 16.75,-90.3 13.43,-25.91 31.29,-49.43 51.86,-70.08 13.06,-12.57 27.06,-24.78 43.8,-32.14 2.95,-1.29 7.49,-2.79 9.55,0.68 0.58,3.32 -0.24,6.71 -0.23,10.06 13.3,-9.65 24.75,-22.98 41.15,-27.44 3.17,-0.98 8.21,-1.98 9.39,2.26 0.22,6.73 -5.81,11.78 -7.38,17.92 1.72,4.22 8.12,3.22 11.84,2.63 12.42,-7.67 22.15,-19.54 36.13,-24.71 m -72.49,85.58 c -25.75,5.23 -47.77,23.87 -60.36,46.54 -8.63,14.97 -9.73,35.91 3.16,48.86 17.6,17.29 45.17,21.52 68.47,15.66 17.75,-4.78 32.91,-19.96 35.67,-38.43 2.55,-16.79 -2.61,-33.66 -9.78,-48.7 -3.53,-7.04 -6.5,-15.04 -13.37,-19.56 -6.82,-4.91 -15.7,-5.72 -23.79,-4.37 m 119.07,13.08 c -9.89,0.77 -18.41,7.28 -23.14,15.78 -10.25,16.52 -17.62,35.88 -15.93,55.6 1.46,18.73 13.82,36.09 30.93,43.79 22.75,9.63 50.93,9.16 71.99,-4.44 13.89,-8.75 19.71,-26.67 15.58,-42.26 -4.41,-18.96 -16.64,-35.13 -30.88,-47.98 -13.48,-11.41 -30.21,-21.76 -48.55,-20.49 m -90.11,111.82 c -9.39,2.37 -15.48,10.44 -22.08,16.89 -4.09,4.73 -8.94,9.64 -9.83,16.11 -0.36,3.94 3.94,6.84 7.59,5.58 12.03,-2.75 22.47,-10.24 30.82,-19.12 3.9,-3.8 8.6,-8.77 7.07,-14.7 -2.18,-5.03 -8.81,-5.9 -13.57,-4.76 m 38.08,3.15 c -6.06,0.29 -10.62,6.84 -7.32,12.39 7.77,14.82 20.68,27.27 36.28,33.59 4.98,2.25 9.6,-3.38 8.18,-8.09 -2.24,-9.13 -8.81,-16.29 -14.19,-23.73 -5.48,-7.2 -13.14,-14.92 -22.95,-14.16 z"
         inkscape:connector-curvature="0"
         style="opacity:1;fill:#3a7bb5" />
    </g>
    <g
       id="#00030aff">
      <path
         id="path15"
         d="m 306.3,399.37 c 16.94,-5.24 34.55,12.84 28.77,29.62 -4.12,16.7 -27.59,22.91 -39.36,10.32 -13.22,-11.81 -6.8,-36.26 10.59,-39.94 z"
         inkscape:connector-curvature="0"
         style="opacity:1;fill:#00030a" />
      <path
         id="path17"
         d="m 404.35,407.41 c 11.3,-1.4 22.75,6.63 25.37,17.69 3.91,13.33 -6.34,28.17 -20.09,29.47 -14,2.17 -27.69,-10.52 -26.58,-24.64 0.29,-11.43 9.9,-21.6 21.3,-22.52 z"
         inkscape:connector-curvature="0"
         style="opacity:1;fill:#00030a" />
      <path
         id="path19"
         d="m 193.38,559.34 c 4.68,-3.37 10.84,-1.82 16.03,-0.77 3.9,0.71 8.39,3.22 8.11,7.79 -0.39,12.4 -3.69,25.55 1.73,37.36 3.33,6.67 7.27,13.15 12.29,18.7 1.18,1.13 3.66,3.46 4.91,1.21 8.2,-16.8 3.09,-36.04 6.53,-53.74 3.12,-0.7 6.61,-1.11 9.5,0.57 1.7,4.51 1.17,10.51 5.54,13.59 4.67,-2.22 4.73,-8.58 7.49,-12.49 2.44,-1.06 5.67,-1.8 7.99,-0.09 3.11,6.47 0.65,15.02 5.68,20.55 6.05,-0.55 5.67,-8.82 7.84,-13.02 2.65,-2.24 9.18,-5.69 10.58,-0.64 2.28,6.16 2.41,13.19 6.34,18.68 0.91,1.31 2.94,2.93 4.35,1.28 4.01,-4.68 3.32,-11.34 4.88,-16.95 3.23,-3.06 9.06,-2.15 12.72,-0.22 2.54,5.31 0.2,12.17 3.75,17.21 1.13,1.63 3.51,1.43 4.63,-0.1 3.16,-4.24 3.51,-9.76 5.58,-14.5 2.47,-5.82 10.72,-4.2 14.99,-1.48 1.55,5.83 0.23,12.29 3.1,17.78 1.66,3.09 6.26,2.68 8.2,0.1 4.46,-5.55 4,-13.79 9.26,-18.81 2.24,-2.03 7.19,-2.57 8.51,0.72 0.77,6.62 0.7,14.23 5.6,19.39 2.5,2.34 7.47,4.49 9.92,1.01 2.8,-6.55 -0.17,-15.79 6.57,-20.41 4.15,-2.85 13.91,-3.06 13.45,3.93 0.9,19.24 -4.1,39.34 3.05,57.87 19.91,-9.37 23.24,-33.56 26.6,-52.87 -0.5,-4.21 5.65,-6.55 8.01,-3.07 3.33,5.77 2.32,13.16 6.13,18.74 2.27,3.55 7.84,2.92 10.16,-0.24 4.03,-5.31 3.09,-12.48 5.71,-18.34 3.3,-2.22 9.04,0.49 8.7,4.86 0.3,5.04 -0.5,13.62 6.22,14.55 7.14,-1.99 10.37,-10.8 17.99,-11.73 3.11,0.75 5.94,5.09 3.93,8.18 -3.95,7.89 -6.72,16.61 -12.34,23.5 -4.95,0.92 -11.09,1.24 -13.92,6.15 -2.2,3.26 -0.25,7.04 0.46,10.43 -0.41,3.85 -3.94,7.75 -8.05,7.33 -1.62,-5.18 -7.37,-8.73 -12.43,-5.57 -5.91,2.06 -6.7,8.67 -9.72,13.15 -5.07,4.07 -7.22,-4.68 -12.01,-4.83 -10.44,-1.3 -19.94,5.12 -27.49,11.61 -7.1,-5.63 -13.21,-12.53 -21.23,-16.95 -21.36,-12.38 -44.73,-21.92 -69.26,-25.56 -35,-4.65 -72.42,2.2 -101.34,23.15 1.87,-7.11 -1.86,-18.17 -10.63,-17.47 -4.14,1.57 -10.06,2.14 -12.81,-2.08 0.73,-5.57 2.41,-14.15 -4.3,-16.63 -4.39,-0.75 -5.98,-6.1 -4.55,-9.86 2.28,-7.75 0.72,-16.25 -3.6,-23 -3.02,-5.34 -4.52,-13.46 0.65,-17.97 z"
         inkscape:connector-curvature="0"
         style="opacity:1;fill:#00030a" />
    </g>
    <g
       id="#246092ff">
      <path
         id="path22"
         d="m 326.32,471.36 c 4.76,-1.14 11.39,-0.27 13.57,4.76 1.53,5.93 -3.17,10.9 -7.07,14.7 -8.35,8.88 -18.79,16.37 -30.82,19.12 -3.65,1.26 -7.95,-1.64 -7.59,-5.58 0.89,-6.47 5.74,-11.38 9.83,-16.11 6.6,-6.45 12.69,-14.52 22.08,-16.89 z"
         inkscape:connector-curvature="0"
         style="opacity:1;fill:#246092" />
      <path
         id="path24"
         d="m 364.4,474.51 c 9.81,-0.76 17.47,6.96 22.95,14.16 5.38,7.44 11.95,14.6 14.19,23.73 1.42,4.71 -3.2,10.34 -8.18,8.09 -15.6,-6.32 -28.51,-18.77 -36.28,-33.59 -3.3,-5.55 1.26,-12.1 7.32,-12.39 z"
         inkscape:connector-curvature="0"
         style="opacity:1;fill:#246092" />
    </g>
    <g
       id="#bf1e2eff">
      <path
         id="path27"
         d="m 152.58,550.6 c 1.93,-4.63 8.45,-9.95 13.39,-6.55 5.49,8.25 0,19.73 6.18,27.77 2.24,3.66 9.44,1.88 9.3,7.15 -1.91,8.21 -5.74,16.62 -3.75,25.19 2.23,7.64 13.03,-0.98 14.81,7.45 -0.06,10.18 -3.22,20.83 0.02,30.85 1.53,4.32 6.26,1.51 8.89,0 3.68,-2.76 10.27,2.42 7.5,6.48 -3.9,6.06 -1.72,15.26 5.02,18.27 3.23,1.52 6.07,-1.21 9.04,-2.01 3.31,0.36 6.04,2.48 8.37,4.71 -2.08,11.64 5.32,25.39 17.75,26.82 5.64,0.98 10.08,-2.96 14.9,-4.95 4.3,0.25 1.88,5.6 1.82,8.24 -0.82,8.16 8.38,12.24 15.21,12.7 6.95,0.29 10.28,-6.88 14.38,-11.22 3.23,-1.21 6.72,0.76 9.43,2.51 -1.31,6.92 4.78,13.64 11.89,11.64 4.86,-0.61 7.03,-5.17 9.24,-8.87 3.63,-0.94 9.42,0.23 9.52,4.84 0.41,4.34 4.03,8.18 8.47,8.35 7.7,0.31 15.61,-4.92 17.42,-12.6 0.7,-4.7 6.83,-3.19 9.67,-1.48 6.01,17.61 35.92,11.22 37.86,-5.87 -0.01,-3.31 3.79,-4.27 6.37,-3.28 9.12,2.9 18.91,6.8 28.55,4.03 8.3,-2.52 12.89,-10.76 15.4,-18.49 1.49,-5.96 8.96,-5.5 13.77,-5.1 8.44,-0.25 18.87,-3.35 22.34,-11.86 2.16,-4.22 -4.83,-9.75 0.6,-12.52 5.42,-0.86 11.56,-2.16 14.74,-7.16 3.02,-3.63 -2.03,-8.81 2.02,-11.95 6.27,-4.64 14.84,-6.9 18.9,-14.07 2.35,-3.79 -0.61,-7.65 -1.13,-11.41 6.12,-7.34 16.76,-9.83 24.65,-15.27 3.7,-0.27 5.41,4.84 4.52,7.91 -10.69,33.96 -30.53,64.94 -56.7,89.06 -47.09,43.39 -112.62,63.51 -176,60.76 -39.04,-1.49 -78.23,-14.04 -108.95,-38.58 -28.92,-22.69 -49.74,-55.34 -57.84,-91.22 -4.82,-23.02 -11.37,-46.61 -7.57,-70.27 z"
         inkscape:connector-curvature="0"
         style="opacity:1;fill:#bf1e2e" />
      <path
         id="path29"
         d="m 228.62,646.35 c 28.92,-20.95 66.34,-27.8 101.34,-23.15 24.53,3.64 47.9,13.18 69.26,25.56 8.02,4.42 14.13,11.32 21.23,16.95 -4.23,3.88 -6.95,9.03 -8.14,14.62 -0.32,3.71 -7.41,4.33 -8.11,0.55 -1.07,-4.45 -4.4,-8.42 -9.04,-9.24 -10.59,-2 -23.41,5.1 -24.52,16.49 -3.06,0.36 -7.88,0.87 -8.83,-2.98 -1.08,-3.59 -3.58,-7.38 -7.76,-7.33 -7.51,0.13 -13.81,5.35 -18.22,11.02 -2.7,3.46 -8.5,0.71 -8.27,-3.47 -0.56,-8.01 -9.64,-12.31 -16.71,-9.63 -5.24,1.22 -7.51,6.75 -12.07,8.97 -3.4,0.03 -2.8,-4.43 -3.78,-6.68 -1.51,-7.72 -10.83,-12.74 -17.94,-8.95 -4.3,1.58 -5.7,6.92 -10.07,8.25 -5.81,-0.53 -5.66,-7.57 -7.78,-11.6 -3.43,-8.09 -9.65,-18.28 -19.79,-17.24 -3.9,1.06 -10.13,4.47 -10.8,-2.14 z"
         inkscape:connector-curvature="0"
         style="opacity:1;fill:#bf1e2e" />
    </g>
  </g>
</svg>
