<?xml version="1.0" encoding="UTF-8" standalone="no"?>
<svg
   xmlns:dc="http://purl.org/dc/elements/1.1/"
   xmlns:cc="http://creativecommons.org/ns#"
   xmlns:rdf="http://www.w3.org/1999/02/22-rdf-syntax-ns#"
   xmlns:svg="http://www.w3.org/2000/svg"
   xmlns="http://www.w3.org/2000/svg"
   xmlns:sodipodi="http://sodipodi.sourceforge.net/DTD/sodipodi-0.dtd"
   xmlns:inkscape="http://www.inkscape.org/namespaces/inkscape"
   width="81.280022mm"
   height="88.900002mm"
   viewBox="0 0 81.280022 88.9"
   version="1.1"
   id="svg8"
   sodipodi:docname="bumble.svg"
   inkscape:version="1.0.2-2 (e86c870879, 2021-01-15)">
  <defs
     id="defs2" />
  <sodipodi:namedview
     id="base"
     pagecolor="#ffffff"
     bordercolor="#666666"
     borderopacity="1.0"
     inkscape:pageopacity="0.0"
     inkscape:pageshadow="2"
     inkscape:zoom="2.3045915"
     inkscape:cx="173.34685"
     inkscape:cy="170.75423"
     inkscape:document-units="mm"
     inkscape:current-layer="layer3"
     inkscape:document-rotation="0"
     showgrid="false"
     inkscape:window-width="1748"
     inkscape:window-height="1051"
     inkscape:window-x="163"
     inkscape:window-y="-9"
     inkscape:window-maximized="1"
     width="106mm" />
  <metadata
     id="metadata5">
    <rdf:RDF>
      <cc:Work
         rdf:about="">
        <dc:format>image/svg+xml</dc:format>
        <dc:type
           rdf:resource="http://purl.org/dc/dcmitype/StillImage" />
        <dc:title></dc:title>
      </cc:Work>
    </rdf:RDF>
  </metadata>
  <g
     inkscape:groupmode="layer"
     id="layer11"
     inkscape:label="fiducial"
     transform="translate(0.12700077,-0.36569054)"
     style="display:inline">
    <rect
       style="fill:none;stroke:#000000;stroke-width:0.230414;stroke-miterlimit:4;stroke-dasharray:none;stroke-opacity:1"
       id="rect3276"
       width="81.049606"
       height="88.669586"
       x="-0.011793765"
       y="0.48089755" />
  </g>
  <g
     inkscape:groupmode="layer"
     id="layer2"
     inkscape:label="exposed copper"
     style="display:inline"
     transform="translate(-56.298409,-101.32523)">
    <g
       id="#00030aff"
       transform="matrix(0.10055808,0,0,0.10055808,58.790346,94.331972)"
       style="fill:#939393;fill-opacity:0.940476">
      <path
         id="path15"
         d="m 306.3,399.37 c 16.94,-5.24 34.55,12.84 28.77,29.62 -4.12,16.7 -27.59,22.91 -39.36,10.32 -13.22,-11.81 -6.8,-36.26 10.59,-39.94 z"
         inkscape:connector-curvature="0"
         style="opacity:1;fill:#939393;fill-opacity:0.940476" />
      <path
         id="path17"
         d="m 404.35,407.41 c 11.3,-1.4 22.75,6.63 25.37,17.69 3.91,13.33 -6.34,28.17 -20.09,29.47 -14,2.17 -27.69,-10.52 -26.58,-24.64 0.29,-11.43 9.9,-21.6 21.3,-22.52 z"
         inkscape:connector-curvature="0"
         style="opacity:1;fill:#939393;fill-opacity:0.940476" />
    </g>
    <path
       style="fill:#939393;fill-opacity:0.940476;stroke-width:0.119218"
       inkscape:connector-curvature="0"
       id="path36"
       d="m 96.600925,156.11221 c 0.531535,-0.73252 0.68072,-1.57649 1.008117,-2.3679 0.512893,0.80438 0.958243,1.647 1.034646,2.52813 0.135279,0.017 0.27044,0.035 0.406822,0.055 0.556435,-0.65026 0.800827,-1.41816 1.30461,-2.08845 0.0618,0.64794 0.15421,1.29954 0.088,1.94446 0.0834,0.0524 0.24996,0.15735 0.33329,0.20981 0.65192,-0.51363 1.15017,-1.12076 1.54695,-1.76446 0.17671,0.57995 0.26899,1.16793 0.36275,1.755 0.96903,-0.16668 1.10167,-1.01312 1.71202,-1.48215 0.32464,0.0695 0.33096,0.37997 0.40413,0.58036 0.1155,0.83223 0.1275,1.66874 0.0827,2.49927 0.24047,1.31835 0.18426,2.6467 0.0542,3.95831 0.21332,0.0659 0.42514,0.1326 0.63975,0.19967 1.89672,-1.3921 2.32615,-3.5253 2.6548,-5.44766 0.37832,0.44468 0.59002,0.94353 0.828,1.42929 0.13425,0.0125 0.26966,0.0277 0.40494,0.0448 0.52333,-0.60698 0.71193,-1.32742 1.04968,-1.99785 0.3124,0.67187 0.41381,1.37867 0.74187,2.04683 0.071,0.17862 0.35233,0.21556 0.5396,0.30789 0.2725,-0.27586 0.50361,-0.57279 0.7078,-0.88132 0.26055,0.35535 0.53243,0.7086 0.85823,1.03579 0.15208,-0.15914 0.30156,-0.32054 0.45232,-0.4808 0.0422,0.01 0.1269,0.0328 0.16784,0.0434 0.1443,0.0886 0.26537,0.22028 0.45652,0.25239 0.86757,-0.82524 1.14425,-1.89822 1.5272,-2.89418 0.73744,0.80557 0.91809,1.81899 0.9987,2.74773 -0.59014,0.41331 -1.18608,0.8292 -1.80125,1.22595 -0.23488,-0.3459 -0.58161,-0.64104 -0.98579,-0.88578 -0.25898,0.44024 -0.23417,0.93813 -0.37539,1.40407 -0.33103,-0.0444 -0.66,-0.0958 -0.98755,-0.1479 -0.30971,0.54151 -0.23628,1.1535 -0.39238,1.7259 -1.37675,-0.2929 -1.4187,1.01617 -1.86772,1.63477 -0.23496,-0.16937 -0.47009,-0.33671 -0.70375,-0.50495 -0.122,-0.009 -0.36595,-0.0279 -0.4865,-0.0374 -0.74782,0.57297 -0.97206,1.38163 -1.34968,2.10913 -0.69338,-0.28852 -1.17788,-0.7476 -1.47,-1.2843 -0.22849,-0.49825 -0.94614,-0.637 -1.52914,-0.81528 -0.71068,0.53108 -1.18916,1.19943 -1.5557,1.8961 -0.0943,0.36021 0.20007,0.75957 -0.0457,1.09729 -0.35473,0.51396 -0.45868,1.09605 -0.56044,1.66909 -0.98768,-0.92801 -1.64934,-2.02562 -2.73285,-2.9107 -0.714936,0.88272 -0.156163,2.04009 -0.694718,2.98034 -0.782443,-0.81771 -1.354993,-1.75355 -2.364632,-2.44643 -0.268672,0.85406 -0.289248,1.74314 -0.491722,2.60605 -0.293276,-0.90628 0.04941,-1.82467 -0.308287,-2.72837 -0.888691,0.62017 -1.696076,1.29982 -2.47165,1.99866 -0.07401,7.1e-4 -0.221963,10e-4 -0.29589,7.1e-4 -0.05294,-0.98995 0.464878,-2.01208 -0.03652,-2.97967 -1.23048,0.52357 -1.891646,1.47772 -2.846246,2.21324 -0.12807,-0.0194 -0.256234,-0.0377 -0.384483,-0.0553 -0.02244,-1.482 -0.143685,-2.98288 -0.643864,-4.44305 -0.09691,-0.29586 -0.438596,-0.74451 -0.915891,-0.55225 -1.037271,0.38857 -1.830765,1.053 -2.560431,1.70557 -0.196336,-0.0684 -0.3912,-0.13785 -0.58441,-0.21022 0.0756,-0.73647 -0.295282,-1.48943 -1.023781,-2.03044 -0.401804,-0.0166 -0.789967,0.05 -1.176704,0.1004 -0.166596,-0.71147 -0.328324,-1.63805 -1.504687,-1.81284 -0.03268,-0.0571 -0.100779,-0.172 -0.13344,-0.22926 0.168172,-0.43894 0.221538,-0.90537 0.102803,-1.36632 -0.344898,-0.0291 -0.692252,-0.0463 -1.033359,-0.10275 -0.131971,-0.46932 0.120525,-0.94707 -0.131956,-1.41049 -0.573638,0.22489 -1.026732,0.57116 -1.376944,0.96952 -0.707281,-0.54427 -1.462089,-1.08757 -1.959676,-1.74795 -0.156333,-0.55763 0.261525,-1.07532 0.419003,-1.59937 0.07621,0.022 0.230197,0.0644 0.307881,0.0854 0.140625,0.64146 0.287514,1.30709 0.743314,1.88684 0.199594,0.0472 0.324635,-0.10597 0.478776,-0.16133 0.04891,-6.9e-4 0.146655,-0.001 0.194089,-0.001 0.118,0.16632 0.234452,0.33459 0.352285,0.50295 0.154985,-0.0809 0.309881,-0.16071 0.464775,-0.24058 0.502463,0.0944 1.002471,0.20063 1.504579,0.29895 0.405851,-0.46022 0.744604,-0.95098 1.072459,-1.44471 0.373098,0.48837 0.655657,1.00677 0.987081,1.50891 0.07652,0.001 0.230855,0.009 0.307372,0.0125 0.391644,-0.48918 0.659628,-1.03229 1.098224,-1.49992 -4.95e-4,0.91547 -0.248537,1.83598 0.183169,2.73898 0.03478,1.29317 0.400429,2.67999 1.700528,3.67334 0.08866,-0.0405 0.267453,-0.12238 0.356114,-0.16285 0.171885,-1.02364 0.578607,-2.00417 0.583823,-3.05265 0.544287,-1.261 0.822867,-2.57912 1.236847,-3.86589 0.232139,0.77571 0.0155,1.56142 0.288052,2.3376 0.144015,0.0125 0.28656,0.0261 0.430488,0.0398 0.543447,-0.61343 0.918786,-1.29904 1.355864,-1.95668 0.07764,0.006 0.229963,0.019 0.306126,0.0256 -0.04101,0.54859 -0.05159,1.09986 0.01039,1.65233 0.09234,0.0135 0.274415,0.0374 0.366838,0.0495 0.591708,-0.5271 1.005835,-1.14569 1.413978,-1.75967 0.160375,0.6709 0.05624,1.3669 0.415245,2.01618 0.13995,0.0125 0.279814,0.0235 0.420972,0.0368 0.281463,-0.80881 0.49243,-1.64119 0.968885,-2.39801 0.375752,0.77699 0.773572,1.55692 0.943897,2.36932 0.101014,0.009 0.302908,0.0306 0.403912,0.0405 z" />
  </g>
  <g
     inkscape:groupmode="layer"
     id="layer6"
     inkscape:label="exposed fr4"
     style="display:inline"
     transform="translate(-56.298409,-101.32523)"
     sodipodi:insensitive="true">
    <g
       id="g1192"
       style="fill:#ececec"
       transform="matrix(0.10055808,0,0,0.10055808,58.790346,94.331972)">
      <path
         id="path7"
         d="m 297.36,346.46 c 8.09,-1.35 16.97,-0.54 23.79,4.37 6.87,4.52 9.84,12.52 13.37,19.56 7.17,15.04 12.33,31.91 9.78,48.7 -2.76,18.47 -17.92,33.65 -35.67,38.43 -23.3,5.86 -50.87,1.63 -68.47,-15.66 C 227.27,428.91 228.37,407.97 237,393 c 12.59,-22.67 34.61,-41.31 60.36,-46.54 m 8.94,52.91 c -17.39,3.68 -23.81,28.13 -10.59,39.94 11.77,12.59 35.24,6.38 39.36,-10.32 5.78,-16.78 -11.83,-34.86 -28.77,-29.62 z"
         inkscape:connector-curvature="0"
         style="opacity:1;fill:#ececbc;fill-opacity:1" />
      <path
         id="path9"
         d="m 416.43,359.54 c 18.34,-1.27 35.07,9.08 48.55,20.49 14.24,12.85 26.47,29.02 30.88,47.98 4.13,15.59 -1.69,33.51 -15.58,42.26 -21.06,13.6 -49.24,14.07 -71.99,4.44 -17.11,-7.7 -29.47,-25.06 -30.93,-43.79 -1.69,-19.72 5.68,-39.08 15.93,-55.6 4.73,-8.5 13.25,-15.01 23.14,-15.78 m -12.08,47.87 c -11.4,0.92 -21.01,11.09 -21.3,22.52 -1.11,14.12 12.58,26.81 26.58,24.64 13.75,-1.3 24,-16.14 20.09,-29.47 -2.62,-11.06 -14.07,-19.09 -25.37,-17.69 z"
         inkscape:connector-curvature="0"
         style="opacity:1;fill:#ececbc;fill-opacity:1" />
    </g>
  </g>
  <g
     inkscape:groupmode="layer"
     id="layer4"
     inkscape:label="soldermask + copper"
     style="display:inline"
     transform="translate(-56.298409,-101.32523)">
    <g
       id="#246092ff"
       transform="matrix(0.10055808,0,0,0.10055808,58.790346,94.331972)"
       style="fill:#a0cce7;fill-opacity:1;stroke:none">
      <path
         id="path22"
         d="m 326.32,471.36 c 4.76,-1.14 11.39,-0.27 13.57,4.76 1.53,5.93 -3.17,10.9 -7.07,14.7 -8.35,8.88 -18.79,16.37 -30.82,19.12 -3.65,1.26 -7.95,-1.64 -7.59,-5.58 0.89,-6.47 5.74,-11.38 9.83,-16.11 6.6,-6.45 12.69,-14.52 22.08,-16.89 z"
         inkscape:connector-curvature="0"
         style="opacity:1;fill:#a0cce7;fill-opacity:1;stroke:none" />
      <path
         id="path24"
         d="m 364.4,474.51 c 9.81,-0.76 17.47,6.96 22.95,14.16 5.38,7.44 11.95,14.6 14.19,23.73 1.42,4.71 -3.2,10.34 -8.18,8.09 -15.6,-6.32 -28.51,-18.77 -36.28,-33.59 -3.3,-5.55 1.26,-12.1 7.32,-12.39 z"
         inkscape:connector-curvature="0"
         style="opacity:1;fill:#a0cce7;fill-opacity:1;stroke:none" />
    </g>
    <path
       style="fill:#a0cce7;stroke-width:0.119218"
       inkscape:connector-curvature="0"
       id="path18"
       d="m 74.282933,151.09181 c 0.852488,-0.92407 2.0576,-1.65204 3.296142,-2.28369 -0.769804,0.53717 0.65982,1.66089 0.03195,2.28234 -0.741574,0.74083 -3.143823,1.26042 -2.916734,2.22144 0.183735,0.85053 0.951221,1.55196 1.378793,2.34274 0.395941,0.76951 0.829853,1.5516 0.87801,2.37279 0.05176,0.79588 0.578002,1.52751 1.039954,2.24431 1.640927,2.40875 3.614215,4.7029 5.858924,6.84528 1.337745,1.34457 3.199035,2.3829 5.209498,3.1038 2.010036,0.82145 4.081908,1.70167 6.36706,1.89851 2.447498,0.46251 5.05228,0.37119 7.36281,-0.23235 1.67878,-0.57569 3.40933,-1.12121 4.85091,-1.98449 3.28617,-1.9623 6.04433,-4.36493 8.49465,-6.90121 1.07984,-1.0027 0.95025,-2.42429 1.90582,-3.47379 0.62407,-0.80138 1.59112,-1.39214 2.55449,-1.95652 -0.0975,-1.56553 -0.82146,-3.11505 -2.07794,-4.41555 0.82589,0.16155 1.29214,0.7494 1.76064,1.23172 0.94872,1.07035 1.62435,2.35906 1.3778,3.61427 -0.10286,0.45802 -0.67994,0.7062 -1.0987,0.99492 -0.75495,0.44715 -1.19565,1.0983 -1.67848,1.70473 -0.71362,0.88388 -0.7505,1.99118 -1.49525,2.86412 -0.65438,0.76487 -1.17312,1.60627 -2.02875,2.26321 -0.86587,0.6622 -1.31056,1.56654 -2.23702,2.18751 -0.9162,0.64755 -1.5669,1.4661 -2.44092,2.14197 -2.255,1.62759 -4.86365,3.02308 -7.83384,3.87786 -2.951853,0.78865 -6.228429,0.4404 -9.312457,0.0125 -2.44598,-0.68715 -4.937494,-1.44398 -7.039545,-2.64913 -2.179063,-1.01071 -3.436978,-2.7414 -5.045216,-4.16814 -2.0934,-2.48428 -3.967856,-5.0787 -5.419496,-7.78496 -0.307888,-1.12207 -0.52385,-2.27407 -1.161427,-3.34391 -1.14642,-1.52183 -1.598015,-3.47345 -0.581678,-5.01032 z"
       sodipodi:nodetypes="scccccccccccccccccccccccccccccss" />
  </g>
  <g
     inkscape:groupmode="layer"
     id="layer3"
     inkscape:label="soldermask"
     style="display:inline"
     transform="translate(-56.298409,-101.32523)">
    <path
       id="path12"
       d="m 95.981755,120.56555 c 0.480669,-0.23731 1.071955,-0.17898 1.503344,0.13785 0.940221,0.71096 1.824129,1.49832 2.791491,2.17507 -0.0674,-0.29866 -0.16792,-0.59229 -0.19105,-0.89898 0.0734,-0.31275 0.46157,-0.40828 0.72401,-0.27454 1.94279,0.78134 3.65227,2.0373 5.21494,3.41295 0,-0.78033 -0.0674,-1.57676 0.0996,-2.34401 0.10361,-0.33082 0.54603,-0.31174 0.77027,-0.11763 2.66679,1.86634 5.14355,4.05651 7.08734,6.68208 1.87037,2.51697 3.16656,5.50455 3.46622,8.64298 0.179,1.983 0.0855,4.06353 -0.76222,5.89772 -0.70492,1.55161 -1.99105,2.79751 -3.51653,3.53864 -2.94232,1.44704 -6.31102,1.47922 -9.5168,1.37062 -3.22893,-0.10361 -6.443761,-0.43945 -9.668664,-0.59732 -3.967014,-0.19708 -7.87772,-0.92816 -11.777362,-1.63708 -1.795968,-0.36906 -3.616069,-0.81455 -5.216953,-1.73865 -1.144353,-0.65063 -2.14591,-1.69341 -2.412389,-3.01977 -0.767258,-3.10423 0.265474,-6.32209 1.684349,-9.0804 1.350495,-2.60545 3.146462,-4.97057 5.214942,-7.0471 1.313287,-1.26403 2.721101,-2.49185 4.404444,-3.23195 0.296647,-0.12975 0.75318,-0.28056 0.960329,0.0684 0.05834,0.33384 -0.02414,0.67473 -0.02311,1.0116 1.337423,-0.97039 2.488811,-2.31083 4.137966,-2.75931 0.318767,-0.0985 0.825582,-0.19911 0.94424,0.22726 0.02213,0.67675 -0.584242,1.18456 -0.742118,1.802 0.172958,0.42435 0.81653,0.3238 1.190607,0.26448 1.248932,-0.7713 2.22736,-1.96493 3.63316,-2.48481 m -7.289453,8.60577 c -2.58937,0.52591 -4.803661,2.40031 -6.069686,4.67996 -0.867816,1.50537 -0.97843,3.61105 0.317763,4.91327 1.769823,1.73865 4.542209,2.16401 6.885212,1.57474 1.784907,-0.48065 3.309367,-2.00712 3.586909,-3.86445 0.256423,-1.68836 -0.262457,-3.38477 -0.983458,-4.89716 -0.354971,-0.70793 -0.653629,-1.5124 -1.344463,-1.96692 -0.685866,-0.49374 -1.578821,-0.57519 -2.392337,-0.43944 m 11.973452,1.31529 c -0.994526,0.0775 -1.851283,0.73207 -2.326911,1.58682 -1.030726,1.66121 -1.771838,3.608 -1.601896,5.59102 0.14682,1.88347 1.389721,3.62914 3.110254,4.40343 2.287703,0.96839 5.121423,0.92112 7.239173,-0.44647 1.39677,-0.87987 1.982,-2.68188 1.56672,-4.24958 -0.44348,-1.90657 -1.67331,-3.53263 -3.10526,-4.82478 -1.35552,-1.14737 -3.03785,-2.18815 -4.88208,-2.06044 m -9.06129,11.24441 c -0.944241,0.23832 -1.55664,1.04982 -2.220323,1.69842 -0.411282,0.47564 -0.898989,0.96938 -0.988487,1.61999 -0.03621,0.39622 0.3962,0.68783 0.763237,0.56112 1.209714,-0.27653 2.25954,-1.02972 3.099201,-1.92267 0.392175,-0.38212 0.864798,-0.88189 0.710944,-1.4782 -0.219215,-0.50581 -0.885915,-0.5933 -1.364572,-0.47866 m 3.829251,0.31676 c -0.609382,0.0291 -1.067925,0.68783 -0.736084,1.24591 0.781338,1.49028 2.079539,2.74222 3.64824,3.37776 0.500775,0.22624 0.965357,-0.33989 0.822568,-0.81352 -0.225246,-0.9181 -0.885911,-1.6381 -1.426918,-2.38624 -0.551057,-0.72402 -1.321331,-1.50033 -2.307806,-1.42391 z"
       inkscape:connector-curvature="0"
       style="fill:#3a7bb5;stroke-width:0.100558" />
    <path
       style="fill:#3a7bb5;fill-opacity:1;stroke-width:0.119218"
       inkscape:connector-curvature="0"
       id="path25"
       d="m 106.63057,151.42676 c 1.55219,0.0577 3.2491,-0.18273 4.68543,0.46536 0.83889,0.33203 1.80019,0.34942 2.66692,0.61821 0.83007,0.25736 1.65541,0.60054 2.56531,0.59906 0.76553,-0.009 1.48706,0.21222 2.17237,0.46513 1.25649,1.30051 1.98049,2.85002 2.07794,4.41555 -0.96335,0.56438 -1.93041,1.15514 -2.55449,1.95652 -0.95556,1.0495 -0.82597,2.47109 -1.90581,3.4738 -2.4503,2.53627 -5.20846,4.9389 -8.49463,6.9012 -1.44161,0.86328 -3.17216,1.4088 -4.85094,1.98449 -2.31052,0.60354 -4.915307,0.69486 -7.362798,0.23235 -2.285154,-0.19684 -4.357024,-1.07706 -6.367062,-1.89851 -2.010461,-0.7209 -3.871753,-1.75923 -5.209498,-3.1038 -2.244707,-2.14238 -4.217996,-4.43653 -5.858922,-6.84528 -0.461953,-0.7168 -0.988185,-1.44843 -1.039955,-2.24431 -0.04816,-0.82119 -0.482069,-1.60328 -0.878011,-2.37279 -0.427573,-0.79078 -1.195058,-1.4922 -1.378792,-2.34271 -0.22709,-0.96105 0.244903,-1.90611 0.986474,-2.64694 0.62787,-0.62145 1.128504,-1.3197 1.898307,-1.85687 1.11862,0.0374 2.211068,0.29402 3.322468,0.41385 1.164072,0.34712 2.31166,-0.12212 3.486864,0.0659 1.641381,0.21852 3.340256,0.051 4.931169,0.51147 1.888819,0.27712 3.823269,0.2719 5.702676,0.60874 2.296923,0.71621 4.78248,0.53646 7.14524,0.40447 1.40328,-0.18616 2.85422,-0.0397 4.25974,0.19511 M 82.798335,151.0188 c -1.574405,-0.34609 -3.227233,-0.41783 -4.81403,-0.23951 -0.20311,0.009 -0.427231,0.1464 -0.373279,0.31117 0.14709,0.79088 0.203017,1.5871 0.40188,2.37633 -0.07769,-0.0211 -0.231668,-0.0632 -0.307879,-0.0854 -0.157478,0.52404 -0.575336,1.04171 -0.419004,1.59938 0.497586,0.66037 1.252397,1.20367 1.959677,1.74795 -0.730159,0.64224 -1.179533,1.64778 -0.467952,2.44595 0.397193,0.37241 0.21237,0.85815 0.458322,1.26866 0.252457,0.54347 1.188321,0.72389 1.342248,1.30905 0.237787,0.6633 0.913967,1.1484 1.728355,1.44135 0.58985,0.77007 1.454215,1.43277 2.621708,1.69297 1.060367,1.03805 2.427056,2.16345 4.307727,2.16685 0.955056,0.71068 2.267727,1.3849 3.64137,1.25053 0.868767,0.7719 2.371804,0.78535 3.461611,0.40242 1.086781,0.48098 2.581285,0.89501 3.589898,0.19603 1.181553,0.38665 2.484003,0.0614 3.468033,-0.40478 0.53335,-0.3064 1.25563,-0.0135 1.86641,-0.13635 1.23037,-0.20335 2.24467,-0.79201 3.07297,-1.45545 1.0638,0.009 2.00025,-0.39053 2.58863,-1.00722 0.30094,-0.39345 1.05225,-0.17685 1.42106,-0.50073 0.56366,-0.43 1.35806,-0.68996 1.67195,-1.27935 0.60452,-0.3864 1.04771,-0.89057 1.10725,-1.50735 0.5783,-0.3579 0.98547,-0.89703 0.86696,-1.48832 -0.1491,-0.54369 -0.49252,-1.05306 -0.82706,-1.55136 0.61519,-0.39676 1.21111,-0.81264 1.80124,-1.22596 -0.0805,-0.92873 -0.26127,-1.94216 -0.9987,-2.74771 0.0886,-0.42334 0.18147,-0.84628 0.25916,-1.27159 -0.97706,-0.21993 -1.98866,-0.23658 -2.98185,-0.36761 -1.94063,-0.19545 -3.81356,-0.76575 -5.77193,-0.82214 -1.50355,-0.0556 -2.95105,-0.46447 -4.42242,-0.68045 -1.50118,0.1407 -3.03021,0.10554 -4.552116,0.0204 -1.327618,0.24615 -2.72007,-0.0584 -3.980195,-0.45598 -1.120903,-0.0591 -2.114908,-0.56375 -3.233486,-0.6175 -1.616482,-0.13635 -3.234171,-0.27474 -4.849493,-0.42427 -1.2305,-0.16206 -2.406756,0.34777 -3.637065,0.0399 z" />
  </g>
  <g
     inkscape:groupmode="layer"
     id="layer8"
     inkscape:label="silk"
     style="display:inline"
     transform="translate(-54.174598,-96.785592)">
    <path
       id="path25-1-9"
       style="display:inline;fill:#fee0e0;fill-opacity:1;stroke-width:0.119218"
       d="m 77.665778,146.1459 c -0.606002,-0.005 -1.2103,0.0269 -1.805347,0.0937 -0.203108,0.009 -0.427159,0.1464 -0.373208,0.31123 0.14709,0.79086 0.203053,1.587 0.40192,2.37622 0.140625,0.64148 0.28751,1.30696 0.74331,1.88671 0.199596,0.0472 0.324579,-0.10585 0.478719,-0.16128 0.04891,-7.1e-4 0.146565,-0.001 0.194013,-0.001 0.118001,0.16635 0.234531,0.33468 0.352362,0.50304 0.154987,-0.0809 0.30993,-0.16078 0.464823,-0.24063 0.502467,0.0944 1.002439,0.20064 1.504543,0.29897 0.405855,-0.46023 0.744606,-0.951 1.072459,-1.44475 0.373098,0.48835 0.655636,1.00678 0.987056,1.50893 0.07651,0.001 0.230864,0.009 0.307385,0.0125 0.391638,-0.48919 0.659646,-1.03235 1.098239,-1.49998 -3.56e-4,0.91549 -0.248486,1.83601 0.183218,2.739 0.03479,1.29321 0.40029,2.68009 1.700387,3.67343 0.08866,-0.0405 0.267542,-0.12237 0.356203,-0.16292 0.171882,-1.02366 0.578625,-2.00413 0.583863,-3.05263 0.544283,-1.26099 0.822863,-2.57918 1.236845,-3.86595 0.232138,0.77572 0.01544,1.56148 0.287998,2.33765 0.144015,0.0125 0.286515,0.0261 0.430444,0.0396 0.543448,-0.61343 0.918805,-1.29893 1.355882,-1.95658 0.07764,0.006 0.229939,0.0193 0.306102,0.0257 -0.04101,0.54859 -0.05147,1.09981 0.01039,1.65229 0.09234,0.0135 0.274387,0.0374 0.36681,0.0495 0.591707,-0.5271 1.005887,-1.14583 1.414032,-1.75981 0.160373,0.67091 0.05625,1.36707 0.415265,2.01635 0.13995,0.01 0.279779,0.0234 0.420935,0.0367 0.281462,-0.80877 0.492321,-1.64116 0.968776,-2.39798 0.375754,0.777 0.773579,1.55689 0.943908,2.36928 0.101014,0.009 0.302927,0.0306 0.403929,0.0404 0.531539,-0.73251 0.6807,-1.57639 1.008089,-2.36782 0.512894,0.80438 0.958383,1.64703 1.034787,2.52818 0.13527,0.0171 0.270289,0.035 0.406672,0.055 0.556438,-0.6503 0.800928,-1.41813 1.304692,-2.08843 0.06193,0.64793 0.154146,1.29958 0.08796,1.94451 0.08336,0.0524 0.250029,0.15729 0.333343,0.20974 0.651922,-0.51362 1.150168,-1.12085 1.546958,-1.76457 0.17671,0.57997 0.26904,1.16798 0.36279,1.75507 0.96902,-0.1667 1.10154,-1.01303 1.71192,-1.48207 0.32462,0.0695 0.33094,0.38001 0.40411,0.58039 0.1155,0.83223 0.12758,1.66858 0.0828,2.49911 0.24048,1.31836 0.18422,2.64668 0.0541,3.95831 0.2133,0.0659 0.4252,0.1326 0.63981,0.19968 1.8967,-1.3921 2.32605,-3.5253 2.65471,-5.44768 0.37831,0.44467 0.59001,0.94364 0.82798,1.4294 0.13424,0.0125 0.26976,0.0277 0.40501,0.0445 0.52335,-0.60698 0.71188,-1.32747 1.04962,-1.9979 0.31238,0.6719 0.41377,1.37877 0.74183,2.0469 0.071,0.17864 0.35235,0.2156 0.53963,0.30794 0.27249,-0.27587 0.50362,-0.57287 0.70782,-0.88137 0.26055,0.35533 0.53253,0.7087 0.85833,1.03588 0.15207,-0.15913 0.30143,-0.32065 0.45219,-0.48091 0.0422,0.01 0.1269,0.0329 0.16788,0.0435 0.1443,0.0886 0.26545,0.22021 0.4566,0.25234 0.86755,-0.82525 1.14425,-1.89831 1.5272,-2.89426 0.0886,-0.42332 0.18145,-0.84627 0.25912,-1.27159 -0.97705,-0.21993 -1.98864,-0.23651 -2.98185,-0.36754 -1.94062,-0.19544 -3.81352,-0.76574 -5.77186,-0.82212 -1.50354,-0.0556 -2.9512,-0.46444 -4.42257,-0.68042 -1.501176,0.1407 -3.030137,0.10554 -4.552038,0.0204 -1.327611,0.24617 -2.720119,-0.0584 -3.980242,-0.45604 -1.120903,-0.0592 -2.114879,-0.56378 -3.233458,-0.6175 -1.616483,-0.13635 -3.234214,-0.2747 -4.849541,-0.42423 -1.230496,-0.16205 -2.406713,0.34783 -3.637019,0.04 -0.984004,-0.21631 -1.998722,-0.32546 -3.008725,-0.33334 z m 0.833096,5.07354 c -0.573643,0.22489 -1.026701,0.57112 -1.376914,0.96951 -0.70502,-0.53879 -0.56864,-0.43714 0,2e-4 -0.730157,0.64225 -1.17969,1.64772 -0.468112,2.44588 0.397192,0.37242 0.212471,0.85815 0.458422,1.26866 0.252461,0.54348 1.188238,0.72391 1.342167,1.30906 0.237787,0.66332 0.913974,1.14835 1.728363,1.4413 0.58985,0.77005 1.454304,1.43285 2.621796,1.69306 1.060368,1.03806 2.427072,2.16332 4.307742,2.16685 0.955057,0.71067 2.267577,1.38492 3.641225,1.25055 0.868767,0.77189 2.371852,0.78524 3.46166,0.40229 1.086776,0.481 2.581412,0.895 3.590027,0.19603 1.181539,0.38665 2.48383,0.0614 3.46788,-0.40467 0.53333,-0.3064 1.25563,-0.0135 1.86642,-0.13635 1.23037,-0.20333 2.24479,-0.7921 3.07308,-1.45553 1.0638,0.009 2.00014,-0.39048 2.58851,-1.00718 0.30095,-0.39347 1.05236,-0.17677 1.42118,-0.50065 0.56367,-0.43001 1.35795,-0.69008 1.67186,-1.27946 0.60451,-0.3864 1.04764,-0.89052 1.10719,-1.50729 0.57829,-0.3579 0.98561,-0.89699 0.86711,-1.48828 -0.14925,-0.54368 -0.49252,-1.05302 -0.82706,-1.55134 -0.23487,-0.34591 -0.58162,-0.64122 -0.98579,-0.88594 -0.25898,0.44024 -0.23416,0.93822 -0.37539,1.40415 -0.33101,-0.0444 -0.66008,-0.0958 -0.98763,-0.1479 -0.30968,0.54151 -0.23628,1.15341 -0.39241,1.72581 -1.37672,-0.29289 -1.41867,1.01611 -1.86768,1.63472 -0.23497,-0.16937 -0.47017,-0.33662 -0.70383,-0.50486 -0.122,-0.009 -0.36582,-0.0279 -0.48639,-0.0375 -0.74781,0.57299 -0.97206,1.38175 -1.34967,2.10925 -0.69337,-0.28851 -1.17785,-0.74768 -1.46998,-1.28437 -0.2285,-0.49829 -0.94621,-0.63709 -1.52924,-0.81537 -0.71065,0.53108 -1.1892,1.19958 -1.55573,1.89623 -0.0944,0.36022 0.20011,0.7596 -0.0457,1.09732 -0.35475,0.51398 -0.4587,1.09606 -0.56047,1.66913 -0.987674,-0.92805 -1.649271,-2.02582 -2.732785,-2.9109 -0.714922,0.88272 -0.156129,2.04011 -0.694682,2.98038 -0.782426,-0.81772 -1.355059,-1.75358 -2.364697,-2.44646 -0.268672,0.85406 -0.289229,1.74318 -0.491701,2.60608 -0.293285,-0.90628 0.0494,-1.8247 -0.308298,-2.7284 -0.888693,0.62018 -1.696098,1.29997 -2.471673,1.9988 -0.07402,7.1e-4 -0.221933,0.001 -0.295863,7.1e-4 -0.0529,-0.98994 0.464838,-2.01204 -0.03658,-2.97965 -1.230479,0.52358 -1.891562,1.47777 -2.846165,2.2133 -0.12807,-0.0194 -0.256298,-0.0377 -0.384548,-0.0553 -0.02244,-1.48196 -0.14367,-2.9829 -0.643839,-4.44303 -0.09691,-0.29587 -0.438631,-0.74449 -0.915929,-0.55223 -1.037269,0.38856 -1.830691,1.05311 -2.560357,1.70568 -0.196337,-0.0684 -0.391202,-0.138 -0.584411,-0.21027 0.0756,-0.73648 -0.29532,-1.48946 -1.023814,-2.03045 -0.401802,-0.0166 -0.789947,0.0497 -1.176684,0.10029 -0.166595,-0.71146 -0.328365,-1.63807 -1.504731,-1.81282 -0.03265,-0.0572 -0.100811,-0.17187 -0.133485,-0.22913 0.168175,-0.43894 0.221695,-0.90553 0.102964,-1.3665 -0.344896,-0.0291 -0.692394,-0.046 -1.033504,-0.10264 -0.13197,-0.46933 0.12065,-0.94716 -0.131835,-1.41058 z"
       sodipodi:nodetypes="cccccccccccccccccccccccccccccccccccccccccccccccccccccccccccccccccsccccccccccccccccccccccccccccccccccccccccccccccccccccccccc" />
  </g>
  <g
     inkscape:groupmode="layer"
     id="layer10"
     inkscape:label="battery"
     style="display:none"
     transform="translate(-54.174598,-96.785592)">
    <circle
       style="fill:#040117;fill-opacity:1;stroke:none;stroke-width:0.15;stroke-opacity:1"
       id="path1447"
       cx="91.807503"
       cy="149.45192"
       r="10" />
  </g>
  <g
     inkscape:groupmode="layer"
     id="layer7"
     inkscape:label="3d"
     transform="translate(-56.298409,-101.32523)"
     style="display:inline;opacity:1;mix-blend-mode:normal">
    <path
       id="path5-3"
       style="display:inline;fill:#ececec;stroke-width:0.100558"
       d="m 95.016355,101.94602 c -0.400003,0.01 -0.794599,0.10253 -1.161508,0.30188 -0.672734,0.34493 -0.634435,1.41271 -0.04919,1.81597 0.502791,0.36301 1.38963,0.47158 1.473091,1.20865 -0.280555,0.46559 -0.909955,0.43047 -1.38459,0.49281 -1.577753,0.0351 -3.156585,9.9e-4 -4.734341,0.0223 -0.670723,0.019 -1.375622,-0.0594 -2.008133,0.21413 -0.511839,0.20915 -0.845768,0.86087 -0.587334,1.37875 0.227259,0.42736 0.662807,0.67879 0.999677,1.01063 -2.233395,-0.14685 -4.505055,-0.28363 -6.714316,0.16586 -1.564687,0.32077 -3.087212,1.06282 -4.115921,2.31276 -0.301676,0.29967 -0.425201,0.80352 -0.148665,1.16153 0.589271,0.74813 1.552474,1.03582 2.420291,1.32643 -2.295743,0.80447 -4.551232,1.71851 -6.797698,2.64866 -0.876868,0.38715 -1.827104,0.69578 -2.525983,1.38261 -0.756197,0.68982 -1.138247,1.8051 -0.862718,2.80263 0.196088,0.63452 0.88794,0.89089 1.496317,0.91501 -1.535521,1.36056 -3.339597,2.42251 -4.67199,4.0053 -0.304692,0.37709 -0.645579,0.79038 -0.660661,1.29919 0.0021,0.44547 0.426288,0.71902 0.804385,0.8417 0.889941,0.28659 1.840299,0.25344 2.762416,0.23735 -0.849714,1.07497 -2.344996,1.1573 -3.37974,1.97686 -1.485242,1.14334 -2.718176,2.64269 -3.509569,4.34613 -0.467595,1.06594 -0.755145,2.31394 -0.348891,3.4452 0.289608,0.7914 1.057926,1.26605 1.828202,1.50439 -1.252953,0.92109 -2.416472,2.00004 -3.274232,3.30729 -0.638543,0.98449 -1.08999,2.15991 -0.95122,3.3505 0.06839,0.62044 0.473587,1.23285 1.096042,1.40381 0.719995,0.21921 1.453983,-0.0481 2.1418,-0.25327 -0.992507,0.8658 -1.94172,1.86931 -2.38317,3.13635 -0.184022,0.51989 -0.209216,1.22081 0.282514,1.58281 0.597315,0.41532 1.371697,0.34093 2.05549,0.2635 -0.96234,1.5707 -1.85727,3.19263 -2.534026,4.90916 -0.36603,0.99855 -0.720082,2.04437 -0.651703,3.12337 0.03217,0.54503 0.315778,1.15337 0.881919,1.31128 0.673739,0.16892 1.311352,-0.27667 1.987104,-0.19623 0.22525,1.8201 -0.191092,3.73079 0.457508,5.49156 0.253406,0.73709 0.971256,1.30531 1.771698,1.25203 1.084016,0.0572 1.808127,-0.93735 2.816726,-1.14251 0.470611,-0.0945 0.883957,0.24855 1.101163,0.63471 1.677309,2.81161 1.621914,6.34621 3.535536,9.0452 0.543011,0.72503 1.318435,1.66423 2.333067,1.44602 1.389714,-0.65262 1.652035,-2.57934 3.169456,-3.07711 0.6305,-0.28458 1.255979,0.20918 1.468155,0.78939 0.980442,2.22435 0.725067,4.79353 1.727632,7.01384 0.243351,0.53497 0.708928,1.06697 1.34546,1.05489 0.943234,-0.0271 1.583843,-0.88185 2.500931,-1.0216 0.78737,-0.22124 1.668241,0.22317 1.977961,0.97535 0.47363,1.07194 0.02919,2.2595 0.257462,3.36767 0.0704,0.40525 0.53792,0.56108 0.890878,0.42733 1.33139,-0.40827 2.474651,-1.2449 3.559671,-2.09261 1.684351,-1.31832 3.314434,-2.74014 5.217999,-3.7407 0.483686,-0.23732 1.041805,-0.49479 1.586837,-0.32586 0.50279,0.16794 0.741225,0.70499 0.838768,1.18767 0.205136,1.09405 -0.09761,2.23225 0.206079,3.31427 0.262446,0.98548 1.404826,1.53269 2.364149,1.32554 0.92514,-0.19912 1.6874,-0.81554 2.35008,-1.46011 1.55262,-1.5647 2.76724,-3.4171 4.0212,-5.21708 0.39118,-0.54604 0.82667,-1.07097 1.38075,-1.46012 0.9543,0.71998 1.84318,1.68934 3.08608,1.86733 0.64758,0.0965 1.2046,-0.32261 1.636,-0.753 1.11519,-1.15541 1.83323,-2.62473 2.44463,-4.0929 0.35397,-0.77228 0.79342,-1.68323 1.68538,-1.92255 1.01265,-0.21318 1.58888,1.02674 2.56933,0.94629 0.74312,-0.19007 1.14334,-0.95643 1.3877,-1.62414 0.61139,-1.93674 0.39715,-4.0242 0.95727,-5.97301 0.8678,0.95631 1.3283,2.2614 2.37712,3.06285 0.27452,0.22021 0.72797,0.27953 0.9492,-0.0464 0.90101,-1.22279 1.3797,-2.82166 1.01468,-4.32601 -0.14685,-0.78637 -0.61032,-1.45702 -0.84665,-2.21019 -0.0413,-0.44346 0.45846,-0.14565 0.64148,-0.009 0.60235,0.3439 1.46322,0.99648 2.10577,0.41123 1.0217,-1.5516 0.3006,-3.51853 -0.62352,-4.93238 0.8839,0.33587 1.92377,0.42334 2.77647,-0.0482 0.70995,-0.38311 1.08711,-1.17952 1.16757,-1.95583 0.1659,-1.51239 -0.44055,-3.04488 -1.46727,-4.14498 1.10817,0.0533 2.353,-0.31073 2.9473,-1.31933 0.62044,-1.07295 0.48679,-2.44063 -0.0553,-3.51762 -0.69585,-1.39975 -1.89758,-2.46456 -3.14953,-3.36054 0.8829,0 1.8131,-0.26851 2.42649,-0.93421 0.74917,-0.82558 0.89293,-2.08671 0.47966,-3.10436 -0.82357,-1.97295 -2.49576,-3.43997 -4.18414,-4.67784 0.85978,0.0563 1.88131,0.0201 2.5088,-0.65663 0.56917,-0.75217 0.24543,-1.76987 -0.0734,-2.55927 -1.04179,-2.343 -2.97846,-4.15817 -5.06404,-5.58408 -1.23484,-0.94222 -2.53114,-1.82404 -3.63428,-2.92315 0.78636,0.17296 1.61089,0.38014 2.41335,0.18506 0.53899,-0.1428 1.10618,-0.58321 1.07702,-1.19461 -0.0572,-0.81749 -0.56307,-1.50531 -1.01156,-2.15894 -1.35452,-1.95787 -2.97249,-3.77898 -4.97864,-5.08725 -1.56871,-1.01161 -3.23997,-1.84826 -4.8479,-2.79351 -0.26547,-0.18702 -0.61248,-0.37306 -0.68591,-0.71495 0.0391,-0.43744 0.75732,-0.27855 0.80459,-0.71298 0.0502,-0.32581 -0.30779,-0.49984 -0.52097,-0.67583 -1.06391,-0.75419 -2.43754,-0.63045 -3.61708,-1.0518 0.84568,-0.48166 1.82923,-0.65359 2.66586,-1.14833 0.24738,-0.11462 0.30169,-0.4878 0.0704,-0.64769 -0.92915,-0.82457 -2.23146,-0.99244 -3.42509,-1.03166 -2.33596,-0.0773 -4.7232,0.11775 -6.91839,0.9675 -2.38523,-1.7286 -4.055476,-4.37738 -6.7977,-5.61225 -0.595177,-0.29351 -1.277099,-0.49657 -1.943763,-0.47781 z m 1.637115,18.47474 c 0.295695,0.009 0.588972,0.10435 0.831629,0.28249 0.940221,0.71097 1.824129,1.49834 2.791501,2.17511 -0.0674,-0.29869 -0.16796,-0.59224 -0.19109,-0.89894 0.0734,-0.31273 0.46148,-0.40838 0.72393,-0.27465 1.94278,0.78135 3.6524,2.03738 5.21508,3.41302 0,-0.78034 -0.0675,-1.57678 0.0995,-2.34404 0.10361,-0.33083 0.54594,-0.31164 0.77019,-0.11762 2.66682,1.86634 5.14356,4.05638 7.08735,6.68194 1.87039,2.51697 3.16656,5.50467 3.46622,8.6431 0.17899,1.983 0.0856,4.0635 -0.76213,5.89766 -0.70491,1.55162 -1.99107,2.79754 -3.51652,3.53865 -2.94233,1.44703 -6.311,1.47912 -9.51677,1.37052 -3.22893,-0.10361 -6.443848,-0.43934 -9.668742,-0.59722 -3.967016,-0.1971 -7.87761,-0.92818 -11.777253,-1.63711 -1.795967,-0.36905 -3.616201,-0.81448 -5.217084,-1.73862 -1.144351,-0.6506 -2.145951,-1.69351 -2.412428,-3.01987 -0.76726,-3.10423 0.265599,-6.32199 1.684475,-9.08029 1.350492,-2.60546 3.146411,-4.9706 5.214891,-7.04712 1.313287,-1.26401 2.721128,-2.49189 4.40447,-3.23199 0.296644,-0.12975 0.753213,-0.28055 0.960363,0.0684 0.05834,0.33386 -0.02423,0.6747 -0.02323,1.01158 1.337423,-0.97041 2.488896,-2.31083 4.138049,-2.75932 0.318769,-0.0985 0.825612,-0.19908 0.944273,0.2273 0.02211,0.67675 -0.58434,1.18462 -0.742215,1.80204 0.172958,0.42436 0.816502,0.32373 1.190577,0.26441 1.248931,-0.77128 2.227377,-1.96478 3.633182,-2.48465 0.210289,-0.10372 0.44183,-0.15105 0.671814,-0.14475 z m -18.871057,28.80646 c 0.916953,0.005 -0.0883,1.05817 4.301766,0.5457 1.97499,-0.24008 3.944362,0.0976 5.920716,0.16695 2.261511,0.47782 4.580495,0.51465 6.86755,0.82796 3.042683,0.94915 6.243595,0.45682 9.359705,0.39004 1.71699,0.19967 3.42697,0.32204 5.1571,0.29933 1.66707,0.22275 3.25061,0.83497 4.90478,1.15274 6.31991,3.07802 3.75988,-0.44023 6.63404,2.61685 0.54569,0.87259 1.16784,2.19141 0.51144,3.15007 -1.20423,0.76568 -2.3361,1.72372 -2.99097,3.02172 -0.42955,1.39323 -1.28434,2.55491 -2.24879,3.62658 -1.22334,0.99344 -2.12779,2.32384 -3.4143,3.24097 -2.00825,2.04052 -4.44893,3.60282 -7.07142,4.73671 -3.50834,1.73549 -7.524981,1.72816 -11.311712,1.16279 -3.17566,-0.57626 -6.277752,-1.73886 -9.048662,-3.40424 -3.495156,-2.60679 -6.200509,-6.11064 -8.46791,-9.80478 -0.923835,-1.18566 -1.088678,-2.67642 -1.614079,-4.03838 -0.693882,-1.33942 -1.750549,-2.67921 -1.535081,-4.28983 0.299941,-2.6516 3.286066,-3.40433 4.045827,-3.40118 z"
       sodipodi:nodetypes="ccccccccccccccccccccccccccccccccccccccccccccccccccccccccccccccccccccccccccccccccccccccccccccccccccccccsccccccccccccccccccccccccccsccccccccccccccccccc" />
  </g>
  <g
     inkscape:groupmode="layer"
     id="layer9"
     inkscape:label="edge cuts"
     style="display:none"
     transform="translate(-54.174598,-96.785592)">
    <circle
       style="fill:none;fill-opacity:1;stroke:#70be43;stroke-width:0.47043;stroke-miterlimit:4;stroke-dasharray:none;stroke-opacity:1"
       id="path1444"
       cx="94.814606"
       cy="141.2356"
       r="28.974785" />
  </g>
</svg>
