  0
SECTION
  2
HEADER
  9
$ACADVER
  1
AC1014
  9
$HANDSEED
  5
FFFF
  9
$MEASUREMENT
 70
     1
  0
ENDSEC
  0
SECTION
  2
TABLES
  0
TABLE
  2
VPORT
  5
8
330
0
100
AcDbSymbolTable
 70
     4
  0
VPORT
  5
2E
330
8
100
AcDbSymbolTableRecord
100
AcDbViewportTableRecord
  2
*ACTIVE
 70
     0
 10
0.0
 20
0.0
 11
1.0
 21
1.0
 12
210.0
 22
148.5
 13
0.0
 23
0.0
 14
10.0
 24
10.0
 15
10.0
 25
10.0
 16
0.0
 26
0.0
 36
1.0
 17
0.0
 27
0.0
 37
0.0
 40
341.0
 41
1.24
 42
50.0
 43
0.0
 44
0.0
 50
0.0
 51
0.0
 71
     0
 72
   100
 73
     1
 74
     3
 75
     0
 76
     0
 77
     0
 78
     0
  0
ENDTAB
  0
TABLE
  2
LTYPE
  5
5
330
0
100
AcDbSymbolTable
 70
     1
  0
LTYPE
  5
14
330
5
100
AcDbSymbolTableRecord
100
AcDbLinetypeTableRecord
  2
BYBLOCK
 70
     0
  3

 72
    65
 73
     0
 40
0.0
  0
LTYPE
  5
15
330
5
100
AcDbSymbolTableRecord
100
AcDbLinetypeTableRecord
  2
BYLAYER
 70
     0
  3

 72
    65
 73
     0
 40
0.0
  0
LTYPE
  5
16
330
5
100
AcDbSymbolTableRecord
100
AcDbLinetypeTableRecord
  2
CONTINUOUS
 70
     0
  3
Solid line
 72
    65
 73
     0
 40
0.0
  0
ENDTAB
  0
TABLE
  2
LAYER
  5
2
100
AcDbSymbolTable
 70
10
  0
LAYER
  5
50
100
AcDbSymbolTableRecord
100
AcDbLayerTableRecord
  2
0
 70
0
  6
CONTINUOUS
  0
LAYER
  5
51
100
AcDbSymbolTableRecord
100
AcDbLayerTableRecord
  2
fiducial
 70
0
  6
CONTINUOUS
  0
LAYER
  5
52
100
AcDbSymbolTableRecord
100
AcDbLayerTableRecord
  2
exposed_copper
 70
0
  6
CONTINUOUS
  0
LAYER
  5
53
100
AcDbSymbolTableRecord
100
AcDbLayerTableRecord
  2
exposed_fr4
 70
0
  6
CONTINUOUS
  0
LAYER
  5
54
100
AcDbSymbolTableRecord
100
AcDbLayerTableRecord
  2
soldermask_+_copper
 70
0
  6
CONTINUOUS
  0
LAYER
  5
55
100
AcDbSymbolTableRecord
100
AcDbLayerTableRecord
  2
soldermask
 70
0
  6
CONTINUOUS
  0
LAYER
  5
56
100
AcDbSymbolTableRecord
100
AcDbLayerTableRecord
  2
silk
 70
0
  6
CONTINUOUS
  0
LAYER
  5
57
100
AcDbSymbolTableRecord
100
AcDbLayerTableRecord
  2
battery
 70
0
  6
CONTINUOUS
  0
LAYER
  5
58
100
AcDbSymbolTableRecord
100
AcDbLayerTableRecord
  2
3d
 70
0
  6
CONTINUOUS
  0
LAYER
  5
59
100
AcDbSymbolTableRecord
100
AcDbLayerTableRecord
  2
edge_cuts
 70
0
  6
CONTINUOUS
  0
ENDTAB
  0
TABLE
  2
STYLE
  5
3
330
0
100
AcDbSymbolTable
 70
     1
  0
STYLE
  5
11
330
3
100
AcDbSymbolTableRecord
100
AcDbTextStyleTableRecord
  2
STANDARD
 70
     0
 40
0.0
 41
1.0
 50
0.0
 71
     0
 42
2.5
  3
txt
  4

  0
ENDTAB
  0
TABLE
  2
VIEW
  5
6
330
0
100
AcDbSymbolTable
 70
     0
  0
ENDTAB
  0
TABLE
  2
UCS
  5
7
330
0
100
AcDbSymbolTable
 70
     0
  0
ENDTAB
  0
TABLE
  2
APPID
  5
9
330
0
100
AcDbSymbolTable
 70
     2
  0
APPID
  5
12
330
9
100
AcDbSymbolTableRecord
100
AcDbRegAppTableRecord
  2
ACAD
 70
     0
  0
ENDTAB
  0
TABLE
  2
DIMSTYLE
  5
A
330
0
100
AcDbSymbolTable
 70
     1
  0
DIMSTYLE
105
27
330
A
100
AcDbSymbolTableRecord
100
AcDbDimStyleTableRecord
  2
ISO-25
 70
     0
  3

  4

  5

  6

  7

 40
1.0
 41
2.5
 42
0.625
 43
3.75
 44
1.25
 45
0.0
 46
0.0
 47
0.0
 48
0.0
140
2.5
141
2.5
142
0.0
143
0.03937007874016
144
1.0
145
0.0
146
1.0
147
0.625
 71
     0
 72
     0
 73
     0
 74
     0
 75
     0
 76
     0
 77
     1
 78
     8
170
     0
171
     3
172
     1
173
     0
174
     0
175
     0
176
     0
177
     0
178
     0
270
     2
271
     2
272
     2
273
     2
274
     3
340
11
275
     0
280
     0
281
     0
282
     0
283
     0
284
     8
285
     0
286
     0
287
     3
288
     0
  0
ENDTAB
  0
TABLE
  2
BLOCK_RECORD
  5
1
330
0
100
AcDbSymbolTable
 70
     1
  0
BLOCK_RECORD
  5
1F
330
1
100
AcDbSymbolTableRecord
100
AcDbBlockTableRecord
  2
*MODEL_SPACE
  0
BLOCK_RECORD
  5
1B
330
1
100
AcDbSymbolTableRecord
100
AcDbBlockTableRecord
  2
*PAPER_SPACE
  0
ENDTAB
  0
ENDSEC
  0
SECTION
  2
BLOCKS
  0
BLOCK
  5
20
330
1F
100
AcDbEntity
  8
0
100
AcDbBlockBegin
  2
*MODEL_SPACE
 70
     0
 10
0.0
 20
0.0
 30
0.0
  3
*MODEL_SPACE
  1

  0
ENDBLK
  5
21
330
1F
100
AcDbEntity
  8
0
100
AcDbBlockEnd
  0
BLOCK
  5
1C
330
1B
100
AcDbEntity
 67
     1
  8
0
100
AcDbBlockBegin
  2
*PAPER_SPACE
  1

  0
ENDBLK
  5
1D
330
1B
100
AcDbEntity
 67
     1
  8
0
100
AcDbBlockEnd
  0
ENDSEC
  0
SECTION
  2
ENTITIES
  0
SPLINE
  5
100
100
AcDbEntity
  8
3d
 62
7
100
AcDbSpline
 70
8
 71
3
 72
8
 73
4
 74
0
 40
0
 40
0
 40
0
 40
0
 40
1
 40
1
 40
1
 40
1
 10
38.717956
 20
88.278984
 30
0.0
 10
38.317953
 20
88.268984
 30
0.0
 10
37.923357
 20
88.176454
 30
0.0
 10
37.556448
 20
87.977104
 30
0.0
  0
SPLINE
  5
101
100
AcDbEntity
  8
3d
 62
7
100
AcDbSpline
 70
8
 71
3
 72
8
 73
4
 74
0
 40
0
 40
0
 40
0
 40
0
 40
1
 40
1
 40
1
 40
1
 10
37.556448
 20
87.977104
 30
0.0
 10
36.883714
 20
87.632174
 30
0.0
 10
36.922013
 20
86.564394
 30
0.0
 10
37.507258
 20
86.161134
 30
0.0
  0
SPLINE
  5
102
100
AcDbEntity
  8
3d
 62
7
100
AcDbSpline
 70
8
 71
3
 72
8
 73
4
 74
0
 40
0
 40
0
 40
0
 40
0
 40
1
 40
1
 40
1
 40
1
 10
37.507258
 20
86.161134
 30
0.0
 10
38.010049
 20
85.798124
 30
0.0
 10
38.896888
 20
85.689554
 30
0.0
 10
38.980349
 20
84.952484
 30
0.0
  0
SPLINE
  5
103
100
AcDbEntity
  8
3d
 62
7
100
AcDbSpline
 70
8
 71
3
 72
8
 73
4
 74
0
 40
0
 40
0
 40
0
 40
0
 40
1
 40
1
 40
1
 40
1
 10
38.980349
 20
84.952484
 30
0.0
 10
38.699794
 20
84.486894
 30
0.0
 10
38.070394
 20
84.522014
 30
0.0
 10
37.595759
 20
84.459674
 30
0.0
  0
SPLINE
  5
104
100
AcDbEntity
  8
3d
 62
7
100
AcDbSpline
 70
8
 71
3
 72
8
 73
4
 74
0
 40
0
 40
0
 40
0
 40
0
 40
1
 40
1
 40
1
 40
1
 10
37.595759
 20
84.459674
 30
0.0
 10
36.018006
 20
84.424574
 30
0.0
 10
34.439174
 20
84.458684
 30
0.0
 10
32.861418
 20
84.437374
 30
0.0
  0
SPLINE
  5
105
100
AcDbEntity
  8
3d
 62
7
100
AcDbSpline
 70
8
 71
3
 72
8
 73
4
 74
0
 40
0
 40
0
 40
0
 40
0
 40
1
 40
1
 40
1
 40
1
 10
32.861418
 20
84.437374
 30
0.0
 10
32.190695
 20
84.418374
 30
0.0
 10
31.485796
 20
84.496774
 30
0.0
 10
30.853285
 20
84.223244
 30
0.0
  0
SPLINE
  5
106
100
AcDbEntity
  8
3d
 62
7
100
AcDbSpline
 70
8
 71
3
 72
8
 73
4
 74
0
 40
0
 40
0
 40
0
 40
0
 40
1
 40
1
 40
1
 40
1
 10
30.853285
 20
84.223244
 30
0.0
 10
30.341446
 20
84.014094
 30
0.0
 10
30.007517
 20
83.362374
 30
0.0
 10
30.265951
 20
82.844494
 30
0.0
  0
SPLINE
  5
107
100
AcDbEntity
  8
3d
 62
7
100
AcDbSpline
 70
8
 71
3
 72
8
 73
4
 74
0
 40
0
 40
0
 40
0
 40
0
 40
1
 40
1
 40
1
 40
1
 10
30.265951
 20
82.844494
 30
0.0
 10
30.493210
 20
82.417134
 30
0.0
 10
30.928758
 20
82.165704
 30
0.0
 10
31.265628
 20
81.833864
 30
0.0
  0
SPLINE
  5
108
100
AcDbEntity
  8
3d
 62
7
100
AcDbSpline
 70
8
 71
3
 72
8
 73
4
 74
0
 40
0
 40
0
 40
0
 40
0
 40
1
 40
1
 40
1
 40
1
 10
31.265628
 20
81.833864
 30
0.0
 10
29.032233
 20
81.980714
 30
0.0
 10
26.760573
 20
82.117494
 30
0.0
 10
24.551312
 20
81.668004
 30
0.0
  0
SPLINE
  5
109
100
AcDbEntity
  8
3d
 62
7
100
AcDbSpline
 70
8
 71
3
 72
8
 73
4
 74
0
 40
0
 40
0
 40
0
 40
0
 40
1
 40
1
 40
1
 40
1
 10
24.551312
 20
81.668004
 30
0.0
 10
22.986625
 20
81.347234
 30
0.0
 10
21.464099
 20
80.605184
 30
0.0
 10
20.435390
 20
79.355244
 30
0.0
  0
SPLINE
  5
10a
100
AcDbEntity
  8
3d
 62
7
100
AcDbSpline
 70
8
 71
3
 72
8
 73
4
 74
0
 40
0
 40
0
 40
0
 40
0
 40
1
 40
1
 40
1
 40
1
 10
20.435390
 20
79.355244
 30
0.0
 10
20.133714
 20
79.055574
 30
0.0
 10
20.010189
 20
78.551724
 30
0.0
 10
20.286725
 20
78.193714
 30
0.0
  0
SPLINE
  5
10b
100
AcDbEntity
  8
3d
 62
7
100
AcDbSpline
 70
8
 71
3
 72
8
 73
4
 74
0
 40
0
 40
0
 40
0
 40
0
 40
1
 40
1
 40
1
 40
1
 10
20.286725
 20
78.193714
 30
0.0
 10
20.875996
 20
77.445584
 30
0.0
 10
21.839199
 20
77.157894
 30
0.0
 10
22.707017
 20
76.867284
 30
0.0
  0
SPLINE
  5
10c
100
AcDbEntity
  8
3d
 62
7
100
AcDbSpline
 70
8
 71
3
 72
8
 73
4
 74
0
 40
0
 40
0
 40
0
 40
0
 40
1
 40
1
 40
1
 40
1
 10
22.707017
 20
76.867284
 30
0.0
 10
20.411273
 20
76.062814
 30
0.0
 10
18.155784
 20
75.148774
 30
0.0
 10
15.909318
 20
74.218624
 30
0.0
  0
SPLINE
  5
10d
100
AcDbEntity
  8
3d
 62
7
100
AcDbSpline
 70
8
 71
3
 72
8
 73
4
 74
0
 40
0
 40
0
 40
0
 40
0
 40
1
 40
1
 40
1
 40
1
 10
15.909318
 20
74.218624
 30
0.0
 10
15.032450
 20
73.831474
 30
0.0
 10
14.082214
 20
73.522844
 30
0.0
 10
13.383335
 20
72.836014
 30
0.0
  0
SPLINE
  5
10e
100
AcDbEntity
  8
3d
 62
7
100
AcDbSpline
 70
8
 71
3
 72
8
 73
4
 74
0
 40
0
 40
0
 40
0
 40
0
 40
1
 40
1
 40
1
 40
1
 10
13.383335
 20
72.836014
 30
0.0
 10
12.627138
 20
72.146194
 30
0.0
 10
12.245088
 20
71.030914
 30
0.0
 10
12.520617
 20
70.033384
 30
0.0
  0
SPLINE
  5
10f
100
AcDbEntity
  8
3d
 62
7
100
AcDbSpline
 70
8
 71
3
 72
8
 73
4
 74
0
 40
0
 40
0
 40
0
 40
0
 40
1
 40
1
 40
1
 40
1
 10
12.520617
 20
70.033384
 30
0.0
 10
12.716705
 20
69.398864
 30
0.0
 10
13.408557
 20
69.142494
 30
0.0
 10
14.016934
 20
69.118374
 30
0.0
  0
SPLINE
  5
110
100
AcDbEntity
  8
3d
 62
7
100
AcDbSpline
 70
8
 71
3
 72
8
 73
4
 74
0
 40
0
 40
0
 40
0
 40
0
 40
1
 40
1
 40
1
 40
1
 10
14.016934
 20
69.118374
 30
0.0
 10
12.481413
 20
67.757814
 30
0.0
 10
10.677337
 20
66.695864
 30
0.0
 10
9.344944
 20
65.113073
 30
0.0
  0
SPLINE
  5
111
100
AcDbEntity
  8
3d
 62
7
100
AcDbSpline
 70
8
 71
3
 72
8
 73
4
 74
0
 40
0
 40
0
 40
0
 40
0
 40
1
 40
1
 40
1
 40
1
 10
9.344944
 20
65.113073
 30
0.0
 10
9.040252
 20
64.735983
 30
0.0
 10
8.699365
 20
64.322693
 30
0.0
 10
8.684283
 20
63.813883
 30
0.0
  0
SPLINE
  5
112
100
AcDbEntity
  8
3d
 62
7
100
AcDbSpline
 70
8
 71
3
 72
8
 73
4
 74
0
 40
0
 40
0
 40
0
 40
0
 40
1
 40
1
 40
1
 40
1
 10
8.684283
 20
63.813883
 30
0.0
 10
8.686383
 20
63.368413
 30
0.0
 10
9.110571
 20
63.094863
 30
0.0
 10
9.488668
 20
62.972183
 30
0.0
  0
SPLINE
  5
113
100
AcDbEntity
  8
3d
 62
7
100
AcDbSpline
 70
8
 71
3
 72
8
 73
4
 74
0
 40
0
 40
0
 40
0
 40
0
 40
1
 40
1
 40
1
 40
1
 10
9.488668
 20
62.972183
 30
0.0
 10
10.378609
 20
62.685593
 30
0.0
 10
11.328967
 20
62.718743
 30
0.0
 10
12.251084
 20
62.734833
 30
0.0
  0
SPLINE
  5
114
100
AcDbEntity
  8
3d
 62
7
100
AcDbSpline
 70
8
 71
3
 72
8
 73
4
 74
0
 40
0
 40
0
 40
0
 40
0
 40
1
 40
1
 40
1
 40
1
 10
12.251084
 20
62.734833
 30
0.0
 10
11.401370
 20
61.659863
 30
0.0
 10
9.906088
 20
61.577533
 30
0.0
 10
8.871344
 20
60.757973
 30
0.0
  0
SPLINE
  5
115
100
AcDbEntity
  8
3d
 62
7
100
AcDbSpline
 70
8
 71
3
 72
8
 73
4
 74
0
 40
0
 40
0
 40
0
 40
0
 40
1
 40
1
 40
1
 40
1
 10
8.871344
 20
60.757973
 30
0.0
 10
7.386102
 20
59.614633
 30
0.0
 10
6.153168
 20
58.115283
 30
0.0
 10
5.361775
 20
56.411843
 30
0.0
  0
SPLINE
  5
116
100
AcDbEntity
  8
3d
 62
7
100
AcDbSpline
 70
8
 71
3
 72
8
 73
4
 74
0
 40
0
 40
0
 40
0
 40
0
 40
1
 40
1
 40
1
 40
1
 10
5.361775
 20
56.411843
 30
0.0
 10
4.894180
 20
55.345903
 30
0.0
 10
4.606630
 20
54.097903
 30
0.0
 10
5.012884
 20
52.966643
 30
0.0
  0
SPLINE
  5
117
100
AcDbEntity
  8
3d
 62
7
100
AcDbSpline
 70
8
 71
3
 72
8
 73
4
 74
0
 40
0
 40
0
 40
0
 40
0
 40
1
 40
1
 40
1
 40
1
 10
5.012884
 20
52.966643
 30
0.0
 10
5.302492
 20
52.175243
 30
0.0
 10
6.070810
 20
51.700593
 30
0.0
 10
6.841086
 20
51.462253
 30
0.0
  0
SPLINE
  5
118
100
AcDbEntity
  8
3d
 62
7
100
AcDbSpline
 70
8
 71
3
 72
8
 73
4
 74
0
 40
0
 40
0
 40
0
 40
0
 40
1
 40
1
 40
1
 40
1
 10
6.841086
 20
51.462253
 30
0.0
 10
5.588133
 20
50.541163
 30
0.0
 10
4.424614
 20
49.462213
 30
0.0
 10
3.566854
 20
48.154963
 30
0.0
  0
SPLINE
  5
119
100
AcDbEntity
  8
3d
 62
7
100
AcDbSpline
 70
8
 71
3
 72
8
 73
4
 74
0
 40
0
 40
0
 40
0
 40
0
 40
1
 40
1
 40
1
 40
1
 10
3.566854
 20
48.154963
 30
0.0
 10
2.928311
 20
47.170473
 30
0.0
 10
2.476864
 20
45.995053
 30
0.0
 10
2.615634
 20
44.804463
 30
0.0
  0
SPLINE
  5
11a
100
AcDbEntity
  8
3d
 62
7
100
AcDbSpline
 70
8
 71
3
 72
8
 73
4
 74
0
 40
0
 40
0
 40
0
 40
0
 40
1
 40
1
 40
1
 40
1
 10
2.615634
 20
44.804463
 30
0.0
 10
2.684024
 20
44.184023
 30
0.0
 10
3.089221
 20
43.571613
 30
0.0
 10
3.711676
 20
43.400653
 30
0.0
  0
SPLINE
  5
11b
100
AcDbEntity
  8
3d
 62
7
100
AcDbSpline
 70
8
 71
3
 72
8
 73
4
 74
0
 40
0
 40
0
 40
0
 40
0
 40
1
 40
1
 40
1
 40
1
 10
3.711676
 20
43.400653
 30
0.0
 10
4.431671
 20
43.181443
 30
0.0
 10
5.165659
 20
43.448753
 30
0.0
 10
5.853476
 20
43.653923
 30
0.0
  0
SPLINE
  5
11c
100
AcDbEntity
  8
3d
 62
7
100
AcDbSpline
 70
8
 71
3
 72
8
 73
4
 74
0
 40
0
 40
0
 40
0
 40
0
 40
1
 40
1
 40
1
 40
1
 10
5.853476
 20
43.653923
 30
0.0
 10
4.860969
 20
42.788123
 30
0.0
 10
3.911756
 20
41.784613
 30
0.0
 10
3.470306
 20
40.517573
 30
0.0
  0
SPLINE
  5
11d
100
AcDbEntity
  8
3d
 62
7
100
AcDbSpline
 70
8
 71
3
 72
8
 73
4
 74
0
 40
0
 40
0
 40
0
 40
0
 40
1
 40
1
 40
1
 40
1
 10
3.470306
 20
40.517573
 30
0.0
 10
3.286284
 20
39.997683
 30
0.0
 10
3.261090
 20
39.296763
 30
0.0
 10
3.752820
 20
38.934763
 30
0.0
  0
SPLINE
  5
11e
100
AcDbEntity
  8
3d
 62
7
100
AcDbSpline
 70
8
 71
3
 72
8
 73
4
 74
0
 40
0
 40
0
 40
0
 40
0
 40
1
 40
1
 40
1
 40
1
 10
3.752820
 20
38.934763
 30
0.0
 10
4.350135
 20
38.519443
 30
0.0
 10
5.124517
 20
38.593833
 30
0.0
 10
5.808310
 20
38.671263
 30
0.0
  0
SPLINE
  5
11f
100
AcDbEntity
  8
3d
 62
7
100
AcDbSpline
 70
8
 71
3
 72
8
 73
4
 74
0
 40
0
 40
0
 40
0
 40
0
 40
1
 40
1
 40
1
 40
1
 10
5.808310
 20
38.671263
 30
0.0
 10
4.845970
 20
37.100563
 30
0.0
 10
3.951040
 20
35.478633
 30
0.0
 10
3.274284
 20
33.762103
 30
0.0
  0
SPLINE
  5
120
100
AcDbEntity
  8
3d
 62
7
100
AcDbSpline
 70
8
 71
3
 72
8
 73
4
 74
0
 40
0
 40
0
 40
0
 40
0
 40
1
 40
1
 40
1
 40
1
 10
3.274284
 20
33.762103
 30
0.0
 10
2.908254
 20
32.763553
 30
0.0
 10
2.554202
 20
31.717733
 30
0.0
 10
2.622581
 20
30.638733
 30
0.0
  0
SPLINE
  5
121
100
AcDbEntity
  8
3d
 62
7
100
AcDbSpline
 70
8
 71
3
 72
8
 73
4
 74
0
 40
0
 40
0
 40
0
 40
0
 40
1
 40
1
 40
1
 40
1
 10
2.622581
 20
30.638733
 30
0.0
 10
2.654751
 20
30.093703
 30
0.0
 10
2.938359
 20
29.485363
 30
0.0
 10
3.504500
 20
29.327453
 30
0.0
  0
SPLINE
  5
122
100
AcDbEntity
  8
3d
 62
7
100
AcDbSpline
 70
8
 71
3
 72
8
 73
4
 74
0
 40
0
 40
0
 40
0
 40
0
 40
1
 40
1
 40
1
 40
1
 10
3.504500
 20
29.327453
 30
0.0
 10
4.178239
 20
29.158533
 30
0.0
 10
4.815852
 20
29.604123
 30
0.0
 10
5.491604
 20
29.523683
 30
0.0
  0
SPLINE
  5
123
100
AcDbEntity
  8
3d
 62
7
100
AcDbSpline
 70
8
 71
3
 72
8
 73
4
 74
0
 40
0
 40
0
 40
0
 40
0
 40
1
 40
1
 40
1
 40
1
 10
5.491604
 20
29.523683
 30
0.0
 10
5.716854
 20
27.703583
 30
0.0
 10
5.300512
 20
25.792893
 30
0.0
 10
5.949112
 20
24.032123
 30
0.0
  0
SPLINE
  5
124
100
AcDbEntity
  8
3d
 62
7
100
AcDbSpline
 70
8
 71
3
 72
8
 73
4
 74
0
 40
0
 40
0
 40
0
 40
0
 40
1
 40
1
 40
1
 40
1
 10
5.949112
 20
24.032123
 30
0.0
 10
6.202518
 20
23.295033
 30
0.0
 10
6.920368
 20
22.726813
 30
0.0
 10
7.720810
 20
22.780093
 30
0.0
  0
SPLINE
  5
125
100
AcDbEntity
  8
3d
 62
7
100
AcDbSpline
 70
8
 71
3
 72
8
 73
4
 74
0
 40
0
 40
0
 40
0
 40
0
 40
1
 40
1
 40
1
 40
1
 10
7.720810
 20
22.780093
 30
0.0
 10
8.804826
 20
22.722893
 30
0.0
 10
9.528937
 20
23.717443
 30
0.0
 10
10.537536
 20
23.922603
 30
0.0
  0
SPLINE
  5
126
100
AcDbEntity
  8
3d
 62
7
100
AcDbSpline
 70
8
 71
3
 72
8
 73
4
 74
0
 40
0
 40
0
 40
0
 40
0
 40
1
 40
1
 40
1
 40
1
 10
10.537536
 20
23.922603
 30
0.0
 10
11.008147
 20
24.017103
 30
0.0
 10
11.421493
 20
23.674053
 30
0.0
 10
11.638699
 20
23.287893
 30
0.0
  0
SPLINE
  5
127
100
AcDbEntity
  8
3d
 62
7
100
AcDbSpline
 70
8
 71
3
 72
8
 73
4
 74
0
 40
0
 40
0
 40
0
 40
0
 40
1
 40
1
 40
1
 40
1
 10
11.638699
 20
23.287893
 30
0.0
 10
13.316008
 20
20.476282
 30
0.0
 10
13.260613
 20
16.941682
 30
0.0
 10
15.174235
 20
14.242692
 30
0.0
  0
SPLINE
  5
128
100
AcDbEntity
  8
3d
 62
7
100
AcDbSpline
 70
8
 71
3
 72
8
 73
4
 74
0
 40
0
 40
0
 40
0
 40
0
 40
1
 40
1
 40
1
 40
1
 10
15.174235
 20
14.242692
 30
0.0
 10
15.717246
 20
13.517662
 30
0.0
 10
16.492670
 20
12.578462
 30
0.0
 10
17.507302
 20
12.796672
 30
0.0
  0
SPLINE
  5
129
100
AcDbEntity
  8
3d
 62
7
100
AcDbSpline
 70
8
 71
3
 72
8
 73
4
 74
0
 40
0
 40
0
 40
0
 40
0
 40
1
 40
1
 40
1
 40
1
 10
17.507302
 20
12.796672
 30
0.0
 10
18.897016
 20
13.449292
 30
0.0
 10
19.159337
 20
15.376012
 30
0.0
 10
20.676758
 20
15.873782
 30
0.0
  0
SPLINE
  5
12a
100
AcDbEntity
  8
3d
 62
7
100
AcDbSpline
 70
8
 71
3
 72
8
 73
4
 74
0
 40
0
 40
0
 40
0
 40
0
 40
1
 40
1
 40
1
 40
1
 10
20.676758
 20
15.873782
 30
0.0
 10
21.307258
 20
16.158362
 30
0.0
 10
21.932737
 20
15.664602
 30
0.0
 10
22.144913
 20
15.084392
 30
0.0
  0
SPLINE
  5
12b
100
AcDbEntity
  8
3d
 62
7
100
AcDbSpline
 70
8
 71
3
 72
8
 73
4
 74
0
 40
0
 40
0
 40
0
 40
0
 40
1
 40
1
 40
1
 40
1
 10
22.144913
 20
15.084392
 30
0.0
 10
23.125356
 20
12.860042
 30
0.0
 10
22.869981
 20
10.290862
 30
0.0
 10
23.872546
 20
8.070552
 30
0.0
  0
SPLINE
  5
12c
100
AcDbEntity
  8
3d
 62
7
100
AcDbSpline
 70
8
 71
3
 72
8
 73
4
 74
0
 40
0
 40
0
 40
0
 40
0
 40
1
 40
1
 40
1
 40
1
 10
23.872546
 20
8.070552
 30
0.0
 10
24.115897
 20
7.535582
 30
0.0
 10
24.581474
 20
7.003582
 30
0.0
 10
25.218006
 20
7.015662
 30
0.0
  0
SPLINE
  5
12d
100
AcDbEntity
  8
3d
 62
7
100
AcDbSpline
 70
8
 71
3
 72
8
 73
4
 74
0
 40
0
 40
0
 40
0
 40
0
 40
1
 40
1
 40
1
 40
1
 10
25.218006
 20
7.015662
 30
0.0
 10
26.161240
 20
7.042762
 30
0.0
 10
26.801849
 20
7.897512
 30
0.0
 10
27.718937
 20
8.037262
 30
0.0
  0
SPLINE
  5
12e
100
AcDbEntity
  8
3d
 62
7
100
AcDbSpline
 70
8
 71
3
 72
8
 73
4
 74
0
 40
0
 40
0
 40
0
 40
0
 40
1
 40
1
 40
1
 40
1
 10
27.718937
 20
8.037262
 30
0.0
 10
28.506307
 20
8.258502
 30
0.0
 10
29.387178
 20
7.814092
 30
0.0
 10
29.696898
 20
7.061912
 30
0.0
  0
SPLINE
  5
12f
100
AcDbEntity
  8
3d
 62
7
100
AcDbSpline
 70
8
 71
3
 72
8
 73
4
 74
0
 40
0
 40
0
 40
0
 40
0
 40
1
 40
1
 40
1
 40
1
 10
29.696898
 20
7.061912
 30
0.0
 10
30.170528
 20
5.989972
 30
0.0
 10
29.726088
 20
4.802412
 30
0.0
 10
29.954360
 20
3.694242
 30
0.0
  0
SPLINE
  5
130
100
AcDbEntity
  8
3d
 62
7
100
AcDbSpline
 70
8
 71
3
 72
8
 73
4
 74
0
 40
0
 40
0
 40
0
 40
0
 40
1
 40
1
 40
1
 40
1
 10
29.954360
 20
3.694242
 30
0.0
 10
30.024760
 20
3.288992
 30
0.0
 10
30.492280
 20
3.133162
 30
0.0
 10
30.845238
 20
3.266912
 30
0.0
  0
SPLINE
  5
131
100
AcDbEntity
  8
3d
 62
7
100
AcDbSpline
 70
8
 71
3
 72
8
 73
4
 74
0
 40
0
 40
0
 40
0
 40
0
 40
1
 40
1
 40
1
 40
1
 10
30.845238
 20
3.266912
 30
0.0
 10
32.176628
 20
3.675182
 30
0.0
 10
33.319889
 20
4.511812
 30
0.0
 10
34.404909
 20
5.359522
 30
0.0
  0
SPLINE
  5
132
100
AcDbEntity
  8
3d
 62
7
100
AcDbSpline
 70
8
 71
3
 72
8
 73
4
 74
0
 40
0
 40
0
 40
0
 40
0
 40
1
 40
1
 40
1
 40
1
 10
34.404909
 20
5.359522
 30
0.0
 10
36.089260
 20
6.677842
 30
0.0
 10
37.719343
 20
8.099662
 30
0.0
 10
39.622908
 20
9.100222
 30
0.0
  0
SPLINE
  5
133
100
AcDbEntity
  8
3d
 62
7
100
AcDbSpline
 70
8
 71
3
 72
8
 73
4
 74
0
 40
0
 40
0
 40
0
 40
0
 40
1
 40
1
 40
1
 40
1
 10
39.622908
 20
9.100222
 30
0.0
 10
40.106594
 20
9.337542
 30
0.0
 10
40.664713
 20
9.595012
 30
0.0
 10
41.209745
 20
9.426082
 30
0.0
  0
SPLINE
  5
134
100
AcDbEntity
  8
3d
 62
7
100
AcDbSpline
 70
8
 71
3
 72
8
 73
4
 74
0
 40
0
 40
0
 40
0
 40
0
 40
1
 40
1
 40
1
 40
1
 10
41.209745
 20
9.426082
 30
0.0
 10
41.712535
 20
9.258142
 30
0.0
 10
41.950970
 20
8.721092
 30
0.0
 10
42.048513
 20
8.238412
 30
0.0
  0
SPLINE
  5
135
100
AcDbEntity
  8
3d
 62
7
100
AcDbSpline
 70
8
 71
3
 72
8
 73
4
 74
0
 40
0
 40
0
 40
0
 40
0
 40
1
 40
1
 40
1
 40
1
 10
42.048513
 20
8.238412
 30
0.0
 10
42.253649
 20
7.144362
 30
0.0
 10
41.950903
 20
6.006162
 30
0.0
 10
42.254592
 20
4.924142
 30
0.0
  0
SPLINE
  5
136
100
AcDbEntity
  8
3d
 62
7
100
AcDbSpline
 70
8
 71
3
 72
8
 73
4
 74
0
 40
0
 40
0
 40
0
 40
0
 40
1
 40
1
 40
1
 40
1
 10
42.254592
 20
4.924142
 30
0.0
 10
42.517038
 20
3.938662
 30
0.0
 10
43.659418
 20
3.391452
 30
0.0
 10
44.618741
 20
3.598602
 30
0.0
  0
SPLINE
  5
137
100
AcDbEntity
  8
3d
 62
7
100
AcDbSpline
 70
8
 71
3
 72
8
 73
4
 74
0
 40
0
 40
0
 40
0
 40
0
 40
1
 40
1
 40
1
 40
1
 10
44.618741
 20
3.598602
 30
0.0
 10
45.543881
 20
3.797722
 30
0.0
 10
46.306141
 20
4.414142
 30
0.0
 10
46.968821
 20
5.058712
 30
0.0
  0
SPLINE
  5
138
100
AcDbEntity
  8
3d
 62
7
100
AcDbSpline
 70
8
 71
3
 72
8
 73
4
 74
0
 40
0
 40
0
 40
0
 40
0
 40
1
 40
1
 40
1
 40
1
 10
46.968821
 20
5.058712
 30
0.0
 10
48.521441
 20
6.623412
 30
0.0
 10
49.736061
 20
8.475812
 30
0.0
 10
50.990021
 20
10.275792
 30
0.0
  0
SPLINE
  5
139
100
AcDbEntity
  8
3d
 62
7
100
AcDbSpline
 70
8
 71
3
 72
8
 73
4
 74
0
 40
0
 40
0
 40
0
 40
0
 40
1
 40
1
 40
1
 40
1
 10
50.990021
 20
10.275792
 30
0.0
 10
51.381201
 20
10.821832
 30
0.0
 10
51.816691
 20
11.346762
 30
0.0
 10
52.370771
 20
11.735912
 30
0.0
  0
SPLINE
  5
13a
100
AcDbEntity
  8
3d
 62
7
100
AcDbSpline
 70
8
 71
3
 72
8
 73
4
 74
0
 40
0
 40
0
 40
0
 40
0
 40
1
 40
1
 40
1
 40
1
 10
52.370771
 20
11.735912
 30
0.0
 10
53.325071
 20
11.015932
 30
0.0
 10
54.213951
 20
10.046572
 30
0.0
 10
55.456851
 20
9.868582
 30
0.0
  0
SPLINE
  5
13b
100
AcDbEntity
  8
3d
 62
7
100
AcDbSpline
 70
8
 71
3
 72
8
 73
4
 74
0
 40
0
 40
0
 40
0
 40
0
 40
1
 40
1
 40
1
 40
1
 10
55.456851
 20
9.868582
 30
0.0
 10
56.104431
 20
9.772082
 30
0.0
 10
56.661451
 20
10.191192
 30
0.0
 10
57.092851
 20
10.621582
 30
0.0
  0
SPLINE
  5
13c
100
AcDbEntity
  8
3d
 62
7
100
AcDbSpline
 70
8
 71
3
 72
8
 73
4
 74
0
 40
0
 40
0
 40
0
 40
0
 40
1
 40
1
 40
1
 40
1
 10
57.092851
 20
10.621582
 30
0.0
 10
58.208041
 20
11.776992
 30
0.0
 10
58.926081
 20
13.246312
 30
0.0
 10
59.537481
 20
14.714482
 30
0.0
  0
SPLINE
  5
13d
100
AcDbEntity
  8
3d
 62
7
100
AcDbSpline
 70
8
 71
3
 72
8
 73
4
 74
0
 40
0
 40
0
 40
0
 40
0
 40
1
 40
1
 40
1
 40
1
 10
59.537481
 20
14.714482
 30
0.0
 10
59.891451
 20
15.486762
 30
0.0
 10
60.330901
 20
16.397712
 30
0.0
 10
61.222861
 20
16.637032
 30
0.0
  0
SPLINE
  5
13e
100
AcDbEntity
  8
3d
 62
7
100
AcDbSpline
 70
8
 71
3
 72
8
 73
4
 74
0
 40
0
 40
0
 40
0
 40
0
 40
1
 40
1
 40
1
 40
1
 10
61.222861
 20
16.637032
 30
0.0
 10
62.235511
 20
16.850212
 30
0.0
 10
62.811741
 20
15.610292
 30
0.0
 10
63.792191
 20
15.690742
 30
0.0
  0
SPLINE
  5
13f
100
AcDbEntity
  8
3d
 62
7
100
AcDbSpline
 70
8
 71
3
 72
8
 73
4
 74
0
 40
0
 40
0
 40
0
 40
0
 40
1
 40
1
 40
1
 40
1
 10
63.792191
 20
15.690742
 30
0.0
 10
64.535311
 20
15.880812
 30
0.0
 10
64.935531
 20
16.647172
 30
0.0
 10
65.179891
 20
17.314882
 30
0.0
  0
SPLINE
  5
140
100
AcDbEntity
  8
3d
 62
7
100
AcDbSpline
 70
8
 71
3
 72
8
 73
4
 74
0
 40
0
 40
0
 40
0
 40
0
 40
1
 40
1
 40
1
 40
1
 10
65.179891
 20
17.314882
 30
0.0
 10
65.791281
 20
19.251622
 30
0.0
 10
65.577041
 20
21.339082
 30
0.0
 10
66.137161
 20
23.287893
 30
0.0
  0
SPLINE
  5
141
100
AcDbEntity
  8
3d
 62
7
100
AcDbSpline
 70
8
 71
3
 72
8
 73
4
 74
0
 40
0
 40
0
 40
0
 40
0
 40
1
 40
1
 40
1
 40
1
 10
66.137161
 20
23.287893
 30
0.0
 10
67.004962
 20
22.331583
 30
0.0
 10
67.465462
 20
21.026492
 30
0.0
 10
68.514282
 20
20.225042
 30
0.0
  0
SPLINE
  5
142
100
AcDbEntity
  8
3d
 62
7
100
AcDbSpline
 70
8
 71
3
 72
8
 73
4
 74
0
 40
0
 40
0
 40
0
 40
0
 40
1
 40
1
 40
1
 40
1
 10
68.514282
 20
20.225042
 30
0.0
 10
68.788802
 20
20.004832
 30
0.0
 10
69.242252
 20
19.945512
 30
0.0
 10
69.463482
 20
20.271442
 30
0.0
  0
SPLINE
  5
143
100
AcDbEntity
  8
3d
 62
7
100
AcDbSpline
 70
8
 71
3
 72
8
 73
4
 74
0
 40
0
 40
0
 40
0
 40
0
 40
1
 40
1
 40
1
 40
1
 10
69.463482
 20
20.271442
 30
0.0
 10
70.364492
 20
21.494232
 30
0.0
 10
70.843182
 20
23.093103
 30
0.0
 10
70.478162
 20
24.597453
 30
0.0
  0
SPLINE
  5
144
100
AcDbEntity
  8
3d
 62
7
100
AcDbSpline
 70
8
 71
3
 72
8
 73
4
 74
0
 40
0
 40
0
 40
0
 40
0
 40
1
 40
1
 40
1
 40
1
 10
70.478162
 20
24.597453
 30
0.0
 10
70.331312
 20
25.383823
 30
0.0
 10
69.867842
 20
26.054473
 30
0.0
 10
69.631512
 20
26.807643
 30
0.0
  0
SPLINE
  5
145
100
AcDbEntity
  8
3d
 62
7
100
AcDbSpline
 70
8
 71
3
 72
8
 73
4
 74
0
 40
0
 40
0
 40
0
 40
0
 40
1
 40
1
 40
1
 40
1
 10
69.631512
 20
26.807643
 30
0.0
 10
69.590212
 20
27.251103
 30
0.0
 10
70.089972
 20
26.953293
 30
0.0
 10
70.272992
 20
26.816643
 30
0.0
  0
SPLINE
  5
146
100
AcDbEntity
  8
3d
 62
7
100
AcDbSpline
 70
8
 71
3
 72
8
 73
4
 74
0
 40
0
 40
0
 40
0
 40
0
 40
1
 40
1
 40
1
 40
1
 10
70.272992
 20
26.816643
 30
0.0
 10
70.875342
 20
26.472743
 30
0.0
 10
71.736212
 20
25.820163
 30
0.0
 10
72.378762
 20
26.405413
 30
0.0
  0
SPLINE
  5
147
100
AcDbEntity
  8
3d
 62
7
100
AcDbSpline
 70
8
 71
3
 72
8
 73
4
 74
0
 40
0
 40
0
 40
0
 40
0
 40
1
 40
1
 40
1
 40
1
 10
72.378762
 20
26.405413
 30
0.0
 10
73.400462
 20
27.957013
 30
0.0
 10
72.679362
 20
29.923943
 30
0.0
 10
71.755242
 20
31.337793
 30
0.0
  0
SPLINE
  5
148
100
AcDbEntity
  8
3d
 62
7
100
AcDbSpline
 70
8
 71
3
 72
8
 73
4
 74
0
 40
0
 40
0
 40
0
 40
0
 40
1
 40
1
 40
1
 40
1
 10
71.755242
 20
31.337793
 30
0.0
 10
72.639142
 20
31.001923
 30
0.0
 10
73.679012
 20
30.914453
 30
0.0
 10
74.531712
 20
31.385993
 30
0.0
  0
SPLINE
  5
149
100
AcDbEntity
  8
3d
 62
7
100
AcDbSpline
 70
8
 71
3
 72
8
 73
4
 74
0
 40
0
 40
0
 40
0
 40
0
 40
1
 40
1
 40
1
 40
1
 10
74.531712
 20
31.385993
 30
0.0
 10
75.241662
 20
31.769103
 30
0.0
 10
75.618822
 20
32.565513
 30
0.0
 10
75.699282
 20
33.341823
 30
0.0
  0
SPLINE
  5
14a
100
AcDbEntity
  8
3d
 62
7
100
AcDbSpline
 70
8
 71
3
 72
8
 73
4
 74
0
 40
0
 40
0
 40
0
 40
0
 40
1
 40
1
 40
1
 40
1
 10
75.699282
 20
33.341823
 30
0.0
 10
75.865182
 20
34.854213
 30
0.0
 10
75.258732
 20
36.386703
 30
0.0
 10
74.232012
 20
37.486803
 30
0.0
  0
SPLINE
  5
14b
100
AcDbEntity
  8
3d
 62
7
100
AcDbSpline
 70
8
 71
3
 72
8
 73
4
 74
0
 40
0
 40
0
 40
0
 40
0
 40
1
 40
1
 40
1
 40
1
 10
74.232012
 20
37.486803
 30
0.0
 10
75.340182
 20
37.433503
 30
0.0
 10
76.585012
 20
37.797533
 30
0.0
 10
77.179312
 20
38.806133
 30
0.0
  0
SPLINE
  5
14c
100
AcDbEntity
  8
3d
 62
7
100
AcDbSpline
 70
8
 71
3
 72
8
 73
4
 74
0
 40
0
 40
0
 40
0
 40
0
 40
1
 40
1
 40
1
 40
1
 10
77.179312
 20
38.806133
 30
0.0
 10
77.799752
 20
39.879083
 30
0.0
 10
77.666102
 20
41.246763
 30
0.0
 10
77.124012
 20
42.323753
 30
0.0
  0
SPLINE
  5
14d
100
AcDbEntity
  8
3d
 62
7
100
AcDbSpline
 70
8
 71
3
 72
8
 73
4
 74
0
 40
0
 40
0
 40
0
 40
0
 40
1
 40
1
 40
1
 40
1
 10
77.124012
 20
42.323753
 30
0.0
 10
76.428162
 20
43.723503
 30
0.0
 10
75.226432
 20
44.788313
 30
0.0
 10
73.974482
 20
45.684293
 30
0.0
  0
SPLINE
  5
14e
100
AcDbEntity
  8
3d
 62
7
100
AcDbSpline
 70
8
 71
3
 72
8
 73
4
 74
0
 40
0
 40
0
 40
0
 40
0
 40
1
 40
1
 40
1
 40
1
 10
73.974482
 20
45.684293
 30
0.0
 10
74.857382
 20
45.684293
 30
0.0
 10
75.787582
 20
45.952803
 30
0.0
 10
76.400972
 20
46.618503
 30
0.0
  0
SPLINE
  5
14f
100
AcDbEntity
  8
3d
 62
7
100
AcDbSpline
 70
8
 71
3
 72
8
 73
4
 74
0
 40
0
 40
0
 40
0
 40
0
 40
1
 40
1
 40
1
 40
1
 10
76.400972
 20
46.618503
 30
0.0
 10
77.150142
 20
47.444083
 30
0.0
 10
77.293902
 20
48.705213
 30
0.0
 10
76.880632
 20
49.722863
 30
0.0
  0
SPLINE
  5
150
100
AcDbEntity
  8
3d
 62
7
100
AcDbSpline
 70
8
 71
3
 72
8
 73
4
 74
0
 40
0
 40
0
 40
0
 40
0
 40
1
 40
1
 40
1
 40
1
 10
76.880632
 20
49.722863
 30
0.0
 10
76.057062
 20
51.695813
 30
0.0
 10
74.384872
 20
53.162833
 30
0.0
 10
72.696492
 20
54.400703
 30
0.0
  0
SPLINE
  5
151
100
AcDbEntity
  8
3d
 62
7
100
AcDbSpline
 70
8
 71
3
 72
8
 73
4
 74
0
 40
0
 40
0
 40
0
 40
0
 40
1
 40
1
 40
1
 40
1
 10
72.696492
 20
54.400703
 30
0.0
 10
73.556272
 20
54.344403
 30
0.0
 10
74.577802
 20
54.380603
 30
0.0
 10
75.205292
 20
55.057333
 30
0.0
  0
SPLINE
  5
152
100
AcDbEntity
  8
3d
 62
7
100
AcDbSpline
 70
8
 71
3
 72
8
 73
4
 74
0
 40
0
 40
0
 40
0
 40
0
 40
1
 40
1
 40
1
 40
1
 10
75.205292
 20
55.057333
 30
0.0
 10
75.774462
 20
55.809503
 30
0.0
 10
75.450722
 20
56.827203
 30
0.0
 10
75.131892
 20
57.616603
 30
0.0
  0
SPLINE
  5
153
100
AcDbEntity
  8
3d
 62
7
100
AcDbSpline
 70
8
 71
3
 72
8
 73
4
 74
0
 40
0
 40
0
 40
0
 40
0
 40
1
 40
1
 40
1
 40
1
 10
75.131892
 20
57.616603
 30
0.0
 10
74.090102
 20
59.959603
 30
0.0
 10
72.153432
 20
61.774773
 30
0.0
 10
70.067852
 20
63.200683
 30
0.0
  0
SPLINE
  5
154
100
AcDbEntity
  8
3d
 62
7
100
AcDbSpline
 70
8
 71
3
 72
8
 73
4
 74
0
 40
0
 40
0
 40
0
 40
0
 40
1
 40
1
 40
1
 40
1
 10
70.067852
 20
63.200683
 30
0.0
 10
68.833012
 20
64.142903
 30
0.0
 10
67.536712
 20
65.024723
 30
0.0
 10
66.433571
 20
66.123833
 30
0.0
  0
SPLINE
  5
155
100
AcDbEntity
  8
3d
 62
7
100
AcDbSpline
 70
8
 71
3
 72
8
 73
4
 74
0
 40
0
 40
0
 40
0
 40
0
 40
1
 40
1
 40
1
 40
1
 10
66.433571
 20
66.123833
 30
0.0
 10
67.219932
 20
65.950873
 30
0.0
 10
68.044462
 20
65.743693
 30
0.0
 10
68.846922
 20
65.938773
 30
0.0
  0
SPLINE
  5
156
100
AcDbEntity
  8
3d
 62
7
100
AcDbSpline
 70
8
 71
3
 72
8
 73
4
 74
0
 40
0
 40
0
 40
0
 40
0
 40
1
 40
1
 40
1
 40
1
 10
68.846922
 20
65.938773
 30
0.0
 10
69.385912
 20
66.081573
 30
0.0
 10
69.953102
 20
66.521983
 30
0.0
 10
69.923942
 20
67.133384
 30
0.0
  0
SPLINE
  5
157
100
AcDbEntity
  8
3d
 62
7
100
AcDbSpline
 70
8
 71
3
 72
8
 73
4
 74
0
 40
0
 40
0
 40
0
 40
0
 40
1
 40
1
 40
1
 40
1
 10
69.923942
 20
67.133384
 30
0.0
 10
69.866742
 20
67.950874
 30
0.0
 10
69.360872
 20
68.638694
 30
0.0
 10
68.912382
 20
69.292324
 30
0.0
  0
SPLINE
  5
158
100
AcDbEntity
  8
3d
 62
7
100
AcDbSpline
 70
8
 71
3
 72
8
 73
4
 74
0
 40
0
 40
0
 40
0
 40
0
 40
1
 40
1
 40
1
 40
1
 10
68.912382
 20
69.292324
 30
0.0
 10
67.557862
 20
71.250194
 30
0.0
 10
65.939891
 20
73.071304
 30
0.0
 10
63.933741
 20
74.379574
 30
0.0
  0
SPLINE
  5
159
100
AcDbEntity
  8
3d
 62
7
100
AcDbSpline
 70
8
 71
3
 72
8
 73
4
 74
0
 40
0
 40
0
 40
0
 40
0
 40
1
 40
1
 40
1
 40
1
 10
63.933741
 20
74.379574
 30
0.0
 10
62.365031
 20
75.391184
 30
0.0
 10
60.693771
 20
76.227834
 30
0.0
 10
59.085841
 20
77.173084
 30
0.0
  0
SPLINE
  5
15a
100
AcDbEntity
  8
3d
 62
7
100
AcDbSpline
 70
8
 71
3
 72
8
 73
4
 74
0
 40
0
 40
0
 40
0
 40
0
 40
1
 40
1
 40
1
 40
1
 10
59.085841
 20
77.173084
 30
0.0
 10
58.820371
 20
77.360104
 30
0.0
 10
58.473361
 20
77.546144
 30
0.0
 10
58.399931
 20
77.888034
 30
0.0
  0
SPLINE
  5
15b
100
AcDbEntity
  8
3d
 62
7
100
AcDbSpline
 70
8
 71
3
 72
8
 73
4
 74
0
 40
0
 40
0
 40
0
 40
0
 40
1
 40
1
 40
1
 40
1
 10
58.399931
 20
77.888034
 30
0.0
 10
58.439031
 20
78.325474
 30
0.0
 10
59.157251
 20
78.166584
 30
0.0
 10
59.204521
 20
78.601014
 30
0.0
  0
SPLINE
  5
15c
100
AcDbEntity
  8
3d
 62
7
100
AcDbSpline
 70
8
 71
3
 72
8
 73
4
 74
0
 40
0
 40
0
 40
0
 40
0
 40
1
 40
1
 40
1
 40
1
 10
59.204521
 20
78.601014
 30
0.0
 10
59.254721
 20
78.926824
 30
0.0
 10
58.896731
 20
79.100854
 30
0.0
 10
58.683551
 20
79.276844
 30
0.0
  0
SPLINE
  5
15d
100
AcDbEntity
  8
3d
 62
7
100
AcDbSpline
 70
8
 71
3
 72
8
 73
4
 74
0
 40
0
 40
0
 40
0
 40
0
 40
1
 40
1
 40
1
 40
1
 10
58.683551
 20
79.276844
 30
0.0
 10
57.619641
 20
80.031034
 30
0.0
 10
56.246011
 20
79.907294
 30
0.0
 10
55.066471
 20
80.328644
 30
0.0
  0
SPLINE
  5
15e
100
AcDbEntity
  8
3d
 62
7
100
AcDbSpline
 70
8
 71
3
 72
8
 73
4
 74
0
 40
0
 40
0
 40
0
 40
0
 40
1
 40
1
 40
1
 40
1
 10
55.066471
 20
80.328644
 30
0.0
 10
55.912151
 20
80.810304
 30
0.0
 10
56.895701
 20
80.982234
 30
0.0
 10
57.732331
 20
81.476974
 30
0.0
  0
SPLINE
  5
15f
100
AcDbEntity
  8
3d
 62
7
100
AcDbSpline
 70
8
 71
3
 72
8
 73
4
 74
0
 40
0
 40
0
 40
0
 40
0
 40
1
 40
1
 40
1
 40
1
 10
57.732331
 20
81.476974
 30
0.0
 10
57.979711
 20
81.591594
 30
0.0
 10
58.034021
 20
81.964774
 30
0.0
 10
57.802731
 20
82.124664
 30
0.0
  0
SPLINE
  5
160
100
AcDbEntity
  8
3d
 62
7
100
AcDbSpline
 70
8
 71
3
 72
8
 73
4
 74
0
 40
0
 40
0
 40
0
 40
0
 40
1
 40
1
 40
1
 40
1
 10
57.802731
 20
82.124664
 30
0.0
 10
56.873581
 20
82.949234
 30
0.0
 10
55.571271
 20
83.117104
 30
0.0
 10
54.377641
 20
83.156324
 30
0.0
  0
SPLINE
  5
161
100
AcDbEntity
  8
3d
 62
7
100
AcDbSpline
 70
8
 71
3
 72
8
 73
4
 74
0
 40
0
 40
0
 40
0
 40
0
 40
1
 40
1
 40
1
 40
1
 10
54.377641
 20
83.156324
 30
0.0
 10
52.041681
 20
83.233624
 30
0.0
 10
49.654441
 20
83.038574
 30
0.0
 10
47.459251
 20
82.188824
 30
0.0
  0
SPLINE
  5
162
100
AcDbEntity
  8
3d
 62
7
100
AcDbSpline
 70
8
 71
3
 72
8
 73
4
 74
0
 40
0
 40
0
 40
0
 40
0
 40
1
 40
1
 40
1
 40
1
 10
47.459251
 20
82.188824
 30
0.0
 10
45.074021
 20
83.917424
 30
0.0
 10
43.403775
 20
86.566204
 30
0.0
 10
40.661551
 20
87.801074
 30
0.0
  0
SPLINE
  5
163
100
AcDbEntity
  8
3d
 62
7
100
AcDbSpline
 70
8
 71
3
 72
8
 73
4
 74
0
 40
0
 40
0
 40
0
 40
0
 40
1
 40
1
 40
1
 40
1
 10
40.661551
 20
87.801074
 30
0.0
 10
40.066374
 20
88.094584
 30
0.0
 10
39.384452
 20
88.297644
 30
0.0
 10
38.717788
 20
88.278884
 30
0.0
  0
LWPOLYLINE
  5
164
100
AcDbEntity
  8
fiducial
 62
7
100
AcDbPolyline
 90
4
 70
1
 10
0.115207
 20
88.784797
 30
0.0
 10
81.164815
 20
88.784797
 30
0.0
 10
81.164815
 20
0.115209
 30
0.0
 10
0.115207
 20
0.115209
 30
0.0
  0
SPLINE
  5
165
100
AcDbEntity
  8
3d
 62
7
100
AcDbSpline
 70
8
 71
3
 72
8
 73
4
 74
0
 40
0
 40
0
 40
0
 40
0
 40
1
 40
1
 40
1
 40
1
 10
40.355071
 20
69.804244
 30
0.0
 10
40.650766
 20
69.795244
 30
0.0
 10
40.944043
 20
69.699894
 30
0.0
 10
41.186700
 20
69.521754
 30
0.0
  0
SPLINE
  5
166
100
AcDbEntity
  8
3d
 62
7
100
AcDbSpline
 70
8
 71
3
 72
8
 73
4
 74
0
 40
0
 40
0
 40
0
 40
0
 40
1
 40
1
 40
1
 40
1
 10
41.186700
 20
69.521754
 30
0.0
 10
42.126921
 20
68.810784
 30
0.0
 10
43.010829
 20
68.023414
 30
0.0
 10
43.978201
 20
67.346644
 30
0.0
  0
SPLINE
  5
167
100
AcDbEntity
  8
3d
 62
7
100
AcDbSpline
 70
8
 71
3
 72
8
 73
4
 74
0
 40
0
 40
0
 40
0
 40
0
 40
1
 40
1
 40
1
 40
1
 10
43.978201
 20
67.346644
 30
0.0
 10
43.910801
 20
67.645334
 30
0.0
 10
43.810241
 20
67.938884
 30
0.0
 10
43.787111
 20
68.245584
 30
0.0
  0
SPLINE
  5
168
100
AcDbEntity
  8
3d
 62
7
100
AcDbSpline
 70
8
 71
3
 72
8
 73
4
 74
0
 40
0
 40
0
 40
0
 40
0
 40
1
 40
1
 40
1
 40
1
 10
43.787111
 20
68.245584
 30
0.0
 10
43.860511
 20
68.558314
 30
0.0
 10
44.248591
 20
68.653964
 30
0.0
 10
44.511041
 20
68.520234
 30
0.0
  0
SPLINE
  5
169
100
AcDbEntity
  8
3d
 62
7
100
AcDbSpline
 70
8
 71
3
 72
8
 73
4
 74
0
 40
0
 40
0
 40
0
 40
0
 40
1
 40
1
 40
1
 40
1
 10
44.511041
 20
68.520234
 30
0.0
 10
46.453821
 20
67.738884
 30
0.0
 10
48.163441
 20
66.482853
 30
0.0
 10
49.726121
 20
65.107213
 30
0.0
  0
SPLINE
  5
16a
100
AcDbEntity
  8
3d
 62
7
100
AcDbSpline
 70
8
 71
3
 72
8
 73
4
 74
0
 40
0
 40
0
 40
0
 40
0
 40
1
 40
1
 40
1
 40
1
 10
49.726121
 20
65.107213
 30
0.0
 10
49.726121
 20
65.887553
 30
0.0
 10
49.658621
 20
66.683994
 30
0.0
 10
49.825621
 20
67.451254
 30
0.0
  0
SPLINE
  5
16b
100
AcDbEntity
  8
3d
 62
7
100
AcDbSpline
 70
8
 71
3
 72
8
 73
4
 74
0
 40
0
 40
0
 40
0
 40
0
 40
1
 40
1
 40
1
 40
1
 10
49.825621
 20
67.451254
 30
0.0
 10
49.929231
 20
67.782084
 30
0.0
 10
50.371561
 20
67.762894
 30
0.0
 10
50.595811
 20
67.568874
 30
0.0
  0
SPLINE
  5
16c
100
AcDbEntity
  8
3d
 62
7
100
AcDbSpline
 70
8
 71
3
 72
8
 73
4
 74
0
 40
0
 40
0
 40
0
 40
0
 40
1
 40
1
 40
1
 40
1
 10
50.595811
 20
67.568874
 30
0.0
 10
53.262631
 20
65.702533
 30
0.0
 10
55.739371
 20
63.512493
 30
0.0
 10
57.683161
 20
60.886933
 30
0.0
  0
SPLINE
  5
16d
100
AcDbEntity
  8
3d
 62
7
100
AcDbSpline
 70
8
 71
3
 72
8
 73
4
 74
0
 40
0
 40
0
 40
0
 40
0
 40
1
 40
1
 40
1
 40
1
 10
57.683161
 20
60.886933
 30
0.0
 10
59.553551
 20
58.369963
 30
0.0
 10
60.849721
 20
55.382263
 30
0.0
 10
61.149381
 20
52.243833
 30
0.0
  0
SPLINE
  5
16e
100
AcDbEntity
  8
3d
 62
7
100
AcDbSpline
 70
8
 71
3
 72
8
 73
4
 74
0
 40
0
 40
0
 40
0
 40
0
 40
1
 40
1
 40
1
 40
1
 10
61.149381
 20
52.243833
 30
0.0
 10
61.328371
 20
50.260833
 30
0.0
 10
61.234981
 20
48.180333
 30
0.0
 10
60.387251
 20
46.346173
 30
0.0
  0
SPLINE
  5
16f
100
AcDbEntity
  8
3d
 62
7
100
AcDbSpline
 70
8
 71
3
 72
8
 73
4
 74
0
 40
0
 40
0
 40
0
 40
0
 40
1
 40
1
 40
1
 40
1
 10
60.387251
 20
46.346173
 30
0.0
 10
59.682341
 20
44.794553
 30
0.0
 10
58.396181
 20
43.548633
 30
0.0
 10
56.870731
 20
42.807523
 30
0.0
  0
SPLINE
  5
170
100
AcDbEntity
  8
3d
 62
7
100
AcDbSpline
 70
8
 71
3
 72
8
 73
4
 74
0
 40
0
 40
0
 40
0
 40
0
 40
1
 40
1
 40
1
 40
1
 10
56.870731
 20
42.807523
 30
0.0
 10
53.928401
 20
41.360493
 30
0.0
 10
50.559731
 20
41.328403
 30
0.0
 10
47.353961
 20
41.437003
 30
0.0
  0
SPLINE
  5
171
100
AcDbEntity
  8
3d
 62
7
100
AcDbSpline
 70
8
 71
3
 72
8
 73
4
 74
0
 40
0
 40
0
 40
0
 40
0
 40
1
 40
1
 40
1
 40
1
 10
47.353961
 20
41.437003
 30
0.0
 10
44.125031
 20
41.540613
 30
0.0
 10
40.910113
 20
41.876343
 30
0.0
 10
37.685219
 20
42.034223
 30
0.0
  0
SPLINE
  5
172
100
AcDbEntity
  8
3d
 62
7
100
AcDbSpline
 70
8
 71
3
 72
8
 73
4
 74
0
 40
0
 40
0
 40
0
 40
0
 40
1
 40
1
 40
1
 40
1
 10
37.685219
 20
42.034223
 30
0.0
 10
33.718203
 20
42.231323
 30
0.0
 10
29.807609
 20
42.962403
 30
0.0
 10
25.907966
 20
43.671333
 30
0.0
  0
SPLINE
  5
173
100
AcDbEntity
  8
3d
 62
7
100
AcDbSpline
 70
8
 71
3
 72
8
 73
4
 74
0
 40
0
 40
0
 40
0
 40
0
 40
1
 40
1
 40
1
 40
1
 10
25.907966
 20
43.671333
 30
0.0
 10
24.111999
 20
44.040383
 30
0.0
 10
22.291765
 20
44.485813
 30
0.0
 10
20.690881
 20
45.409953
 30
0.0
  0
SPLINE
  5
174
100
AcDbEntity
  8
3d
 62
7
100
AcDbSpline
 70
8
 71
3
 72
8
 73
4
 74
0
 40
0
 40
0
 40
0
 40
0
 40
1
 40
1
 40
1
 40
1
 10
20.690881
 20
45.409953
 30
0.0
 10
19.546530
 20
46.060553
 30
0.0
 10
18.544930
 20
47.103463
 30
0.0
 10
18.278453
 20
48.429823
 30
0.0
  0
SPLINE
  5
175
100
AcDbEntity
  8
3d
 62
7
100
AcDbSpline
 70
8
 71
3
 72
8
 73
4
 74
0
 40
0
 40
0
 40
0
 40
0
 40
1
 40
1
 40
1
 40
1
 10
18.278453
 20
48.429823
 30
0.0
 10
17.511193
 20
51.534053
 30
0.0
 10
18.544052
 20
54.751813
 30
0.0
 10
19.962928
 20
57.510113
 30
0.0
  0
SPLINE
  5
176
100
AcDbEntity
  8
3d
 62
7
100
AcDbSpline
 70
8
 71
3
 72
8
 73
4
 74
0
 40
0
 40
0
 40
0
 40
0
 40
1
 40
1
 40
1
 40
1
 10
19.962928
 20
57.510113
 30
0.0
 10
21.313420
 20
60.115573
 30
0.0
 10
23.109340
 20
62.480713
 30
0.0
 10
25.177820
 20
64.557233
 30
0.0
  0
SPLINE
  5
177
100
AcDbEntity
  8
3d
 62
7
100
AcDbSpline
 70
8
 71
3
 72
8
 73
4
 74
0
 40
0
 40
0
 40
0
 40
0
 40
1
 40
1
 40
1
 40
1
 10
25.177820
 20
64.557233
 30
0.0
 10
26.491107
 20
65.821243
 30
0.0
 10
27.898948
 20
67.049124
 30
0.0
 10
29.582290
 20
67.789224
 30
0.0
  0
SPLINE
  5
178
100
AcDbEntity
  8
3d
 62
7
100
AcDbSpline
 70
8
 71
3
 72
8
 73
4
 74
0
 40
0
 40
0
 40
0
 40
0
 40
1
 40
1
 40
1
 40
1
 10
29.582290
 20
67.789224
 30
0.0
 10
29.878934
 20
67.918974
 30
0.0
 10
30.335503
 20
68.069774
 30
0.0
 10
30.542653
 20
67.720824
 30
0.0
  0
SPLINE
  5
179
100
AcDbEntity
  8
3d
 62
7
100
AcDbSpline
 70
8
 71
3
 72
8
 73
4
 74
0
 40
0
 40
0
 40
0
 40
0
 40
1
 40
1
 40
1
 40
1
 10
30.542653
 20
67.720824
 30
0.0
 10
30.600993
 20
67.386964
 30
0.0
 10
30.518423
 20
67.046124
 30
0.0
 10
30.519423
 20
66.709244
 30
0.0
  0
SPLINE
  5
17a
100
AcDbEntity
  8
3d
 62
7
100
AcDbSpline
 70
8
 71
3
 72
8
 73
4
 74
0
 40
0
 40
0
 40
0
 40
0
 40
1
 40
1
 40
1
 40
1
 10
30.519423
 20
66.709244
 30
0.0
 10
31.856846
 20
67.679654
 30
0.0
 10
33.008319
 20
69.020074
 30
0.0
 10
34.657472
 20
69.468564
 30
0.0
  0
SPLINE
  5
17b
100
AcDbEntity
  8
3d
 62
7
100
AcDbSpline
 70
8
 71
3
 72
8
 73
4
 74
0
 40
0
 40
0
 40
0
 40
0
 40
1
 40
1
 40
1
 40
1
 10
34.657472
 20
69.468564
 30
0.0
 10
34.976241
 20
69.567064
 30
0.0
 10
35.483084
 20
69.667644
 30
0.0
 10
35.601745
 20
69.241264
 30
0.0
  0
SPLINE
  5
17c
100
AcDbEntity
  8
3d
 62
7
100
AcDbSpline
 70
8
 71
3
 72
8
 73
4
 74
0
 40
0
 40
0
 40
0
 40
0
 40
1
 40
1
 40
1
 40
1
 10
35.601745
 20
69.241264
 30
0.0
 10
35.623855
 20
68.564514
 30
0.0
 10
35.017405
 20
68.056644
 30
0.0
 10
34.859530
 20
67.439224
 30
0.0
  0
SPLINE
  5
17d
100
AcDbEntity
  8
3d
 62
7
100
AcDbSpline
 70
8
 71
3
 72
8
 73
4
 74
0
 40
0
 40
0
 40
0
 40
0
 40
1
 40
1
 40
1
 40
1
 10
34.859530
 20
67.439224
 30
0.0
 10
35.032488
 20
67.014864
 30
0.0
 10
35.676032
 20
67.115494
 30
0.0
 10
36.050107
 20
67.174814
 30
0.0
  0
SPLINE
  5
17e
100
AcDbEntity
  8
3d
 62
7
100
AcDbSpline
 70
8
 71
3
 72
8
 73
4
 74
0
 40
0
 40
0
 40
0
 40
0
 40
1
 40
1
 40
1
 40
1
 10
36.050107
 20
67.174814
 30
0.0
 10
37.299038
 20
67.946094
 30
0.0
 10
38.277484
 20
69.139594
 30
0.0
 10
39.683289
 20
69.659464
 30
0.0
  0
SPLINE
  5
17f
100
AcDbEntity
  8
3d
 62
7
100
AcDbSpline
 70
8
 71
3
 72
8
 73
4
 74
0
 40
0
 40
0
 40
0
 40
0
 40
1
 40
1
 40
1
 40
1
 10
39.683289
 20
69.659464
 30
0.0
 10
39.893578
 20
69.763184
 30
0.0
 10
40.125119
 20
69.810514
 30
0.0
 10
40.355103
 20
69.804214
 30
0.0
  0
LWPOLYLINE
  5
180
100
AcDbEntity
  8
3d
 62
7
100
AcDbPolyline
 90
2
 70
0
 10
38.717788
 20
88.278884
 30
0.0
 10
38.717956
 20
88.278984
 30
0.0
  0
SPLINE
  5
181
100
AcDbEntity
  8
3d
 62
7
100
AcDbSpline
 70
8
 71
3
 72
8
 73
4
 74
0
 40
0
 40
0
 40
0
 40
0
 40
1
 40
1
 40
1
 40
1
 10
21.484013
 20
40.997783
 30
0.0
 10
22.400967
 20
40.992783
 30
0.0
 10
21.395713
 20
39.939613
 30
0.0
 10
25.785780
 20
40.452083
 30
0.0
  0
SPLINE
  5
182
100
AcDbEntity
  8
3d
 62
7
100
AcDbSpline
 70
8
 71
3
 72
8
 73
4
 74
0
 40
0
 40
0
 40
0
 40
0
 40
1
 40
1
 40
1
 40
1
 10
25.785780
 20
40.452083
 30
0.0
 10
27.760770
 20
40.692163
 30
0.0
 10
29.730142
 20
40.354483
 30
0.0
 10
31.706496
 20
40.285133
 30
0.0
  0
SPLINE
  5
183
100
AcDbEntity
  8
3d
 62
7
100
AcDbSpline
 70
8
 71
3
 72
8
 73
4
 74
0
 40
0
 40
0
 40
0
 40
0
 40
1
 40
1
 40
1
 40
1
 10
31.706496
 20
40.285133
 30
0.0
 10
33.968007
 20
39.807313
 30
0.0
 10
36.286991
 20
39.770483
 30
0.0
 10
38.574046
 20
39.457173
 30
0.0
  0
SPLINE
  5
184
100
AcDbEntity
  8
3d
 62
7
100
AcDbSpline
 70
8
 71
3
 72
8
 73
4
 74
0
 40
0
 40
0
 40
0
 40
0
 40
1
 40
1
 40
1
 40
1
 10
38.574046
 20
39.457173
 30
0.0
 10
41.616729
 20
38.508023
 30
0.0
 10
44.817641
 20
39.000353
 30
0.0
 10
47.933751
 20
39.067133
 30
0.0
  0
SPLINE
  5
185
100
AcDbEntity
  8
3d
 62
7
100
AcDbSpline
 70
8
 71
3
 72
8
 73
4
 74
0
 40
0
 40
0
 40
0
 40
0
 40
1
 40
1
 40
1
 40
1
 10
47.933751
 20
39.067133
 30
0.0
 10
49.650741
 20
38.867463
 30
0.0
 10
51.360721
 20
38.745093
 30
0.0
 10
53.090851
 20
38.767803
 30
0.0
  0
SPLINE
  5
186
100
AcDbEntity
  8
3d
 62
7
100
AcDbSpline
 70
8
 71
3
 72
8
 73
4
 74
0
 40
0
 40
0
 40
0
 40
0
 40
1
 40
1
 40
1
 40
1
 10
53.090851
 20
38.767803
 30
0.0
 10
54.757921
 20
38.545053
 30
0.0
 10
56.341461
 20
37.932833
 30
0.0
 10
57.995631
 20
37.615063
 30
0.0
  0
SPLINE
  5
187
100
AcDbEntity
  8
3d
 62
7
100
AcDbSpline
 70
8
 71
3
 72
8
 73
4
 74
0
 40
0
 40
0
 40
0
 40
0
 40
1
 40
1
 40
1
 40
1
 10
57.995631
 20
37.615063
 30
0.0
 10
64.315541
 20
34.537043
 30
0.0
 10
61.755511
 20
38.055293
 30
0.0
 10
64.629671
 20
34.998213
 30
0.0
  0
SPLINE
  5
188
100
AcDbEntity
  8
3d
 62
7
100
AcDbSpline
 70
8
 71
3
 72
8
 73
4
 74
0
 40
0
 40
0
 40
0
 40
0
 40
1
 40
1
 40
1
 40
1
 10
64.629671
 20
34.998213
 30
0.0
 10
65.175361
 20
34.125623
 30
0.0
 10
65.797511
 20
32.806803
 30
0.0
 10
65.141111
 20
31.848143
 30
0.0
  0
SPLINE
  5
189
100
AcDbEntity
  8
3d
 62
7
100
AcDbSpline
 70
8
 71
3
 72
8
 73
4
 74
0
 40
0
 40
0
 40
0
 40
0
 40
1
 40
1
 40
1
 40
1
 10
65.141111
 20
31.848143
 30
0.0
 10
63.936881
 20
31.082463
 30
0.0
 10
62.805011
 20
30.124423
 30
0.0
 10
62.150141
 20
28.826423
 30
0.0
  0
SPLINE
  5
18a
100
AcDbEntity
  8
3d
 62
7
100
AcDbSpline
 70
8
 71
3
 72
8
 73
4
 74
0
 40
0
 40
0
 40
0
 40
0
 40
1
 40
1
 40
1
 40
1
 10
62.150141
 20
28.826423
 30
0.0
 10
61.720591
 20
27.433193
 30
0.0
 10
60.865801
 20
26.271513
 30
0.0
 10
59.901351
 20
25.199843
 30
0.0
  0
SPLINE
  5
18b
100
AcDbEntity
  8
3d
 62
7
100
AcDbSpline
 70
8
 71
3
 72
8
 73
4
 74
0
 40
0
 40
0
 40
0
 40
0
 40
1
 40
1
 40
1
 40
1
 10
59.901351
 20
25.199843
 30
0.0
 10
58.678011
 20
24.206403
 30
0.0
 10
57.773561
 20
22.876003
 30
0.0
 10
56.487051
 20
21.958872
 30
0.0
  0
SPLINE
  5
18c
100
AcDbEntity
  8
3d
 62
7
100
AcDbSpline
 70
8
 71
3
 72
8
 73
4
 74
0
 40
0
 40
0
 40
0
 40
0
 40
1
 40
1
 40
1
 40
1
 10
56.487051
 20
21.958872
 30
0.0
 10
54.478801
 20
19.918352
 30
0.0
 10
52.038121
 20
18.356052
 30
0.0
 10
49.415631
 20
17.222162
 30
0.0
  0
SPLINE
  5
18d
100
AcDbEntity
  8
3d
 62
7
100
AcDbSpline
 70
8
 71
3
 72
8
 73
4
 74
0
 40
0
 40
0
 40
0
 40
0
 40
1
 40
1
 40
1
 40
1
 10
49.415631
 20
17.222162
 30
0.0
 10
45.907291
 20
15.486672
 30
0.0
 10
41.890650
 20
15.494002
 30
0.0
 10
38.103919
 20
16.059372
 30
0.0
  0
SPLINE
  5
18e
100
AcDbEntity
  8
3d
 62
7
100
AcDbSpline
 70
8
 71
3
 72
8
 73
4
 74
0
 40
0
 40
0
 40
0
 40
0
 40
1
 40
1
 40
1
 40
1
 10
38.103919
 20
16.059372
 30
0.0
 10
34.928259
 20
16.635632
 30
0.0
 10
31.826167
 20
17.798232
 30
0.0
 10
29.055257
 20
19.463612
 30
0.0
  0
SPLINE
  5
18f
100
AcDbEntity
  8
3d
 62
7
100
AcDbSpline
 70
8
 71
3
 72
8
 73
4
 74
0
 40
0
 40
0
 40
0
 40
0
 40
1
 40
1
 40
1
 40
1
 10
29.055257
 20
19.463612
 30
0.0
 10
25.560101
 20
22.070402
 30
0.0
 10
22.854748
 20
25.574253
 30
0.0
 10
20.587346
 20
29.268393
 30
0.0
  0
SPLINE
  5
190
100
AcDbEntity
  8
3d
 62
7
100
AcDbSpline
 70
8
 71
3
 72
8
 73
4
 74
0
 40
0
 40
0
 40
0
 40
0
 40
1
 40
1
 40
1
 40
1
 10
20.587346
 20
29.268393
 30
0.0
 10
19.663511
 20
30.454053
 30
0.0
 10
19.498668
 20
31.944813
 30
0.0
 10
18.973267
 20
33.306773
 30
0.0
  0
SPLINE
  5
191
100
AcDbEntity
  8
3d
 62
7
100
AcDbSpline
 70
8
 71
3
 72
8
 73
4
 74
0
 40
0
 40
0
 40
0
 40
0
 40
1
 40
1
 40
1
 40
1
 10
18.973267
 20
33.306773
 30
0.0
 10
18.279385
 20
34.646193
 30
0.0
 10
17.222718
 20
35.985983
 30
0.0
 10
17.438186
 20
37.596603
 30
0.0
  0
SPLINE
  5
192
100
AcDbEntity
  8
3d
 62
7
100
AcDbSpline
 70
8
 71
3
 72
8
 73
4
 74
0
 40
0
 40
0
 40
0
 40
0
 40
1
 40
1
 40
1
 40
1
 10
17.438186
 20
37.596603
 30
0.0
 10
17.738127
 20
40.248203
 30
0.0
 10
20.724252
 20
41.000933
 30
0.0
 10
21.484013
 20
40.997783
 30
0.0
  0
LWPOLYLINE
  5
193
100
AcDbEntity
  8
3d
 62
7
100
AcDbPolyline
 90
1
 70
1
 10
40.355103
 20
69.804214
 30
0.0
  0
SPLINE
  5
194
100
AcDbEntity
  8
edge_cuts
 62
3
100
AcDbSpline
 70
8
 71
3
 72
8
 73
4
 74
0
 40
0
 40
0
 40
0
 40
0
 40
1
 40
1
 40
1
 40
1
 10
40.640007
 20
73.424789
 30
0.0
 10
28.920800
 20
73.424789
 30
0.0
 10
18.355542
 20
66.365309
 30
0.0
 10
13.870795
 20
55.538173
 30
0.0
  0
SPLINE
  5
195
100
AcDbEntity
  8
edge_cuts
 62
3
100
AcDbSpline
 70
8
 71
3
 72
8
 73
4
 74
0
 40
0
 40
0
 40
0
 40
0
 40
1
 40
1
 40
1
 40
1
 10
13.870795
 20
55.538173
 30
0.0
 10
9.386049
 20
44.711038
 30
0.0
 10
11.865009
 20
32.248466
 30
0.0
 10
20.151739
 20
23.961736
 30
0.0
  0
SPLINE
  5
196
100
AcDbEntity
  8
edge_cuts
 62
3
100
AcDbSpline
 70
8
 71
3
 72
8
 73
4
 74
0
 40
0
 40
0
 40
0
 40
0
 40
1
 40
1
 40
1
 40
1
 10
20.151739
 20
23.961736
 30
0.0
 10
28.438470
 20
15.675005
 30
0.0
 10
40.901042
 20
13.196045
 30
0.0
 10
51.728177
 20
17.680792
 30
0.0
  0
SPLINE
  5
197
100
AcDbEntity
  8
edge_cuts
 62
3
100
AcDbSpline
 70
8
 71
3
 72
8
 73
4
 74
0
 40
0
 40
0
 40
0
 40
0
 40
1
 40
1
 40
1
 40
1
 10
51.728177
 20
17.680792
 30
0.0
 10
62.555313
 20
22.165538
 30
0.0
 10
69.614793
 20
32.730796
 30
0.0
 10
69.614793
 20
44.450003
 30
0.0
  0
SPLINE
  5
198
100
AcDbEntity
  8
edge_cuts
 62
3
100
AcDbSpline
 70
8
 71
3
 72
8
 73
4
 74
0
 40
0
 40
0
 40
0
 40
0
 40
1
 40
1
 40
1
 40
1
 10
69.614793
 20
44.450003
 30
0.0
 10
69.614793
 20
52.134594
 30
0.0
 10
66.562101
 20
59.504444
 30
0.0
 10
61.128274
 20
64.938270
 30
0.0
  0
SPLINE
  5
199
100
AcDbEntity
  8
edge_cuts
 62
3
100
AcDbSpline
 70
8
 71
3
 72
8
 73
4
 74
0
 40
0
 40
0
 40
0
 40
0
 40
1
 40
1
 40
1
 40
1
 10
61.128274
 20
64.938270
 30
0.0
 10
55.694448
 20
70.372097
 30
0.0
 10
48.324598
 20
73.424789
 30
0.0
 10
40.640007
 20
73.424789
 30
0.0
  0
LWPOLYLINE
  5
19a
100
AcDbEntity
  8
3d
 62
7
100
AcDbPolyline
 90
1
 70
1
 10
21.484013
 20
40.997783
 30
0.0
  0
LWPOLYLINE
  5
19b
100
AcDbEntity
  8
edge_cuts
 62
3
100
AcDbPolyline
 90
1
 70
1
 10
40.640007
 20
73.424789
 30
0.0
  0
ENDSEC
  0
SECTION
  2
OBJECTS
  0
DICTIONARY
  5
C
330
0
100
AcDbDictionary
  3
ACAD_GROUP
350
D
  3
ACAD_MLINESTYLE
350
17
  0
DICTIONARY
  5
D
330
C
100
AcDbDictionary
  0
DICTIONARY
  5
1A
330
C
100
AcDbDictionary
  0
DICTIONARY
  5
17
330
C
100
AcDbDictionary
  3
STANDARD
350
18
  0
DICTIONARY
  5
19
330
C
100
AcDbDictionary
  0
ENDSEC
  0
EOF
