<?xml version="1.0" encoding="UTF-8" standalone="no"?>
<svg
   xmlns:dc="http://purl.org/dc/elements/1.1/"
   xmlns:cc="http://creativecommons.org/ns#"
   xmlns:rdf="http://www.w3.org/1999/02/22-rdf-syntax-ns#"
   xmlns:svg="http://www.w3.org/2000/svg"
   xmlns="http://www.w3.org/2000/svg"
   xmlns:sodipodi="http://sodipodi.sourceforge.net/DTD/sodipodi-0.dtd"
   xmlns:inkscape="http://www.inkscape.org/namespaces/inkscape"
   width="81.280022mm"
   height="88.900002mm"
   viewBox="0 0 81.280022 88.900002"
   version="1.1"
   id="svg3362"
   inkscape:version="1.0.2-2 (e86c870879, 2021-01-15)"
   sodipodi:docname="exposed_copper.svg">
  <defs
     id="defs3356" />
  <sodipodi:namedview
     id="base"
     pagecolor="#ffffff"
     bordercolor="#666666"
     borderopacity="1.0"
     inkscape:pageopacity="0.0"
     inkscape:pageshadow="2"
     inkscape:zoom="0.35"
     inkscape:cx="1410.7429"
     inkscape:cy="1125.1428"
     inkscape:document-units="mm"
     inkscape:current-layer="layer1"
     inkscape:document-rotation="0"
     showgrid="false"
     inkscape:window-width="1566"
     inkscape:window-height="1033"
     inkscape:window-x="336"
     inkscape:window-y="0"
     inkscape:window-maximized="0" />
  <metadata
     id="metadata3359">
    <rdf:RDF>
      <cc:Work
         rdf:about="">
        <dc:format>image/svg+xml</dc:format>
        <dc:type
           rdf:resource="http://purl.org/dc/dcmitype/StillImage" />
        <dc:title></dc:title>
      </cc:Work>
    </rdf:RDF>
  </metadata>
  <g
     inkscape:label="Layer 1"
     inkscape:groupmode="layer"
     id="layer1"
     transform="translate(267.42572,149.52738)">
    <rect
       style="display:inline;fill:none;stroke:#000000;stroke-width:0.230414;stroke-miterlimit:4;stroke-dasharray:none;stroke-opacity:1"
       id="rect3276"
       width="81.049606"
       height="88.669586"
       x="-267.31052"
       y="-149.41217" />
    <g
       id="#00030aff"
       transform="matrix(0.10055808,0,0,0.10055808,-264.93378,-156.52064)"
       style="display:inline;fill:#939393;fill-opacity:0.940476">
      <path
         id="path15"
         d="m 306.3,399.37 c 16.94,-5.24 34.55,12.84 28.77,29.62 -4.12,16.7 -27.59,22.91 -39.36,10.32 -13.22,-11.81 -6.8,-36.26 10.59,-39.94 z"
         inkscape:connector-curvature="0"
         style="opacity:1;fill:#939393;fill-opacity:0.940476" />
      <path
         id="path17"
         d="m 404.35,407.41 c 11.3,-1.4 22.75,6.63 25.37,17.69 3.91,13.33 -6.34,28.17 -20.09,29.47 -14,2.17 -27.69,-10.52 -26.58,-24.64 0.29,-11.43 9.9,-21.6 21.3,-22.52 z"
         inkscape:connector-curvature="0"
         style="opacity:1;fill:#939393;fill-opacity:0.940476" />
    </g>
    <path
       style="display:inline;fill:#939393;fill-opacity:0.940476;stroke-width:0.119218"
       inkscape:connector-curvature="0"
       id="path36"
       d="m -227.1232,-94.7404 c 0.53153,-0.73252 0.68072,-1.57649 1.00811,-2.3679 0.5129,0.80438 0.95825,1.647 1.03465,2.52813 0.13528,0.017 0.27044,0.035 0.40682,0.055 0.55644,-0.65026 0.80083,-1.41816 1.30461,-2.08845 0.0618,0.64794 0.15421,1.29954 0.088,1.94446 0.0834,0.0524 0.24996,0.15735 0.33329,0.20981 0.65192,-0.51363 1.15017,-1.12076 1.54695,-1.76446 0.17671,0.57995 0.26899,1.16793 0.36275,1.755 0.96903,-0.16668 1.10167,-1.01312 1.71202,-1.48215 0.32464,0.0695 0.33096,0.37997 0.40413,0.58036 0.1155,0.83223 0.1275,1.66874 0.0827,2.49927 0.24047,1.31835 0.18426,2.6467 0.0542,3.95831 0.21332,0.0659 0.42514,0.1326 0.63975,0.19967 1.89672,-1.3921 2.32615,-3.5253 2.6548,-5.44766 0.37832,0.44468 0.59002,0.94353 0.828,1.42929 0.13425,0.0125 0.26966,0.0277 0.40494,0.0448 0.52333,-0.60698 0.71193,-1.32742 1.04968,-1.99785 0.3124,0.67187 0.41381,1.37867 0.74187,2.04683 0.071,0.17862 0.35233,0.21556 0.5396,0.30789 0.2725,-0.27586 0.50361,-0.57279 0.7078,-0.88132 0.26055,0.35535 0.53243,0.7086 0.85823,1.03579 0.15208,-0.15914 0.30156,-0.32054 0.45232,-0.4808 0.0422,0.01 0.1269,0.0328 0.16784,0.0434 0.1443,0.0886 0.26537,0.22028 0.45652,0.25239 0.86757,-0.82524 1.14425,-1.89822 1.5272,-2.89418 0.73744,0.80557 0.91809,1.81899 0.9987,2.74773 -0.59014,0.41331 -1.18608,0.8292 -1.80125,1.22595 -0.23488,-0.3459 -0.58161,-0.64104 -0.98579,-0.88578 -0.25898,0.44024 -0.23417,0.93813 -0.37539,1.40407 -0.33103,-0.0444 -0.66,-0.0958 -0.98755,-0.1479 -0.30971,0.54151 -0.23628,1.1535 -0.39238,1.7259 -1.37675,-0.2929 -1.4187,1.01617 -1.86772,1.63477 -0.23496,-0.16937 -0.47009,-0.33671 -0.70375,-0.50495 -0.122,-0.009 -0.36595,-0.0279 -0.4865,-0.0374 -0.74782,0.57297 -0.97206,1.38163 -1.34968,2.10913 -0.69338,-0.28852 -1.17788,-0.7476 -1.47,-1.2843 -0.22849,-0.49825 -0.94614,-0.637 -1.52914,-0.81528 -0.71068,0.53108 -1.18916,1.19943 -1.5557,1.8961 -0.0943,0.36021 0.20007,0.75957 -0.0457,1.09729 -0.35473,0.51396 -0.45868,1.09605 -0.56044,1.66909 -0.98768,-0.92801 -1.64934,-2.02562 -2.73285,-2.9107 -0.71494,0.88272 -0.15616,2.04009 -0.69472,2.98034 -0.78244,-0.81771 -1.35499,-1.75355 -2.36463,-2.44643 -0.26867,0.85406 -0.28925,1.74314 -0.49172,2.60605 -0.29328,-0.90628 0.0494,-1.82467 -0.30829,-2.72837 -0.88869,0.62017 -1.69608,1.29982 -2.47165,1.99866 -0.074,7.1e-4 -0.22196,0.001 -0.29589,7.1e-4 -0.0529,-0.98995 0.46488,-2.01208 -0.0365,-2.97967 -1.23048,0.52357 -1.89165,1.47772 -2.84624,2.21324 -0.12807,-0.0194 -0.25624,-0.0377 -0.38449,-0.0553 -0.0224,-1.482 -0.14368,-2.98288 -0.64386,-4.44305 -0.0969,-0.29586 -0.4386,-0.74451 -0.91589,-0.55225 -1.03727,0.38857 -1.83077,1.053 -2.56043,1.70557 -0.19634,-0.0684 -0.3912,-0.13785 -0.58441,-0.21022 0.0756,-0.73647 -0.29529,-1.48943 -1.02378,-2.03044 -0.40181,-0.0166 -0.78997,0.05 -1.17671,0.1004 -0.16659,-0.71147 -0.32832,-1.63805 -1.50469,-1.81284 -0.0327,-0.0571 -0.10077,-0.172 -0.13344,-0.22926 0.16818,-0.43894 0.22154,-0.90537 0.10281,-1.36632 -0.3449,-0.0291 -0.69225,-0.0463 -1.03336,-0.10275 -0.13197,-0.46932 0.12052,-0.94707 -0.13196,-1.41049 -0.57364,0.22489 -1.02673,0.57116 -1.37694,0.96952 -0.70728,-0.54427 -1.46209,-1.08757 -1.95968,-1.74795 -0.15633,-0.55763 0.26153,-1.07532 0.41901,-1.59937 0.0762,0.022 0.23019,0.0644 0.30788,0.0854 0.14062,0.64146 0.28751,1.30709 0.74331,1.88684 0.19959,0.0472 0.32464,-0.10597 0.47878,-0.16133 0.0489,-6.9e-4 0.14665,-0.001 0.19409,-0.001 0.118,0.16632 0.23445,0.33459 0.35228,0.50295 0.15498,-0.0809 0.30988,-0.16071 0.46477,-0.24058 0.50247,0.0944 1.00248,0.20063 1.50458,0.29895 0.40586,-0.46022 0.74461,-0.95098 1.07246,-1.44471 0.3731,0.48837 0.65566,1.00677 0.98708,1.50891 0.0765,10e-4 0.23086,0.009 0.30738,0.0125 0.39164,-0.48918 0.65962,-1.03229 1.09822,-1.49992 -5e-4,0.91547 -0.24854,1.83598 0.18317,2.73898 0.0348,1.29317 0.40043,2.67999 1.70053,3.67334 0.0887,-0.0405 0.26745,-0.12238 0.35611,-0.16285 0.17189,-1.02364 0.57861,-2.00417 0.58382,-3.05265 0.54429,-1.261 0.82287,-2.57912 1.23685,-3.86589 0.23214,0.77571 0.0155,1.56142 0.28805,2.3376 0.14402,0.0125 0.28656,0.0261 0.43049,0.0398 0.54345,-0.61343 0.91879,-1.29904 1.35586,-1.95668 0.0777,0.006 0.22997,0.019 0.30613,0.0256 -0.041,0.54859 -0.0516,1.09986 0.0104,1.65233 0.0923,0.0135 0.27442,0.0374 0.36684,0.0495 0.59171,-0.5271 1.00583,-1.14569 1.41398,-1.75967 0.16037,0.6709 0.0562,1.3669 0.41524,2.01618 0.13995,0.0125 0.27982,0.0235 0.42097,0.0368 0.28147,-0.80881 0.49243,-1.64119 0.96889,-2.39801 0.37575,0.77699 0.77357,1.55692 0.9439,2.36932 0.10101,0.009 0.3029,0.0306 0.40391,0.0405 z" />
  </g>
</svg>
