<?xml version="1.0" encoding="UTF-8" standalone="no"?>
<svg
   xmlns:dc="http://purl.org/dc/elements/1.1/"
   xmlns:cc="http://creativecommons.org/ns#"
   xmlns:rdf="http://www.w3.org/1999/02/22-rdf-syntax-ns#"
   xmlns:svg="http://www.w3.org/2000/svg"
   xmlns="http://www.w3.org/2000/svg"
   xmlns:sodipodi="http://sodipodi.sourceforge.net/DTD/sodipodi-0.dtd"
   xmlns:inkscape="http://www.inkscape.org/namespaces/inkscape"
   width="81.280022mm"
   height="88.900002mm"
   viewBox="0 0 81.280022 88.900002"
   version="1.1"
   id="svg3362"
   sodipodi:docname="exposed_fr4.svg"
   inkscape:version="1.0.2-2 (e86c870879, 2021-01-15)">
  <sodipodi:namedview
     pagecolor="#ffffff"
     bordercolor="#666666"
     borderopacity="1"
     objecttolerance="10"
     gridtolerance="10"
     guidetolerance="10"
     inkscape:pageopacity="0"
     inkscape:pageshadow="2"
     inkscape:window-width="1748"
     inkscape:window-height="1051"
     id="namedview4868"
     showgrid="false"
     inkscape:zoom="5.2380951"
     inkscape:cx="172.25807"
     inkscape:cy="138.71198"
     inkscape:window-x="163"
     inkscape:window-y="-9"
     inkscape:window-maximized="1"
     inkscape:current-layer="layer1" />
  <defs
     id="defs3356" />
  <metadata
     id="metadata3359">
    <rdf:RDF>
      <cc:Work
         rdf:about="">
        <dc:format>image/svg+xml</dc:format>
        <dc:type
           rdf:resource="http://purl.org/dc/dcmitype/StillImage" />
        <dc:title />
      </cc:Work>
    </rdf:RDF>
  </metadata>
  <g
     id="layer1"
     transform="translate(-65.193326,-103.71666)">
    <rect
       style="display:inline;fill:none;stroke:#000000;stroke-width:0.230414;stroke-miterlimit:4;stroke-dasharray:none;stroke-opacity:1"
       id="rect3276"
       width="81.049606"
       height="88.669586"
       x="65.308533"
       y="103.83187" />
    <path
       id="path7"
       style="display:inline;fill:#ececbc;fill-opacity:1;stroke-width:0.380062"
       d="m 124.7793,105.02539 c -0.78928,0.0141 -1.57703,0.0905 -2.34571,0.21875 -9.7866,1.98773 -18.15642,9.07345 -22.941402,17.68945 -3.279935,5.68952 -3.697826,13.6485 1.201172,18.57032 6.68909,6.57127 17.16799,8.17833 26.02344,5.95117 6.7461,-1.81671 12.50767,-7.58572 13.55664,-14.60547 0.96914,-6.38124 -0.99176,-12.79361 -3.7168,-18.50977 -1.34162,-2.67564 -2.47102,-5.71572 -5.08203,-7.43359 -1.94402,-1.39958 -4.32747,-1.92326 -6.69531,-1.88086 z"
       transform="matrix(0.26458334,0,0,0.26458334,65.193326,103.71666)" />
    <path
       style="display:inline;fill:#ececbc;fill-opacity:1;stroke-width:0.380062"
       d="m 168.98633,110.17578 c -0.43072,-0.003 -0.86318,0.0108 -1.29883,0.041 -3.75882,0.29265 -6.99723,2.76558 -8.79492,5.99609 -3.89564,6.27863 -6.69698,13.63801 -6.05469,21.13281 0.55487,7.11859 5.25299,13.71609 11.75586,16.64258 8.64642,3.66002 19.3572,3.48135 27.36133,-1.6875 5.27905,-3.32553 7.4896,-10.13733 5.91992,-16.0625 -1.67607,-7.20597 -6.32423,-13.35058 -11.73633,-18.23437 -4.80302,-4.06549 -10.69162,-7.77781 -17.15234,-7.82813 z"
       transform="matrix(0.26458334,0,0,0.26458334,65.193326,103.71666)"
       id="path5463" />
  </g>
</svg>
